<svg width="1173" height="543" viewBox="0 0 1173 543" fill="none" xmlns="http://www.w3.org/2000/svg">
<g clip-path="url(#clip0)">
<path d="M188.569 445.122C188.068 445.325 188.13 446.702 188.73 448.185C189.329 449.669 190.278 450.795 190.779 450.593L388.684 370.634C389.186 370.431 389.123 369.055 388.486 367.478C387.886 365.995 386.975 364.961 386.474 365.163L188.569 445.122Z" fill="#FACC15"/>
<path d="M348.125 383.893L330.144 339.388L328.217 340.167L346.198 384.672L348.125 383.893Z" fill="#FACC15"/>
<path d="M339.413 387.413L321.432 342.908L319.505 343.687L337.486 388.192L339.413 387.413Z" fill="#FACC15"/>
<path d="M369.365 375.311L351.384 330.807L349.456 331.585L367.437 376.09L369.365 375.311Z" fill="#FACC15"/>
<path d="M379.002 371.418L361.021 326.913L359.094 327.692L377.075 372.197L379.002 371.418Z" fill="#FACC15"/>
<path d="M360.653 378.831L342.672 334.327L340.744 335.105L358.726 379.61L360.653 378.831Z" fill="#FACC15"/>
<path d="M329.815 391.291L311.833 346.786L309.906 347.565L327.887 392.07L329.815 391.291Z" fill="#FACC15"/>
<path d="M321.103 394.811L303.122 350.306L301.194 351.085L319.175 395.589L321.103 394.811Z" fill="#FACC15"/>
<path d="M311.543 398.673L293.562 354.168L291.635 354.947L309.616 399.452L311.543 398.673Z" fill="#FACC15"/>
<path d="M302.793 402.209L284.812 357.704L282.884 358.482L300.865 402.987L302.793 402.209Z" fill="#FACC15"/>
<path d="M293.233 406.071L275.251 361.566L273.324 362.345L291.305 406.85L293.233 406.071Z" fill="#FACC15"/>
<path d="M284.521 409.591L266.54 365.086L264.612 365.865L282.593 410.37L284.521 409.591Z" fill="#FACC15"/>
<path d="M274.961 413.453L256.98 368.948L255.053 369.727L273.034 414.232L274.961 413.453Z" fill="#FACC15"/>
<path d="M266.211 416.989L248.229 372.484L246.302 373.263L264.283 417.767L266.211 416.989Z" fill="#FACC15"/>
<path d="M256.651 420.851L238.669 376.346L236.742 377.125L254.723 421.63L256.651 420.851Z" fill="#FACC15"/>
<path d="M247.939 424.371L229.958 379.866L228.03 380.645L246.011 425.15L247.939 424.371Z" fill="#FACC15"/>
<path d="M238.379 428.233L220.398 383.729L218.471 384.507L236.452 429.012L238.379 428.233Z" fill="#FACC15"/>
<path d="M229.629 431.769L211.647 387.264L209.72 388.043L227.701 432.547L229.629 431.769Z" fill="#FACC15"/>
<path d="M220.069 435.631L202.087 391.126L200.16 391.905L218.141 436.41L220.069 435.631Z" fill="#FACC15"/>
<path d="M211.357 439.151L193.375 394.646L191.448 395.425L209.429 439.93L211.357 439.151Z" fill="#FACC15"/>
<path d="M200.756 443.434L182.775 398.929L180.848 399.708L198.829 444.213L200.756 443.434Z" fill="#FACC15"/>
<path d="M170.438 400.247C169.937 400.449 170 401.826 170.599 403.309C171.198 404.793 172.147 405.919 172.648 405.717L370.554 325.758C371.055 325.556 370.992 324.179 370.355 322.603C369.756 321.119 368.845 320.085 368.343 320.288L170.438 400.247Z" fill="#FACC15"/>
</g>
<g clip-path="url(#clip1)">
<path d="M501.569 330.123C501.068 330.325 501.131 331.702 501.73 333.185C502.33 334.669 503.278 335.795 503.779 335.593L701.685 255.634C702.186 255.431 702.123 254.055 701.486 252.479C700.887 250.995 699.976 249.961 699.475 250.163L501.569 330.123Z" fill="#FACC15"/>
<path d="M661.126 268.893L643.145 224.388L641.217 225.167L659.198 269.672L661.126 268.893Z" fill="#FACC15"/>
<path d="M652.414 272.413L634.433 227.908L632.505 228.687L650.486 273.192L652.414 272.413Z" fill="#FACC15"/>
<path d="M682.365 260.312L664.384 215.807L662.457 216.585L680.438 261.09L682.365 260.312Z" fill="#FACC15"/>
<path d="M692.003 256.418L674.021 211.913L672.094 212.692L690.075 257.197L692.003 256.418Z" fill="#FACC15"/>
<path d="M673.653 263.831L655.672 219.327L653.745 220.105L671.726 264.61L673.653 263.831Z" fill="#FACC15"/>
<path d="M642.815 276.291L624.834 231.786L622.907 232.565L640.888 277.07L642.815 276.291Z" fill="#FACC15"/>
<path d="M634.103 279.811L616.122 235.306L614.195 236.085L632.176 280.59L634.103 279.811Z" fill="#FACC15"/>
<path d="M624.544 283.673L606.562 239.168L604.635 239.947L622.616 284.452L624.544 283.673Z" fill="#FACC15"/>
<path d="M615.793 287.209L597.812 242.704L595.885 243.483L613.866 287.987L615.793 287.209Z" fill="#FACC15"/>
<path d="M606.233 291.071L588.252 246.566L586.325 247.345L604.306 291.85L606.233 291.071Z" fill="#FACC15"/>
<path d="M597.521 294.591L579.54 250.086L577.613 250.865L595.594 295.37L597.521 294.591Z" fill="#FACC15"/>
<path d="M587.962 298.453L569.98 253.949L568.053 254.727L586.034 299.232L587.962 298.453Z" fill="#FACC15"/>
<path d="M579.211 301.989L561.23 257.484L559.303 258.263L577.284 302.768L579.211 301.989Z" fill="#FACC15"/>
<path d="M569.651 305.851L551.67 261.346L549.743 262.125L567.724 306.63L569.651 305.851Z" fill="#FACC15"/>
<path d="M560.939 309.371L542.958 264.866L541.031 265.645L559.012 310.15L560.939 309.371Z" fill="#FACC15"/>
<path d="M551.38 313.233L533.398 268.729L531.471 269.507L549.452 314.012L551.38 313.233Z" fill="#FACC15"/>
<path d="M542.629 316.769L524.648 272.264L522.721 273.043L540.702 317.548L542.629 316.769Z" fill="#FACC15"/>
<path d="M533.069 320.631L515.088 276.127L513.161 276.905L531.142 321.41L533.069 320.631Z" fill="#FACC15"/>
<path d="M524.357 324.151L506.376 279.646L504.449 280.425L522.43 324.93L524.357 324.151Z" fill="#FACC15"/>
<path d="M513.757 328.434L495.775 283.929L493.848 284.708L511.829 329.213L513.757 328.434Z" fill="#FACC15"/>
<path d="M483.438 285.247C482.937 285.449 483 286.826 483.6 288.309C484.199 289.793 485.147 290.92 485.649 290.717L683.554 210.758C684.055 210.556 683.992 209.179 683.355 207.603C682.756 206.119 681.845 205.085 681.344 205.288L483.438 285.247Z" fill="#FACC15"/>
</g>
<g clip-path="url(#clip2)">
<path d="M815.459 215.299C814.958 215.502 815.021 216.879 815.62 218.362C816.219 219.846 817.168 220.972 817.669 220.77L1015.57 140.811C1016.08 140.608 1016.01 139.232 1015.38 137.655C1014.78 136.172 1013.87 135.138 1013.36 135.34L815.459 215.299Z" fill="#FACC15"/>
<path d="M975.015 154.07L957.034 109.565L955.107 110.344L973.088 154.849L975.015 154.07Z" fill="#FACC15"/>
<path d="M966.303 157.59L948.322 113.085L946.395 113.864L964.376 158.369L966.303 157.59Z" fill="#FACC15"/>
<path d="M996.255 145.488L978.274 100.984L976.347 101.762L994.328 146.267L996.255 145.488Z" fill="#FACC15"/>
<path d="M1005.89 141.595L987.911 97.0901L985.984 97.8688L1003.96 142.374L1005.89 141.595Z" fill="#FACC15"/>
<path d="M987.543 149.008L969.562 104.504L967.635 105.282L985.616 149.787L987.543 149.008Z" fill="#FACC15"/>
<path d="M956.705 161.468L938.724 116.963L936.796 117.742L954.777 162.247L956.705 161.468Z" fill="#FACC15"/>
<path d="M947.993 164.988L930.012 120.483L928.084 121.262L946.065 165.766L947.993 164.988Z" fill="#FACC15"/>
<path d="M938.433 168.85L920.452 124.345L918.525 125.124L936.506 169.629L938.433 168.85Z" fill="#FACC15"/>
<path d="M929.683 172.386L911.702 127.881L909.774 128.659L927.755 173.164L929.683 172.386Z" fill="#FACC15"/>
<path d="M920.123 176.248L902.142 131.743L900.214 132.522L918.195 177.027L920.123 176.248Z" fill="#FACC15"/>
<path d="M911.411 179.768L893.43 135.263L891.502 136.042L909.483 180.547L911.411 179.768Z" fill="#FACC15"/>
<path d="M901.851 183.63L883.87 139.125L881.943 139.904L899.924 184.409L901.851 183.63Z" fill="#FACC15"/>
<path d="M893.101 187.166L875.12 142.661L873.192 143.44L891.173 187.944L893.101 187.166Z" fill="#FACC15"/>
<path d="M883.541 191.028L865.56 146.523L863.632 147.302L881.613 191.807L883.541 191.028Z" fill="#FACC15"/>
<path d="M874.829 194.548L856.848 150.043L854.92 150.822L872.901 195.327L874.829 194.548Z" fill="#FACC15"/>
<path d="M865.269 198.41L847.288 153.906L845.361 154.684L863.342 199.189L865.269 198.41Z" fill="#FACC15"/>
<path d="M856.519 201.946L838.538 157.441L836.61 158.22L854.591 202.724L856.519 201.946Z" fill="#FACC15"/>
<path d="M846.959 205.808L828.978 161.303L827.05 162.082L845.031 206.587L846.959 205.808Z" fill="#FACC15"/>
<path d="M838.247 209.328L820.266 164.823L818.338 165.602L836.319 210.107L838.247 209.328Z" fill="#FACC15"/>
<path d="M827.646 213.611L809.665 169.106L807.738 169.885L825.719 214.39L827.646 213.611Z" fill="#FACC15"/>
<path d="M797.328 170.424C796.827 170.626 796.89 172.003 797.489 173.486C798.089 174.97 799.037 176.096 799.538 175.894L997.444 95.935C997.945 95.7325 997.882 94.3559 997.245 92.7797C996.646 91.2962 995.735 90.2621 995.234 90.4646L797.328 170.424Z" fill="#FACC15"/>
</g>
<g filter="url(#filter0_d)">
<circle cx="430" cy="318" r="105" fill="white"/>
</g>
<path d="M387.362 307.091H389.067C388.989 304.896 386.965 303.256 384.152 303.256C381.368 303.256 379.181 304.875 379.181 307.318C379.181 309.278 380.601 310.443 382.874 311.097L384.664 311.608C386.198 312.034 387.561 312.574 387.561 314.023C387.561 315.614 386.027 316.665 384.01 316.665C382.277 316.665 380.743 315.898 380.601 314.25H378.783C378.953 316.636 380.885 318.256 384.01 318.256C387.362 318.256 389.266 316.409 389.266 314.051C389.266 311.324 386.681 310.443 385.175 310.045L383.698 309.648C382.618 309.364 380.885 308.795 380.885 307.233C380.885 305.841 382.164 304.818 384.095 304.818C385.857 304.818 387.192 305.656 387.362 307.091ZM396.366 318.227C398.781 318.227 400.372 316.75 400.656 314.818H398.98C398.667 316.011 397.673 316.722 396.366 316.722C394.378 316.722 393.099 315.074 393.099 312.545C393.099 310.074 394.406 308.455 396.366 308.455C397.844 308.455 398.724 309.364 398.98 310.358H400.656C400.372 308.312 398.639 306.949 396.338 306.949C393.383 306.949 391.423 309.278 391.423 312.602C391.423 315.869 393.298 318.227 396.366 318.227ZM404.782 311.438C404.782 309.534 405.997 308.455 407.652 308.455C409.229 308.455 410.18 309.449 410.18 311.182V318H411.856V311.068C411.856 308.263 410.365 306.949 408.135 306.949C406.416 306.949 405.436 307.666 404.925 308.795H404.782V303.455H403.106V318H404.782V311.438ZM419.497 318.227C421.713 318.227 423.332 317.119 423.843 315.472L422.224 315.017C421.798 316.153 420.811 316.722 419.497 316.722C417.529 316.722 416.173 315.45 416.095 313.114H424.014V312.403C424.014 308.341 421.599 306.949 419.326 306.949C416.372 306.949 414.411 309.278 414.411 312.631C414.411 315.983 416.343 318.227 419.497 318.227ZM416.095 311.665C416.208 309.967 417.409 308.455 419.326 308.455C421.144 308.455 422.309 309.818 422.309 311.665H416.095ZM430.683 318.227C432.785 318.227 433.495 316.92 433.865 316.324H434.063V318H435.683V303.455H434.007V308.824H433.865C433.495 308.256 432.842 306.949 430.711 306.949C427.955 306.949 426.052 309.136 426.052 312.574C426.052 316.04 427.955 318.227 430.683 318.227ZM430.91 316.722C428.808 316.722 427.728 314.875 427.728 312.545C427.728 310.244 428.779 308.455 430.91 308.455C432.955 308.455 434.035 310.102 434.035 312.545C434.035 315.017 432.927 316.722 430.91 316.722ZM445.86 313.54C445.86 315.585 444.298 316.523 443.048 316.523C441.656 316.523 440.661 315.5 440.661 313.909V307.091H438.985V314.023C438.985 316.807 440.463 318.142 442.508 318.142C444.156 318.142 445.235 317.261 445.747 316.153H445.86V318H447.536V307.091H445.86V313.54ZM452.282 303.455H450.606V318H452.282V303.455ZM459.926 318.227C462.142 318.227 463.762 317.119 464.273 315.472L462.654 315.017C462.227 316.153 461.24 316.722 459.926 316.722C457.959 316.722 456.602 315.45 456.524 313.114H464.443V312.403C464.443 308.341 462.029 306.949 459.756 306.949C456.801 306.949 454.841 309.278 454.841 312.631C454.841 315.983 456.773 318.227 459.926 318.227ZM456.524 311.665C456.638 309.967 457.838 308.455 459.756 308.455C461.574 308.455 462.739 309.818 462.739 311.665H456.524ZM475.828 318.256C477.732 318.256 478.726 317.233 479.067 316.523H479.152V318H480.828V310.812C480.828 307.347 478.186 306.949 476.794 306.949C475.146 306.949 473.271 307.517 472.419 309.506L474.01 310.074C474.379 309.278 475.253 308.426 476.851 308.426C478.392 308.426 479.152 309.243 479.152 310.642V310.699C479.152 311.509 478.328 311.438 476.34 311.693C474.316 311.956 472.107 312.403 472.107 314.903C472.107 317.034 473.754 318.256 475.828 318.256ZM476.084 316.75C474.749 316.75 473.783 316.153 473.783 314.989C473.783 313.71 474.948 313.312 476.254 313.142C476.965 313.057 478.868 312.858 479.152 312.517V314.051C479.152 315.415 478.073 316.75 476.084 316.75ZM385.914 331.091H383.47V329.983C383.47 328.903 383.925 328.335 385.033 328.335C385.516 328.335 385.8 328.449 385.97 328.506L386.453 327.057C386.198 326.943 385.686 326.773 384.862 326.773C383.3 326.773 381.794 327.71 381.794 329.585V331.091H380.033V332.511H381.794V342H383.47V332.511H385.914V331.091ZM388.263 342H389.939V335.097C389.939 333.619 391.104 332.54 392.694 332.54C393.142 332.54 393.604 332.625 393.717 332.653V330.949C393.525 330.935 393.085 330.92 392.836 330.92C391.53 330.92 390.393 331.659 389.996 332.739H389.882V331.091H388.263V342ZM399.946 342.227C402.162 342.227 403.781 341.119 404.292 339.472L402.673 339.017C402.247 340.153 401.26 340.722 399.946 340.722C397.979 340.722 396.622 339.45 396.544 337.114H404.463V336.403C404.463 332.341 402.048 330.949 399.775 330.949C396.821 330.949 394.861 333.278 394.861 336.631C394.861 339.983 396.792 342.227 399.946 342.227ZM396.544 335.665C396.657 333.967 397.858 332.455 399.775 332.455C401.594 332.455 402.758 333.818 402.758 335.665H396.544ZM411.586 342.227C413.802 342.227 415.422 341.119 415.933 339.472L414.314 339.017C413.888 340.153 412.9 340.722 411.586 340.722C409.619 340.722 408.263 339.45 408.184 337.114H416.104V336.403C416.104 332.341 413.689 330.949 411.416 330.949C408.461 330.949 406.501 333.278 406.501 336.631C406.501 339.983 408.433 342.227 411.586 342.227ZM408.184 335.665C408.298 333.967 409.498 332.455 411.416 332.455C413.234 332.455 414.399 333.818 414.399 335.665H408.184ZM429.363 327.455H427.602L423.966 329.869V331.659L427.517 329.301H427.602V342H429.363V327.455ZM440.876 335.438C440.876 333.534 442.091 332.455 443.746 332.455C445.322 332.455 446.274 333.449 446.274 335.182V342H447.95V335.068C447.95 332.263 446.459 330.949 444.229 330.949C442.51 330.949 441.53 331.666 441.018 332.795H440.876V327.455H439.2V342H440.876V335.438ZM455.448 342.227C458.403 342.227 460.392 339.983 460.392 336.602C460.392 333.193 458.403 330.949 455.448 330.949C452.494 330.949 450.505 333.193 450.505 336.602C450.505 339.983 452.494 342.227 455.448 342.227ZM455.448 340.722C453.204 340.722 452.181 338.79 452.181 336.602C452.181 334.415 453.204 332.455 455.448 332.455C457.693 332.455 458.715 334.415 458.715 336.602C458.715 338.79 457.693 340.722 455.448 340.722ZM469.825 337.54C469.825 339.585 468.263 340.523 467.013 340.523C465.621 340.523 464.626 339.5 464.626 337.909V331.091H462.95V338.023C462.95 340.807 464.427 342.142 466.473 342.142C468.121 342.142 469.2 341.261 469.711 340.153H469.825V342H471.501V331.091H469.825V337.54ZM474.571 342H476.247V335.097C476.247 333.619 477.412 332.54 479.003 332.54C479.45 332.54 479.912 332.625 480.026 332.653V330.949C479.834 330.935 479.394 330.92 479.145 330.92C477.838 330.92 476.702 331.659 476.304 332.739H476.191V331.091H474.571V342ZM370.468 366.227C372.57 366.227 373.28 364.92 373.65 364.324H373.849V366H375.468V351.455H373.792V356.824H373.65C373.28 356.256 372.627 354.949 370.496 354.949C367.741 354.949 365.837 357.136 365.837 360.574C365.837 364.04 367.741 366.227 370.468 366.227ZM370.695 364.722C368.593 364.722 367.513 362.875 367.513 360.545C367.513 358.244 368.564 356.455 370.695 356.455C372.741 356.455 373.82 358.102 373.82 360.545C373.82 363.017 372.712 364.722 370.695 364.722ZM383.344 366.227C385.56 366.227 387.18 365.119 387.691 363.472L386.072 363.017C385.645 364.153 384.658 364.722 383.344 364.722C381.377 364.722 380.02 363.45 379.942 361.114H387.861V360.403C387.861 356.341 385.447 354.949 383.174 354.949C380.219 354.949 378.259 357.278 378.259 360.631C378.259 363.983 380.191 366.227 383.344 366.227ZM379.942 359.665C380.056 357.967 381.256 356.455 383.174 356.455C384.992 356.455 386.157 357.818 386.157 359.665H379.942ZM390.411 366H392.087V359.182C392.087 357.584 393.252 356.455 394.559 356.455C395.83 356.455 396.718 357.286 396.718 358.528V366H398.422V358.898C398.422 357.491 399.303 356.455 400.837 356.455C402.03 356.455 403.053 357.087 403.053 358.699V366H404.729V358.699C404.729 356.135 403.351 354.949 401.405 354.949C399.843 354.949 398.699 355.666 398.138 356.795H398.025C397.485 355.631 396.533 354.949 395.099 354.949C393.678 354.949 392.627 355.631 392.172 356.795H392.03V355.091H390.411V366ZM412.226 366.227C415.18 366.227 417.169 363.983 417.169 360.602C417.169 357.193 415.18 354.949 412.226 354.949C409.271 354.949 407.282 357.193 407.282 360.602C407.282 363.983 409.271 366.227 412.226 366.227ZM412.226 364.722C409.981 364.722 408.959 362.79 408.959 360.602C408.959 358.415 409.981 356.455 412.226 356.455C414.47 356.455 415.493 358.415 415.493 360.602C415.493 362.79 414.47 364.722 412.226 364.722ZM433.08 357.534C432.554 355.986 431.375 354.949 429.216 354.949C426.915 354.949 425.21 356.256 425.21 358.102C425.21 359.608 426.105 360.616 428.108 361.085L429.926 361.511C431.027 361.767 431.546 362.293 431.546 363.045C431.546 363.983 430.551 364.75 428.989 364.75C427.618 364.75 426.759 364.161 426.46 362.989L424.869 363.386C425.26 365.24 426.787 366.227 429.017 366.227C431.553 366.227 433.279 364.842 433.279 362.96C433.279 361.44 432.327 360.482 430.381 360.006L428.762 359.608C427.469 359.288 426.887 358.855 426.887 358.017C426.887 357.08 427.881 356.398 429.216 356.398C430.679 356.398 431.283 357.207 431.574 357.96L433.08 357.534ZM440.376 366.227C442.591 366.227 444.211 365.119 444.722 363.472L443.103 363.017C442.677 364.153 441.689 364.722 440.376 364.722C438.408 364.722 437.052 363.45 436.974 361.114H444.893V360.403C444.893 356.341 442.478 354.949 440.205 354.949C437.251 354.949 435.29 357.278 435.29 360.631C435.29 363.983 437.222 366.227 440.376 366.227ZM436.974 359.665C437.087 357.967 438.287 356.455 440.205 356.455C442.023 356.455 443.188 357.818 443.188 359.665H436.974ZM455.17 357.534C454.644 355.986 453.465 354.949 451.306 354.949C449.005 354.949 447.3 356.256 447.3 358.102C447.3 359.608 448.195 360.616 450.198 361.085L452.016 361.511C453.117 361.767 453.635 362.293 453.635 363.045C453.635 363.983 452.641 364.75 451.079 364.75C449.708 364.75 448.849 364.161 448.55 362.989L446.959 363.386C447.35 365.24 448.877 366.227 451.107 366.227C453.643 366.227 455.368 364.842 455.368 362.96C455.368 361.44 454.417 360.482 452.471 360.006L450.851 359.608C449.559 359.288 448.976 358.855 448.976 358.017C448.976 357.08 449.971 356.398 451.306 356.398C452.769 356.398 453.373 357.207 453.664 357.96L455.17 357.534ZM465.619 357.534C465.093 355.986 463.914 354.949 461.755 354.949C459.454 354.949 457.749 356.256 457.749 358.102C457.749 359.608 458.644 360.616 460.647 361.085L462.465 361.511C463.566 361.767 464.085 362.293 464.085 363.045C464.085 363.983 463.09 364.75 461.528 364.75C460.157 364.75 459.298 364.161 458.999 362.989L457.409 363.386C457.799 365.24 459.326 366.227 461.556 366.227C464.092 366.227 465.818 364.842 465.818 362.96C465.818 361.44 464.866 360.482 462.92 360.006L461.301 359.608C460.008 359.288 459.426 358.855 459.426 358.017C459.426 357.08 460.42 356.398 461.755 356.398C463.218 356.398 463.822 357.207 464.113 357.96L465.619 357.534ZM468.341 366H470.017V355.091H468.341V366ZM469.193 353.273C469.846 353.273 470.386 352.761 470.386 352.136C470.386 351.511 469.846 351 469.193 351C468.54 351 468 351.511 468 352.136C468 352.761 468.54 353.273 469.193 353.273ZM477.519 366.227C480.473 366.227 482.462 363.983 482.462 360.602C482.462 357.193 480.473 354.949 477.519 354.949C474.564 354.949 472.575 357.193 472.575 360.602C472.575 363.983 474.564 366.227 477.519 366.227ZM477.519 364.722C475.274 364.722 474.252 362.79 474.252 360.602C474.252 358.415 475.274 356.455 477.519 356.455C479.763 356.455 480.786 358.415 480.786 360.602C480.786 362.79 479.763 364.722 477.519 364.722ZM486.697 359.438C486.697 357.534 487.876 356.455 489.481 356.455C491.036 356.455 491.981 357.47 491.981 359.182V366H493.657V359.068C493.657 356.284 492.172 354.949 489.964 354.949C488.316 354.949 487.293 355.688 486.782 356.795H486.64V355.091H485.02V366H486.697V359.438Z" fill="black"/>
<path d="M401.185 266.903H398.511L398.047 264.461C397.738 264.266 397.286 264.095 396.692 263.949C396.098 263.802 395.468 263.729 394.8 263.729C393.824 263.729 393.067 263.937 392.53 264.352C392.001 264.758 391.736 265.287 391.736 265.938C391.736 266.541 392.013 267.037 392.566 267.428C393.128 267.81 394.092 268.217 395.459 268.648C397.421 269.194 398.906 269.914 399.915 270.809C400.932 271.704 401.441 272.88 401.441 274.337C401.441 275.859 400.839 277.059 399.634 277.938C398.43 278.817 396.843 279.256 394.874 279.256C393.466 279.256 392.192 279.033 391.053 278.585C389.922 278.137 388.978 277.519 388.221 276.729V273.019H390.979L391.358 275.545C391.716 275.838 392.2 276.083 392.811 276.278C393.429 276.465 394.117 276.559 394.874 276.559C395.85 276.559 396.591 276.359 397.095 275.96C397.608 275.562 397.864 275.029 397.864 274.361C397.864 273.678 397.62 273.128 397.132 272.713C396.652 272.298 395.805 271.908 394.593 271.542C392.485 270.931 390.89 270.207 389.808 269.369C388.725 268.53 388.184 267.383 388.184 265.926C388.184 264.486 388.794 263.31 390.015 262.398C391.236 261.479 392.77 261.007 394.617 260.982C395.984 260.982 397.229 261.19 398.353 261.605C399.476 262.02 400.42 262.573 401.185 263.265V266.903ZM418.494 261.227V265.963H415.76L415.613 263.973H412.342V276.498L414.246 276.864V279H406.873V276.864L408.777 276.498V263.973H405.518L405.372 265.963H402.649V261.227H418.494ZM431.141 271.188H425.123V276.266H430.86L431.019 274.142H433.729V279H419.666V276.864L421.558 276.498V263.741L419.666 263.375V261.227H421.558H433.704V266.097H430.97L430.811 263.973H425.123V268.441H431.141V271.188ZM444.092 261.227C446.127 261.227 447.73 261.751 448.902 262.801C450.082 263.843 450.672 265.21 450.672 266.903C450.672 268.604 450.082 269.971 448.902 271.004C447.73 272.038 446.127 272.555 444.092 272.555H441.089V276.498L442.994 276.864V279H435.633V276.864L437.525 276.498V263.741L435.633 263.375V261.227H437.525H444.092ZM441.089 269.808H444.092C445.085 269.808 445.834 269.54 446.338 269.002C446.851 268.457 447.107 267.765 447.107 266.927C447.107 266.073 446.851 265.369 446.338 264.815C445.834 264.254 445.085 263.973 444.092 263.973H441.089V269.808ZM458.155 279V276.668L463.904 270.504C464.734 269.552 465.324 268.75 465.674 268.099C466.024 267.44 466.199 266.83 466.199 266.268C466.199 265.519 465.996 264.909 465.589 264.437C465.19 263.957 464.62 263.717 463.88 263.717C463.058 263.717 462.431 263.998 462 264.559C461.577 265.112 461.365 265.853 461.365 266.781H457.898L457.874 266.708C457.833 265.104 458.358 263.749 459.449 262.643C460.547 261.528 462.024 260.97 463.88 260.97C465.711 260.97 467.151 261.446 468.201 262.398C469.251 263.351 469.776 264.62 469.776 266.207C469.776 267.281 469.479 268.274 468.885 269.186C468.299 270.097 467.322 271.285 465.955 272.75L462.793 276.205L462.818 276.266H467.432L467.579 274.508H470.289V279H458.155Z" fill="black"/>
<g filter="url(#filter1_d)">
<circle cx="743" cy="215" r="105" fill="white"/>
</g>
<path d="M692.607 210H697.863C701.3 210 702.721 208.324 702.721 206.136C702.721 203.835 701.13 202.585 699.795 202.5V202.358C701.045 202.017 702.153 201.193 702.153 199.318C702.153 197.188 700.732 195.455 697.692 195.455H692.607V210ZM694.368 208.438V203.381H697.948C699.851 203.381 701.045 204.659 701.045 206.136C701.045 207.415 700.164 208.438 697.863 208.438H694.368ZM694.368 201.847V197.017H697.692C699.624 197.017 700.476 198.04 700.476 199.318C700.476 200.852 699.226 201.847 697.635 201.847H694.368ZM712.263 205.54C712.263 207.585 710.7 208.523 709.45 208.523C708.058 208.523 707.064 207.5 707.064 205.909V199.091H705.388V206.023C705.388 208.807 706.865 210.142 708.91 210.142C710.558 210.142 711.638 209.261 712.149 208.153H712.263V210H713.939V199.091H712.263V205.54ZM718.088 214.091C719.601 214.091 720.666 213.288 721.298 211.591L725.943 199.119L724.111 199.091L721.1 207.784H720.986L717.975 199.091H716.156L720.191 210.057L719.878 210.909C719.267 212.571 718.514 212.727 717.293 212.415L716.867 213.892C717.037 213.977 717.52 214.091 718.088 214.091ZM738.53 199.091H736.201V196.477H734.525V199.091H732.877V200.511H734.525V207.33C734.525 209.233 736.059 210.142 737.479 210.142C738.104 210.142 738.502 210.028 738.729 209.943L738.388 208.438C738.246 208.466 738.019 208.523 737.65 208.523C736.911 208.523 736.201 208.295 736.201 206.875V200.511H738.53V199.091ZM742.962 203.438C742.962 201.534 744.177 200.455 745.831 200.455C747.408 200.455 748.36 201.449 748.36 203.182V210H750.036V203.068C750.036 200.263 748.545 198.949 746.314 198.949C744.596 198.949 743.616 199.666 743.104 200.795H742.962V195.455H741.286V210H742.962V203.438ZM757.676 210.227C759.892 210.227 761.512 209.119 762.023 207.472L760.404 207.017C759.977 208.153 758.99 208.722 757.676 208.722C755.709 208.722 754.352 207.45 754.274 205.114H762.193V204.403C762.193 200.341 759.779 198.949 757.506 198.949C754.551 198.949 752.591 201.278 752.591 204.631C752.591 207.983 754.523 210.227 757.676 210.227ZM754.274 203.665C754.388 201.967 755.588 200.455 757.506 200.455C759.324 200.455 760.489 201.818 760.489 203.665H754.274ZM775.226 199.091H772.783V197.983C772.783 196.903 773.237 196.335 774.345 196.335C774.828 196.335 775.112 196.449 775.283 196.506L775.766 195.057C775.51 194.943 774.999 194.773 774.175 194.773C772.612 194.773 771.107 195.71 771.107 197.585V199.091H769.345V200.511H771.107V210H772.783V200.511H775.226V199.091ZM784.45 205.54C784.45 207.585 782.888 208.523 781.638 208.523C780.246 208.523 779.251 207.5 779.251 205.909V199.091H777.575V206.023C777.575 208.807 779.052 210.142 781.098 210.142C782.746 210.142 783.825 209.261 784.336 208.153H784.45V210H786.126V199.091H784.45V205.54ZM790.872 195.455H789.196V210H790.872V195.455ZM795.618 195.455H793.942V210H795.618V195.455ZM684.038 234.227C686.453 234.227 688.044 232.75 688.328 230.818H686.652C686.339 232.011 685.345 232.722 684.038 232.722C682.05 232.722 680.771 231.074 680.771 228.545C680.771 226.074 682.078 224.455 684.038 224.455C685.515 224.455 686.396 225.364 686.652 226.358H688.328C688.044 224.312 686.311 222.949 684.01 222.949C681.055 222.949 679.095 225.278 679.095 228.602C679.095 231.869 680.97 234.227 684.038 234.227ZM695.21 234.227C698.165 234.227 700.153 231.983 700.153 228.602C700.153 225.193 698.165 222.949 695.21 222.949C692.256 222.949 690.267 225.193 690.267 228.602C690.267 231.983 692.256 234.227 695.21 234.227ZM695.21 232.722C692.966 232.722 691.943 230.79 691.943 228.602C691.943 226.415 692.966 224.455 695.21 224.455C697.454 224.455 698.477 226.415 698.477 228.602C698.477 230.79 697.454 232.722 695.21 232.722ZM709.587 229.54C709.587 231.585 708.024 232.523 706.774 232.523C705.382 232.523 704.388 231.5 704.388 229.909V223.091H702.712V230.023C702.712 232.807 704.189 234.142 706.235 234.142C707.882 234.142 708.962 233.261 709.473 232.153H709.587V234H711.263V223.091H709.587V229.54ZM714.333 234H716.009V227.097C716.009 225.619 717.174 224.54 718.765 224.54C719.212 224.54 719.674 224.625 719.787 224.653V222.949C719.596 222.935 719.155 222.92 718.907 222.92C717.6 222.92 716.464 223.659 716.066 224.739H715.952V223.091H714.333V234ZM729.502 225.534C728.976 223.986 727.797 222.949 725.638 222.949C723.337 222.949 721.632 224.256 721.632 226.102C721.632 227.608 722.527 228.616 724.53 229.085L726.348 229.511C727.449 229.767 727.968 230.293 727.968 231.045C727.968 231.983 726.973 232.75 725.411 232.75C724.04 232.75 723.181 232.161 722.882 230.989L721.291 231.386C721.682 233.24 723.209 234.227 725.439 234.227C727.975 234.227 729.7 232.842 729.7 230.96C729.7 229.44 728.749 228.482 726.803 228.006L725.183 227.608C723.891 227.288 723.308 226.855 723.308 226.017C723.308 225.08 724.303 224.398 725.638 224.398C727.101 224.398 727.705 225.207 727.996 225.96L729.502 225.534ZM736.797 234.227C739.013 234.227 740.633 233.119 741.144 231.472L739.525 231.017C739.099 232.153 738.111 232.722 736.797 232.722C734.83 232.722 733.474 231.45 733.395 229.114H741.314V228.403C741.314 224.341 738.9 222.949 736.627 222.949C733.672 222.949 731.712 225.278 731.712 228.631C731.712 231.983 733.644 234.227 736.797 234.227ZM733.395 227.665C733.509 225.967 734.709 224.455 736.627 224.455C738.445 224.455 739.61 225.818 739.61 227.665H733.395ZM753.921 234.227C756.876 234.227 758.864 231.983 758.864 228.602C758.864 225.193 756.876 222.949 753.921 222.949C750.966 222.949 748.978 225.193 748.978 228.602C748.978 231.983 750.966 234.227 753.921 234.227ZM753.921 232.722C751.677 232.722 750.654 230.79 750.654 228.602C750.654 226.415 751.677 224.455 753.921 224.455C756.165 224.455 757.188 226.415 757.188 228.602C757.188 230.79 756.165 232.722 753.921 232.722ZM763.099 227.438C763.099 225.534 764.278 224.455 765.883 224.455C767.438 224.455 768.383 225.47 768.383 227.182V234H770.059V227.068C770.059 224.284 768.575 222.949 766.366 222.949C764.718 222.949 763.695 223.688 763.184 224.795H763.042V223.091H761.423V234H763.099V227.438ZM774.798 219.455H773.122V234H774.798V219.455ZM777.868 234H779.544V223.091H777.868V234ZM778.72 221.273C779.374 221.273 779.914 220.761 779.914 220.136C779.914 219.511 779.374 219 778.72 219C778.067 219 777.527 219.511 777.527 220.136C777.527 220.761 778.067 221.273 778.72 221.273ZM784.29 227.438C784.29 225.534 785.469 224.455 787.074 224.455C788.63 224.455 789.574 225.47 789.574 227.182V234H791.251V227.068C791.251 224.284 789.766 222.949 787.557 222.949C785.91 222.949 784.887 223.688 784.376 224.795H784.233V223.091H782.614V234H784.29V227.438ZM798.887 234.227C801.103 234.227 802.722 233.119 803.234 231.472L801.615 231.017C801.188 232.153 800.201 232.722 798.887 232.722C796.92 232.722 795.563 231.45 795.485 229.114H803.404V228.403C803.404 224.341 800.99 222.949 798.717 222.949C795.762 222.949 793.802 225.278 793.802 228.631C793.802 231.983 795.734 234.227 798.887 234.227ZM795.485 227.665C795.599 225.967 796.799 224.455 798.717 224.455C800.535 224.455 801.7 225.818 801.7 227.665H795.485ZM807.176 234.114C807.879 234.114 808.454 233.538 808.454 232.835C808.454 232.132 807.879 231.557 807.176 231.557C806.472 231.557 805.897 232.132 805.897 232.835C805.897 233.538 806.472 234.114 807.176 234.114ZM675.619 255.909H676.71L676.619 253.409L678.732 254.75L679.278 253.795L677.05 252.636L679.278 251.477L678.732 250.523L676.619 251.864L676.71 249.364H675.619L675.71 251.864L673.596 250.523L673.05 251.477L675.278 252.636L673.05 253.795L673.596 254.75L675.71 253.409L675.619 255.909ZM681.573 261H688.391V259.75H682.982V249.364H681.573V261ZM690.391 261H691.732V252.273H690.391V261ZM691.073 250.818C691.596 250.818 692.028 250.409 692.028 249.909C692.028 249.409 691.596 249 691.073 249C690.55 249 690.119 249.409 690.119 249.909C690.119 250.409 690.55 250.818 691.073 250.818ZM694.188 261H695.529V255.545C695.529 254.267 696.461 253.364 697.506 253.364C698.523 253.364 699.234 254.028 699.234 255.023V261H700.597V255.318C700.597 254.193 701.302 253.364 702.529 253.364C703.484 253.364 704.302 253.869 704.302 255.159V261H705.643V255.159C705.643 253.108 704.54 252.159 702.984 252.159C701.734 252.159 700.819 252.733 700.37 253.636H700.279C699.847 252.705 699.086 252.159 697.938 252.159C696.802 252.159 695.961 252.705 695.597 253.636H695.484V252.273H694.188V261ZM708.094 261H709.435V252.273H708.094V261ZM708.776 250.818C709.299 250.818 709.731 250.409 709.731 249.909C709.731 249.409 709.299 249 708.776 249C708.254 249 707.822 249.409 707.822 249.909C707.822 250.409 708.254 250.818 708.776 250.818ZM715.687 252.273H713.823V250.182H712.482V252.273H711.164V253.409H712.482V258.864C712.482 260.386 713.71 261.114 714.846 261.114C715.346 261.114 715.664 261.023 715.846 260.955L715.573 259.75C715.46 259.773 715.278 259.818 714.982 259.818C714.391 259.818 713.823 259.636 713.823 258.5V253.409H715.687V252.273ZM721.269 261.182C723.042 261.182 724.337 260.295 724.746 258.977L723.451 258.614C723.11 259.523 722.32 259.977 721.269 259.977C719.695 259.977 718.61 258.96 718.548 257.091H724.883V256.523C724.883 253.273 722.951 252.159 721.133 252.159C718.769 252.159 717.201 254.023 717.201 256.705C717.201 259.386 718.746 261.182 721.269 261.182ZM718.548 255.932C718.638 254.574 719.599 253.364 721.133 253.364C722.587 253.364 723.519 254.455 723.519 255.932H718.548ZM730.218 261.182C731.9 261.182 732.468 260.136 732.763 259.659H732.923V261H734.218V249.364H732.877V253.659H732.763C732.468 253.205 731.945 252.159 730.241 252.159C728.036 252.159 726.513 253.909 726.513 256.659C726.513 259.432 728.036 261.182 730.218 261.182ZM730.4 259.977C728.718 259.977 727.854 258.5 727.854 256.636C727.854 254.795 728.695 253.364 730.4 253.364C732.036 253.364 732.9 254.682 732.9 256.636C732.9 258.614 732.013 259.977 730.4 259.977ZM747.542 254.227C747.121 252.989 746.178 252.159 744.451 252.159C742.61 252.159 741.246 253.205 741.246 254.682C741.246 255.886 741.962 256.693 743.565 257.068L745.019 257.409C745.9 257.614 746.315 258.034 746.315 258.636C746.315 259.386 745.519 260 744.269 260C743.173 260 742.485 259.528 742.246 258.591L740.974 258.909C741.286 260.392 742.508 261.182 744.292 261.182C746.32 261.182 747.701 260.074 747.701 258.568C747.701 257.352 746.94 256.585 745.383 256.205L744.087 255.886C743.053 255.631 742.587 255.284 742.587 254.614C742.587 253.864 743.383 253.318 744.451 253.318C745.621 253.318 746.104 253.966 746.337 254.568L747.542 254.227ZM751.06 249.364H749.719V261H751.06V249.364ZM757.062 261.182C759.425 261.182 761.016 259.386 761.016 256.682C761.016 253.955 759.425 252.159 757.062 252.159C754.698 252.159 753.107 253.955 753.107 256.682C753.107 259.386 754.698 261.182 757.062 261.182ZM757.062 259.977C755.266 259.977 754.448 258.432 754.448 256.682C754.448 254.932 755.266 253.364 757.062 253.364C758.857 253.364 759.675 254.932 759.675 256.682C759.675 258.432 758.857 259.977 757.062 259.977ZM766.859 252.273H764.995V250.182H763.654V252.273H762.336V253.409H763.654V258.864C763.654 260.386 764.881 261.114 766.018 261.114C766.518 261.114 766.836 261.023 767.018 260.955L766.745 259.75C766.631 259.773 766.45 259.818 766.154 259.818C765.563 259.818 764.995 259.636 764.995 258.5V253.409H766.859V252.273ZM774.901 254.227C774.481 252.989 773.538 252.159 771.81 252.159C769.969 252.159 768.606 253.205 768.606 254.682C768.606 255.886 769.322 256.693 770.924 257.068L772.379 257.409C773.259 257.614 773.674 258.034 773.674 258.636C773.674 259.386 772.879 260 771.629 260C770.532 260 769.844 259.528 769.606 258.591L768.333 258.909C768.646 260.392 769.867 261.182 771.651 261.182C773.68 261.182 775.06 260.074 775.06 258.568C775.06 257.352 774.299 256.585 772.742 256.205L771.447 255.886C770.413 255.631 769.947 255.284 769.947 254.614C769.947 253.864 770.742 253.318 771.81 253.318C772.981 253.318 773.464 253.966 773.697 254.568L774.901 254.227ZM785.124 261.182C787.488 261.182 789.079 259.386 789.079 256.682C789.079 253.955 787.488 252.159 785.124 252.159C782.761 252.159 781.17 253.955 781.17 256.682C781.17 259.386 782.761 261.182 785.124 261.182ZM785.124 259.977C783.329 259.977 782.511 258.432 782.511 256.682C782.511 254.932 783.329 253.364 785.124 253.364C786.92 253.364 787.738 254.932 787.738 256.682C787.738 258.432 786.92 259.977 785.124 259.977ZM792.467 255.75C792.467 254.227 793.41 253.364 794.694 253.364C795.938 253.364 796.694 254.176 796.694 255.545V261H798.035V255.455C798.035 253.227 796.847 252.159 795.08 252.159C793.762 252.159 792.944 252.75 792.535 253.636H792.421V252.273H791.126V261H792.467V255.75ZM801.826 249.364H800.485V261H801.826V249.364ZM805.146 264.273C806.356 264.273 807.208 263.631 807.714 262.273L811.43 252.295L809.964 252.273L807.555 259.227H807.464L805.055 252.273H803.6L806.827 261.045L806.577 261.727C806.089 263.057 805.487 263.182 804.509 262.932L804.168 264.114C804.305 264.182 804.691 264.273 805.146 264.273ZM813.634 261.091C814.197 261.091 814.657 260.631 814.657 260.068C814.657 259.506 814.197 259.045 813.634 259.045C813.072 259.045 812.612 259.506 812.612 260.068C812.612 260.631 813.072 261.091 813.634 261.091Z" fill="black"/>
<path d="M715.185 159.903H712.511L712.047 157.461C711.738 157.266 711.286 157.095 710.692 156.949C710.098 156.802 709.468 156.729 708.8 156.729C707.824 156.729 707.067 156.937 706.53 157.352C706.001 157.758 705.736 158.287 705.736 158.938C705.736 159.541 706.013 160.037 706.566 160.428C707.128 160.81 708.092 161.217 709.459 161.648C711.421 162.194 712.906 162.914 713.915 163.809C714.932 164.704 715.441 165.88 715.441 167.337C715.441 168.859 714.839 170.059 713.634 170.938C712.43 171.817 710.843 172.256 708.874 172.256C707.466 172.256 706.192 172.033 705.053 171.585C703.922 171.137 702.978 170.519 702.221 169.729V166.019H704.979L705.358 168.545C705.716 168.838 706.2 169.083 706.811 169.278C707.429 169.465 708.117 169.559 708.874 169.559C709.85 169.559 710.591 169.359 711.095 168.96C711.608 168.562 711.864 168.029 711.864 167.361C711.864 166.678 711.62 166.128 711.132 165.713C710.652 165.298 709.805 164.908 708.593 164.542C706.485 163.931 704.89 163.207 703.808 162.369C702.725 161.53 702.184 160.383 702.184 158.926C702.184 157.486 702.794 156.31 704.015 155.398C705.236 154.479 706.77 154.007 708.617 153.982C709.984 153.982 711.229 154.19 712.353 154.605C713.476 155.02 714.42 155.573 715.185 156.265V159.903ZM732.494 154.227V158.963H729.76L729.613 156.973H726.342V169.498L728.246 169.864V172H720.873V169.864L722.777 169.498V156.973H719.518L719.372 158.963H716.649V154.227H732.494ZM745.141 164.188H739.123V169.266H744.86L745.019 167.142H747.729V172H733.666V169.864L735.558 169.498V156.741L733.666 156.375V154.227H735.558H747.704V159.097H744.97L744.811 156.973H739.123V161.441H745.141V164.188ZM758.092 154.227C760.127 154.227 761.73 154.751 762.902 155.801C764.082 156.843 764.672 158.21 764.672 159.903C764.672 161.604 764.082 162.971 762.902 164.004C761.73 165.038 760.127 165.555 758.092 165.555H755.089V169.498L756.994 169.864V172H749.633V169.864L751.525 169.498V156.741L749.633 156.375V154.227H751.525H758.092ZM755.089 162.808H758.092C759.085 162.808 759.834 162.54 760.338 162.002C760.851 161.457 761.107 160.765 761.107 159.927C761.107 159.073 760.851 158.369 760.338 157.815C759.834 157.254 759.085 156.973 758.092 156.973H755.089V162.808ZM775.915 161.6H777.917C778.763 161.6 779.389 161.38 779.796 160.94C780.203 160.493 780.407 159.874 780.407 159.085C780.407 158.369 780.203 157.795 779.796 157.364C779.389 156.932 778.799 156.717 778.026 156.717C777.359 156.717 776.798 156.912 776.342 157.303C775.886 157.693 775.658 158.206 775.658 158.841H772.204L772.179 158.768C772.13 157.376 772.663 156.229 773.778 155.325C774.893 154.422 776.277 153.97 777.929 153.97C779.768 153.97 781.233 154.41 782.323 155.289C783.422 156.167 783.971 157.421 783.971 159.048C783.971 159.821 783.727 160.558 783.239 161.258C782.75 161.95 782.079 162.491 781.225 162.881C782.209 163.231 782.958 163.768 783.471 164.493C783.992 165.217 784.252 166.059 784.252 167.02C784.252 168.647 783.658 169.929 782.47 170.865C781.29 171.792 779.776 172.256 777.929 172.256C776.277 172.256 774.857 171.821 773.668 170.95C772.488 170.071 771.919 168.834 771.959 167.239L771.984 167.166H775.438C775.438 167.85 775.683 168.415 776.171 168.863C776.659 169.302 777.278 169.522 778.026 169.522C778.848 169.522 779.495 169.294 779.967 168.838C780.447 168.383 780.688 167.764 780.688 166.983C780.688 166.047 780.451 165.363 779.979 164.932C779.516 164.493 778.828 164.273 777.917 164.273H775.915V161.6Z" fill="black"/>
<g filter="url(#filter2_d)">
<circle cx="1056" cy="112" r="105" fill="white"/>
</g>
<path d="M997.934 91.7273C997.934 87.125 995.236 84.2557 991.514 84.2557C987.792 84.2557 985.094 87.125 985.094 91.7273C985.094 96.3295 987.792 99.1989 991.514 99.1989C995.236 99.1989 997.934 96.3295 997.934 91.7273ZM996.23 91.7273C996.23 95.5057 994.156 97.5511 991.514 97.5511C988.872 97.5511 986.798 95.5057 986.798 91.7273C986.798 87.9489 988.872 85.9034 991.514 85.9034C994.156 85.9034 996.23 87.9489 996.23 91.7273ZM1007.54 94.5398C1007.54 96.5852 1005.98 97.5227 1004.73 97.5227C1003.34 97.5227 1002.34 96.5 1002.34 94.9091V88.0909H1000.67V95.0227C1000.67 97.8068 1002.15 99.142 1004.19 99.142C1005.84 99.142 1006.92 98.2614 1007.43 97.1534H1007.54V99H1009.22V88.0909H1007.54V94.5398ZM1017.03 88.0909H1014.7V85.4773H1013.03V88.0909H1011.38V89.5114H1013.03V96.3295C1013.03 98.233 1014.56 99.142 1015.98 99.142C1016.61 99.142 1017.01 99.0284 1017.23 98.9432L1016.89 97.4375C1016.75 97.4659 1016.52 97.5227 1016.15 97.5227C1015.41 97.5227 1014.7 97.2955 1014.7 95.875V89.5114H1017.03V88.0909ZM1023.87 99.2273C1026.28 99.2273 1027.88 97.75 1028.16 95.8182H1026.48C1026.17 97.0114 1025.18 97.7216 1023.87 97.7216C1021.88 97.7216 1020.6 96.0739 1020.6 93.5455C1020.6 91.0739 1021.91 89.4545 1023.87 89.4545C1025.35 89.4545 1026.23 90.3636 1026.48 91.358H1028.16C1027.88 89.3125 1026.14 87.9489 1023.84 87.9489C1020.89 87.9489 1018.93 90.2784 1018.93 93.6023C1018.93 96.8693 1020.8 99.2273 1023.87 99.2273ZM1033.82 99.2557C1035.72 99.2557 1036.72 98.233 1037.06 97.5227H1037.14V99H1038.82V91.8125C1038.82 88.3466 1036.18 87.9489 1034.79 87.9489C1033.14 87.9489 1031.26 88.517 1030.41 90.5057L1032 91.0739C1032.37 90.2784 1033.25 89.4261 1034.84 89.4261C1036.38 89.4261 1037.14 90.2429 1037.14 91.642V91.6989C1037.14 92.5085 1036.32 92.4375 1034.33 92.6932C1032.31 92.956 1030.1 93.4034 1030.1 95.9034C1030.1 98.0341 1031.75 99.2557 1033.82 99.2557ZM1034.08 97.75C1032.74 97.75 1031.78 97.1534 1031.78 95.9886C1031.78 94.7102 1032.94 94.3125 1034.25 94.142C1034.96 94.0568 1036.86 93.858 1037.14 93.517V95.0511C1037.14 96.4148 1036.06 97.75 1034.08 97.75ZM1041.88 99H1043.56V92.1818C1043.56 90.5838 1044.72 89.4545 1046.03 89.4545C1047.3 89.4545 1048.19 90.2855 1048.19 91.5284V99H1049.89V91.8977C1049.89 90.4915 1050.77 89.4545 1052.31 89.4545C1053.5 89.4545 1054.52 90.0866 1054.52 91.6989V99H1056.2V91.6989C1056.2 89.1349 1054.82 87.9489 1052.87 87.9489C1051.31 87.9489 1050.17 88.6662 1049.61 89.7955H1049.49C1048.95 88.6307 1048 87.9489 1046.57 87.9489C1045.15 87.9489 1044.1 88.6307 1043.64 89.7955H1043.5V88.0909H1041.88V99ZM1059.26 103.091H1060.94V97.3239H1061.08C1061.45 97.9205 1062.16 99.2273 1064.26 99.2273C1066.99 99.2273 1068.89 97.0398 1068.89 93.5739C1068.89 90.1364 1066.99 87.9489 1064.23 87.9489C1062.1 87.9489 1061.45 89.2557 1061.08 89.8239H1060.88V88.0909H1059.26V103.091ZM1060.91 93.5455C1060.91 91.1023 1061.99 89.4545 1064.04 89.4545C1066.17 89.4545 1067.22 91.2443 1067.22 93.5455C1067.22 95.875 1066.14 97.7216 1064.04 97.7216C1062.02 97.7216 1060.91 96.017 1060.91 93.5455ZM1078.33 94.5398C1078.33 96.5852 1076.76 97.5227 1075.51 97.5227C1074.12 97.5227 1073.13 96.5 1073.13 94.9091V88.0909H1071.45V95.0227C1071.45 97.8068 1072.93 99.142 1074.97 99.142C1076.62 99.142 1077.7 98.2614 1078.21 97.1534H1078.33V99H1080V88.0909H1078.33V94.5398ZM1090.8 90.5341C1090.27 88.9858 1089.09 87.9489 1086.93 87.9489C1084.63 87.9489 1082.93 89.2557 1082.93 91.1023C1082.93 92.608 1083.82 93.6165 1085.83 94.0852L1087.65 94.5114C1088.75 94.767 1089.26 95.2926 1089.26 96.0455C1089.26 96.983 1088.27 97.75 1086.71 97.75C1085.34 97.75 1084.48 97.1605 1084.18 95.9886L1082.59 96.3864C1082.98 98.2401 1084.51 99.2273 1086.74 99.2273C1089.27 99.2273 1091 97.8423 1091 95.9602C1091 94.4403 1090.05 93.4815 1088.1 93.0057L1086.48 92.608C1085.19 92.2884 1084.61 91.8551 1084.61 91.017C1084.61 90.0795 1085.6 89.3977 1086.93 89.3977C1088.4 89.3977 1089 90.2074 1089.29 90.9602L1090.8 90.5341ZM1101.62 99H1103.26L1105.65 90.6193H1105.82L1108.21 99H1109.86L1113.18 88.0909H1111.42L1109.06 96.4148H1108.95L1106.65 88.0909H1104.86L1102.53 96.4432H1102.41L1100.05 88.0909H1098.29L1101.62 99ZM1115.4 99H1117.07V88.0909H1115.4V99ZM1116.25 86.2727C1116.9 86.2727 1117.44 85.7614 1117.44 85.1364C1117.44 84.5114 1116.9 84 1116.25 84C1115.59 84 1115.05 84.5114 1115.05 85.1364C1115.05 85.7614 1115.59 86.2727 1116.25 86.2727ZM1121.82 84.4545H1120.14V99H1121.82V84.4545ZM1126.56 84.4545H1124.89V99H1126.56V84.4545ZM1002.42 123.256C1004.33 123.256 1005.32 122.233 1005.66 121.523H1005.75V123H1007.42V115.812C1007.42 112.347 1004.78 111.949 1003.39 111.949C1001.74 111.949 999.867 112.517 999.015 114.506L1000.61 115.074C1000.98 114.278 1001.85 113.426 1003.45 113.426C1004.99 113.426 1005.75 114.243 1005.75 115.642V115.699C1005.75 116.509 1004.92 116.438 1002.94 116.693C1000.91 116.956 998.702 117.403 998.702 119.903C998.702 122.034 1000.35 123.256 1002.42 123.256ZM1002.68 121.75C1001.34 121.75 1000.38 121.153 1000.38 119.989C1000.38 118.71 1001.54 118.312 1002.85 118.142C1003.56 118.057 1005.46 117.858 1005.75 117.517V119.051C1005.75 120.415 1004.67 121.75 1002.68 121.75ZM1018.21 114.534C1017.69 112.986 1016.51 111.949 1014.35 111.949C1012.05 111.949 1010.34 113.256 1010.34 115.102C1010.34 116.608 1011.24 117.616 1013.24 118.085L1015.06 118.511C1016.16 118.767 1016.68 119.293 1016.68 120.045C1016.68 120.983 1015.68 121.75 1014.12 121.75C1012.75 121.75 1011.89 121.161 1011.59 119.989L1010 120.386C1010.39 122.24 1011.92 123.227 1014.15 123.227C1016.68 123.227 1018.41 121.842 1018.41 119.96C1018.41 118.44 1017.46 117.482 1015.51 117.006L1013.89 116.608C1012.6 116.288 1012.02 115.855 1012.02 115.017C1012.02 114.08 1013.01 113.398 1014.35 113.398C1015.81 113.398 1016.41 114.207 1016.7 114.96L1018.21 114.534ZM1028.66 114.534C1028.13 112.986 1026.96 111.949 1024.8 111.949C1022.5 111.949 1020.79 113.256 1020.79 115.102C1020.79 116.608 1021.69 117.616 1023.69 118.085L1025.51 118.511C1026.61 118.767 1027.13 119.293 1027.13 120.045C1027.13 120.983 1026.13 121.75 1024.57 121.75C1023.2 121.75 1022.34 121.161 1022.04 119.989L1020.45 120.386C1020.84 122.24 1022.37 123.227 1024.6 123.227C1027.13 123.227 1028.86 121.842 1028.86 119.96C1028.86 118.44 1027.91 117.482 1025.96 117.006L1024.34 116.608C1023.05 116.288 1022.47 115.855 1022.47 115.017C1022.47 114.08 1023.46 113.398 1024.8 113.398C1026.26 113.398 1026.86 114.207 1027.15 114.96L1028.66 114.534ZM1031.38 123H1033.06V112.091H1031.38V123ZM1032.23 110.273C1032.89 110.273 1033.43 109.761 1033.43 109.136C1033.43 108.511 1032.89 108 1032.23 108C1031.58 108 1031.04 108.511 1031.04 109.136C1031.04 109.761 1031.58 110.273 1032.23 110.273ZM1043.86 114.534C1043.33 112.986 1042.15 111.949 1039.99 111.949C1037.69 111.949 1035.99 113.256 1035.99 115.102C1035.99 116.608 1036.88 117.616 1038.88 118.085L1040.7 118.511C1041.8 118.767 1042.32 119.293 1042.32 120.045C1042.32 120.983 1041.33 121.75 1039.76 121.75C1038.39 121.75 1037.53 121.161 1037.24 119.989L1035.64 120.386C1036.04 122.24 1037.56 123.227 1039.79 123.227C1042.33 123.227 1044.05 121.842 1044.05 119.96C1044.05 118.44 1043.1 117.482 1041.16 117.006L1039.54 116.608C1038.24 116.288 1037.66 115.855 1037.66 115.017C1037.66 114.08 1038.66 113.398 1039.99 113.398C1041.45 113.398 1042.06 114.207 1042.35 114.96L1043.86 114.534ZM1051.32 112.091H1048.99V109.477H1047.32V112.091H1045.67V113.511H1047.32V120.33C1047.32 122.233 1048.85 123.142 1050.27 123.142C1050.9 123.142 1051.29 123.028 1051.52 122.943L1051.18 121.438C1051.04 121.466 1050.81 121.523 1050.44 121.523C1049.7 121.523 1048.99 121.295 1048.99 119.875V113.511H1051.32V112.091ZM1060.55 127.091C1062.06 127.091 1063.13 126.288 1063.76 124.591L1068.4 112.119L1066.57 112.091L1063.56 120.784H1063.44L1060.43 112.091H1058.62L1062.65 123.057L1062.34 123.909C1061.73 125.571 1060.97 125.727 1059.75 125.415L1059.33 126.892C1059.5 126.977 1059.98 127.091 1060.55 127.091ZM1074.66 123.227C1077.62 123.227 1079.6 120.983 1079.6 117.602C1079.6 114.193 1077.62 111.949 1074.66 111.949C1071.71 111.949 1069.72 114.193 1069.72 117.602C1069.72 120.983 1071.71 123.227 1074.66 123.227ZM1074.66 121.722C1072.42 121.722 1071.39 119.79 1071.39 117.602C1071.39 115.415 1072.42 113.455 1074.66 113.455C1076.91 113.455 1077.93 115.415 1077.93 117.602C1077.93 119.79 1076.91 121.722 1074.66 121.722ZM1089.04 118.54C1089.04 120.585 1087.48 121.523 1086.23 121.523C1084.83 121.523 1083.84 120.5 1083.84 118.909V112.091H1082.16V119.023C1082.16 121.807 1083.64 123.142 1085.69 123.142C1087.33 123.142 1088.41 122.261 1088.92 121.153H1089.04V123H1090.71V112.091H1089.04V118.54ZM1099.41 123H1101.09V112.091H1099.41V123ZM1100.26 110.273C1100.91 110.273 1101.45 109.761 1101.45 109.136C1101.45 108.511 1100.91 108 1100.26 108C1099.61 108 1099.07 108.511 1099.07 109.136C1099.07 109.761 1099.61 110.273 1100.26 110.273ZM1105.83 116.438C1105.83 114.534 1107.01 113.455 1108.62 113.455C1110.17 113.455 1111.12 114.47 1111.12 116.182V123H1112.79V116.068C1112.79 113.284 1111.31 111.949 1109.1 111.949C1107.45 111.949 1106.43 112.688 1105.92 113.795H1105.77V112.091H1104.16V123H1105.83V116.438ZM990.32 138.534C989.794 136.986 988.615 135.949 986.456 135.949C984.155 135.949 982.451 137.256 982.451 139.102C982.451 140.608 983.346 141.616 985.348 142.085L987.167 142.511C988.267 142.767 988.786 143.293 988.786 144.045C988.786 144.983 987.792 145.75 986.229 145.75C984.858 145.75 983.999 145.161 983.701 143.989L982.11 144.386C982.5 146.24 984.027 147.227 986.257 147.227C988.793 147.227 990.519 145.842 990.519 143.96C990.519 142.44 989.567 141.482 987.621 141.006L986.002 140.608C984.709 140.288 984.127 139.855 984.127 139.017C984.127 138.08 985.121 137.398 986.456 137.398C987.919 137.398 988.523 138.207 988.814 138.96L990.32 138.534ZM997.474 147.227C999.888 147.227 1001.48 145.75 1001.76 143.818H1000.09C999.775 145.011 998.781 145.722 997.474 145.722C995.485 145.722 994.207 144.074 994.207 141.545C994.207 139.074 995.513 137.455 997.474 137.455C998.951 137.455 999.832 138.364 1000.09 139.358H1001.76C1001.48 137.312 999.746 135.949 997.445 135.949C994.491 135.949 992.531 138.278 992.531 141.602C992.531 144.869 994.406 147.227 997.474 147.227ZM1005.89 140.438C1005.89 138.534 1007.1 137.455 1008.76 137.455C1010.34 137.455 1011.29 138.449 1011.29 140.182V147H1012.96V140.068C1012.96 137.263 1011.47 135.949 1009.24 135.949C1007.52 135.949 1006.54 136.666 1006.03 137.795H1005.89V132.455H1004.21V147H1005.89V140.438ZM1020.6 147.227C1022.82 147.227 1024.44 146.119 1024.95 144.472L1023.33 144.017C1022.91 145.153 1021.92 145.722 1020.6 145.722C1018.64 145.722 1017.28 144.45 1017.2 142.114H1025.12V141.403C1025.12 137.341 1022.71 135.949 1020.43 135.949C1017.48 135.949 1015.52 138.278 1015.52 141.631C1015.52 144.983 1017.45 147.227 1020.6 147.227ZM1017.2 140.665C1017.32 138.967 1018.52 137.455 1020.43 137.455C1022.25 137.455 1023.42 138.818 1023.42 140.665H1017.2ZM1031.79 147.227C1033.89 147.227 1034.6 145.92 1034.97 145.324H1035.17V147H1036.79V132.455H1035.11V137.824H1034.97C1034.6 137.256 1033.95 135.949 1031.82 135.949C1029.06 135.949 1027.16 138.136 1027.16 141.574C1027.16 145.04 1029.06 147.227 1031.79 147.227ZM1032.02 145.722C1029.92 145.722 1028.84 143.875 1028.84 141.545C1028.84 139.244 1029.89 137.455 1032.02 137.455C1034.06 137.455 1035.14 139.102 1035.14 141.545C1035.14 144.017 1034.03 145.722 1032.02 145.722ZM1046.97 142.54C1046.97 144.585 1045.41 145.523 1044.16 145.523C1042.76 145.523 1041.77 144.5 1041.77 142.909V136.091H1040.09V143.023C1040.09 145.807 1041.57 147.142 1043.62 147.142C1045.26 147.142 1046.34 146.261 1046.85 145.153H1046.97V147H1048.64V136.091H1046.97V142.54ZM1053.39 132.455H1051.71V147H1053.39V132.455ZM1056.46 147H1058.14V136.091H1056.46V147ZM1057.31 134.273C1057.97 134.273 1058.51 133.761 1058.51 133.136C1058.51 132.511 1057.97 132 1057.31 132C1056.66 132 1056.12 132.511 1056.12 133.136C1056.12 133.761 1056.66 134.273 1057.31 134.273ZM1062.88 140.438C1062.88 138.534 1064.06 137.455 1065.67 137.455C1067.22 137.455 1068.17 138.47 1068.17 140.182V147H1069.84V140.068C1069.84 137.284 1068.36 135.949 1066.15 135.949C1064.5 135.949 1063.48 136.688 1062.97 137.795H1062.83V136.091H1061.21V147H1062.88V140.438ZM1077.31 151.318C1079.92 151.318 1082.02 150.125 1082.02 147.312V136.091H1080.41V137.824H1080.23C1079.87 137.256 1079.18 135.949 1077.05 135.949C1074.3 135.949 1072.39 138.136 1072.39 141.489C1072.39 144.898 1074.38 146.83 1077.02 146.83C1079.16 146.83 1079.84 145.58 1080.21 144.983H1080.35V147.199C1080.35 149.017 1079.07 149.841 1077.31 149.841C1075.33 149.841 1074.63 148.797 1074.18 148.193L1072.85 149.131C1073.53 150.274 1074.87 151.318 1077.31 151.318ZM1077.25 145.324C1075.15 145.324 1074.07 143.733 1074.07 141.46C1074.07 139.244 1075.12 137.455 1077.25 137.455C1079.3 137.455 1080.38 139.102 1080.38 141.46C1080.38 143.875 1079.27 145.324 1077.25 145.324ZM1091.8 151.091C1093.31 151.091 1094.38 150.288 1095.01 148.591L1099.65 136.119L1097.82 136.091L1094.81 144.784H1094.69L1091.68 136.091H1089.87L1093.9 147.057L1093.59 147.909C1092.98 149.571 1092.22 149.727 1091 149.415L1090.58 150.892C1090.75 150.977 1091.23 151.091 1091.8 151.091ZM1105.91 147.227C1108.87 147.227 1110.85 144.983 1110.85 141.602C1110.85 138.193 1108.87 135.949 1105.91 135.949C1102.96 135.949 1100.97 138.193 1100.97 141.602C1100.97 144.983 1102.96 147.227 1105.91 147.227ZM1105.91 145.722C1103.67 145.722 1102.64 143.79 1102.64 141.602C1102.64 139.415 1103.67 137.455 1105.91 137.455C1108.16 137.455 1109.18 139.415 1109.18 141.602C1109.18 143.79 1108.16 145.722 1105.91 145.722ZM1120.29 142.54C1120.29 144.585 1118.73 145.523 1117.48 145.523C1116.08 145.523 1115.09 144.5 1115.09 142.909V136.091H1113.41V143.023C1113.41 145.807 1114.89 147.142 1116.94 147.142C1118.58 147.142 1119.66 146.261 1120.17 145.153H1120.29V147H1121.96V136.091H1120.29V142.54ZM1125.03 147H1126.71V140.097C1126.71 138.619 1127.88 137.54 1129.47 137.54C1129.91 137.54 1130.38 137.625 1130.49 137.653V135.949C1130.3 135.935 1129.86 135.92 1129.61 135.92C1128.3 135.92 1127.16 136.659 1126.77 137.739H1126.65V136.091H1125.03V147ZM995.316 171.227C997.73 171.227 999.321 169.75 999.605 167.818H997.929C997.617 169.011 996.622 169.722 995.316 169.722C993.327 169.722 992.048 168.074 992.048 165.545C992.048 163.074 993.355 161.455 995.316 161.455C996.793 161.455 997.673 162.364 997.929 163.358H999.605C999.321 161.312 997.588 159.949 995.287 159.949C992.333 159.949 990.372 162.278 990.372 165.602C990.372 168.869 992.247 171.227 995.316 171.227ZM1003.73 164.438C1003.73 162.534 1004.95 161.455 1006.6 161.455C1008.18 161.455 1009.13 162.449 1009.13 164.182V171H1010.81V164.068C1010.81 161.263 1009.31 159.949 1007.08 159.949C1005.37 159.949 1004.39 160.666 1003.87 161.795H1003.73V156.455H1002.06V171H1003.73V164.438ZM1013.87 171H1015.55V160.091H1013.87V171ZM1014.72 158.273C1015.38 158.273 1015.92 157.761 1015.92 157.136C1015.92 156.511 1015.38 156 1014.72 156C1014.07 156 1013.53 156.511 1013.53 157.136C1013.53 157.761 1014.07 158.273 1014.72 158.273ZM1020.29 156.455H1018.62V171H1020.29V156.455ZM1027.48 171.227C1029.59 171.227 1030.3 169.92 1030.67 169.324H1030.86V171H1032.48V156.455H1030.81V161.824H1030.67C1030.3 161.256 1029.64 159.949 1027.51 159.949C1024.76 159.949 1022.85 162.136 1022.85 165.574C1022.85 169.04 1024.76 171.227 1027.48 171.227ZM1027.71 169.722C1025.61 169.722 1024.53 167.875 1024.53 165.545C1024.53 163.244 1025.58 161.455 1027.71 161.455C1029.76 161.455 1030.84 163.102 1030.84 165.545C1030.84 168.017 1029.73 169.722 1027.71 169.722ZM1037.26 156.455H1035.67V157.761C1035.67 158.812 1035.16 159.722 1034.56 160.574L1035.47 161.312C1036.61 160.403 1037.26 158.898 1037.26 157.733V156.455ZM1045.66 162.534C1045.14 160.986 1043.96 159.949 1041.8 159.949C1039.5 159.949 1037.79 161.256 1037.79 163.102C1037.79 164.608 1038.69 165.616 1040.69 166.085L1042.51 166.511C1043.61 166.767 1044.13 167.293 1044.13 168.045C1044.13 168.983 1043.13 169.75 1041.57 169.75C1040.2 169.75 1039.34 169.161 1039.04 167.989L1037.45 168.386C1037.84 170.24 1039.37 171.227 1041.6 171.227C1044.13 171.227 1045.86 169.842 1045.86 167.96C1045.86 166.44 1044.91 165.482 1042.96 165.006L1041.34 164.608C1040.05 164.288 1039.47 163.855 1039.47 163.017C1039.47 162.08 1040.46 161.398 1041.8 161.398C1043.26 161.398 1043.86 162.207 1044.16 162.96L1045.66 162.534ZM1058.44 171.227C1060.86 171.227 1062.45 169.75 1062.73 167.818H1061.05C1060.74 169.011 1059.75 169.722 1058.44 169.722C1056.45 169.722 1055.17 168.074 1055.17 165.545C1055.17 163.074 1056.48 161.455 1058.44 161.455C1059.92 161.455 1060.8 162.364 1061.05 163.358H1062.73C1062.45 161.312 1060.71 159.949 1058.41 159.949C1055.46 159.949 1053.5 162.278 1053.5 165.602C1053.5 168.869 1055.37 171.227 1058.44 171.227ZM1066.86 156.455H1065.18V171H1066.86V156.455ZM1073.14 171.256C1075.04 171.256 1076.03 170.233 1076.38 169.523H1076.46V171H1078.14V163.812C1078.14 160.347 1075.49 159.949 1074.1 159.949C1072.46 159.949 1070.58 160.517 1069.73 162.506L1071.32 163.074C1071.69 162.278 1072.56 161.426 1074.16 161.426C1075.7 161.426 1076.46 162.243 1076.46 163.642V163.699C1076.46 164.509 1075.64 164.438 1073.65 164.693C1071.62 164.956 1069.42 165.403 1069.42 167.903C1069.42 170.034 1071.06 171.256 1073.14 171.256ZM1073.39 169.75C1072.06 169.75 1071.09 169.153 1071.09 167.989C1071.09 166.71 1072.26 166.312 1073.56 166.142C1074.27 166.057 1076.18 165.858 1076.46 165.517V167.051C1076.46 168.415 1075.38 169.75 1073.39 169.75ZM1088.92 162.534C1088.4 160.986 1087.22 159.949 1085.06 159.949C1082.76 159.949 1081.05 161.256 1081.05 163.102C1081.05 164.608 1081.95 165.616 1083.95 166.085L1085.77 166.511C1086.87 166.767 1087.39 167.293 1087.39 168.045C1087.39 168.983 1086.4 169.75 1084.83 169.75C1083.46 169.75 1082.6 169.161 1082.3 167.989L1080.71 168.386C1081.1 170.24 1082.63 171.227 1084.86 171.227C1087.4 171.227 1089.12 169.842 1089.12 167.96C1089.12 166.44 1088.17 165.482 1086.22 165.006L1084.61 164.608C1083.31 164.288 1082.73 163.855 1082.73 163.017C1082.73 162.08 1083.72 161.398 1085.06 161.398C1086.52 161.398 1087.13 162.207 1087.42 162.96L1088.92 162.534ZM1099.37 162.534C1098.85 160.986 1097.67 159.949 1095.51 159.949C1093.21 159.949 1091.5 161.256 1091.5 163.102C1091.5 164.608 1092.4 165.616 1094.4 166.085L1096.22 166.511C1097.32 166.767 1097.84 167.293 1097.84 168.045C1097.84 168.983 1096.84 169.75 1095.28 169.75C1093.91 169.75 1093.05 169.161 1092.75 167.989L1091.16 168.386C1091.55 170.24 1093.08 171.227 1095.31 171.227C1097.85 171.227 1099.57 169.842 1099.57 167.96C1099.57 166.44 1098.62 165.482 1096.67 165.006L1095.05 164.608C1093.76 164.288 1093.18 163.855 1093.18 163.017C1093.18 162.08 1094.17 161.398 1095.51 161.398C1096.97 161.398 1097.58 162.207 1097.87 162.96L1099.37 162.534ZM1106.67 171.227C1108.88 171.227 1110.5 170.119 1111.02 168.472L1109.4 168.017C1108.97 169.153 1107.98 169.722 1106.67 169.722C1104.7 169.722 1103.34 168.45 1103.27 166.114H1111.19V165.403C1111.19 161.341 1108.77 159.949 1106.5 159.949C1103.54 159.949 1101.58 162.278 1101.58 165.631C1101.58 168.983 1103.52 171.227 1106.67 171.227ZM1103.27 164.665C1103.38 162.967 1104.58 161.455 1106.5 161.455C1108.32 161.455 1109.48 162.818 1109.48 164.665H1103.27ZM1121.46 162.534C1120.94 160.986 1119.76 159.949 1117.6 159.949C1115.3 159.949 1113.59 161.256 1113.59 163.102C1113.59 164.608 1114.49 165.616 1116.49 166.085L1118.31 166.511C1119.41 166.767 1119.93 167.293 1119.93 168.045C1119.93 168.983 1118.93 169.75 1117.37 169.75C1116 169.75 1115.14 169.161 1114.84 167.989L1113.25 168.386C1113.64 170.24 1115.17 171.227 1117.4 171.227C1119.94 171.227 1121.66 169.842 1121.66 167.96C1121.66 166.44 1120.71 165.482 1118.76 165.006L1117.14 164.608C1115.85 164.288 1115.27 163.855 1115.27 163.017C1115.27 162.08 1116.26 161.398 1117.6 161.398C1119.06 161.398 1119.67 162.207 1119.96 162.96L1121.46 162.534Z" fill="black"/>
<path d="M1027.18 50.9028H1024.51L1024.05 48.4614C1023.74 48.2661 1023.29 48.0952 1022.69 47.9487C1022.1 47.8022 1021.47 47.729 1020.8 47.729C1019.82 47.729 1019.07 47.9365 1018.53 48.3516C1018 48.7585 1017.74 49.2874 1017.74 49.9385C1017.74 50.5407 1018.01 51.0371 1018.57 51.4277C1019.13 51.8102 1020.09 52.2171 1021.46 52.6484C1023.42 53.1937 1024.91 53.9139 1025.92 54.8091C1026.93 55.7043 1027.44 56.8802 1027.44 58.3369C1027.44 59.8587 1026.84 61.0591 1025.63 61.938C1024.43 62.8169 1022.84 63.2563 1020.87 63.2563C1019.47 63.2563 1018.19 63.0326 1017.05 62.585C1015.92 62.1374 1014.98 61.5189 1014.22 60.7295V57.0186H1016.98L1017.36 59.5454C1017.72 59.8384 1018.2 60.0825 1018.81 60.2778C1019.43 60.465 1020.12 60.5586 1020.87 60.5586C1021.85 60.5586 1022.59 60.3592 1023.1 59.9604C1023.61 59.5617 1023.86 59.0286 1023.86 58.3613C1023.86 57.6777 1023.62 57.1284 1023.13 56.7134C1022.65 56.2983 1021.81 55.9077 1020.59 55.5415C1018.49 54.9312 1016.89 54.2069 1015.81 53.3687C1014.73 52.5304 1014.18 51.383 1014.18 49.9263C1014.18 48.4858 1014.79 47.3099 1016.02 46.3984C1017.24 45.4788 1018.77 45.0068 1020.62 44.9824C1021.98 44.9824 1023.23 45.1899 1024.35 45.605C1025.48 46.02 1026.42 46.5734 1027.18 47.2651V50.9028ZM1044.49 45.2266V49.9629H1041.76L1041.61 47.9731H1038.34V60.4976L1040.25 60.8638V63H1032.87V60.8638L1034.78 60.4976V47.9731H1031.52L1031.37 49.9629H1028.65V45.2266H1044.49ZM1057.14 55.1875H1051.12V60.2656H1056.86L1057.02 58.1416H1059.73V63H1045.67V60.8638L1047.56 60.4976V47.7412L1045.67 47.375V45.2266H1047.56H1059.7V50.0972H1056.97L1056.81 47.9731H1051.12V52.4409H1057.14V55.1875ZM1070.09 45.2266C1072.13 45.2266 1073.73 45.7515 1074.9 46.8013C1076.08 47.8429 1076.67 49.2101 1076.67 50.9028C1076.67 52.6037 1076.08 53.9709 1074.9 55.0044C1073.73 56.0379 1072.13 56.5547 1070.09 56.5547H1067.09V60.4976L1068.99 60.8638V63H1061.63V60.8638L1063.52 60.4976V47.7412L1061.63 47.375V45.2266H1063.52H1070.09ZM1067.09 53.8081H1070.09C1071.09 53.8081 1071.83 53.5396 1072.34 53.0024C1072.85 52.4572 1073.11 51.7655 1073.11 50.9272C1073.11 50.0728 1072.85 49.3688 1072.34 48.8154C1071.83 48.2539 1071.09 47.9731 1070.09 47.9731H1067.09V53.8081ZM1094.68 56.3838H1096.69V58.752H1094.68V60.4976L1096.57 60.8638V63H1089.22V60.8638L1091.12 60.4976V58.752H1083.87L1083.7 57.0063L1091.09 45.2266H1094.68V56.3838ZM1087.04 56.3838H1091.12V49.9751L1091.05 49.9507L1090.76 50.4634L1087.04 56.3838Z" fill="black"/>
<g filter="url(#filter3_d)">
<circle cx="117" cy="421" r="105" fill="white"/>
</g>
<path d="M90.1846 369.903H87.5112L87.0474 367.461C86.7381 367.266 86.2865 367.095 85.6924 366.949C85.0983 366.802 84.4676 366.729 83.8003 366.729C82.8237 366.729 82.0669 366.937 81.5298 367.352C81.0008 367.758 80.7363 368.287 80.7363 368.938C80.7363 369.541 81.013 370.037 81.5664 370.428C82.1279 370.81 83.0923 371.217 84.4595 371.648C86.4207 372.194 87.9059 372.914 88.915 373.809C89.9323 374.704 90.4409 375.88 90.4409 377.337C90.4409 378.859 89.8387 380.059 88.6343 380.938C87.4299 381.817 85.8429 382.256 83.8735 382.256C82.4657 382.256 81.1921 382.033 80.0527 381.585C78.9215 381.137 77.9775 380.519 77.2207 379.729V376.019H79.9795L80.3579 378.545C80.716 378.838 81.2002 379.083 81.8105 379.278C82.429 379.465 83.1167 379.559 83.8735 379.559C84.8501 379.559 85.5907 379.359 86.0952 378.96C86.6079 378.562 86.8643 378.029 86.8643 377.361C86.8643 376.678 86.6201 376.128 86.1318 375.713C85.6517 375.298 84.8053 374.908 83.5928 374.542C81.485 373.931 79.89 373.207 78.8076 372.369C77.7253 371.53 77.1841 370.383 77.1841 368.926C77.1841 367.486 77.7944 366.31 79.0151 365.398C80.2358 364.479 81.7699 364.007 83.6172 363.982C84.9844 363.982 86.2295 364.19 87.3525 364.605C88.4756 365.02 89.4196 365.573 90.1846 366.265V369.903ZM107.494 364.227V368.963H104.76L104.613 366.973H101.342V379.498L103.246 379.864V382H95.873V379.864L97.7773 379.498V366.973H94.5181L94.3716 368.963H91.6494V364.227H107.494ZM120.141 374.188H114.123V379.266H119.86L120.019 377.142H122.729V382H108.666V379.864L110.558 379.498V366.741L108.666 366.375V364.227H110.558H122.704V369.097H119.97L119.811 366.973H114.123V371.441H120.141V374.188ZM133.092 364.227C135.127 364.227 136.73 364.751 137.902 365.801C139.082 366.843 139.672 368.21 139.672 369.903C139.672 371.604 139.082 372.971 137.902 374.004C136.73 375.038 135.127 375.555 133.092 375.555H130.089V379.498L131.994 379.864V382H124.633V379.864L126.525 379.498V366.741L124.633 366.375V364.227H126.525H133.092ZM130.089 372.808H133.092C134.085 372.808 134.834 372.54 135.338 372.002C135.851 371.457 136.107 370.765 136.107 369.927C136.107 369.073 135.851 368.369 135.338 367.815C134.834 367.254 134.085 366.973 133.092 366.973H130.089V372.808ZM147.057 379.864L150.06 379.498V367.461H147.021V365.423L153.612 364.227V379.498L156.615 379.864V382H147.057V379.864Z" fill="black"/>
<path d="M45.6266 421H47.388V415.318H50.5698C50.6976 415.318 50.8184 415.318 50.9391 415.311L54.0073 421H56.0527L52.7644 414.991C54.6181 414.359 55.4846 412.847 55.4846 410.915C55.4846 408.344 53.9505 406.455 50.5414 406.455H45.6266V421ZM47.388 413.727V408.017H50.4846C52.8425 408.017 53.7516 409.168 53.7516 410.915C53.7516 412.662 52.8425 413.727 50.513 413.727H47.388ZM62.649 421.227C64.8649 421.227 66.4842 420.119 66.9956 418.472L65.3762 418.017C64.9501 419.153 63.9629 419.722 62.649 419.722C60.6816 419.722 59.3251 418.45 59.247 416.114H67.166V415.403C67.166 411.341 64.7512 409.949 62.4785 409.949C59.524 409.949 57.5637 412.278 57.5637 415.631C57.5637 418.983 59.4956 421.227 62.649 421.227ZM59.247 414.665C59.3606 412.967 60.5609 411.455 62.4785 411.455C64.2967 411.455 65.4615 412.818 65.4615 414.665H59.247ZM74.1191 425.318C76.7328 425.318 78.8351 424.125 78.8351 421.312V410.091H77.2157V411.824H77.0453C76.676 411.256 75.9941 409.949 73.8635 409.949C71.1078 409.949 69.2044 412.136 69.2044 415.489C69.2044 418.898 71.193 420.83 73.835 420.83C75.9657 420.83 76.6475 419.58 77.0169 418.983H77.1589V421.199C77.1589 423.017 75.8805 423.841 74.1191 423.841C72.1376 423.841 71.4416 422.797 70.9941 422.193L69.6589 423.131C70.3407 424.274 71.6831 425.318 74.1191 425.318ZM74.0623 419.324C71.96 419.324 70.8805 417.733 70.8805 415.46C70.8805 413.244 71.9316 411.455 74.0623 411.455C76.1078 411.455 77.1873 413.102 77.1873 415.46C77.1873 417.875 76.0794 419.324 74.0623 419.324ZM81.9032 421H83.5794V410.091H81.9032V421ZM82.7555 408.273C83.4089 408.273 83.9487 407.761 83.9487 407.136C83.9487 406.511 83.4089 406 82.7555 406C82.1021 406 81.5623 406.511 81.5623 407.136C81.5623 407.761 82.1021 408.273 82.7555 408.273ZM94.3766 412.534C93.851 410.986 92.6721 409.949 90.513 409.949C88.2118 409.949 86.5073 411.256 86.5073 413.102C86.5073 414.608 87.4022 415.616 89.405 416.085L91.2232 416.511C92.324 416.767 92.8425 417.293 92.8425 418.045C92.8425 418.983 91.8482 419.75 90.2857 419.75C88.915 419.75 88.0556 419.161 87.7573 417.989L86.1664 418.386C86.557 420.24 88.084 421.227 90.3141 421.227C92.8496 421.227 94.5755 419.842 94.5755 417.96C94.5755 416.44 93.6238 415.482 91.6777 415.006L90.0584 414.608C88.7658 414.288 88.1834 413.855 88.1834 413.017C88.1834 412.08 89.1777 411.398 90.513 411.398C91.976 411.398 92.5797 412.207 92.8709 412.96L94.3766 412.534ZM101.843 410.091H99.5133V407.477H97.8372V410.091H96.1895V411.511H97.8372V418.33C97.8372 420.233 99.3713 421.142 100.792 421.142C101.417 421.142 101.814 421.028 102.042 420.943L101.701 419.438C101.559 419.466 101.331 419.523 100.962 419.523C100.224 419.523 99.5133 419.295 99.5133 417.875V411.511H101.843V410.091ZM108.821 421.227C111.037 421.227 112.656 420.119 113.167 418.472L111.548 418.017C111.122 419.153 110.135 419.722 108.821 419.722C106.854 419.722 105.497 418.45 105.419 416.114H113.338V415.403C113.338 411.341 110.923 409.949 108.65 409.949C105.696 409.949 103.736 412.278 103.736 415.631C103.736 418.983 105.667 421.227 108.821 421.227ZM105.419 414.665C105.532 412.967 106.733 411.455 108.65 411.455C110.469 411.455 111.633 412.818 111.633 414.665H105.419ZM115.888 421H117.564V414.097C117.564 412.619 118.729 411.54 120.319 411.54C120.767 411.54 121.229 411.625 121.342 411.653V409.949C121.15 409.935 120.71 409.92 120.461 409.92C119.155 409.92 118.018 410.659 117.621 411.739H117.507V410.091H115.888V421ZM133.812 410.091H131.369V408.983C131.369 407.903 131.823 407.335 132.931 407.335C133.414 407.335 133.698 407.449 133.869 407.506L134.352 406.057C134.096 405.943 133.585 405.773 132.761 405.773C131.198 405.773 129.693 406.71 129.693 408.585V410.091H127.931V411.511H129.693V421H131.369V411.511H133.812V410.091ZM140.144 421.227C143.098 421.227 145.087 418.983 145.087 415.602C145.087 412.193 143.098 409.949 140.144 409.949C137.189 409.949 135.2 412.193 135.2 415.602C135.2 418.983 137.189 421.227 140.144 421.227ZM140.144 419.722C137.899 419.722 136.877 417.79 136.877 415.602C136.877 413.415 137.899 411.455 140.144 411.455C142.388 411.455 143.411 413.415 143.411 415.602C143.411 417.79 142.388 419.722 140.144 419.722ZM147.645 421H149.322V414.097C149.322 412.619 150.486 411.54 152.077 411.54C152.525 411.54 152.986 411.625 153.1 411.653V409.949C152.908 409.935 152.468 409.92 152.219 409.92C150.912 409.92 149.776 410.659 149.378 411.739H149.265V410.091H147.645V421ZM165.456 410.091H163.127V407.477H161.45V410.091H159.803V411.511H161.45V418.33C161.45 420.233 162.985 421.142 164.405 421.142C165.03 421.142 165.428 421.028 165.655 420.943L165.314 419.438C165.172 419.466 164.945 419.523 164.575 419.523C163.837 419.523 163.127 419.295 163.127 417.875V411.511H165.456V410.091ZM169.888 414.438C169.888 412.534 171.102 411.455 172.757 411.455C174.334 411.455 175.286 412.449 175.286 414.182V421H176.962V414.068C176.962 411.263 175.47 409.949 173.24 409.949C171.521 409.949 170.541 410.666 170.03 411.795H169.888V406.455H168.212V421H169.888V414.438ZM184.602 421.227C186.818 421.227 188.437 420.119 188.949 418.472L187.329 418.017C186.903 419.153 185.916 419.722 184.602 419.722C182.635 419.722 181.278 418.45 181.2 416.114H189.119V415.403C189.119 411.341 186.704 409.949 184.432 409.949C181.477 409.949 179.517 412.278 179.517 415.631C179.517 418.983 181.449 421.227 184.602 421.227ZM181.2 414.665C181.314 412.967 182.514 411.455 184.432 411.455C186.25 411.455 187.415 412.818 187.415 414.665H181.2ZM66.3954 449.091H68.0716V443.324H68.2136C68.5829 443.92 69.2931 445.227 71.3954 445.227C74.1227 445.227 76.0261 443.04 76.0261 439.574C76.0261 436.136 74.1227 433.949 71.367 433.949C69.2363 433.949 68.5829 435.256 68.2136 435.824H68.0147V434.091H66.3954V449.091ZM68.0431 439.545C68.0431 437.102 69.1227 435.455 71.1681 435.455C73.2988 435.455 74.35 437.244 74.35 439.545C74.35 441.875 73.2704 443.722 71.1681 443.722C69.1511 443.722 68.0431 442.017 68.0431 439.545ZM78.5829 445H80.2591V438.097C80.2591 436.619 81.4238 435.54 83.0147 435.54C83.4622 435.54 83.9238 435.625 84.0375 435.653V433.949C83.8457 433.935 83.4054 433.92 83.1568 433.92C81.85 433.92 80.7136 434.659 80.3159 435.739H80.2022V434.091H78.5829V445ZM90.1241 445.227C93.0787 445.227 95.0673 442.983 95.0673 439.602C95.0673 436.193 93.0787 433.949 90.1241 433.949C87.1696 433.949 85.1809 436.193 85.1809 439.602C85.1809 442.983 87.1696 445.227 90.1241 445.227ZM90.1241 443.722C87.8798 443.722 86.8571 441.79 86.8571 439.602C86.8571 437.415 87.8798 435.455 90.1241 435.455C92.3684 435.455 93.3912 437.415 93.3912 439.602C93.3912 441.79 92.3684 443.722 90.1241 443.722ZM102.029 449.318C104.643 449.318 106.745 448.125 106.745 445.312V434.091H105.126V435.824H104.955C104.586 435.256 103.904 433.949 101.774 433.949C99.0179 433.949 97.1145 436.136 97.1145 439.489C97.1145 442.898 99.1032 444.83 101.745 444.83C103.876 444.83 104.558 443.58 104.927 442.983H105.069V445.199C105.069 447.017 103.791 447.841 102.029 447.841C100.048 447.841 99.3517 446.797 98.9043 446.193L97.5691 447.131C98.2509 448.274 99.5932 449.318 102.029 449.318ZM101.972 443.324C99.8702 443.324 98.7907 441.733 98.7907 439.46C98.7907 437.244 99.8418 435.455 101.972 435.455C104.018 435.455 105.097 437.102 105.097 439.46C105.097 441.875 103.99 443.324 101.972 443.324ZM109.813 445H111.49V438.097C111.49 436.619 112.654 435.54 114.245 435.54C114.693 435.54 115.154 435.625 115.268 435.653V433.949C115.076 433.935 114.636 433.92 114.387 433.92C113.08 433.92 111.944 434.659 111.546 435.739H111.433V434.091H109.813V445ZM120.465 445.256C122.368 445.256 123.363 444.233 123.704 443.523H123.789V445H125.465V437.812C125.465 434.347 122.823 433.949 121.431 433.949C119.783 433.949 117.908 434.517 117.056 436.506L118.647 437.074C119.016 436.278 119.89 435.426 121.488 435.426C123.029 435.426 123.789 436.243 123.789 437.642V437.699C123.789 438.509 122.965 438.438 120.976 438.693C118.952 438.956 116.743 439.403 116.743 441.903C116.743 444.034 118.391 445.256 120.465 445.256ZM120.721 443.75C119.385 443.75 118.42 443.153 118.42 441.989C118.42 440.71 119.584 440.312 120.891 440.142C121.601 440.057 123.505 439.858 123.789 439.517V441.051C123.789 442.415 122.709 443.75 120.721 443.75ZM128.524 445H130.2V438.182C130.2 436.584 131.365 435.455 132.672 435.455C133.943 435.455 134.831 436.286 134.831 437.528V445H136.536V437.898C136.536 436.491 137.416 435.455 138.95 435.455C140.144 435.455 141.166 436.087 141.166 437.699V445H142.843V437.699C142.843 435.135 141.465 433.949 139.519 433.949C137.956 433.949 136.813 434.666 136.252 435.795H136.138C135.598 434.631 134.646 433.949 133.212 433.949C131.791 433.949 130.74 434.631 130.286 435.795H130.144V434.091H128.524V445ZM155.964 445.227C158.919 445.227 160.907 442.983 160.907 439.602C160.907 436.193 158.919 433.949 155.964 433.949C153.009 433.949 151.021 436.193 151.021 439.602C151.021 442.983 153.009 445.227 155.964 445.227ZM155.964 443.722C153.72 443.722 152.697 441.79 152.697 439.602C152.697 437.415 153.72 435.455 155.964 435.455C158.208 435.455 159.231 437.415 159.231 439.602C159.231 441.79 158.208 443.722 155.964 443.722ZM168.324 434.091H165.881V432.983C165.881 431.903 166.335 431.335 167.443 431.335C167.926 431.335 168.21 431.449 168.381 431.506L168.863 430.057C168.608 429.943 168.096 429.773 167.273 429.773C165.71 429.773 164.204 430.71 164.204 432.585V434.091H162.443V435.511H164.204V445H165.881V435.511H168.324V434.091ZM60.0726 473.062C61.5854 473.062 62.6578 472.26 63.2828 470.591L67.9277 458.119L66.0953 458.091L63.084 466.784H62.9703L59.959 458.091H58.1408L62.1749 469.057L61.8624 469.909C61.2658 471.543 60.4988 471.699 59.2772 471.386L58.851 472.864C59.0215 472.949 59.5044 473.062 60.0726 473.062ZM74.1866 469.227C77.1412 469.227 79.1298 466.983 79.1298 463.602C79.1298 460.193 77.1412 457.949 74.1866 457.949C71.2321 457.949 69.2434 460.193 69.2434 463.602C69.2434 466.983 71.2321 469.227 74.1866 469.227ZM74.1866 467.722C71.9423 467.722 70.9196 465.79 70.9196 463.602C70.9196 461.415 71.9423 459.455 74.1866 459.455C76.4309 459.455 77.4537 461.415 77.4537 463.602C77.4537 465.79 76.4309 467.722 74.1866 467.722ZM88.5634 464.54C88.5634 466.585 87.0009 467.523 85.7509 467.523C84.3588 467.523 83.3645 466.5 83.3645 464.909V458.091H81.6884V465.023C81.6884 467.807 83.1657 469.142 85.2111 469.142C86.8588 469.142 87.9384 468.261 88.4498 467.153H88.5634V469H90.2395V458.091H88.5634V464.54ZM93.3095 469H94.9856V462.097C94.9856 460.619 96.1504 459.54 97.7413 459.54C98.1887 459.54 98.6504 459.625 98.764 459.653V457.949C98.5723 457.935 98.1319 457.92 97.8833 457.92C96.5765 457.92 95.4402 458.659 95.0424 459.739H94.9288V458.091H93.3095V469ZM106.376 469H108.052V458.091H106.376V469ZM107.228 456.273C107.882 456.273 108.421 455.761 108.421 455.136C108.421 454.511 107.882 454 107.228 454C106.575 454 106.035 454.511 106.035 455.136C106.035 455.761 106.575 456.273 107.228 456.273ZM112.798 462.438C112.798 460.534 113.977 459.455 115.582 459.455C117.138 459.455 118.082 460.47 118.082 462.182V469H119.758V462.068C119.758 459.284 118.274 457.949 116.065 457.949C114.417 457.949 113.395 458.688 112.883 459.795H112.741V458.091H111.122V469H112.798V462.438ZM127.566 458.091H125.236V455.477H123.56V458.091H121.912V459.511H123.56V466.33C123.56 468.233 125.094 469.142 126.514 469.142C127.139 469.142 127.537 469.028 127.764 468.943L127.423 467.438C127.281 467.466 127.054 467.523 126.685 467.523C125.946 467.523 125.236 467.295 125.236 465.875V459.511H127.566V458.091ZM134.544 469.227C136.759 469.227 138.379 468.119 138.89 466.472L137.271 466.017C136.845 467.153 135.857 467.722 134.544 467.722C132.576 467.722 131.22 466.45 131.142 464.114H139.061V463.403C139.061 459.341 136.646 457.949 134.373 457.949C131.419 457.949 129.458 460.278 129.458 463.631C129.458 466.983 131.39 469.227 134.544 469.227ZM131.142 462.665C131.255 460.967 132.455 459.455 134.373 459.455C136.191 459.455 137.356 460.818 137.356 462.665H131.142ZM141.61 469H143.286V462.097C143.286 460.619 144.451 459.54 146.042 459.54C146.49 459.54 146.951 459.625 147.065 459.653V457.949C146.873 457.935 146.433 457.92 146.184 457.92C144.877 457.92 143.741 458.659 143.343 459.739H143.23V458.091H141.61V469ZM153.294 469.227C155.509 469.227 157.129 468.119 157.64 466.472L156.021 466.017C155.595 467.153 154.607 467.722 153.294 467.722C151.326 467.722 149.97 466.45 149.892 464.114H157.811V463.403C157.811 459.341 155.396 457.949 153.123 457.949C150.169 457.949 148.208 460.278 148.208 463.631C148.208 466.983 150.14 469.227 153.294 469.227ZM149.892 462.665C150.005 460.967 151.205 459.455 153.123 459.455C154.941 459.455 156.106 460.818 156.106 462.665H149.892ZM168.088 460.534C167.562 458.986 166.383 457.949 164.224 457.949C161.923 457.949 160.218 459.256 160.218 461.102C160.218 462.608 161.113 463.616 163.116 464.085L164.934 464.511C166.035 464.767 166.553 465.293 166.553 466.045C166.553 466.983 165.559 467.75 163.997 467.75C162.626 467.75 161.767 467.161 161.468 465.989L159.877 466.386C160.268 468.24 161.795 469.227 164.025 469.227C166.561 469.227 168.286 467.842 168.286 465.96C168.286 464.44 167.335 463.482 165.389 463.006L163.769 462.608C162.477 462.288 161.894 461.855 161.894 461.017C161.894 460.08 162.889 459.398 164.224 459.398C165.687 459.398 166.291 460.207 166.582 460.96L168.088 460.534ZM175.554 458.091H173.224V455.477H171.548V458.091H169.9V459.511H171.548V466.33C171.548 468.233 173.082 469.142 174.503 469.142C175.128 469.142 175.525 469.028 175.753 468.943L175.412 467.438C175.27 467.466 175.042 467.523 174.673 467.523C173.934 467.523 173.224 467.295 173.224 465.875V459.511H175.554V458.091Z" fill="black"/>
<defs>
<filter id="filter0_d" x="313" y="206" width="234" height="234" filterUnits="userSpaceOnUse" color-interpolation-filters="sRGB">
<feFlood flood-opacity="0" result="BackgroundImageFix"/>
<feColorMatrix in="SourceAlpha" type="matrix" values="0 0 0 0 0 0 0 0 0 0 0 0 0 0 0 0 0 0 127 0"/>
<feMorphology radius="2" operator="dilate" in="SourceAlpha" result="effect1_dropShadow"/>
<feOffset dy="5"/>
<feGaussianBlur stdDeviation="5"/>
<feColorMatrix type="matrix" values="0 0 0 0 0 0 0 0 0 0 0 0 0 0 0 0 0 0 0.1 0"/>
<feBlend mode="normal" in2="BackgroundImageFix" result="effect1_dropShadow"/>
<feBlend mode="normal" in="SourceGraphic" in2="effect1_dropShadow" result="shape"/>
</filter>
<filter id="filter1_d" x="626" y="103" width="234" height="234" filterUnits="userSpaceOnUse" color-interpolation-filters="sRGB">
<feFlood flood-opacity="0" result="BackgroundImageFix"/>
<feColorMatrix in="SourceAlpha" type="matrix" values="0 0 0 0 0 0 0 0 0 0 0 0 0 0 0 0 0 0 127 0"/>
<feMorphology radius="2" operator="dilate" in="SourceAlpha" result="effect1_dropShadow"/>
<feOffset dy="5"/>
<feGaussianBlur stdDeviation="5"/>
<feColorMatrix type="matrix" values="0 0 0 0 0 0 0 0 0 0 0 0 0 0 0 0 0 0 0.1 0"/>
<feBlend mode="normal" in2="BackgroundImageFix" result="effect1_dropShadow"/>
<feBlend mode="normal" in="SourceGraphic" in2="effect1_dropShadow" result="shape"/>
</filter>
<filter id="filter2_d" x="939" y="0" width="234" height="234" filterUnits="userSpaceOnUse" color-interpolation-filters="sRGB">
<feFlood flood-opacity="0" result="BackgroundImageFix"/>
<feColorMatrix in="SourceAlpha" type="matrix" values="0 0 0 0 0 0 0 0 0 0 0 0 0 0 0 0 0 0 127 0"/>
<feMorphology radius="2" operator="dilate" in="SourceAlpha" result="effect1_dropShadow"/>
<feOffset dy="5"/>
<feGaussianBlur stdDeviation="5"/>
<feColorMatrix type="matrix" values="0 0 0 0 0 0 0 0 0 0 0 0 0 0 0 0 0 0 0.1 0"/>
<feBlend mode="normal" in2="BackgroundImageFix" result="effect1_dropShadow"/>
<feBlend mode="normal" in="SourceGraphic" in2="effect1_dropShadow" result="shape"/>
</filter>
<filter id="filter3_d" x="0" y="309" width="234" height="234" filterUnits="userSpaceOnUse" color-interpolation-filters="sRGB">
<feFlood flood-opacity="0" result="BackgroundImageFix"/>
<feColorMatrix in="SourceAlpha" type="matrix" values="0 0 0 0 0 0 0 0 0 0 0 0 0 0 0 0 0 0 127 0"/>
<feMorphology radius="2" operator="dilate" in="SourceAlpha" result="effect1_dropShadow"/>
<feOffset dy="5"/>
<feGaussianBlur stdDeviation="5"/>
<feColorMatrix type="matrix" values="0 0 0 0 0 0 0 0 0 0 0 0 0 0 0 0 0 0 0.1 0"/>
<feBlend mode="normal" in2="BackgroundImageFix" result="effect1_dropShadow"/>
<feBlend mode="normal" in="SourceGraphic" in2="effect1_dropShadow" result="shape"/>
</filter>
<clipPath id="clip0">
<rect width="54.3" height="215.444" fill="white" transform="translate(369.269 319.914) rotate(68)"/>
</clipPath>
<clipPath id="clip1">
<rect width="54.3" height="215.444" fill="white" transform="translate(682.269 204.914) rotate(68)"/>
</clipPath>
<clipPath id="clip2">
<rect width="54.3" height="215.444" fill="white" transform="translate(996.159 90.0908) rotate(68)"/>
</clipPath>
</defs>
</svg>
