<svg width="367" height="584" viewBox="0 0 367 584" fill="none" xmlns="http://www.w3.org/2000/svg">
<g clip-path="url(#clip0)">
<path d="M89.0628 99.1939C88.6314 98.8683 87.4832 99.6304 86.5193 100.907C85.5554 102.185 85.077 103.577 85.5084 103.903L255.877 232.491C256.308 232.816 257.456 232.054 258.48 230.697C259.444 229.42 259.862 228.107 259.431 227.781L89.0628 99.1939Z" fill="#FACC15"/>
<path d="M223.643 204.529L252.56 166.216L250.9 164.964L221.984 203.276L223.643 204.529Z" fill="#FACC15"/>
<path d="M216.143 198.868L245.06 160.556L243.401 159.304L214.484 197.616L216.143 198.868Z" fill="#FACC15"/>
<path d="M241.928 218.329L270.844 180.017L269.185 178.765L240.268 217.077L241.928 218.329Z" fill="#FACC15"/>
<path d="M250.224 224.591L279.14 186.278L277.481 185.026L248.564 223.338L250.224 224.591Z" fill="#FACC15"/>
<path d="M234.428 212.668L263.344 174.356L261.685 173.104L232.769 211.416L234.428 212.668Z" fill="#FACC15"/>
<path d="M207.88 192.632L236.797 154.319L235.138 153.067L206.221 191.379L207.88 192.632Z" fill="#FACC15"/>
<path d="M200.381 186.971L229.297 148.659L227.638 147.407L198.722 185.719L200.381 186.971Z" fill="#FACC15"/>
<path d="M192.151 180.759L221.068 142.447L219.409 141.195L190.492 179.507L192.151 180.759Z" fill="#FACC15"/>
<path d="M184.618 175.074L213.535 136.762L211.876 135.51L182.959 173.822L184.618 175.074Z" fill="#FACC15"/>
<path d="M176.388 168.863L205.305 130.55L203.646 129.298L174.729 167.61L176.388 168.863Z" fill="#FACC15"/>
<path d="M168.889 163.202L197.805 124.89L196.146 123.638L167.23 161.95L168.889 163.202Z" fill="#FACC15"/>
<path d="M160.659 156.991L189.576 118.678L187.917 117.426L159 155.738L160.659 156.991Z" fill="#FACC15"/>
<path d="M153.126 151.305L182.043 112.993L180.384 111.741L151.467 150.053L153.126 151.305Z" fill="#FACC15"/>
<path d="M144.897 145.094L173.813 106.781L172.154 105.529L143.237 143.841L144.897 145.094Z" fill="#FACC15"/>
<path d="M137.397 139.433L166.314 101.121L164.654 99.8685L135.738 138.181L137.397 139.433Z" fill="#FACC15"/>
<path d="M129.167 133.222L158.084 94.9097L156.425 93.6573L127.508 131.97L129.167 133.222Z" fill="#FACC15"/>
<path d="M121.634 127.536L150.551 89.2241L148.892 87.9718L119.975 126.284L121.634 127.536Z" fill="#FACC15"/>
<path d="M113.405 121.325L142.321 83.0125L140.662 81.7601L111.746 120.072L113.405 121.325Z" fill="#FACC15"/>
<path d="M105.905 115.664L134.822 77.3521L133.162 76.0997L104.246 114.412L105.905 115.664Z" fill="#FACC15"/>
<path d="M96.7793 108.777L125.696 70.4644L124.037 69.212L95.1201 107.524L96.7793 108.777Z" fill="#FACC15"/>
<path d="M118.22 60.5623C117.789 60.2367 116.641 60.9988 115.677 62.2759C114.713 63.5529 114.235 64.9459 114.666 65.2715L285.034 193.859C285.466 194.185 286.614 193.423 287.638 192.066C288.602 190.789 289.02 189.475 288.589 189.15L118.22 60.5623Z" fill="#FACC15"/>
</g>
<g clip-path="url(#clip1)">
<path d="M89.3507 393.233C88.9193 392.907 87.7712 393.669 86.8073 394.946C85.8434 396.223 85.365 397.616 85.7964 397.942L256.165 526.529C256.596 526.855 257.744 526.093 258.768 524.736C259.732 523.459 260.15 522.146 259.719 521.82L89.3507 393.233Z" fill="#FACC15"/>
<path d="M223.931 498.567L252.848 460.255L251.188 459.003L222.272 497.315L223.931 498.567Z" fill="#FACC15"/>
<path d="M216.431 492.907L245.348 454.595L243.689 453.342L214.772 491.655L216.431 492.907Z" fill="#FACC15"/>
<path d="M242.215 512.368L271.132 474.056L269.473 472.803L240.556 511.116L242.215 512.368Z" fill="#FACC15"/>
<path d="M250.512 518.629L279.428 480.317L277.769 479.065L248.852 517.377L250.512 518.629Z" fill="#FACC15"/>
<path d="M234.716 506.707L263.632 468.395L261.973 467.143L233.057 505.455L234.716 506.707Z" fill="#FACC15"/>
<path d="M208.168 486.67L237.085 448.358L235.426 447.106L206.509 485.418L208.168 486.67Z" fill="#FACC15"/>
<path d="M200.669 481.01L229.585 442.698L227.926 441.445L199.01 479.758L200.669 481.01Z" fill="#FACC15"/>
<path d="M192.439 474.798L221.356 436.486L219.697 435.234L190.78 473.546L192.439 474.798Z" fill="#FACC15"/>
<path d="M184.906 469.113L213.823 430.801L212.164 429.548L183.247 467.861L184.906 469.113Z" fill="#FACC15"/>
<path d="M176.676 462.901L205.593 424.589L203.934 423.337L175.017 461.649L176.676 462.901Z" fill="#FACC15"/>
<path d="M169.177 457.241L198.093 418.929L196.434 417.676L167.518 455.989L169.177 457.241Z" fill="#FACC15"/>
<path d="M160.947 451.03L189.864 412.717L188.205 411.465L159.288 449.777L160.947 451.03Z" fill="#FACC15"/>
<path d="M153.414 445.344L182.331 407.032L180.672 405.779L151.755 444.092L153.414 445.344Z" fill="#FACC15"/>
<path d="M145.185 439.133L174.101 400.82L172.442 399.568L143.525 437.88L145.185 439.133Z" fill="#FACC15"/>
<path d="M137.685 433.472L166.602 395.16L164.942 393.907L136.026 432.22L137.685 433.472Z" fill="#FACC15"/>
<path d="M129.455 427.261L158.372 388.948L156.713 387.696L127.796 426.008L129.455 427.261Z" fill="#FACC15"/>
<path d="M121.922 421.575L150.839 383.263L149.18 382.011L120.263 420.323L121.922 421.575Z" fill="#FACC15"/>
<path d="M113.693 415.363L142.609 377.051L140.95 375.799L112.034 414.111L113.693 415.363Z" fill="#FACC15"/>
<path d="M106.193 409.703L135.11 371.391L133.45 370.139L104.534 408.451L106.193 409.703Z" fill="#FACC15"/>
<path d="M97.0673 402.815L125.984 364.503L124.325 363.251L95.4081 401.563L97.0673 402.815Z" fill="#FACC15"/>
<path d="M118.508 354.601C118.077 354.276 116.929 355.038 115.965 356.315C115.001 357.592 114.523 358.985 114.954 359.31L285.322 487.898C285.754 488.223 286.902 487.461 287.926 486.104C288.89 484.827 289.308 483.514 288.877 483.189L118.508 354.601Z" fill="#FACC15"/>
</g>
<g clip-path="url(#clip2)">
<path d="M133.508 377.315C133.145 377.715 133.8 378.927 134.984 380.003C136.169 381.078 137.513 381.68 137.876 381.28L281.34 223.235C281.703 222.835 281.048 221.623 279.79 220.48C278.605 219.405 277.335 218.869 276.972 219.27L133.508 377.315Z" fill="#FACC15"/>
<path d="M250.578 252.809L215.037 220.547L213.64 222.086L249.181 254.348L250.578 252.809Z" fill="#FACC15"/>
<path d="M244.263 259.766L208.722 227.504L207.325 229.043L242.866 261.305L244.263 259.766Z" fill="#FACC15"/>
<path d="M265.976 235.847L230.435 203.585L229.037 205.124L264.578 237.386L265.976 235.847Z" fill="#FACC15"/>
<path d="M272.962 228.151L237.421 195.889L236.023 197.428L271.564 229.69L272.962 228.151Z" fill="#FACC15"/>
<path d="M259.66 242.804L224.119 210.542L222.722 212.081L258.263 244.343L259.66 242.804Z" fill="#FACC15"/>
<path d="M237.305 267.431L201.764 235.169L200.367 236.708L235.908 268.97L237.305 267.431Z" fill="#FACC15"/>
<path d="M230.99 274.388L195.449 242.126L194.052 243.665L229.593 275.927L230.99 274.388Z" fill="#FACC15"/>
<path d="M224.06 282.023L188.519 249.761L187.122 251.3L222.663 283.562L224.06 282.023Z" fill="#FACC15"/>
<path d="M217.716 289.011L182.175 256.749L180.778 258.288L216.319 290.55L217.716 289.011Z" fill="#FACC15"/>
<path d="M210.786 296.645L175.245 264.383L173.848 265.922L209.389 298.184L210.786 296.645Z" fill="#FACC15"/>
<path d="M204.471 303.603L168.93 271.341L167.533 272.88L203.074 305.142L204.471 303.603Z" fill="#FACC15"/>
<path d="M197.541 311.237L162 278.975L160.603 280.514L196.144 312.776L197.541 311.237Z" fill="#FACC15"/>
<path d="M191.198 318.225L155.657 285.963L154.26 287.502L189.801 319.764L191.198 318.225Z" fill="#FACC15"/>
<path d="M184.268 325.859L148.727 293.597L147.329 295.136L182.87 327.398L184.268 325.859Z" fill="#FACC15"/>
<path d="M177.952 332.816L142.411 300.554L141.014 302.094L176.555 334.356L177.952 332.816Z" fill="#FACC15"/>
<path d="M171.022 340.451L135.481 308.189L134.084 309.728L169.625 341.99L171.022 340.451Z" fill="#FACC15"/>
<path d="M164.679 347.439L129.138 315.177L127.741 316.716L163.282 348.978L164.679 347.439Z" fill="#FACC15"/>
<path d="M157.749 355.073L122.208 322.811L120.811 324.35L156.352 356.612L157.749 355.073Z" fill="#FACC15"/>
<path d="M151.434 362.03L115.893 329.768L114.495 331.308L150.036 363.57L151.434 362.03Z" fill="#FACC15"/>
<path d="M143.749 370.496L108.208 338.234L106.811 339.773L142.352 372.035L143.749 370.496Z" fill="#FACC15"/>
<path d="M97.6707 344.784C97.3074 345.184 97.9626 346.396 99.1473 347.472C100.332 348.547 101.676 349.149 102.039 348.749L245.503 190.704C245.866 190.304 245.211 189.092 243.952 187.949C242.768 186.874 241.498 186.339 241.134 186.739L97.6707 344.784Z" fill="#FACC15"/>
</g>
<g filter="url(#filter0_d)">
<circle cx="82" cy="77" r="70" fill="white"/>
</g>
<path d="M64.0781 42.9246H62.3672L62.0703 41.3621C61.8724 41.2371 61.5833 41.1277 61.2031 41.0339C60.8229 40.9402 60.4193 40.8933 59.9922 40.8933C59.3672 40.8933 58.8828 41.0261 58.5391 41.2917C58.2005 41.5522 58.0312 41.8907 58.0312 42.3074C58.0312 42.6928 58.2083 43.0105 58.5625 43.2605C58.9219 43.5053 59.5391 43.7657 60.4141 44.0417C61.6693 44.3907 62.6198 44.8516 63.2656 45.4246C63.9167 45.9975 64.2422 46.7501 64.2422 47.6824C64.2422 48.6563 63.8568 49.4246 63.0859 49.9871C62.3151 50.5496 61.2995 50.8308 60.0391 50.8308C59.138 50.8308 58.3229 50.6876 57.5938 50.4011C56.8698 50.1147 56.2656 49.7188 55.7812 49.2136V46.8386H57.5469L57.7891 48.4558C58.0182 48.6433 58.3281 48.7996 58.7188 48.9246C59.1146 49.0444 59.5547 49.1042 60.0391 49.1042C60.6641 49.1042 61.138 48.9766 61.4609 48.7214C61.7891 48.4662 61.9531 48.1251 61.9531 47.698C61.9531 47.2605 61.7969 46.9089 61.4844 46.6433C61.1771 46.3777 60.6354 46.1277 59.8594 45.8933C58.5104 45.5027 57.4896 45.0391 56.7969 44.5027C56.1042 43.9662 55.7578 43.2319 55.7578 42.2996C55.7578 41.3777 56.1484 40.6251 56.9297 40.0417C57.7109 39.4532 58.6927 39.1511 59.875 39.1355C60.75 39.1355 61.5469 39.2683 62.2656 39.5339C62.9844 39.7996 63.5885 40.1537 64.0781 40.5964V42.9246ZM75.1562 39.2917V42.323H73.4062L73.3125 41.0496H71.2188V49.0652L72.4375 49.2996V50.6667H67.7188V49.2996L68.9375 49.0652V41.0496H66.8516L66.7578 42.323H65.0156V39.2917H75.1562ZM83.25 45.6667H79.3984V48.9167H83.0703L83.1719 47.5574H84.9062V50.6667H75.9062V49.2996L77.1172 49.0652V40.9011L75.9062 40.6667V39.2917H77.1172H84.8906V42.4089H83.1406L83.0391 41.0496H79.3984V43.9089H83.25V45.6667ZM91.5391 39.2917C92.8411 39.2917 93.8672 39.6277 94.6172 40.2996C95.3724 40.9662 95.75 41.8412 95.75 42.9246C95.75 44.0131 95.3724 44.8881 94.6172 45.5496C93.8672 46.211 92.8411 46.5417 91.5391 46.5417H89.6172V49.0652L90.8359 49.2996V50.6667H86.125V49.2996L87.3359 49.0652V40.9011L86.125 40.6667V39.2917H87.3359H91.5391ZM89.6172 44.7839H91.5391C92.1745 44.7839 92.6536 44.6121 92.9766 44.2683C93.3047 43.9194 93.4688 43.4766 93.4688 42.9402C93.4688 42.3933 93.3047 41.9428 92.9766 41.5886C92.6536 41.2292 92.1745 41.0496 91.5391 41.0496H89.6172V44.7839ZM100.477 49.2996L102.398 49.0652V41.3621H100.453V40.0574L104.672 39.2917V49.0652L106.594 49.2996V50.6667H100.477V49.2996Z" fill="black"/>
<path d="M44.8423 78.3333H46.0753V74.356H48.3026C48.392 74.356 48.4766 74.356 48.5611 74.351L50.7088 78.3333H52.1406L49.8388 74.1273C51.1364 73.6848 51.7429 72.6259 51.7429 71.2736C51.7429 69.4739 50.669 68.1514 48.2827 68.1514H44.8423V78.3333ZM46.0753 73.2423V69.2452H48.2429C49.8935 69.2452 50.5298 70.0506 50.5298 71.2736C50.5298 72.4966 49.8935 73.2423 48.2628 73.2423H46.0753ZM56.758 78.4923C58.3091 78.4923 59.4426 77.7168 59.8006 76.5634L58.6671 76.2452C58.3688 77.0406 57.6777 77.4384 56.758 77.4384C55.3809 77.4384 54.4313 76.5485 54.3766 74.9128H59.9199V74.4156C59.9199 71.5719 58.2296 70.5975 56.6387 70.5975C54.5705 70.5975 53.1983 72.2281 53.1983 74.5747C53.1983 76.9213 54.5506 78.4923 56.758 78.4923ZM54.3766 73.8986C54.4561 72.7104 55.2963 71.6514 56.6387 71.6514C57.9114 71.6514 58.7267 72.606 58.7267 73.8986H54.3766ZM64.7871 81.356C66.6167 81.356 68.0882 80.5208 68.0882 78.552V70.6969H66.9547V71.91H66.8354C66.5769 71.5122 66.0996 70.5975 64.6081 70.5975C62.6792 70.5975 61.3468 72.1287 61.3468 74.4753C61.3468 76.8617 62.7388 78.2139 64.5882 78.2139C66.0797 78.2139 66.557 77.3389 66.8155 76.9213H66.915V78.4725C66.915 79.7452 66.0201 80.3219 64.7871 80.3219C63.4 80.3219 62.9128 79.5911 62.5996 79.1685L61.665 79.8247C62.1422 80.6252 63.0819 81.356 64.7871 81.356ZM64.7473 77.16C63.2757 77.16 62.5201 76.0463 62.5201 74.4554C62.5201 72.9043 63.2559 71.6514 64.7473 71.6514C66.1792 71.6514 66.9348 72.8048 66.9348 74.4554C66.9348 76.1458 66.1593 77.16 64.7473 77.16ZM70.236 78.3333H71.4093V70.6969H70.236V78.3333ZM70.8326 69.4242C71.29 69.4242 71.6678 69.0662 71.6678 68.6287C71.6678 68.1912 71.29 67.8333 70.8326 67.8333C70.3752 67.8333 69.9973 68.1912 69.9973 68.6287C69.9973 69.0662 70.3752 69.4242 70.8326 69.4242ZM78.9673 72.4071C78.5994 71.3233 77.7741 70.5975 76.2628 70.5975C74.652 70.5975 73.4588 71.5122 73.4588 72.8048C73.4588 73.8588 74.0852 74.5648 75.4872 74.8929L76.7599 75.1912C77.5305 75.3702 77.8935 75.7381 77.8935 76.2651C77.8935 76.9213 77.1974 77.4583 76.1037 77.4583C75.1442 77.4583 74.5426 77.0456 74.3338 76.2253L73.2202 76.5037C73.4936 77.8013 74.5625 78.4923 76.1236 78.4923C77.8984 78.4923 79.1065 77.5229 79.1065 76.2054C79.1065 75.1415 78.4403 74.4703 77.0781 74.1372L75.9446 73.8588C75.0398 73.6351 74.6321 73.3318 74.6321 72.7452C74.6321 72.0889 75.3281 71.6117 76.2628 71.6117C77.2869 71.6117 77.7095 72.1784 77.9134 72.7054L78.9673 72.4071ZM84.1937 70.6969H82.563V68.8673H81.3897V70.6969H80.2363V71.6912H81.3897V76.4639C81.3897 77.7963 82.4636 78.4327 83.4579 78.4327C83.8954 78.4327 84.1738 78.3531 84.3329 78.2935L84.0943 77.2395C83.9949 77.2594 83.8358 77.2992 83.5772 77.2992C83.0602 77.2992 82.563 77.1401 82.563 76.1458V71.6912H84.1937V70.6969ZM89.0783 78.4923C90.6294 78.4923 91.763 77.7168 92.1209 76.5634L90.9874 76.2452C90.6891 77.0406 89.998 77.4384 89.0783 77.4384C87.7012 77.4384 86.7516 76.5485 86.6969 74.9128H92.2402V74.4156C92.2402 71.5719 90.5499 70.5975 88.959 70.5975C86.8908 70.5975 85.5186 72.2281 85.5186 74.5747C85.5186 76.9213 86.8709 78.4923 89.0783 78.4923ZM86.6969 73.8986C86.7765 72.7104 87.6167 71.6514 88.959 71.6514C90.2317 71.6514 91.0471 72.606 91.0471 73.8986H86.6969ZM94.025 78.3333H95.1983V73.5009C95.1983 72.4668 96.0137 71.7111 97.1273 71.7111C97.4405 71.7111 97.7637 71.7708 97.8432 71.7906V70.5975C97.709 70.5875 97.4007 70.5776 97.2267 70.5776C96.312 70.5776 95.5165 71.0946 95.2381 71.8503H95.1586V70.6969H94.025V78.3333ZM106.572 70.6969H104.862V69.9213C104.862 69.1656 105.18 68.7679 105.956 68.7679C106.294 68.7679 106.493 68.8475 106.612 68.8872L106.95 67.873C106.771 67.7935 106.413 67.6742 105.836 67.6742C104.743 67.6742 103.689 68.3304 103.689 69.6429V70.6969H102.456V71.6912H103.689V78.3333H104.862V71.6912H106.572V70.6969ZM111.004 78.4923C113.072 78.4923 114.464 76.9213 114.464 74.5548C114.464 72.1685 113.072 70.5975 111.004 70.5975C108.936 70.5975 107.544 72.1685 107.544 74.5548C107.544 76.9213 108.936 78.4923 111.004 78.4923ZM111.004 77.4384C109.433 77.4384 108.717 76.0861 108.717 74.5548C108.717 73.0236 109.433 71.6514 111.004 71.6514C112.575 71.6514 113.291 73.0236 113.291 74.5548C113.291 76.0861 112.575 77.4384 111.004 77.4384ZM116.256 78.3333H117.429V73.5009C117.429 72.4668 118.244 71.7111 119.358 71.7111C119.671 71.7111 119.994 71.7708 120.074 71.7906V70.5975C119.939 70.5875 119.631 70.5776 119.457 70.5776C118.542 70.5776 117.747 71.0946 117.469 71.8503H117.389V70.6969H116.256V78.3333ZM37.0941 87.6969H35.4634V85.8673H34.2901V87.6969H33.1367V88.6912H34.2901V93.4639C34.2901 94.7963 35.364 95.4327 36.3583 95.4327C36.7958 95.4327 37.0742 95.3531 37.2333 95.2935L36.9947 94.2395C36.8952 94.2594 36.7362 94.2992 36.4776 94.2992C35.9606 94.2992 35.4634 94.1401 35.4634 93.1458V88.6912H37.0941V87.6969ZM40.1964 90.7395C40.1964 89.4071 41.0465 88.6514 42.2049 88.6514C43.3086 88.6514 43.9748 89.3475 43.9748 90.5605V95.3333H45.1481V90.481C45.1481 88.5172 44.104 87.5975 42.543 87.5975C41.3398 87.5975 40.6538 88.0996 40.2958 88.8901H40.1964V85.1514H39.0231V95.3333H40.1964V90.7395ZM50.4963 95.4923C52.0474 95.4923 53.1809 94.7168 53.5389 93.5634L52.4054 93.2452C52.1071 94.0406 51.416 94.4384 50.4963 94.4384C49.1191 94.4384 48.1696 93.5485 48.1149 91.9128H53.6582V91.4156C53.6582 88.5719 51.9679 87.5975 50.377 87.5975C48.3088 87.5975 46.9366 89.2281 46.9366 91.5747C46.9366 93.9213 48.2889 95.4923 50.4963 95.4923ZM48.1149 90.8986C48.1944 89.7104 49.0346 88.6514 50.377 88.6514C51.6497 88.6514 52.465 89.606 52.465 90.8986H48.1149ZM59.3805 98.1969H60.5538V94.16H60.6532C60.9118 94.5776 61.4089 95.4923 62.8805 95.4923C64.7896 95.4923 66.122 93.9611 66.122 91.535C66.122 89.1287 64.7896 87.5975 62.8606 87.5975C61.3691 87.5975 60.9118 88.5122 60.6532 88.91H60.514V87.6969H59.3805V98.1969ZM60.5339 91.5151C60.5339 89.8048 61.2896 88.6514 62.7214 88.6514C64.2129 88.6514 64.9487 89.9043 64.9487 91.5151C64.9487 93.1458 64.193 94.4384 62.7214 94.4384C61.3095 94.4384 60.5339 93.2452 60.5339 91.5151ZM67.9118 95.3333H69.085V90.5009C69.085 89.4668 69.9004 88.7111 71.014 88.7111C71.3272 88.7111 71.6504 88.7708 71.7299 88.7906V87.5975C71.5957 87.5875 71.2875 87.5776 71.1135 87.5776C70.1987 87.5776 69.4032 88.0946 69.1248 88.8503H69.0453V87.6969H67.9118V95.3333ZM75.9906 95.4923C78.0588 95.4923 79.4508 93.9213 79.4508 91.5548C79.4508 89.1685 78.0588 87.5975 75.9906 87.5975C73.9224 87.5975 72.5304 89.1685 72.5304 91.5548C72.5304 93.9213 73.9224 95.4923 75.9906 95.4923ZM75.9906 94.4384C74.4196 94.4384 73.7037 93.0861 73.7037 91.5548C73.7037 90.0236 74.4196 88.6514 75.9906 88.6514C77.5616 88.6514 78.2775 90.0236 78.2775 91.5548C78.2775 93.0861 77.5616 94.4384 75.9906 94.4384ZM84.3242 98.356C86.1538 98.356 87.6254 97.5208 87.6254 95.552V87.6969H86.4918V88.91H86.3725C86.114 88.5122 85.6367 87.5975 84.1452 87.5975C82.2163 87.5975 80.8839 89.1287 80.8839 91.4753C80.8839 93.8617 82.2759 95.2139 84.1254 95.2139C85.6168 95.2139 86.0941 94.3389 86.3526 93.9213H86.4521V95.4725C86.4521 96.7452 85.5572 97.3219 84.3242 97.3219C82.9371 97.3219 82.4499 96.5911 82.1367 96.1685L81.2021 96.8247C81.6793 97.6252 82.619 98.356 84.3242 98.356ZM84.2844 94.16C82.8129 94.16 82.0572 93.0463 82.0572 91.4554C82.0572 89.9043 82.793 88.6514 84.2844 88.6514C85.7163 88.6514 86.4719 89.8048 86.4719 91.4554C86.4719 93.1458 85.6964 94.16 84.2844 94.16ZM89.7731 95.3333H90.9464V90.5009C90.9464 89.4668 91.7617 88.7111 92.8754 88.7111C93.1886 88.7111 93.5117 88.7708 93.5913 88.7906V87.5975C93.457 87.5875 93.1488 87.5776 92.9748 87.5776C92.06 87.5776 91.2646 88.0946 90.9862 88.8503H90.9066V87.6969H89.7731V95.3333ZM97.2292 95.5122C98.5616 95.5122 99.2576 94.7963 99.4963 94.2992H99.5559V95.3333H100.729V90.302C100.729 87.8759 98.8798 87.5975 97.9054 87.5975C96.752 87.5975 95.4395 87.9952 94.8429 89.3872L95.9565 89.785C96.215 89.2281 96.8265 88.6315 97.9451 88.6315C99.024 88.6315 99.5559 89.2033 99.5559 90.1827V90.2225C99.5559 90.7892 98.9792 90.7395 97.5872 90.9185C96.1703 91.1024 94.6241 91.4156 94.6241 93.1656C94.6241 94.6571 95.7775 95.5122 97.2292 95.5122ZM97.4082 94.4583C96.4735 94.4583 95.7974 94.0406 95.7974 93.2253C95.7974 92.3304 96.6127 92.052 97.5275 91.9327C98.0247 91.873 99.3571 91.7338 99.5559 91.4952V92.569C99.5559 93.5236 98.8002 94.4583 97.4082 94.4583ZM102.871 95.3333H104.044V90.5605C104.044 89.4419 104.859 88.6514 105.774 88.6514C106.664 88.6514 107.286 89.2331 107.286 90.1031V95.3333H108.479V90.3617C108.479 89.3773 109.095 88.6514 110.169 88.6514C111.004 88.6514 111.72 89.0939 111.72 90.2225V95.3333H112.893V90.2225C112.893 88.4277 111.929 87.5975 110.567 87.5975C109.473 87.5975 108.673 88.0996 108.28 88.8901H108.2C107.822 88.0747 107.156 87.5975 106.152 87.5975C105.158 87.5975 104.422 88.0747 104.104 88.8901H104.004V87.6969H102.871V95.3333ZM122.078 95.4923C124.147 95.4923 125.539 93.9213 125.539 91.5548C125.539 89.1685 124.147 87.5975 122.078 87.5975C120.01 87.5975 118.618 89.1685 118.618 91.5548C118.618 93.9213 120.01 95.4923 122.078 95.4923ZM122.078 94.4384C120.507 94.4384 119.792 93.0861 119.792 91.5548C119.792 90.0236 120.507 88.6514 122.078 88.6514C123.65 88.6514 124.365 90.0236 124.365 91.5548C124.365 93.0861 123.65 94.4384 122.078 94.4384ZM130.73 87.6969H129.02V86.9213C129.02 86.1656 129.338 85.7679 130.114 85.7679C130.452 85.7679 130.651 85.8475 130.77 85.8872L131.108 84.873C130.929 84.7935 130.571 84.6742 129.994 84.6742C128.901 84.6742 127.847 85.3304 127.847 86.6429V87.6969H126.614V88.6912H127.847V95.3333H129.02V88.6912H130.73V87.6969ZM42.1508 115.197C43.2098 115.197 43.9555 114.635 44.398 113.447L47.6494 104.717L46.3667 104.697L44.2588 110.782H44.1792L42.0713 104.697H40.7986L43.6224 112.373L43.4037 112.97C42.9761 114.133 42.4491 114.242 41.594 114.024L41.2957 115.058C41.415 115.117 41.7531 115.197 42.1508 115.197ZM52.0306 112.492C54.0988 112.492 55.4909 110.921 55.4909 108.555C55.4909 106.168 54.0988 104.597 52.0306 104.597C49.9624 104.597 48.5704 106.168 48.5704 108.555C48.5704 110.921 49.9624 112.492 52.0306 112.492ZM52.0306 111.438C50.4596 111.438 49.7437 110.086 49.7437 108.555C49.7437 107.024 50.4596 105.651 52.0306 105.651C53.6017 105.651 54.3176 107.024 54.3176 108.555C54.3176 110.086 53.6017 111.438 52.0306 111.438ZM62.0944 109.211C62.0944 110.643 61.0006 111.299 60.1256 111.299C59.1512 111.299 58.4552 110.583 58.4552 109.47V104.697H57.2819V109.549C57.2819 111.498 58.316 112.433 59.7478 112.433C60.9012 112.433 61.6569 111.816 62.0148 111.041H62.0944V112.333H63.2677V104.697H62.0944V109.211ZM65.4166 112.333H66.5899V107.501C66.5899 106.467 67.4053 105.711 68.5189 105.711C68.8321 105.711 69.1553 105.771 69.2348 105.791V104.597C69.1006 104.588 68.7923 104.578 68.6183 104.578C67.7036 104.578 66.9081 105.095 66.6297 105.85H66.5502V104.697H65.4166V112.333ZM74.5631 112.333H75.7364V104.697H74.5631V112.333ZM75.1597 103.424C75.6171 103.424 75.9949 103.066 75.9949 102.629C75.9949 102.191 75.6171 101.833 75.1597 101.833C74.7023 101.833 74.3245 102.191 74.3245 102.629C74.3245 103.066 74.7023 103.424 75.1597 103.424ZM79.0587 107.74C79.0587 106.407 79.884 105.651 81.0075 105.651C82.0963 105.651 82.7575 106.362 82.7575 107.561V112.333H83.9308V107.481C83.9308 105.532 82.8918 104.597 81.3456 104.597C80.1922 104.597 79.4763 105.115 79.1183 105.89H79.0189V104.697H77.8854V112.333H79.0587V107.74ZM89.3959 104.697H87.7652V102.867H86.5919V104.697H85.4385V105.691H86.5919V110.464C86.5919 111.796 87.6657 112.433 88.6601 112.433C89.0976 112.433 89.376 112.353 89.5351 112.293L89.2964 111.24C89.197 111.259 89.0379 111.299 88.7794 111.299C88.2623 111.299 87.7652 111.14 87.7652 110.146V105.691H89.3959V104.697ZM94.2805 112.492C95.8316 112.492 96.9651 111.717 97.3231 110.563L96.1895 110.245C95.8912 111.041 95.2002 111.438 94.2805 111.438C92.9033 111.438 91.9537 110.548 91.8991 108.913H97.4424V108.416C97.4424 105.572 95.752 104.597 94.1611 104.597C92.093 104.597 90.7208 106.228 90.7208 108.575C90.7208 110.921 92.0731 112.492 94.2805 112.492ZM91.8991 107.899C91.9786 106.71 92.8188 105.651 94.1611 105.651C95.4339 105.651 96.2492 106.606 96.2492 107.899H91.8991ZM99.2272 112.333H100.4V107.501C100.4 106.467 101.216 105.711 102.329 105.711C102.643 105.711 102.966 105.771 103.045 105.791V104.597C102.911 104.588 102.603 104.578 102.429 104.578C101.514 104.578 100.719 105.095 100.44 105.85H100.361V104.697H99.2272V112.333ZM107.405 112.492C108.957 112.492 110.09 111.717 110.448 110.563L109.315 110.245C109.016 111.041 108.325 111.438 107.405 111.438C106.028 111.438 105.079 110.548 105.024 108.913H110.567V108.416C110.567 105.572 108.877 104.597 107.286 104.597C105.218 104.597 103.846 106.228 103.846 108.575C103.846 110.921 105.198 112.492 107.405 112.492ZM105.024 107.899C105.104 106.71 105.944 105.651 107.286 105.651C108.559 105.651 109.374 106.606 109.374 107.899H105.024ZM117.761 106.407C117.393 105.323 116.568 104.597 115.057 104.597C113.446 104.597 112.253 105.512 112.253 106.805C112.253 107.859 112.879 108.565 114.281 108.893L115.554 109.191C116.324 109.37 116.687 109.738 116.687 110.265C116.687 110.921 115.991 111.458 114.898 111.458C113.938 111.458 113.337 111.046 113.128 110.225L112.014 110.504C112.288 111.801 113.356 112.492 114.918 112.492C116.692 112.492 117.9 111.523 117.9 110.205C117.9 109.141 117.234 108.47 115.872 108.137L114.739 107.859C113.834 107.635 113.426 107.332 113.426 106.745C113.426 106.089 114.122 105.612 115.057 105.612C116.081 105.612 116.503 106.178 116.707 106.705L117.761 106.407ZM122.988 104.697H121.357V102.867H120.184V104.697H119.03V105.691H120.184V110.464C120.184 111.796 121.258 112.433 122.252 112.433C122.689 112.433 122.968 112.353 123.127 112.293L122.888 111.24C122.789 111.259 122.63 111.299 122.371 111.299C121.854 111.299 121.357 111.14 121.357 110.146V105.691H122.988V104.697Z" fill="black"/>
<g filter="url(#filter1_d)">
<circle cx="285" cy="217" r="70" fill="white"/>
</g>
<path d="M267.078 182.925H265.367L265.07 181.362C264.872 181.237 264.583 181.128 264.203 181.034C263.823 180.94 263.419 180.893 262.992 180.893C262.367 180.893 261.883 181.026 261.539 181.292C261.201 181.552 261.031 181.891 261.031 182.307C261.031 182.693 261.208 183.01 261.562 183.26C261.922 183.505 262.539 183.766 263.414 184.042C264.669 184.391 265.62 184.852 266.266 185.425C266.917 185.997 267.242 186.75 267.242 187.682C267.242 188.656 266.857 189.425 266.086 189.987C265.315 190.55 264.299 190.831 263.039 190.831C262.138 190.831 261.323 190.688 260.594 190.401C259.87 190.115 259.266 189.719 258.781 189.214V186.839H260.547L260.789 188.456C261.018 188.643 261.328 188.8 261.719 188.925C262.115 189.044 262.555 189.104 263.039 189.104C263.664 189.104 264.138 188.977 264.461 188.721C264.789 188.466 264.953 188.125 264.953 187.698C264.953 187.26 264.797 186.909 264.484 186.643C264.177 186.378 263.635 186.128 262.859 185.893C261.51 185.503 260.49 185.039 259.797 184.503C259.104 183.966 258.758 183.232 258.758 182.3C258.758 181.378 259.148 180.625 259.93 180.042C260.711 179.453 261.693 179.151 262.875 179.135C263.75 179.135 264.547 179.268 265.266 179.534C265.984 179.8 266.589 180.154 267.078 180.596V182.925ZM278.156 179.292V182.323H276.406L276.312 181.05H274.219V189.065L275.438 189.3V190.667H270.719V189.3L271.938 189.065V181.05H269.852L269.758 182.323H268.016V179.292H278.156ZM286.25 185.667H282.398V188.917H286.07L286.172 187.557H287.906V190.667H278.906V189.3L280.117 189.065V180.901L278.906 180.667V179.292H280.117H287.891V182.409H286.141L286.039 181.05H282.398V183.909H286.25V185.667ZM294.539 179.292C295.841 179.292 296.867 179.628 297.617 180.3C298.372 180.966 298.75 181.841 298.75 182.925C298.75 184.013 298.372 184.888 297.617 185.55C296.867 186.211 295.841 186.542 294.539 186.542H292.617V189.065L293.836 189.3V190.667H289.125V189.3L290.336 189.065V180.901L289.125 180.667V179.292H290.336H294.539ZM292.617 184.784H294.539C295.174 184.784 295.654 184.612 295.977 184.268C296.305 183.919 296.469 183.477 296.469 182.94C296.469 182.393 296.305 181.943 295.977 181.589C295.654 181.229 295.174 181.05 294.539 181.05H292.617V184.784ZM303.539 190.667V189.175L307.219 185.229C307.75 184.62 308.128 184.107 308.352 183.69C308.576 183.268 308.688 182.878 308.688 182.518C308.688 182.039 308.557 181.649 308.297 181.346C308.042 181.039 307.677 180.885 307.203 180.885C306.677 180.885 306.276 181.065 306 181.425C305.729 181.779 305.594 182.253 305.594 182.846H303.375L303.359 182.8C303.333 181.774 303.669 180.906 304.367 180.198C305.07 179.484 306.016 179.128 307.203 179.128C308.375 179.128 309.297 179.432 309.969 180.042C310.641 180.651 310.977 181.464 310.977 182.479C310.977 183.167 310.786 183.802 310.406 184.385C310.031 184.969 309.406 185.729 308.531 186.667L306.508 188.878L306.523 188.917H309.477L309.57 187.792H311.305V190.667H303.539Z" fill="black"/>
<path d="M255.154 210.697H256.347C256.292 209.161 254.875 208.012 252.907 208.012C250.958 208.012 249.426 209.146 249.426 210.856C249.426 212.228 250.421 213.043 252.012 213.501L253.264 213.859C254.338 214.157 255.293 214.535 255.293 215.549C255.293 216.663 254.219 217.399 252.807 217.399C251.594 217.399 250.52 216.862 250.421 215.708H249.148C249.267 217.379 250.62 218.512 252.807 218.512C255.154 218.512 256.486 217.22 256.486 215.569C256.486 213.66 254.676 213.043 253.622 212.765L252.588 212.487C251.833 212.288 250.62 211.89 250.62 210.796C250.62 209.822 251.514 209.106 252.867 209.106C254.1 209.106 255.034 209.693 255.154 210.697ZM261.456 218.492C263.147 218.492 264.26 217.458 264.459 216.106H263.286C263.067 216.941 262.371 217.438 261.456 217.438C260.064 217.438 259.169 216.285 259.169 214.515C259.169 212.785 260.084 211.651 261.456 211.651C262.491 211.651 263.107 212.288 263.286 212.984H264.459C264.26 211.552 263.047 210.597 261.437 210.597C259.368 210.597 257.996 212.228 257.996 214.555C257.996 216.842 259.309 218.492 261.456 218.492ZM267.348 213.74C267.348 212.407 268.198 211.651 269.356 211.651C270.46 211.651 271.126 212.347 271.126 213.561V218.333H272.299V213.481C272.299 211.517 271.255 210.597 269.694 210.597C268.491 210.597 267.805 211.1 267.447 211.89H267.348V208.151H266.174V218.333H267.348V213.74ZM277.648 218.492C279.199 218.492 280.332 217.717 280.69 216.563L279.557 216.245C279.258 217.041 278.567 217.438 277.648 217.438C276.271 217.438 275.321 216.548 275.266 214.913H280.81V214.416C280.81 211.572 279.119 210.597 277.528 210.597C275.46 210.597 274.088 212.228 274.088 214.575C274.088 216.921 275.44 218.492 277.648 218.492ZM275.266 213.899C275.346 212.71 276.186 211.651 277.528 211.651C278.801 211.651 279.616 212.606 279.616 213.899H275.266ZM285.478 218.492C286.949 218.492 287.447 217.578 287.705 217.16H287.844V218.333H288.978V208.151H287.805V211.91H287.705C287.447 211.512 286.989 210.597 285.498 210.597C283.569 210.597 282.236 212.129 282.236 214.535C282.236 216.961 283.569 218.492 285.478 218.492ZM285.637 217.438C284.165 217.438 283.41 216.146 283.41 214.515C283.41 212.904 284.146 211.651 285.637 211.651C287.069 211.651 287.824 212.805 287.824 214.515C287.824 216.245 287.049 217.438 285.637 217.438ZM296.102 215.211C296.102 216.643 295.008 217.299 294.133 217.299C293.159 217.299 292.463 216.583 292.463 215.47V210.697H291.29V215.549C291.29 217.498 292.324 218.433 293.756 218.433C294.909 218.433 295.665 217.816 296.023 217.041H296.102V218.333H297.275V210.697H296.102V215.211ZM300.598 208.151H299.424V218.333H300.598V208.151ZM305.948 218.492C307.5 218.492 308.633 217.717 308.991 216.563L307.858 216.245C307.559 217.041 306.868 217.438 305.948 217.438C304.571 217.438 303.622 216.548 303.567 214.913H309.11V214.416C309.11 211.572 307.42 210.597 305.829 210.597C303.761 210.597 302.389 212.228 302.389 214.575C302.389 216.921 303.741 218.492 305.948 218.492ZM303.567 213.899C303.647 212.71 304.487 211.651 305.829 211.651C307.102 211.651 307.917 212.606 307.917 213.899H303.567ZM317.08 218.512C318.412 218.512 319.108 217.796 319.347 217.299H319.407V218.333H320.58V213.302C320.58 210.876 318.73 210.597 317.756 210.597C316.603 210.597 315.29 210.995 314.693 212.387L315.807 212.785C316.066 212.228 316.677 211.632 317.796 211.632C318.875 211.632 319.407 212.203 319.407 213.183V213.222C319.407 213.789 318.83 213.74 317.438 213.918C316.021 214.102 314.475 214.416 314.475 216.166C314.475 217.657 315.628 218.512 317.08 218.512ZM317.259 217.458C316.324 217.458 315.648 217.041 315.648 216.225C315.648 215.33 316.463 215.052 317.378 214.933C317.875 214.873 319.208 214.734 319.407 214.495V215.569C319.407 216.524 318.651 217.458 317.259 217.458ZM254.139 227.697H252.429V226.921C252.429 226.166 252.747 225.768 253.523 225.768C253.861 225.768 254.06 225.847 254.179 225.887L254.517 224.873C254.338 224.793 253.98 224.674 253.404 224.674C252.31 224.674 251.256 225.33 251.256 226.643V227.697H250.023V228.691H251.256V235.333H252.429V228.691H254.139V227.697ZM255.784 235.333H256.957V230.501C256.957 229.467 257.772 228.711 258.886 228.711C259.199 228.711 259.522 228.771 259.602 228.791V227.597C259.468 227.588 259.16 227.578 258.986 227.578C258.071 227.578 257.275 228.095 256.997 228.85H256.917V227.697H255.784V235.333ZM263.962 235.492C265.513 235.492 266.647 234.717 267.005 233.563L265.871 233.245C265.573 234.041 264.882 234.438 263.962 234.438C262.585 234.438 261.635 233.548 261.581 231.913H267.124V231.416C267.124 228.572 265.434 227.597 263.843 227.597C261.775 227.597 260.402 229.228 260.402 231.575C260.402 233.921 261.755 235.492 263.962 235.492ZM261.581 230.899C261.66 229.71 262.5 228.651 263.843 228.651C265.116 228.651 265.931 229.606 265.931 230.899H261.581ZM272.111 235.492C273.662 235.492 274.795 234.717 275.153 233.563L274.02 233.245C273.721 234.041 273.03 234.438 272.111 234.438C270.733 234.438 269.784 233.548 269.729 231.913H275.272V231.416C275.272 228.572 273.582 227.597 271.991 227.597C269.923 227.597 268.551 229.228 268.551 231.575C268.551 233.921 269.903 235.492 272.111 235.492ZM269.729 230.899C269.809 229.71 270.649 228.651 271.991 228.651C273.264 228.651 274.079 229.606 274.079 230.899H269.729ZM284.554 225.151H283.321L280.776 226.842V228.095L283.262 226.444H283.321V235.333H284.554V225.151ZM292.613 230.74C292.613 229.407 293.464 228.651 294.622 228.651C295.726 228.651 296.392 229.347 296.392 230.561V235.333H297.565V230.481C297.565 228.517 296.521 227.597 294.96 227.597C293.757 227.597 293.071 228.1 292.713 228.89H292.613V225.151H291.44V235.333H292.613V230.74ZM302.814 235.492C304.882 235.492 306.274 233.921 306.274 231.555C306.274 229.168 304.882 227.597 302.814 227.597C300.746 227.597 299.354 229.168 299.354 231.555C299.354 233.921 300.746 235.492 302.814 235.492ZM302.814 234.438C301.243 234.438 300.527 233.086 300.527 231.555C300.527 230.024 301.243 228.651 302.814 228.651C304.385 228.651 305.101 230.024 305.101 231.555C305.101 233.086 304.385 234.438 302.814 234.438ZM312.878 232.211C312.878 233.643 311.784 234.299 310.909 234.299C309.934 234.299 309.238 233.583 309.238 232.47V227.697H308.065V232.549C308.065 234.498 309.099 235.433 310.531 235.433C311.684 235.433 312.44 234.816 312.798 234.041H312.878V235.333H314.051V227.697H312.878V232.211ZM316.2 235.333H317.373V230.501C317.373 229.467 318.188 228.711 319.302 228.711C319.615 228.711 319.938 228.771 320.018 228.791V227.597C319.884 227.588 319.576 227.578 319.402 227.578C318.487 227.578 317.691 228.095 317.413 228.85H317.333V227.697H316.2V235.333ZM243.328 252.492C244.799 252.492 245.296 251.578 245.555 251.16H245.694V252.333H246.828V242.151H245.654V245.91H245.555C245.296 245.512 244.839 244.597 243.347 244.597C241.418 244.597 240.086 246.129 240.086 248.535C240.086 250.961 241.418 252.492 243.328 252.492ZM243.487 251.438C242.015 251.438 241.259 250.146 241.259 248.515C241.259 246.904 241.995 245.651 243.487 245.651C244.918 245.651 245.674 246.805 245.674 248.515C245.674 250.245 244.899 251.438 243.487 251.438ZM252.341 252.492C253.892 252.492 255.026 251.717 255.384 250.563L254.25 250.245C253.952 251.041 253.261 251.438 252.341 251.438C250.964 251.438 250.014 250.548 249.96 248.913H255.503V248.416C255.503 245.572 253.813 244.597 252.222 244.597C250.153 244.597 248.781 246.228 248.781 248.575C248.781 250.921 250.134 252.492 252.341 252.492ZM249.96 247.899C250.039 246.71 250.879 245.651 252.222 245.651C253.494 245.651 254.31 246.606 254.31 247.899H249.96ZM257.288 252.333H258.461V247.561C258.461 246.442 259.276 245.651 260.191 245.651C261.081 245.651 261.703 246.233 261.703 247.103V252.333H262.896V247.362C262.896 246.377 263.512 245.651 264.586 245.651C265.421 245.651 266.137 246.094 266.137 247.222V252.333H267.31V247.222C267.31 245.428 266.346 244.597 264.984 244.597C263.89 244.597 263.09 245.1 262.697 245.89H262.617C262.239 245.075 261.573 244.597 260.569 244.597C259.575 244.597 258.839 245.075 258.521 245.89H258.421V244.697H257.288V252.333ZM272.558 252.492C274.626 252.492 276.018 250.921 276.018 248.555C276.018 246.168 274.626 244.597 272.558 244.597C270.49 244.597 269.098 246.168 269.098 248.555C269.098 250.921 270.49 252.492 272.558 252.492ZM272.558 251.438C270.987 251.438 270.271 250.086 270.271 248.555C270.271 247.024 270.987 245.651 272.558 245.651C274.129 245.651 274.845 247.024 274.845 248.555C274.845 250.086 274.129 251.438 272.558 251.438ZM287.156 246.407C286.788 245.323 285.963 244.597 284.451 244.597C282.84 244.597 281.647 245.512 281.647 246.805C281.647 247.859 282.274 248.565 283.676 248.893L284.948 249.191C285.719 249.37 286.082 249.738 286.082 250.265C286.082 250.921 285.386 251.458 284.292 251.458C283.333 251.458 282.731 251.046 282.522 250.225L281.409 250.504C281.682 251.801 282.751 252.492 284.312 252.492C286.087 252.492 287.295 251.523 287.295 250.205C287.295 249.141 286.629 248.47 285.267 248.137L284.133 247.859C283.228 247.635 282.821 247.332 282.821 246.745C282.821 246.089 283.517 245.612 284.451 245.612C285.475 245.612 285.898 246.178 286.102 246.705L287.156 246.407ZM292.263 252.492C293.814 252.492 294.948 251.717 295.305 250.563L294.172 250.245C293.874 251.041 293.183 251.438 292.263 251.438C290.886 251.438 289.936 250.548 289.881 248.913H295.425V248.416C295.425 245.572 293.734 244.597 292.144 244.597C290.075 244.597 288.703 246.228 288.703 248.575C288.703 250.921 290.055 252.492 292.263 252.492ZM289.881 247.899C289.961 246.71 290.801 245.651 292.144 245.651C293.416 245.651 294.232 246.606 294.232 247.899H289.881ZM302.619 246.407C302.251 245.323 301.426 244.597 299.914 244.597C298.303 244.597 297.11 245.512 297.11 246.805C297.11 247.859 297.737 248.565 299.139 248.893L300.411 249.191C301.182 249.37 301.545 249.738 301.545 250.265C301.545 250.921 300.849 251.458 299.755 251.458C298.796 251.458 298.194 251.046 297.985 250.225L296.872 250.504C297.145 251.801 298.214 252.492 299.775 252.492C301.55 252.492 302.758 251.523 302.758 250.205C302.758 249.141 302.092 248.47 300.729 248.137L299.596 247.859C298.691 247.635 298.283 247.332 298.283 246.745C298.283 246.089 298.979 245.612 299.914 245.612C300.938 245.612 301.361 246.178 301.565 246.705L302.619 246.407ZM309.933 246.407C309.565 245.323 308.74 244.597 307.229 244.597C305.618 244.597 304.425 245.512 304.425 246.805C304.425 247.859 305.051 248.565 306.453 248.893L307.726 249.191C308.496 249.37 308.859 249.738 308.859 250.265C308.859 250.921 308.163 251.458 307.07 251.458C306.11 251.458 305.508 251.046 305.3 250.225L304.186 250.504C304.459 251.801 305.528 252.492 307.089 252.492C308.864 252.492 310.072 251.523 310.072 250.205C310.072 249.141 309.406 248.47 308.044 248.137L306.91 247.859C306.006 247.635 305.598 247.332 305.598 246.745C305.598 246.089 306.294 245.612 307.229 245.612C308.253 245.612 308.675 246.178 308.879 246.705L309.933 246.407ZM311.839 252.333H313.012V244.697H311.839V252.333ZM312.435 243.424C312.892 243.424 313.27 243.066 313.27 242.629C313.27 242.191 312.892 241.833 312.435 241.833C311.978 241.833 311.6 242.191 311.6 242.629C311.6 243.066 311.978 243.424 312.435 243.424ZM318.263 252.492C320.331 252.492 321.723 250.921 321.723 248.555C321.723 246.168 320.331 244.597 318.263 244.597C316.195 244.597 314.803 246.168 314.803 248.555C314.803 250.921 316.195 252.492 318.263 252.492ZM318.263 251.438C316.692 251.438 315.976 250.086 315.976 248.555C315.976 247.024 316.692 245.651 318.263 245.651C319.834 245.651 320.55 247.024 320.55 248.555C320.55 250.086 319.834 251.438 318.263 251.438ZM324.688 247.74C324.688 246.407 325.513 245.651 326.636 245.651C327.725 245.651 328.386 246.362 328.386 247.561V252.333H329.56V247.481C329.56 245.532 328.521 244.597 326.975 244.597C325.821 244.597 325.105 245.115 324.747 245.89H324.648V244.697H323.514V252.333H324.688V247.74Z" fill="black"/>
<g filter="url(#filter2_d)">
<circle cx="82" cy="357" r="70" fill="white"/>
</g>
<path d="M64.0781 322.925H62.3672L62.0703 321.362C61.8724 321.237 61.5833 321.128 61.2031 321.034C60.8229 320.94 60.4193 320.893 59.9922 320.893C59.3672 320.893 58.8828 321.026 58.5391 321.292C58.2005 321.552 58.0312 321.891 58.0312 322.307C58.0312 322.693 58.2083 323.01 58.5625 323.26C58.9219 323.505 59.5391 323.766 60.4141 324.042C61.6693 324.391 62.6198 324.852 63.2656 325.425C63.9167 325.997 64.2422 326.75 64.2422 327.682C64.2422 328.656 63.8568 329.425 63.0859 329.987C62.3151 330.55 61.2995 330.831 60.0391 330.831C59.138 330.831 58.3229 330.688 57.5938 330.401C56.8698 330.115 56.2656 329.719 55.7812 329.214V326.839H57.5469L57.7891 328.456C58.0182 328.643 58.3281 328.8 58.7188 328.925C59.1146 329.044 59.5547 329.104 60.0391 329.104C60.6641 329.104 61.138 328.977 61.4609 328.721C61.7891 328.466 61.9531 328.125 61.9531 327.698C61.9531 327.26 61.7969 326.909 61.4844 326.643C61.1771 326.378 60.6354 326.128 59.8594 325.893C58.5104 325.503 57.4896 325.039 56.7969 324.503C56.1042 323.966 55.7578 323.232 55.7578 322.3C55.7578 321.378 56.1484 320.625 56.9297 320.042C57.7109 319.453 58.6927 319.151 59.875 319.135C60.75 319.135 61.5469 319.268 62.2656 319.534C62.9844 319.8 63.5885 320.154 64.0781 320.596V322.925ZM75.1562 319.292V322.323H73.4062L73.3125 321.05H71.2188V329.065L72.4375 329.3V330.667H67.7188V329.3L68.9375 329.065V321.05H66.8516L66.7578 322.323H65.0156V319.292H75.1562ZM83.25 325.667H79.3984V328.917H83.0703L83.1719 327.557H84.9062V330.667H75.9062V329.3L77.1172 329.065V320.901L75.9062 320.667V319.292H77.1172H84.8906V322.409H83.1406L83.0391 321.05H79.3984V323.909H83.25V325.667ZM91.5391 319.292C92.8411 319.292 93.8672 319.628 94.6172 320.3C95.3724 320.966 95.75 321.841 95.75 322.925C95.75 324.013 95.3724 324.888 94.6172 325.55C93.8672 326.211 92.8411 326.542 91.5391 326.542H89.6172V329.065L90.8359 329.3V330.667H86.125V329.3L87.3359 329.065V320.901L86.125 320.667V319.292H87.3359H91.5391ZM89.6172 324.784H91.5391C92.1745 324.784 92.6536 324.612 92.9766 324.268C93.3047 323.919 93.4688 323.477 93.4688 322.94C93.4688 322.393 93.3047 321.943 92.9766 321.589C92.6536 321.229 92.1745 321.05 91.5391 321.05H89.6172V324.784ZM102.945 324.01H104.227C104.768 324.01 105.169 323.87 105.43 323.589C105.69 323.302 105.82 322.906 105.82 322.401C105.82 321.943 105.69 321.576 105.43 321.3C105.169 321.024 104.792 320.885 104.297 320.885C103.87 320.885 103.51 321.01 103.219 321.26C102.927 321.51 102.781 321.839 102.781 322.245H100.57L100.555 322.198C100.523 321.307 100.865 320.573 101.578 319.995C102.292 319.417 103.177 319.128 104.234 319.128C105.411 319.128 106.349 319.409 107.047 319.971C107.75 320.534 108.102 321.336 108.102 322.378C108.102 322.872 107.945 323.344 107.633 323.792C107.32 324.234 106.891 324.581 106.344 324.831C106.974 325.055 107.453 325.399 107.781 325.862C108.115 326.326 108.281 326.865 108.281 327.479C108.281 328.521 107.901 329.341 107.141 329.94C106.385 330.534 105.417 330.831 104.234 330.831C103.177 330.831 102.268 330.552 101.508 329.995C100.753 329.432 100.388 328.641 100.414 327.62L100.43 327.573H102.641C102.641 328.01 102.797 328.372 103.109 328.659C103.422 328.94 103.818 329.081 104.297 329.081C104.823 329.081 105.237 328.935 105.539 328.643C105.846 328.352 106 327.956 106 327.456C106 326.857 105.849 326.419 105.547 326.143C105.25 325.862 104.81 325.721 104.227 325.721H102.945V324.01Z" fill="black"/>
<path d="M46.0249 358.333H49.7039C52.1102 358.333 53.1045 357.16 53.1045 355.629C53.1045 354.018 51.9909 353.143 51.0562 353.083V352.984C51.9312 352.745 52.7068 352.168 52.7068 350.856C52.7068 349.365 51.7124 348.151 49.5846 348.151H46.0249V358.333ZM47.2579 357.24V353.7H49.7636C51.096 353.7 51.9312 354.595 51.9312 355.629C51.9312 356.524 51.3147 357.24 49.7039 357.24H47.2579ZM47.2579 352.626V349.245H49.5846C50.9369 349.245 51.5335 349.961 51.5335 350.856C51.5335 351.93 50.6585 352.626 49.5448 352.626H47.2579ZM59.7838 355.211C59.7838 356.643 58.6901 357.299 57.8151 357.299C56.8406 357.299 56.1446 356.583 56.1446 355.47V350.697H54.9713V355.549C54.9713 357.498 56.0054 358.433 57.4372 358.433C58.5906 358.433 59.3463 357.816 59.7043 357.041H59.7838V358.333H60.9571V350.697H59.7838V355.211ZM63.8618 361.197C64.9207 361.197 65.6665 360.635 66.1089 359.447L69.3604 350.717L68.0777 350.697L65.9697 356.782H65.8902L63.7822 350.697H62.5095L65.3334 358.373L65.1146 358.97C64.6871 360.133 64.1601 360.242 63.305 360.024L63.0067 361.058C63.126 361.117 63.464 361.197 63.8618 361.197ZM78.1713 350.697H76.5406V348.867H75.3673V350.697H74.2139V351.691H75.3673V356.464C75.3673 357.796 76.4411 358.433 77.4355 358.433C77.873 358.433 78.1514 358.353 78.3105 358.293L78.0718 357.24C77.9724 357.259 77.8133 357.299 77.5548 357.299C77.0377 357.299 76.5406 357.14 76.5406 356.146V351.691H78.1713V350.697ZM81.2735 353.74C81.2735 352.407 82.1237 351.651 83.282 351.651C84.3857 351.651 85.0519 352.347 85.0519 353.561V358.333H86.2252V353.481C86.2252 351.517 85.1812 350.597 83.6201 350.597C82.417 350.597 81.7309 351.1 81.373 351.89H81.2735V348.151H80.1002V358.333H81.2735V353.74ZM91.5734 358.492C93.1246 358.492 94.2581 357.717 94.616 356.563L93.4825 356.245C93.1842 357.041 92.4932 357.438 91.5734 357.438C90.1963 357.438 89.2467 356.548 89.192 354.913H94.7354V354.416C94.7354 351.572 93.045 350.597 91.4541 350.597C89.3859 350.597 88.0138 352.228 88.0138 354.575C88.0138 356.921 89.366 358.492 91.5734 358.492ZM89.192 353.899C89.2716 352.71 90.1118 351.651 91.4541 351.651C92.7268 351.651 93.5422 352.606 93.5422 353.899H89.192ZM103.858 350.697H102.148V349.921C102.148 349.166 102.466 348.768 103.242 348.768C103.58 348.768 103.779 348.847 103.898 348.887L104.236 347.873C104.057 347.793 103.699 347.674 103.122 347.674C102.029 347.674 100.975 348.33 100.975 349.643V350.697H99.7417V351.691H100.975V358.333H102.148V351.691H103.858V350.697ZM110.315 355.211C110.315 356.643 109.221 357.299 108.346 357.299C107.372 357.299 106.676 356.583 106.676 355.47V350.697H105.503V355.549C105.503 357.498 106.537 358.433 107.968 358.433C109.122 358.433 109.878 357.816 110.236 357.041H110.315V358.333H111.488V350.697H110.315V355.211ZM114.811 348.151H113.637V358.333H114.811V348.151ZM118.133 348.151H116.96V358.333H118.133V348.151ZM40.0267 375.492C41.7171 375.492 42.8307 374.458 43.0296 373.106H41.8563C41.6375 373.941 40.9415 374.438 40.0267 374.438C38.6347 374.438 37.7398 373.285 37.7398 371.515C37.7398 369.785 38.6546 368.651 40.0267 368.651C41.0608 368.651 41.6773 369.288 41.8563 369.984H43.0296C42.8307 368.552 41.6176 367.597 40.0068 367.597C37.9387 367.597 36.5665 369.228 36.5665 371.555C36.5665 373.842 37.879 375.492 40.0267 375.492ZM47.847 375.492C49.9152 375.492 51.3073 373.921 51.3073 371.555C51.3073 369.168 49.9152 367.597 47.847 367.597C45.7789 367.597 44.3868 369.168 44.3868 371.555C44.3868 373.921 45.7789 375.492 47.847 375.492ZM47.847 374.438C46.276 374.438 45.5601 373.086 45.5601 371.555C45.5601 370.024 46.276 368.651 47.847 368.651C49.4181 368.651 50.134 370.024 50.134 371.555C50.134 373.086 49.4181 374.438 47.847 374.438ZM57.9108 372.211C57.9108 373.643 56.817 374.299 55.942 374.299C54.9676 374.299 54.2716 373.583 54.2716 372.47V367.697H53.0983V372.549C53.0983 374.498 54.1324 375.433 55.5642 375.433C56.7176 375.433 57.4733 374.816 57.8312 374.041H57.9108V375.333H59.0841V367.697H57.9108V372.211ZM61.233 375.333H62.4063V370.501C62.4063 369.467 63.2217 368.711 64.3353 368.711C64.6485 368.711 64.9717 368.771 65.0512 368.791V367.597C64.917 367.588 64.6088 367.578 64.4347 367.578C63.52 367.578 62.7245 368.095 62.4461 368.85H62.3666V367.697H61.233V375.333ZM71.8511 369.407C71.4832 368.323 70.6579 367.597 69.1466 367.597C67.5358 367.597 66.3426 368.512 66.3426 369.805C66.3426 370.859 66.969 371.565 68.371 371.893L69.6437 372.191C70.4143 372.37 70.7773 372.738 70.7773 373.265C70.7773 373.921 70.0812 374.458 68.9875 374.458C68.028 374.458 67.4264 374.046 67.2176 373.225L66.104 373.504C66.3774 374.801 67.4463 375.492 69.0074 375.492C70.7822 375.492 71.9903 374.523 71.9903 373.205C71.9903 372.141 71.3241 371.47 69.9619 371.137L68.8284 370.859C67.9236 370.635 67.5159 370.332 67.5159 369.745C67.5159 369.089 68.2119 368.612 69.1466 368.612C70.1707 368.612 70.5933 369.178 70.7971 369.705L71.8511 369.407ZM76.9582 375.492C78.5093 375.492 79.6428 374.717 80.0008 373.563L78.8673 373.245C78.569 374.041 77.8779 374.438 76.9582 374.438C75.5811 374.438 74.6315 373.548 74.5768 371.913H80.1201V371.416C80.1201 368.572 78.4298 367.597 76.8389 367.597C74.7707 367.597 73.3985 369.228 73.3985 371.575C73.3985 373.921 74.7508 375.492 76.9582 375.492ZM74.5768 370.899C74.6563 369.71 75.4965 368.651 76.8389 368.651C78.1116 368.651 78.9269 369.606 78.9269 370.899H74.5768ZM88.9447 375.492C91.0129 375.492 92.4049 373.921 92.4049 371.555C92.4049 369.168 91.0129 367.597 88.9447 367.597C86.8765 367.597 85.4845 369.168 85.4845 371.555C85.4845 373.921 86.8765 375.492 88.9447 375.492ZM88.9447 374.438C87.3737 374.438 86.6578 373.086 86.6578 371.555C86.6578 370.024 87.3737 368.651 88.9447 368.651C90.5157 368.651 91.2316 370.024 91.2316 371.555C91.2316 373.086 90.5157 374.438 88.9447 374.438ZM95.3692 370.74C95.3692 369.407 96.1945 368.651 97.3181 368.651C98.4069 368.651 99.0681 369.362 99.0681 370.561V375.333H100.241V370.481C100.241 368.532 99.2023 367.597 97.6562 367.597C96.5028 367.597 95.7868 368.115 95.4289 368.89H95.3295V367.697H94.1959V375.333H95.3692V370.74ZM103.559 365.151H102.385V375.333H103.559V365.151ZM105.708 375.333H106.881V367.697H105.708V375.333ZM106.304 366.424C106.762 366.424 107.139 366.066 107.139 365.629C107.139 365.191 106.762 364.833 106.304 364.833C105.847 364.833 105.469 365.191 105.469 365.629C105.469 366.066 105.847 366.424 106.304 366.424ZM110.203 370.74C110.203 369.407 111.028 368.651 112.152 368.651C113.241 368.651 113.902 369.362 113.902 370.561V375.333H115.075V370.481C115.075 368.532 114.036 367.597 112.49 367.597C111.337 367.597 110.621 368.115 110.263 368.89H110.163V367.697H109.03V375.333H110.203V370.74ZM120.421 375.492C121.972 375.492 123.106 374.717 123.464 373.563L122.33 373.245C122.032 374.041 121.341 374.438 120.421 374.438C119.044 374.438 118.094 373.548 118.04 371.913H123.583V371.416C123.583 368.572 121.893 367.597 120.302 367.597C118.234 367.597 116.861 369.228 116.861 371.575C116.861 373.921 118.214 375.492 120.421 375.492ZM118.04 370.899C118.119 369.71 118.959 368.651 120.302 368.651C121.574 368.651 122.39 369.606 122.39 370.899H118.04ZM126.223 375.413C126.715 375.413 127.118 375.01 127.118 374.518C127.118 374.026 126.715 373.623 126.223 373.623C125.731 373.623 125.328 374.026 125.328 374.518C125.328 375.01 125.731 375.413 126.223 375.413ZM39.2616 396.151H39.9434L39.8866 394.589L41.2077 395.427L41.5486 394.83L40.1565 394.106L41.5486 393.382L41.2077 392.785L39.8866 393.623L39.9434 392.061H39.2616L39.3184 393.623L37.9974 392.785L37.6565 393.382L39.0486 394.106L37.6565 394.83L37.9974 395.427L39.3184 394.589L39.2616 396.151ZM42.9832 399.333H47.2446V398.552H43.8639V392.061H42.9832V399.333ZM48.4946 399.333H49.3327V393.879H48.4946V399.333ZM48.9207 392.97C49.2474 392.97 49.5173 392.714 49.5173 392.401C49.5173 392.089 49.2474 391.833 48.9207 391.833C48.594 391.833 48.3241 392.089 48.3241 392.401C48.3241 392.714 48.594 392.97 48.9207 392.97ZM50.8676 399.333H51.7057V395.924C51.7057 395.125 52.2881 394.561 52.9415 394.561C53.5771 394.561 54.021 394.976 54.021 395.597V399.333H54.8733V395.782C54.8733 395.079 55.3137 394.561 56.0807 394.561C56.6773 394.561 57.1887 394.877 57.1887 395.683V399.333H58.0267V395.683C58.0267 394.401 57.3378 393.808 56.3648 393.808C55.5835 393.808 55.0118 394.166 54.7313 394.731H54.6744C54.4046 394.149 53.9287 393.808 53.2114 393.808C52.5012 393.808 51.9756 394.149 51.7483 394.731H51.6773V393.879H50.8676V399.333ZM59.559 399.333H60.3971V393.879H59.559V399.333ZM59.9852 392.97C60.3119 392.97 60.5818 392.714 60.5818 392.401C60.5818 392.089 60.3119 391.833 59.9852 391.833C59.6585 391.833 59.3886 392.089 59.3886 392.401C59.3886 392.714 59.6585 392.97 59.9852 392.97ZM64.3042 393.879H63.1395V392.572H62.3014V393.879H61.4775V394.589H62.3014V397.998C62.3014 398.95 63.0684 399.404 63.7787 399.404C64.0912 399.404 64.29 399.347 64.4037 399.305L64.2332 398.552C64.1622 398.566 64.0486 398.595 63.8639 398.595C63.4946 398.595 63.1395 398.481 63.1395 397.771V394.589H64.3042V393.879ZM67.7932 399.447C68.9012 399.447 69.7108 398.893 69.9665 398.069L69.1569 397.842C68.9438 398.41 68.4502 398.694 67.7932 398.694C66.8096 398.694 66.1313 398.058 66.0922 396.89H70.0518V396.535C70.0518 394.504 68.8444 393.808 67.708 393.808C66.2307 393.808 65.2506 394.972 65.2506 396.649C65.2506 398.325 66.2165 399.447 67.7932 399.447ZM66.0922 396.166C66.1491 395.317 66.7492 394.561 67.708 394.561C68.6171 394.561 69.1995 395.242 69.1995 396.166H66.0922ZM73.3863 399.447C74.4374 399.447 74.7925 398.793 74.9772 398.495H75.0766V399.333H75.8863V392.061H75.0482V394.745H74.9772C74.7925 394.461 74.4658 393.808 73.4005 393.808C72.0226 393.808 71.0709 394.901 71.0709 396.62C71.0709 398.353 72.0226 399.447 73.3863 399.447ZM73.4999 398.694C72.4488 398.694 71.909 397.771 71.909 396.606C71.909 395.455 72.4346 394.561 73.4999 394.561C74.5226 394.561 75.0624 395.384 75.0624 396.606C75.0624 397.842 74.5084 398.694 73.4999 398.694ZM84.2137 395.1C83.9509 394.326 83.3614 393.808 82.2819 393.808C81.1313 393.808 80.279 394.461 80.279 395.384C80.279 396.137 80.7265 396.641 81.7279 396.876L82.637 397.089C83.1874 397.217 83.4466 397.48 83.4466 397.856C83.4466 398.325 82.9495 398.708 82.1682 398.708C81.4829 398.708 81.0532 398.414 80.904 397.828L80.1086 398.026C80.3039 398.953 81.0674 399.447 82.1824 399.447C83.4502 399.447 84.3131 398.754 84.3131 397.813C84.3131 397.053 83.8373 396.574 82.8643 396.336L82.0546 396.137C81.4083 395.977 81.1171 395.761 81.1171 395.342C81.1171 394.873 81.6143 394.532 82.2819 394.532C83.0134 394.532 83.3153 394.937 83.4608 395.313L84.2137 395.1ZM86.4127 392.061H85.5747V399.333H86.4127V392.061ZM90.1636 399.447C91.6409 399.447 92.6352 398.325 92.6352 396.634C92.6352 394.93 91.6409 393.808 90.1636 393.808C88.6863 393.808 87.692 394.93 87.692 396.634C87.692 398.325 88.6863 399.447 90.1636 399.447ZM90.1636 398.694C89.0415 398.694 88.5301 397.728 88.5301 396.634C88.5301 395.541 89.0415 394.561 90.1636 394.561C91.2858 394.561 91.7971 395.541 91.7971 396.634C91.7971 397.728 91.2858 398.694 90.1636 398.694ZM96.2867 393.879H95.1219V392.572H94.2838V393.879H93.46V394.589H94.2838V397.998C94.2838 398.95 95.0509 399.404 95.7611 399.404C96.0736 399.404 96.2725 399.347 96.3861 399.305L96.2156 398.552C96.1446 398.566 96.031 398.595 95.8463 398.595C95.477 398.595 95.1219 398.481 95.1219 397.771V394.589H96.2867V393.879ZM101.313 395.1C101.051 394.326 100.461 393.808 99.3815 393.808C98.2309 393.808 97.3786 394.461 97.3786 395.384C97.3786 396.137 97.8261 396.641 98.8275 396.876L99.7366 397.089C100.287 397.217 100.546 397.48 100.546 397.856C100.546 398.325 100.049 398.708 99.2678 398.708C98.5825 398.708 98.1528 398.414 98.0036 397.828L97.2082 398.026C97.4035 398.953 98.167 399.447 99.282 399.447C100.55 399.447 101.413 398.754 101.413 397.813C101.413 397.053 100.937 396.574 99.9639 396.336L99.1542 396.137C98.5079 395.977 98.2167 395.761 98.2167 395.342C98.2167 394.873 98.7139 394.532 99.3815 394.532C100.113 394.532 100.415 394.937 100.56 395.313L101.313 395.1ZM107.703 399.447C109.18 399.447 110.174 398.325 110.174 396.634C110.174 394.93 109.18 393.808 107.703 393.808C106.225 393.808 105.231 394.93 105.231 396.634C105.231 398.325 106.225 399.447 107.703 399.447ZM107.703 398.694C106.581 398.694 106.069 397.728 106.069 396.634C106.069 395.541 106.581 394.561 107.703 394.561C108.825 394.561 109.336 395.541 109.336 396.634C109.336 397.728 108.825 398.694 107.703 398.694ZM112.292 396.052C112.292 395.1 112.881 394.561 113.684 394.561C114.461 394.561 114.934 395.068 114.934 395.924V399.333H115.772V395.867C115.772 394.475 115.03 393.808 113.925 393.808C113.101 393.808 112.59 394.177 112.334 394.731H112.263V393.879H111.454V399.333H112.292V396.052ZM118.141 392.061H117.303V399.333H118.141V392.061ZM120.216 401.379C120.972 401.379 121.505 400.977 121.821 400.129L124.144 393.893L123.227 393.879L121.722 398.225H121.665L120.159 393.879H119.25L121.267 399.362L121.111 399.788C120.805 400.619 120.429 400.697 119.818 400.541L119.605 401.279C119.69 401.322 119.932 401.379 120.216 401.379ZM125.521 399.39C125.873 399.39 126.161 399.102 126.161 398.751C126.161 398.399 125.873 398.112 125.521 398.112C125.17 398.112 124.882 398.399 124.882 398.751C124.882 399.102 125.17 399.39 125.521 399.39Z" fill="black"/>
<g filter="url(#filter3_d)">
<circle cx="285" cy="497" r="70" fill="white"/>
</g>
<path d="M267.078 462.925H265.367L265.07 461.362C264.872 461.237 264.583 461.128 264.203 461.034C263.823 460.94 263.419 460.893 262.992 460.893C262.367 460.893 261.883 461.026 261.539 461.292C261.201 461.552 261.031 461.891 261.031 462.307C261.031 462.693 261.208 463.01 261.562 463.26C261.922 463.505 262.539 463.766 263.414 464.042C264.669 464.391 265.62 464.852 266.266 465.425C266.917 465.997 267.242 466.75 267.242 467.682C267.242 468.656 266.857 469.425 266.086 469.987C265.315 470.55 264.299 470.831 263.039 470.831C262.138 470.831 261.323 470.688 260.594 470.401C259.87 470.115 259.266 469.719 258.781 469.214V466.839H260.547L260.789 468.456C261.018 468.643 261.328 468.8 261.719 468.925C262.115 469.044 262.555 469.104 263.039 469.104C263.664 469.104 264.138 468.977 264.461 468.721C264.789 468.466 264.953 468.125 264.953 467.698C264.953 467.26 264.797 466.909 264.484 466.643C264.177 466.378 263.635 466.128 262.859 465.893C261.51 465.503 260.49 465.039 259.797 464.503C259.104 463.966 258.758 463.232 258.758 462.3C258.758 461.378 259.148 460.625 259.93 460.042C260.711 459.453 261.693 459.151 262.875 459.135C263.75 459.135 264.547 459.268 265.266 459.534C265.984 459.8 266.589 460.154 267.078 460.596V462.925ZM278.156 459.292V462.323H276.406L276.312 461.05H274.219V469.065L275.438 469.3V470.667H270.719V469.3L271.938 469.065V461.05H269.852L269.758 462.323H268.016V459.292H278.156ZM286.25 465.667H282.398V468.917H286.07L286.172 467.557H287.906V470.667H278.906V469.3L280.117 469.065V460.901L278.906 460.667V459.292H280.117H287.891V462.409H286.141L286.039 461.05H282.398V463.909H286.25V465.667ZM294.539 459.292C295.841 459.292 296.867 459.628 297.617 460.3C298.372 460.966 298.75 461.841 298.75 462.925C298.75 464.013 298.372 464.888 297.617 465.55C296.867 466.211 295.841 466.542 294.539 466.542H292.617V469.065L293.836 469.3V470.667H289.125V469.3L290.336 469.065V460.901L289.125 460.667V459.292H290.336H294.539ZM292.617 464.784H294.539C295.174 464.784 295.654 464.612 295.977 464.268C296.305 463.919 296.469 463.477 296.469 462.94C296.469 462.393 296.305 461.943 295.977 461.589C295.654 461.229 295.174 461.05 294.539 461.05H292.617V464.784ZM310.273 466.432H311.562V467.948H310.273V469.065L311.484 469.3V470.667H306.781V469.3L308 469.065V467.948H303.359L303.25 466.831L307.977 459.292H310.273V466.432ZM305.383 466.432H308V462.331L307.953 462.315L307.766 462.643L305.383 466.432Z" fill="black"/>
<path d="M250.161 486.97C250.161 484.208 248.541 482.487 246.308 482.487C244.075 482.487 242.456 484.208 242.456 486.97C242.456 489.731 244.075 491.453 246.308 491.453C248.541 491.453 250.161 489.731 250.161 486.97ZM249.138 486.97C249.138 489.237 247.894 490.464 246.308 490.464C244.723 490.464 243.479 489.237 243.479 486.97C243.479 484.703 244.723 483.475 246.308 483.475C247.894 483.475 249.138 484.703 249.138 486.97ZM255.926 488.657C255.926 489.884 254.989 490.447 254.239 490.447C253.404 490.447 252.807 489.833 252.807 488.879V484.788H251.801V488.947C251.801 490.617 252.688 491.418 253.915 491.418C254.904 491.418 255.551 490.89 255.858 490.225H255.926V491.333H256.932V484.788H255.926V488.657ZM261.621 484.788H260.223V483.22H259.217V484.788H258.229V485.64H259.217V489.731C259.217 490.873 260.138 491.418 260.99 491.418C261.365 491.418 261.604 491.35 261.74 491.299L261.535 490.396C261.45 490.413 261.314 490.447 261.092 490.447C260.649 490.447 260.223 490.311 260.223 489.458V485.64H261.621V484.788ZM265.722 491.47C267.171 491.47 268.126 490.583 268.296 489.424H267.29C267.103 490.14 266.506 490.566 265.722 490.566C264.529 490.566 263.762 489.578 263.762 488.061C263.762 486.578 264.546 485.606 265.722 485.606C266.608 485.606 267.137 486.151 267.29 486.748H268.296C268.126 485.521 267.086 484.703 265.705 484.703C263.932 484.703 262.756 486.1 262.756 488.095C262.756 490.055 263.881 491.47 265.722 491.47ZM271.692 491.487C272.834 491.487 273.431 490.873 273.635 490.447H273.687V491.333H274.692V487.021C274.692 484.941 273.107 484.703 272.272 484.703C271.283 484.703 270.158 485.043 269.647 486.237L270.601 486.578C270.823 486.1 271.347 485.589 272.306 485.589C273.231 485.589 273.687 486.079 273.687 486.918V486.953C273.687 487.438 273.192 487.396 271.999 487.549C270.785 487.707 269.459 487.975 269.459 489.475C269.459 490.754 270.448 491.487 271.692 491.487ZM271.846 490.583C271.045 490.583 270.465 490.225 270.465 489.526C270.465 488.759 271.164 488.521 271.948 488.418C272.374 488.367 273.516 488.248 273.687 488.043V488.964C273.687 489.782 273.039 490.583 271.846 490.583ZM276.528 491.333H277.534V487.242C277.534 486.284 278.232 485.606 279.017 485.606C279.779 485.606 280.312 486.105 280.312 486.85V491.333H281.335V487.072C281.335 486.228 281.863 485.606 282.784 485.606C283.499 485.606 284.113 485.985 284.113 486.953V491.333H285.119V486.953C285.119 485.414 284.292 484.703 283.124 484.703C282.187 484.703 281.501 485.133 281.164 485.811H281.096C280.772 485.112 280.201 484.703 279.34 484.703C278.488 484.703 277.857 485.112 277.585 485.811H277.499V484.788H276.528V491.333ZM286.958 493.788H287.963V490.328H288.048C288.27 490.686 288.696 491.47 289.958 491.47C291.594 491.47 292.736 490.157 292.736 488.078C292.736 486.015 291.594 484.703 289.941 484.703C288.662 484.703 288.27 485.487 288.048 485.828H287.929V484.788H286.958V493.788ZM287.946 488.061C287.946 486.595 288.594 485.606 289.821 485.606C291.1 485.606 291.73 486.68 291.73 488.061C291.73 489.458 291.083 490.566 289.821 490.566C288.611 490.566 287.946 489.543 287.946 488.061ZM298.395 488.657C298.395 489.884 297.458 490.447 296.708 490.447C295.872 490.447 295.276 489.833 295.276 488.879V484.788H294.27V488.947C294.27 490.617 295.156 491.418 296.384 491.418C297.372 491.418 298.02 490.89 298.327 490.225H298.395V491.333H299.401V484.788H298.395V488.657ZM305.879 486.254C305.564 485.325 304.856 484.703 303.561 484.703C302.18 484.703 301.157 485.487 301.157 486.595C301.157 487.498 301.694 488.103 302.896 488.384L303.987 488.64C304.648 488.793 304.959 489.109 304.959 489.561C304.959 490.123 304.362 490.583 303.425 490.583C302.602 490.583 302.086 490.23 301.907 489.526L300.953 489.765C301.187 490.877 302.104 491.47 303.442 491.47C304.963 491.47 305.998 490.639 305.998 489.509C305.998 488.597 305.427 488.022 304.26 487.737L303.288 487.498C302.513 487.306 302.163 487.046 302.163 486.543C302.163 485.981 302.76 485.572 303.561 485.572C304.439 485.572 304.801 486.058 304.976 486.509L305.879 486.254ZM312.37 491.333H313.359L314.791 486.305H314.893L316.325 491.333H317.313L319.308 484.788H318.251L316.836 489.782H316.768L315.387 484.788H314.313L312.916 489.799H312.847L311.433 484.788H310.376L312.37 491.333ZM320.637 491.333H321.643V484.788H320.637V491.333ZM321.149 483.697C321.541 483.697 321.865 483.39 321.865 483.015C321.865 482.64 321.541 482.333 321.149 482.333C320.757 482.333 320.433 482.64 320.433 483.015C320.433 483.39 320.757 483.697 321.149 483.697ZM324.491 482.606H323.485V491.333H324.491V482.606ZM327.338 482.606H326.333V491.333H327.338V482.606ZM252.854 506.487C253.996 506.487 254.593 505.873 254.798 505.447H254.849V506.333H255.854V502.021C255.854 499.941 254.269 499.703 253.434 499.703C252.445 499.703 251.32 500.043 250.809 501.237L251.763 501.578C251.985 501.1 252.509 500.589 253.468 500.589C254.393 500.589 254.849 501.079 254.849 501.918V501.953C254.849 502.438 254.354 502.396 253.161 502.549C251.947 502.707 250.621 502.975 250.621 504.475C250.621 505.754 251.61 506.487 252.854 506.487ZM253.008 505.583C252.207 505.583 251.627 505.225 251.627 504.526C251.627 503.759 252.326 503.521 253.11 503.418C253.536 503.367 254.678 503.248 254.849 503.043V503.964C254.849 504.782 254.201 505.583 253.008 505.583ZM262.326 501.254C262.011 500.325 261.304 499.703 260.008 499.703C258.627 499.703 257.605 500.487 257.605 501.595C257.605 502.498 258.142 503.103 259.343 503.384L260.434 503.64C261.095 503.793 261.406 504.109 261.406 504.561C261.406 505.123 260.809 505.583 259.872 505.583C259.049 505.583 258.534 505.23 258.355 504.526L257.4 504.765C257.635 505.877 258.551 506.47 259.889 506.47C261.41 506.47 262.446 505.639 262.446 504.509C262.446 503.597 261.875 503.022 260.707 502.737L259.735 502.498C258.96 502.306 258.61 502.046 258.61 501.543C258.61 500.981 259.207 500.572 260.008 500.572C260.886 500.572 261.248 501.058 261.423 501.509L262.326 501.254ZM268.596 501.254C268.281 500.325 267.573 499.703 266.278 499.703C264.897 499.703 263.874 500.487 263.874 501.595C263.874 502.498 264.411 503.103 265.613 503.384L266.704 503.64C267.364 503.793 267.675 504.109 267.675 504.561C267.675 505.123 267.079 505.583 266.141 505.583C265.319 505.583 264.803 505.23 264.624 504.526L263.67 504.765C263.904 505.877 264.82 506.47 266.158 506.47C267.68 506.47 268.715 505.639 268.715 504.509C268.715 503.597 268.144 503.022 266.977 502.737L266.005 502.498C265.229 502.306 264.88 502.046 264.88 501.543C264.88 500.981 265.477 500.572 266.278 500.572C267.156 500.572 267.518 501.058 267.692 501.509L268.596 501.254ZM270.229 506.333H271.235V499.788H270.229V506.333ZM270.74 498.697C271.132 498.697 271.456 498.39 271.456 498.015C271.456 497.64 271.132 497.333 270.74 497.333C270.348 497.333 270.025 497.64 270.025 498.015C270.025 498.39 270.348 498.697 270.74 498.697ZM277.713 501.254C277.398 500.325 276.69 499.703 275.395 499.703C274.014 499.703 272.991 500.487 272.991 501.595C272.991 502.498 273.528 503.103 274.73 503.384L275.821 503.64C276.482 503.793 276.793 504.109 276.793 504.561C276.793 505.123 276.196 505.583 275.259 505.583C274.436 505.583 273.92 505.23 273.741 504.526L272.787 504.765C273.021 505.877 273.938 506.47 275.276 506.47C276.797 506.47 277.832 505.639 277.832 504.509C277.832 503.597 277.261 503.022 276.094 502.737L275.122 502.498C274.347 502.306 273.997 502.046 273.997 501.543C273.997 500.981 274.594 500.572 275.395 500.572C276.273 500.572 276.635 501.058 276.81 501.509L277.713 501.254ZM282.193 499.788H280.795V498.22H279.789V499.788H278.801V500.64H279.789V504.731C279.789 505.873 280.71 506.418 281.562 506.418C281.937 506.418 282.176 506.35 282.312 506.299L282.108 505.396C282.022 505.413 281.886 505.447 281.664 505.447C281.221 505.447 280.795 505.311 280.795 504.458V500.64H282.193V499.788ZM287.728 508.788C288.636 508.788 289.275 508.306 289.654 507.288L292.441 499.805L291.342 499.788L289.535 505.004H289.467L287.66 499.788H286.569L288.99 506.367L288.802 506.879C288.436 507.876 287.984 507.97 287.251 507.782L286.995 508.668C287.098 508.72 287.387 508.788 287.728 508.788ZM296.197 506.47C297.969 506.47 299.163 505.123 299.163 503.095C299.163 501.049 297.969 499.703 296.197 499.703C294.424 499.703 293.231 501.049 293.231 503.095C293.231 505.123 294.424 506.47 296.197 506.47ZM296.197 505.566C294.85 505.566 294.237 504.407 294.237 503.095C294.237 501.782 294.85 500.606 296.197 500.606C297.543 500.606 298.157 501.782 298.157 503.095C298.157 504.407 297.543 505.566 296.197 505.566ZM304.823 503.657C304.823 504.884 303.885 505.447 303.135 505.447C302.3 505.447 301.703 504.833 301.703 503.879V499.788H300.698V503.947C300.698 505.617 301.584 506.418 302.811 506.418C303.8 506.418 304.448 505.89 304.755 505.225H304.823V506.333H305.828V499.788H304.823V503.657ZM311.045 506.333H312.051V499.788H311.045V506.333ZM311.557 498.697C311.949 498.697 312.273 498.39 312.273 498.015C312.273 497.64 311.949 497.333 311.557 497.333C311.165 497.333 310.841 497.64 310.841 498.015C310.841 498.39 311.165 498.697 311.557 498.697ZM314.899 502.396C314.899 501.254 315.606 500.606 316.569 500.606C317.502 500.606 318.069 501.215 318.069 502.242V506.333H319.075V502.174C319.075 500.504 318.184 499.703 316.859 499.703C315.87 499.703 315.257 500.146 314.95 500.811H314.865V499.788H313.893V506.333H314.899V502.396ZM245.592 516.254C245.277 515.325 244.569 514.703 243.274 514.703C241.893 514.703 240.87 515.487 240.87 516.595C240.87 517.498 241.407 518.103 242.609 518.384L243.7 518.64C244.36 518.793 244.672 519.109 244.672 519.561C244.672 520.123 244.075 520.583 243.137 520.583C242.315 520.583 241.799 520.23 241.62 519.526L240.666 519.765C240.9 520.877 241.816 521.47 243.154 521.47C244.676 521.47 245.711 520.639 245.711 519.509C245.711 518.597 245.14 518.022 243.973 517.737L243.001 517.498C242.225 517.306 241.876 517.046 241.876 516.543C241.876 515.981 242.473 515.572 243.274 515.572C244.152 515.572 244.514 516.058 244.689 516.509L245.592 516.254ZM249.884 521.47C251.333 521.47 252.288 520.583 252.458 519.424H251.452C251.265 520.14 250.668 520.566 249.884 520.566C248.691 520.566 247.924 519.578 247.924 518.061C247.924 516.578 248.708 515.606 249.884 515.606C250.771 515.606 251.299 516.151 251.452 516.748H252.458C252.288 515.521 251.248 514.703 249.867 514.703C248.094 514.703 246.918 516.1 246.918 518.095C246.918 520.055 248.043 521.47 249.884 521.47ZM254.934 517.396C254.934 516.254 255.663 515.606 256.656 515.606C257.602 515.606 258.173 516.203 258.173 517.242V521.333H259.178V517.174C259.178 515.491 258.283 514.703 256.945 514.703C255.914 514.703 255.326 515.133 255.019 515.811H254.934V512.606H253.928V521.333H254.934V517.396ZM263.762 521.47C265.092 521.47 266.064 520.805 266.37 519.816L265.399 519.543C265.143 520.225 264.551 520.566 263.762 520.566C262.582 520.566 261.768 519.803 261.721 518.401H266.473V517.975C266.473 515.538 265.024 514.703 263.66 514.703C261.887 514.703 260.711 516.1 260.711 518.112C260.711 520.123 261.87 521.47 263.762 521.47ZM261.721 517.532C261.789 516.514 262.51 515.606 263.66 515.606C264.751 515.606 265.45 516.424 265.45 517.532H261.721ZM270.474 521.47C271.735 521.47 272.162 520.686 272.383 520.328H272.502V521.333H273.474V512.606H272.468V515.828H272.383C272.162 515.487 271.77 514.703 270.491 514.703C268.838 514.703 267.696 516.015 267.696 518.078C267.696 520.157 268.838 521.47 270.474 521.47ZM270.61 520.566C269.349 520.566 268.701 519.458 268.701 518.061C268.701 516.68 269.332 515.606 270.61 515.606C271.838 515.606 272.485 516.595 272.485 518.061C272.485 519.543 271.821 520.566 270.61 520.566ZM279.581 518.657C279.581 519.884 278.643 520.447 277.893 520.447C277.058 520.447 276.461 519.833 276.461 518.879V514.788H275.456V518.947C275.456 520.617 276.342 521.418 277.569 521.418C278.558 521.418 279.206 520.89 279.512 520.225H279.581V521.333H280.586V514.788H279.581V518.657ZM283.434 512.606H282.428V521.333H283.434V512.606ZM285.276 521.333H286.282V514.788H285.276V521.333ZM285.787 513.697C286.179 513.697 286.503 513.39 286.503 513.015C286.503 512.64 286.179 512.333 285.787 512.333C285.395 512.333 285.071 512.64 285.071 513.015C285.071 513.39 285.395 513.697 285.787 513.697ZM289.129 517.396C289.129 516.254 289.837 515.606 290.8 515.606C291.733 515.606 292.3 516.215 292.3 517.242V521.333H293.305V517.174C293.305 515.504 292.415 514.703 291.089 514.703C290.101 514.703 289.487 515.146 289.18 515.811H289.095V514.788H288.124V521.333H289.129V517.396ZM297.785 523.924C299.353 523.924 300.615 523.208 300.615 521.521V514.788H299.643V515.828H299.541C299.319 515.487 298.91 514.703 297.632 514.703C295.978 514.703 294.836 516.015 294.836 518.026C294.836 520.072 296.029 521.231 297.615 521.231C298.893 521.231 299.302 520.481 299.524 520.123H299.609V521.453C299.609 522.543 298.842 523.038 297.785 523.038C296.596 523.038 296.179 522.411 295.91 522.049L295.109 522.612C295.518 523.298 296.324 523.924 297.785 523.924ZM297.751 520.328C296.49 520.328 295.842 519.373 295.842 518.009C295.842 516.68 296.473 515.606 297.751 515.606C298.978 515.606 299.626 516.595 299.626 518.009C299.626 519.458 298.961 520.328 297.751 520.328ZM306.478 523.788C307.386 523.788 308.025 523.306 308.404 522.288L311.191 514.805L310.092 514.788L308.285 520.004H308.217L306.41 514.788H305.319L307.74 521.367L307.552 521.879C307.186 522.876 306.734 522.97 306.001 522.782L305.745 523.668C305.848 523.72 306.137 523.788 306.478 523.788ZM314.947 521.47C316.719 521.47 317.913 520.123 317.913 518.095C317.913 516.049 316.719 514.703 314.947 514.703C313.174 514.703 311.981 516.049 311.981 518.095C311.981 520.123 313.174 521.47 314.947 521.47ZM314.947 520.566C313.6 520.566 312.987 519.407 312.987 518.095C312.987 516.782 313.6 515.606 314.947 515.606C316.293 515.606 316.907 516.782 316.907 518.095C316.907 519.407 316.293 520.566 314.947 520.566ZM323.573 518.657C323.573 519.884 322.635 520.447 321.885 520.447C321.05 520.447 320.453 519.833 320.453 518.879V514.788H319.448V518.947C319.448 520.617 320.334 521.418 321.561 521.418C322.55 521.418 323.198 520.89 323.505 520.225H323.573V521.333H324.578V514.788H323.573V518.657ZM326.42 521.333H327.426V517.191C327.426 516.305 328.125 515.657 329.08 515.657C329.348 515.657 329.625 515.708 329.693 515.725V514.703C329.578 514.694 329.314 514.686 329.165 514.686C328.381 514.686 327.699 515.129 327.46 515.776H327.392V514.788H326.42V521.333ZM248.589 536.47C250.038 536.47 250.993 535.583 251.163 534.424H250.157C249.97 535.14 249.373 535.566 248.589 535.566C247.396 535.566 246.629 534.578 246.629 533.061C246.629 531.578 247.413 530.606 248.589 530.606C249.476 530.606 250.004 531.151 250.157 531.748H251.163C250.993 530.521 249.953 529.703 248.572 529.703C246.8 529.703 245.623 531.1 245.623 533.095C245.623 535.055 246.748 536.47 248.589 536.47ZM253.639 532.396C253.639 531.254 254.368 530.606 255.361 530.606C256.307 530.606 256.878 531.203 256.878 532.242V536.333H257.883V532.174C257.883 530.491 256.988 529.703 255.65 529.703C254.619 529.703 254.031 530.133 253.724 530.811H253.639V527.606H252.633V536.333H253.639V532.396ZM259.723 536.333H260.729V529.788H259.723V536.333ZM260.235 528.697C260.627 528.697 260.95 528.39 260.95 528.015C260.95 527.64 260.627 527.333 260.235 527.333C259.843 527.333 259.519 527.64 259.519 528.015C259.519 528.39 259.843 528.697 260.235 528.697ZM263.577 527.606H262.571V536.333H263.577V527.606ZM267.89 536.47C269.151 536.47 269.578 535.686 269.799 535.328H269.919V536.333H270.89V527.606H269.884V530.828H269.799C269.578 530.487 269.186 529.703 267.907 529.703C266.254 529.703 265.112 531.015 265.112 533.078C265.112 535.157 266.254 536.47 267.89 536.47ZM268.026 535.566C266.765 535.566 266.117 534.458 266.117 533.061C266.117 531.68 266.748 530.606 268.026 530.606C269.254 530.606 269.901 531.595 269.901 533.061C269.901 534.543 269.237 535.566 268.026 535.566ZM273.758 527.606H272.803V528.39C272.803 529.021 272.497 529.566 272.139 530.078L272.684 530.521C273.366 529.975 273.758 529.072 273.758 528.373V527.606ZM278.797 531.254C278.482 530.325 277.774 529.703 276.479 529.703C275.098 529.703 274.075 530.487 274.075 531.595C274.075 532.498 274.612 533.103 275.814 533.384L276.905 533.64C277.566 533.793 277.877 534.109 277.877 534.561C277.877 535.123 277.28 535.583 276.343 535.583C275.52 535.583 275.004 535.23 274.825 534.526L273.871 534.765C274.105 535.877 275.021 536.47 276.36 536.47C277.881 536.47 278.916 535.639 278.916 534.509C278.916 533.597 278.345 533.022 277.178 532.737L276.206 532.498C275.431 532.306 275.081 532.046 275.081 531.543C275.081 530.981 275.678 530.572 276.479 530.572C277.357 530.572 277.719 531.058 277.894 531.509L278.797 531.254ZM286.464 536.47C287.913 536.47 288.868 535.583 289.038 534.424H288.032C287.845 535.14 287.248 535.566 286.464 535.566C285.271 535.566 284.504 534.578 284.504 533.061C284.504 531.578 285.288 530.606 286.464 530.606C287.351 530.606 287.879 531.151 288.032 531.748H289.038C288.868 530.521 287.828 529.703 286.447 529.703C284.675 529.703 283.498 531.1 283.498 533.095C283.498 535.055 284.623 536.47 286.464 536.47ZM291.514 527.606H290.508V536.333H291.514V527.606ZM295.282 536.487C296.424 536.487 297.021 535.873 297.225 535.447H297.276V536.333H298.282V532.021C298.282 529.941 296.697 529.703 295.862 529.703C294.873 529.703 293.748 530.043 293.237 531.237L294.191 531.578C294.413 531.1 294.937 530.589 295.896 530.589C296.82 530.589 297.276 531.079 297.276 531.918V531.953C297.276 532.438 296.782 532.396 295.589 532.549C294.374 532.707 293.049 532.975 293.049 534.475C293.049 535.754 294.038 536.487 295.282 536.487ZM295.436 535.583C294.634 535.583 294.055 535.225 294.055 534.526C294.055 533.759 294.754 533.521 295.538 533.418C295.964 533.367 297.106 533.248 297.276 533.043V533.964C297.276 534.782 296.629 535.583 295.436 535.583ZM304.754 531.254C304.439 530.325 303.731 529.703 302.436 529.703C301.055 529.703 300.032 530.487 300.032 531.595C300.032 532.498 300.569 533.103 301.771 533.384L302.862 533.64C303.523 533.793 303.834 534.109 303.834 534.561C303.834 535.123 303.237 535.583 302.3 535.583C301.477 535.583 300.961 535.23 300.782 534.526L299.828 534.765C300.062 535.877 300.979 536.47 302.317 536.47C303.838 536.47 304.873 535.639 304.873 534.509C304.873 533.597 304.302 533.022 303.135 532.737L302.163 532.498C301.388 532.306 301.038 532.046 301.038 531.543C301.038 530.981 301.635 530.572 302.436 530.572C303.314 530.572 303.676 531.058 303.851 531.509L304.754 531.254ZM311.024 531.254C310.708 530.325 310.001 529.703 308.705 529.703C307.325 529.703 306.302 530.487 306.302 531.595C306.302 532.498 306.839 533.103 308.041 533.384L309.132 533.64C309.792 533.793 310.103 534.109 310.103 534.561C310.103 535.123 309.507 535.583 308.569 535.583C307.747 535.583 307.231 535.23 307.052 534.526L306.097 534.765C306.332 535.877 307.248 536.47 308.586 536.47C310.107 536.47 311.143 535.639 311.143 534.509C311.143 533.597 310.572 533.022 309.404 532.737L308.433 532.498C307.657 532.306 307.308 532.046 307.308 531.543C307.308 530.981 307.904 530.572 308.705 530.572C309.583 530.572 309.945 531.058 310.12 531.509L311.024 531.254ZM315.401 536.47C316.731 536.47 317.702 535.805 318.009 534.816L317.037 534.543C316.782 535.225 316.189 535.566 315.401 535.566C314.221 535.566 313.407 534.803 313.36 533.401H318.111V532.975C318.111 530.538 316.662 529.703 315.299 529.703C313.526 529.703 312.35 531.1 312.35 533.112C312.35 535.123 313.509 536.47 315.401 536.47ZM313.36 532.532C313.428 531.514 314.148 530.606 315.299 530.606C316.39 530.606 317.089 531.424 317.089 532.532H313.36ZM324.278 531.254C323.962 530.325 323.255 529.703 321.959 529.703C320.579 529.703 319.556 530.487 319.556 531.595C319.556 532.498 320.093 533.103 321.295 533.384L322.385 533.64C323.046 533.793 323.357 534.109 323.357 534.561C323.357 535.123 322.76 535.583 321.823 535.583C321.001 535.583 320.485 535.23 320.306 534.526L319.351 534.765C319.586 535.877 320.502 536.47 321.84 536.47C323.361 536.47 324.397 535.639 324.397 534.509C324.397 533.597 323.826 533.022 322.658 532.737L321.687 532.498C320.911 532.306 320.562 532.046 320.562 531.543C320.562 530.981 321.158 530.572 321.959 530.572C322.837 530.572 323.199 531.058 323.374 531.509L324.278 531.254Z" fill="black"/>
<defs>
<filter id="filter0_d" x="0" y="0" width="164" height="164" filterUnits="userSpaceOnUse" color-interpolation-filters="sRGB">
<feFlood flood-opacity="0" result="BackgroundImageFix"/>
<feColorMatrix in="SourceAlpha" type="matrix" values="0 0 0 0 0 0 0 0 0 0 0 0 0 0 0 0 0 0 127 0"/>
<feMorphology radius="2" operator="dilate" in="SourceAlpha" result="effect1_dropShadow"/>
<feOffset dy="5"/>
<feGaussianBlur stdDeviation="5"/>
<feColorMatrix type="matrix" values="0 0 0 0 0 0 0 0 0 0 0 0 0 0 0 0 0 0 0.1 0"/>
<feBlend mode="normal" in2="BackgroundImageFix" result="effect1_dropShadow"/>
<feBlend mode="normal" in="SourceGraphic" in2="effect1_dropShadow" result="shape"/>
</filter>
<filter id="filter1_d" x="203" y="140" width="164" height="164" filterUnits="userSpaceOnUse" color-interpolation-filters="sRGB">
<feFlood flood-opacity="0" result="BackgroundImageFix"/>
<feColorMatrix in="SourceAlpha" type="matrix" values="0 0 0 0 0 0 0 0 0 0 0 0 0 0 0 0 0 0 127 0"/>
<feMorphology radius="2" operator="dilate" in="SourceAlpha" result="effect1_dropShadow"/>
<feOffset dy="5"/>
<feGaussianBlur stdDeviation="5"/>
<feColorMatrix type="matrix" values="0 0 0 0 0 0 0 0 0 0 0 0 0 0 0 0 0 0 0.1 0"/>
<feBlend mode="normal" in2="BackgroundImageFix" result="effect1_dropShadow"/>
<feBlend mode="normal" in="SourceGraphic" in2="effect1_dropShadow" result="shape"/>
</filter>
<filter id="filter2_d" x="0" y="280" width="164" height="164" filterUnits="userSpaceOnUse" color-interpolation-filters="sRGB">
<feFlood flood-opacity="0" result="BackgroundImageFix"/>
<feColorMatrix in="SourceAlpha" type="matrix" values="0 0 0 0 0 0 0 0 0 0 0 0 0 0 0 0 0 0 127 0"/>
<feMorphology radius="2" operator="dilate" in="SourceAlpha" result="effect1_dropShadow"/>
<feOffset dy="5"/>
<feGaussianBlur stdDeviation="5"/>
<feColorMatrix type="matrix" values="0 0 0 0 0 0 0 0 0 0 0 0 0 0 0 0 0 0 0.1 0"/>
<feBlend mode="normal" in2="BackgroundImageFix" result="effect1_dropShadow"/>
<feBlend mode="normal" in="SourceGraphic" in2="effect1_dropShadow" result="shape"/>
</filter>
<filter id="filter3_d" x="203" y="420" width="164" height="164" filterUnits="userSpaceOnUse" color-interpolation-filters="sRGB">
<feFlood flood-opacity="0" result="BackgroundImageFix"/>
<feColorMatrix in="SourceAlpha" type="matrix" values="0 0 0 0 0 0 0 0 0 0 0 0 0 0 0 0 0 0 127 0"/>
<feMorphology radius="2" operator="dilate" in="SourceAlpha" result="effect1_dropShadow"/>
<feOffset dy="5"/>
<feGaussianBlur stdDeviation="5"/>
<feColorMatrix type="matrix" values="0 0 0 0 0 0 0 0 0 0 0 0 0 0 0 0 0 0 0.1 0"/>
<feBlend mode="normal" in2="BackgroundImageFix" result="effect1_dropShadow"/>
<feBlend mode="normal" in="SourceGraphic" in2="effect1_dropShadow" result="shape"/>
</filter>
<clipPath id="clip0">
<rect width="54.3" height="215.444" fill="white" transform="translate(289.385 189.751) rotate(127.044)"/>
</clipPath>
<clipPath id="clip1">
<rect width="54.3" height="215.444" fill="white" transform="translate(289.673 483.79) rotate(127.044)"/>
</clipPath>
<clipPath id="clip2">
<rect width="54.3" height="215.444" fill="white" transform="translate(241.805 186) rotate(42.2313)"/>
</clipPath>
</defs>
</svg>
