<svg width="195" height="120" viewBox="0 0 195 120" fill="none" xmlns="http://www.w3.org/2000/svg">
<g clip-path="url(#clip0)">
<path d="M1.39429 101.699L31.5468 15.5991L64.8366 100.654" stroke="black" stroke-width="2" stroke-miterlimit="10" stroke-linecap="round" stroke-linejoin="round"/>
<path d="M2.35291 99.3464C2.61434 98.9107 2.96293 98.5621 3.39866 98.1264" stroke="black" stroke-width="2" stroke-linecap="round" stroke-linejoin="round"/>
<path d="M5.75159 96.0349C11.5904 91.7647 21.2636 89.2375 25.4466 88.976C30.2396 88.7146 44.5315 88.8889 49.2374 89.5861C52.549 90.1089 55.8605 90.8932 58.7363 92.549" stroke="black" stroke-width="2" stroke-linecap="round" stroke-linejoin="round" stroke-dasharray="3.6 3.6"/>
<path d="M60.0436 93.3333C60.4793 93.5948 60.915 93.9434 61.2636 94.2919" stroke="black" stroke-width="2" stroke-linecap="round" stroke-linejoin="round"/>
<path d="M61.3508 94.2919C64.6623 97.1678 66.4924 102.135 64.5752 106.057C63.0065 109.368 59.4335 111.111 56.0349 112.331C45.3159 116.166 12.0261 118.954 3.31154 108.932C0.0871373 105.272 0.348575 101.961 2.35293 99.1721" stroke="black" stroke-width="2" stroke-miterlimit="10" stroke-linecap="round" stroke-linejoin="round"/>
<path d="M31.0239 100.654V16.122" stroke="black" stroke-width="2" stroke-miterlimit="10" stroke-linecap="round" stroke-linejoin="round" stroke-dasharray="3.64 3.64"/>
<path d="M64.8366 100.654H33.1155" stroke="black" stroke-width="2" stroke-miterlimit="10" stroke-linecap="round" stroke-linejoin="round"/>
<path d="M69.8911 98.7364C71.1983 98.3007 72.5926 98.9107 73.987 98.5621C75.6428 98.1264 76.5142 95.9477 75.6428 94.4662C74.7713 92.9848 72.5055 92.7233 71.2855 93.8562C70.0654 95.0763 70.2397 96.9935 70.414 98.7364C70.7626 101.525 71.1112 104.227 71.5469 107.015" stroke="black" stroke-width="2" stroke-miterlimit="10" stroke-linecap="round" stroke-linejoin="round"/>
<path d="M34.6841 53.0719C34.7712 57.2549 34.7712 61.5251 34.8584 65.7081C35.0327 64.4009 35.207 63.1808 35.3812 61.8736C35.5555 60.8279 36.0784 59.5207 37.1242 59.7821C37.7342 59.9564 37.9956 60.7407 38.0828 61.4379C38.2571 62.4837 38.3442 63.5294 38.5185 64.6623" stroke="black" stroke-width="2" stroke-miterlimit="10" stroke-linecap="round" stroke-linejoin="round"/>
<path d="M28.4967 7.40741C30.6754 9.06318 32.6797 10.8061 34.6841 12.6362" stroke="black" stroke-width="2" stroke-miterlimit="10" stroke-linecap="round" stroke-linejoin="round"/>
<path d="M29.0197 12.2876C30.5883 10.719 32.0698 9.15033 33.6384 7.66885C33.7255 7.5817 33.8127 7.49456 33.7255 7.40741C33.6384 7.32027 33.4641 7.49456 33.6384 7.49456" stroke="black" stroke-width="2" stroke-miterlimit="10" stroke-linecap="round" stroke-linejoin="round"/>
<path d="M31.634 91.939C34.2484 91.7647 36.8628 91.8519 39.4772 92.2004C39.39 95.0763 40.2615 97.8649 40.1743 100.741" stroke="black" stroke-width="2" stroke-miterlimit="10" stroke-linecap="round" stroke-linejoin="round"/>
<path d="M42.963 93.5076C43.0502 94.6405 43.1373 95.6863 43.3116 96.8192C43.4859 96.122 43.3987 95.3377 43.4859 94.5534C43.573 93.7691 44.0088 92.9847 44.7931 92.8976C45.4031 92.8105 46.0131 93.4205 46.1874 94.0305C46.3617 94.6405 46.2746 95.3377 46.1003 95.9477" stroke="black" stroke-width="2" stroke-miterlimit="10" stroke-linecap="round" stroke-linejoin="round"/>
<path d="M91.7648 89.4118C106.58 61.9608 118.257 37.9956 130.109 13.9433C146.754 38.6928 158.344 58.7364 177.429 86.1874" stroke="black" stroke-width="2" stroke-miterlimit="10" stroke-linecap="round" stroke-linejoin="round"/>
<path d="M92.2876 88.2789C107.538 95.4248 123.224 101.525 139.259 106.492C153.115 101.002 166.972 94.8148 178.998 85.9259" stroke="black" stroke-width="2" stroke-miterlimit="10" stroke-linecap="round" stroke-linejoin="round"/>
<path d="M129.848 13.8562C132.985 47.146 137.168 75.6427 140.392 107.364" stroke="black" stroke-width="2" stroke-miterlimit="10" stroke-linecap="round" stroke-linejoin="round"/>
<path d="M92.2876 87.756C120.61 86.7974 148.932 86.7974 177.255 87.6688" stroke="black" stroke-width="2" stroke-miterlimit="10" stroke-linecap="round" stroke-linejoin="round" stroke-dasharray="3.64 3.64"/>
<path d="M129.325 16.8192C128.715 39.7386 129.76 58.7364 129.586 85.9259" stroke="black" stroke-width="2" stroke-miterlimit="10" stroke-linecap="round" stroke-linejoin="round" stroke-dasharray="3.64 3.64"/>
<path d="M85.3159 99.5207C86.3617 96.9935 87.3203 94.2919 88.1917 91.6776C89.2375 94.2919 89.9346 96.9935 90.3704 99.7821" stroke="black" stroke-width="2" stroke-miterlimit="10" stroke-linecap="round" stroke-linejoin="round"/>
<path d="M138.998 112.418C139.346 114.597 139.434 116.863 139.434 119.129C139.434 118.867 139.434 118.606 139.434 118.431" stroke="black" stroke-width="2" stroke-miterlimit="10" stroke-linecap="round" stroke-linejoin="round"/>
<path d="M85.6646 97.6906C86.8846 97.2549 88.1046 97.0806 89.3247 97.0806" stroke="black" stroke-width="2" stroke-miterlimit="10" stroke-linecap="round" stroke-linejoin="round"/>
<path d="M138.911 112.331C139.956 111.547 141.438 111.46 142.658 111.983C142.919 112.07 143.181 112.244 143.268 112.593C143.355 112.854 143.094 113.115 142.919 113.29C142.309 113.9 141.525 114.336 140.654 114.423C141.699 114.336 142.919 114.248 143.529 115.033C144.227 115.904 143.704 117.298 142.745 117.908C141.786 118.519 140.566 118.519 139.434 118.431" stroke="black" stroke-width="2" stroke-miterlimit="10" stroke-linecap="round" stroke-linejoin="round"/>
<path d="M185.621 82.3529C183.791 82.2658 182.135 84.0959 182.396 85.8388C182.571 87.6688 184.575 88.976 186.318 88.5403" stroke="black" stroke-width="2" stroke-miterlimit="10" stroke-linecap="round" stroke-linejoin="round"/>
<path d="M131.503 3.2244C130.37 2.78867 128.889 3.48583 128.453 4.61873C128.366 4.79302 128.366 4.96732 128.366 5.14161C128.453 5.3159 128.54 5.40305 128.715 5.49019C129.499 6.01307 130.283 6.53594 131.067 7.05882C131.59 7.4074 132.113 7.75599 132.2 8.36601C132.375 9.15032 131.59 9.84749 130.806 9.93464C130.022 10.0218 129.237 9.76034 128.54 9.49891" stroke="black" stroke-width="2" stroke-miterlimit="10" stroke-linecap="round" stroke-linejoin="round"/>
<path d="M68.4967 16.732C72.3311 16.6449 72.6797 16.5577 76.6013 16.4706" stroke="black" stroke-width="2" stroke-miterlimit="10" stroke-linecap="round" stroke-linejoin="round"/>
<path d="M82.1786 15.9477C86.013 15.8606 105.621 15.7734 109.455 15.6863" stroke="black" stroke-width="2" stroke-miterlimit="10" stroke-linecap="round" stroke-linejoin="round"/>
<path d="M68.4967 21.0022C72.3311 20.915 72.6797 20.8279 76.6013 20.7407" stroke="black" stroke-width="2" stroke-miterlimit="10" stroke-linecap="round" stroke-linejoin="round"/>
<path d="M91.1547 7.05882C92.8104 5.14161 94.2919 3.05011 95.512 0.87146C95.512 4.61874 95.5991 8.27887 95.5991 12.0261" stroke="black" stroke-width="2" stroke-miterlimit="10" stroke-linecap="round" stroke-linejoin="round"/>
<path d="M82.0043 26.4052C83.66 24.488 85.1415 22.3965 86.3616 20.2179C86.3616 23.9651 86.4487 27.6253 86.4487 31.3726" stroke="black" stroke-width="2" stroke-miterlimit="10" stroke-linecap="round" stroke-linejoin="round"/>
<path d="M94.0304 21.7865C94.2918 24.8366 94.1175 26.841 94.379 28.671" stroke="black" stroke-width="2" stroke-miterlimit="10" stroke-linecap="round" stroke-linejoin="round"/>
<path d="M90.806 25.4466C93.8561 25.1852 95.8605 25.3595 97.6906 25.098" stroke="black" stroke-width="2" stroke-miterlimit="10" stroke-linecap="round" stroke-linejoin="round"/>
<path d="M54.6405 13.5076C55.7734 13.5948 56.9934 14.0305 57.8649 14.902C58.7363 15.8606 59.3464 17.3421 59.0849 18.7364C58.9106 19.6078 58.4749 20.4793 57.8649 21.0022C57.1677 21.6122 56.2963 21.6994 55.4248 21.8736C55.0762 21.9608 54.7276 21.9608 54.4662 22.0479" stroke="black" stroke-width="2" stroke-miterlimit="10" stroke-linecap="round" stroke-linejoin="round"/>
<path d="M63.5293 13.5076C62.3964 13.5948 61.1764 14.0305 60.3049 14.902C59.4334 15.8606 58.8234 17.3421 59.0849 18.7364C59.2592 19.6078 59.6949 20.4793 60.3049 21.0022C61.0021 21.6122 61.8735 21.6994 62.745 21.8736C63.0936 21.9608 63.4422 21.9608 63.7036 22.0479" stroke="black" stroke-width="2" stroke-miterlimit="10" stroke-linecap="round" stroke-linejoin="round"/>
<path d="M102.222 21.6122C101.874 22.9194 101.525 24.3137 101.699 25.6209C101.961 26.9281 102.919 28.2353 104.314 28.3224C105.534 28.4096 106.579 27.5381 107.102 26.4924C107.625 25.4466 107.8 24.2266 107.887 23.0065C107.8 25.2723 107.974 27.5381 108.322 29.8039C108.497 30.8497 108.671 31.8954 108.497 32.9412C108.235 34.2484 107.19 35.2941 105.882 35.6427C104.662 35.9913 103.181 35.6427 102.222 34.6841" stroke="black" stroke-width="2" stroke-miterlimit="10" stroke-linecap="round" stroke-linejoin="round"/>
<path d="M178.736 30.3268C174.728 38.1699 170.632 45.9259 166.623 53.7691C166.71 53.5948 166.797 53.5076 166.885 53.3333" stroke="black" stroke-width="2" stroke-miterlimit="10" stroke-linecap="round" stroke-linejoin="round"/>
<path d="M162.876 48.0174C170.196 51.939 177.691 55.512 185.272 58.8235C185.098 58.7364 184.924 58.6492 184.662 58.5621" stroke="black" stroke-width="2" stroke-miterlimit="10" stroke-linecap="round" stroke-linejoin="round"/>
<path d="M172.375 44.0959C173.856 44.6187 175.251 45.3159 176.471 46.2745C175.686 48.4532 174.815 50.6318 174.031 52.8105" stroke="black" stroke-width="2" stroke-miterlimit="10" stroke-linecap="round" stroke-linejoin="round"/>
<path d="M185.97 45.5773C185.36 46.2745 184.75 47.0588 184.662 48.0174C184.488 48.976 184.924 50.0218 185.882 50.2832C186.667 50.4575 187.451 49.9346 187.8 49.2375C188.148 48.5403 188.061 47.6688 187.8 46.8845C187.625 46.2745 187.277 45.5773 186.667 45.3159C186.057 45.0545 183.53 43.0501 183.442 43.6601C183.181 43.3116 182.832 42.8758 182.397 42.7015C181.612 42.3529 180.654 42.8758 180.392 43.6601C180.218 44.4444 180.828 45.4031 181.612 45.4031C182.397 45.4902 183.181 44.6187 183.094 43.8344C182.397 45.7516 181.699 47.6689 181.002 49.5861C181.089 49.4118 181.177 49.2375 181.264 49.0632" stroke="black" stroke-width="2" stroke-miterlimit="10" stroke-linecap="round" stroke-linejoin="round"/>
<path d="M190.937 45.403C190.763 46.1874 190.85 47.0588 191.46 47.4945C192.07 47.9303 193.203 47.4074 193.116 46.7102C193.116 46.4488 192.941 46.2745 192.767 46.1002C192.244 45.5773 191.286 45.403 190.588 45.8388C190.763 45.6645 190.85 45.5773 191.024 45.403" stroke="black" stroke-width="2" stroke-miterlimit="10" stroke-linecap="round" stroke-linejoin="round"/>
<path d="M72.4183 45.6645C71.1982 46.8845 70.0653 48.1917 69.0196 49.5861C68.061 50.8061 67.1895 52.2004 67.1895 53.6819C67.1024 54.902 67.6253 56.2091 68.4096 57.1678C70.2396 59.6078 73.6383 60.915 76.6013 60.1307C79.5642 59.3464 81.9172 56.5577 82.0915 53.5076C82.1786 52.1133 81.7429 50.5447 80.6971 49.5861C79.1285 48.0174 76.6884 48.0174 74.5098 48.366C74.0741 48.4532 73.5512 48.5403 73.3769 48.976C73.2026 49.2375 73.2897 49.5861 73.2897 49.9346C74.1612 55.8606 74.9455 61.8736 75.817 67.7996" stroke="black" stroke-width="2" stroke-miterlimit="10" stroke-linecap="round" stroke-linejoin="round"/>
<path d="M165.49 27.451C164.88 21.6122 164.27 15.7734 163.573 9.84749C163.486 8.97603 163.399 8.10457 163.747 7.32026C164.357 5.92592 166.274 5.40305 167.582 6.18736C168.889 6.88453 169.499 8.62745 169.063 10.1089C168.627 11.5904 167.407 12.6362 166.013 13.159C167.233 13.159 168.54 13.159 169.76 13.2462C170.109 13.2462 170.545 13.2462 170.806 13.5076C171.155 13.7691 171.242 14.2048 171.329 14.5534C171.503 16.2963 170.632 18.0392 169.15 18.9107C167.669 19.7821 165.664 19.7821 164.27 18.9107" stroke="black" stroke-width="2" stroke-miterlimit="10" stroke-linecap="round" stroke-linejoin="round"/>
</g>
<defs>
<clipPath id="clip0">
<rect width="194.074" height="120" fill="white"/>
</clipPath>
</defs>
</svg>
