<svg width="172" height="120" viewBox="0 0 172 120" fill="none" xmlns="http://www.w3.org/2000/svg">
<g clip-path="url(#clip0)">
<path d="M171.968 91.2336C171.968 95.958 171.339 101.522 169.659 106.877C167.874 112.546 164.304 116.85 158.74 119.055C157.06 119.79 155.276 120.21 153.386 119.895C150.866 119.58 148.346 119.37 145.932 118.95C142.677 118.425 139.737 116.955 137.218 114.751C132.598 110.866 128.084 106.982 123.465 102.992C120.63 100.577 117.9 97.9528 114.856 95.748C110.131 92.3884 105.197 89.2388 100.262 86.1942C98.3727 85.0394 96.2729 84.0945 94.1732 83.4646C91.5485 82.8346 88.7139 81.8898 86.0892 81.8898C83.3595 81.8898 80.5249 82.6247 77.7952 83.4646C73.5958 84.8294 69.7113 86.9291 66.0367 89.5538C63.832 91.1286 61.5223 92.5984 59.3175 94.0682C54.3832 97.4278 50.1837 101.732 45.6693 105.512C41.7847 108.766 37.9002 112.126 33.9107 115.381C31.0761 117.69 27.9265 118.845 24.2519 119.16C22.3622 119.265 20.4724 119.79 18.5826 119.895C17.1128 120 15.433 119.895 14.0682 119.37C9.97372 118.005 6.71913 115.591 4.40941 111.811C2.72962 108.976 1.57477 105.932 1.04984 102.677C0.629888 99.6325 -3.35593e-05 96.5879 -3.35593e-05 93.5433C-0.10502 89.7638 0.104953 85.8793 0.419914 82.0997C1.04984 75.9055 1.78474 69.7113 3.46453 63.622C6.29918 52.9134 9.13382 42.2047 13.1233 31.916C15.433 26.0367 18.1627 20.2625 20.8924 14.5932C22.8871 10.6037 25.8267 7.24409 29.3963 4.51444C34.6456 0.524934 40.4199 -1.15486 46.8241 0.944881C51.2336 2.4147 55.748 3.88451 60.0525 5.45932C66.4567 7.76903 72.9659 9.5538 79.58 10.7087C85.1443 11.6535 90.7086 11.1286 96.2729 9.86876C104.147 8.08399 111.706 5.24934 119.265 2.62467C121.575 1.78478 123.989 1.15486 126.299 0.524934C131.863 -1.04987 136.903 0.629921 141.417 3.77953C146.562 7.45407 150.131 12.4934 152.756 18.2677C154.436 21.9423 156.115 25.6168 157.69 29.3963C160.42 36.3255 162.73 43.3596 164.724 50.6037C165.984 55.4331 167.559 60.1575 168.714 64.9869C170.709 73.3858 171.654 81.7848 171.968 91.2336ZM3.14957 88.5039C2.83461 93.4383 3.56952 98.1627 4.40941 102.992C4.93435 106.247 6.19419 109.186 8.18894 111.706C10.8136 114.961 14.0682 117.27 18.4777 117.48C21.6273 117.69 24.4619 117.165 26.7716 114.751C28.0315 113.491 29.5013 112.231 30.6561 110.866C34.9606 105.932 38.6351 100.577 41.9947 95.0131C45.3543 89.4488 49.7637 84.8294 55.2231 81.2598C58.6876 79.0551 62.4672 77.3753 66.1417 75.4856C68.1364 74.4357 70.2362 73.9108 72.5459 73.8058C73.1758 73.8058 73.9107 73.5958 74.5406 73.5958C78.3202 73.1758 82.0997 72.8609 85.8792 72.4409C89.8687 72.021 93.7532 72.8609 97.6378 73.1758C100.367 73.3858 102.887 74.2257 105.407 75.2756C107.507 76.2205 109.501 77.2703 111.496 78.2152C119.265 81.8898 125.354 87.5591 129.869 94.8032C133.333 100.367 136.798 105.827 141.207 110.656C142.992 112.651 144.987 114.331 146.982 116.01C147.716 116.64 148.661 116.955 149.606 117.165C150.761 117.375 151.916 117.375 153.071 117.375C154.331 117.27 155.695 117.165 156.85 116.64C162.1 114.436 165.564 110.446 166.929 104.882C168.399 99.0026 169.134 93.0184 168.504 86.9291C168.189 83.7795 167.979 80.5249 167.559 77.3753C167.034 73.7008 166.614 70.0262 165.774 66.4567C164.094 59.5276 162.1 52.5984 160.21 45.6693C157.69 36.4304 154.436 27.5066 150.551 18.7926C148.346 13.6483 145.512 8.92388 140.997 5.45932C136.798 2.30971 132.283 0.944881 127.139 2.51968C121.575 4.30446 116.01 6.19422 110.551 8.08399C104.882 10.0787 98.8976 11.3386 93.0183 12.2835C90.4986 12.7034 87.874 12.2835 85.3543 12.3884C83.3596 12.3884 81.2598 12.7034 79.2651 12.3884C71.916 11.2336 64.7769 9.5538 57.8477 7.03412C53.9632 5.66929 49.9737 4.30446 45.9842 2.93963C40.9448 1.25984 36.1154 1.88976 31.706 4.93438C28.6614 7.03412 26.1417 9.76378 24.2519 13.0184C21.5223 17.7428 19.5275 22.7822 17.5328 27.8215C12.8084 39.79 9.65876 52.2835 6.40417 64.7769C4.40941 72.5459 3.67451 80.5249 3.14957 88.5039ZM142.887 116.115C142.887 115.906 142.887 115.906 142.887 115.801C142.677 115.591 142.467 115.381 142.257 115.171C137.218 110.236 132.808 104.777 129.869 98.3727C127.979 94.2782 125.459 90.7087 122.205 87.664C120.105 85.6693 117.9 83.5695 115.486 81.9948C111.916 79.79 108.031 78.0052 104.252 76.0105C103.937 75.8005 103.517 75.5906 103.097 75.5906C100.367 75.1706 97.6378 74.7507 94.9081 74.3307C91.0236 73.8058 87.1391 72.9659 83.1496 73.4908C79.79 73.9108 76.4304 74.1207 73.0708 74.4357C72.1259 74.5407 71.0761 74.5407 70.1312 74.9606C64.9868 77.0604 59.9475 79.3701 55.433 82.5197C49.6588 86.6142 44.9343 91.8635 41.8897 98.4777C38.9501 104.882 34.5406 110.341 29.3963 115.276C29.1863 115.486 28.9763 115.801 28.5564 116.325C31.391 115.276 33.3858 113.596 35.3805 112.021C39.685 108.556 43.1496 104.252 46.9291 100.472C49.9737 97.4278 53.0183 94.4882 56.4829 92.0735C59.4225 90.0787 62.3622 87.979 65.3018 86.0892C67.2965 84.8294 69.3963 83.9895 71.601 82.9396C77.3753 80.315 83.5695 80.315 89.6588 80.5249C94.9081 80.7349 99.8425 82.3097 104.357 84.9344C108.031 87.0341 111.496 89.5538 114.961 91.8635C120.315 95.5381 124.724 100.262 129.134 104.987C131.863 108.031 134.803 110.761 138.058 113.281C139.633 114.436 141.102 115.486 142.887 116.115Z" fill="black"/>
<path d="M47.3491 19.8425C48.2939 19.7375 49.1338 19.6325 49.9737 19.6325C51.7585 19.7375 52.2834 20.5774 51.8635 22.2572C51.1286 24.8819 50.1837 27.5066 50.1837 30.3412C50.1837 31.706 49.4488 32.9659 47.454 32.8609C45.6693 32.7559 43.7795 33.0709 41.8897 33.1759C41.4698 35.4856 41.0498 37.5853 40.5249 39.79C40.2099 41.5748 39.58 42.2047 37.6903 42.2047C36.4304 42.2047 35.1706 41.9948 33.9107 41.7848C32.8609 41.5748 31.706 41.3648 30.6561 41.0499C29.3963 40.7349 29.0813 40.42 29.1863 39.1601C29.2913 37.9003 29.5013 36.6404 29.8162 35.3806C30.1312 34.1207 30.5512 32.9659 30.9711 31.6011C30.0262 31.0761 28.9764 31.1811 27.8215 31.1811C26.9816 31.1811 26.1417 31.2861 25.1968 31.2861C23.937 31.1811 23.412 30.5512 23.622 29.2913C23.937 27.4016 24.3569 25.4068 24.7769 23.5171C25.6168 19.8425 29.6063 17.8478 33.0708 19.4226C34.4357 20.0525 34.9606 19.8425 35.3806 18.4777C35.6955 17.5328 35.6955 16.378 35.9055 15.4331C36.2204 13.8583 36.7454 12.3885 37.1653 10.8137C37.4803 9.76378 38.1102 9.44882 39.0551 9.55381C39.895 9.65879 40.6299 9.76378 41.3648 9.97376C42.6246 10.1837 43.8845 10.4987 45.1443 10.6037C47.1391 10.9186 48.084 12.0735 47.874 14.0682C47.874 15.853 47.559 17.7428 47.3491 19.8425ZM31.0761 39.1601C33.2808 39.5801 35.2756 40.105 37.3753 40.42C38.6351 40.6299 38.9501 40.42 39.0551 39.1601C39.3701 36.7454 40.4199 34.4357 39.79 31.916C39.58 30.9711 40.105 30.6562 41.1548 30.7612C41.8897 30.8661 42.6246 30.9711 43.3596 30.8661C44.6194 30.8661 45.8792 30.5512 47.2441 30.6562C48.2939 30.6562 48.6089 30.2362 48.8189 29.2913C49.2388 27.2966 49.7638 25.4068 50.1837 23.4121C50.2887 22.9921 50.3937 22.4672 50.3937 21.9423C49.4488 21.5223 48.6089 21.9423 47.769 22.1522C47.3491 22.2572 46.9291 22.6772 46.4042 22.7822C45.8792 22.8871 45.2493 22.8871 44.8294 22.6772C44.3044 22.2572 44.4094 21.6273 44.8294 20.9974C46.1942 18.8976 46.0892 16.5879 46.2992 14.2782C46.4042 13.0184 46.0892 12.8084 44.8294 12.5984C43.7795 12.4934 42.8346 12.1785 41.7847 11.9685C41.1548 11.8635 40.5249 11.7585 39.685 11.6535C38.8451 14.0682 38.1102 16.4829 37.3753 18.7927C37.1653 19.3176 37.0603 19.8425 36.8504 20.3675C35.9055 22.5722 34.6456 23.2021 32.5459 22.1522C30.5512 21.1024 28.8714 21.7323 27.1916 22.7822C26.7716 22.9921 26.4567 23.5171 26.3517 23.937C25.8267 25.5118 25.8267 27.1916 25.9317 28.9764C26.6666 28.9764 27.2966 28.8714 27.8215 28.8714C29.1863 28.9764 30.5512 28.9764 31.811 29.2913C33.1758 29.6063 33.3858 30.6562 32.6509 31.811C32.3359 32.336 31.916 32.8609 31.811 33.3858C31.496 35.1706 31.2861 37.0604 31.0761 39.1601Z" fill="black"/>
<path d="M66.7716 59.7375C66.4566 61.9423 66.2467 64.042 65.8267 66.1417C65.1968 70.0262 62.9921 72.6509 59.5275 74.4357C58.1627 75.1706 56.6928 75.9055 55.328 76.7454C51.6535 78.9501 47.664 79.1601 43.7795 78.0053C39.265 76.6404 35.2755 74.1207 32.8608 69.7113C29.9212 64.252 29.6062 58.5827 32.5459 52.9134C34.0157 50.1837 36.3254 48.294 38.9501 46.7192C40.8398 45.5643 42.8346 44.5144 44.7243 43.4646C49.7637 40.5249 54.9081 40.7349 60.0524 43.4646C62.4671 44.7244 64.0419 46.9291 64.8818 49.5538C65.5117 51.5486 66.1417 53.6483 66.5616 55.748C66.7716 57.1129 66.6666 58.4777 66.7716 59.7375ZM65.3018 61.1024C65.1968 59.4226 65.3018 58.1627 64.9868 56.9029C64.4619 54.6982 63.832 52.4934 63.202 50.2887C62.4671 48.084 61.1023 46.1942 59.1075 45.0394C54.6981 42.4147 50.0787 42.2047 45.3543 44.5144C43.4645 45.4593 41.4698 46.5092 39.79 47.664C36.2204 50.0787 33.2808 53.1234 32.7558 57.7428C32.3359 61.5223 32.7558 65.1969 34.9606 68.3465C38.1102 72.8609 42.5196 75.5906 48.2939 75.9055C50.8136 76.0105 53.4383 76.3255 55.853 74.9606C57.0078 74.3307 58.1627 73.8058 59.3175 73.2808C61.7322 72.021 63.622 70.1312 64.2519 67.4016C64.6718 65.0919 64.9868 62.8871 65.3018 61.1024Z" fill="black"/>
<path d="M122.94 78.5302C120.945 78.6352 118.53 78.0052 116.22 76.6404C114.961 75.8005 113.491 75.1706 112.126 74.4357C108.661 72.6509 106.562 69.9213 105.827 66.0367C105.302 62.8871 104.672 59.7375 105.197 56.4829C105.617 53.7533 106.352 50.9186 107.402 48.294C108.451 45.6693 110.341 43.7795 113.176 42.6247C115.801 41.5748 118.425 41.1549 121.05 41.3648C123.255 41.4698 125.354 42.4147 127.244 43.5695C128.924 44.5144 130.709 45.5643 132.388 46.5092C136.588 48.9239 139.633 52.0735 140.787 57.0079C142.362 64.042 139.633 72.126 132.493 76.0105C128.504 78.2152 127.139 78.6352 122.94 78.5302ZM106.562 60.7874C106.772 62.4672 106.877 64.042 107.192 65.7218C107.507 67.5066 108.032 69.2913 109.291 70.5512C111.916 73.3858 115.381 75.1706 119.055 75.8005C123.36 76.4304 127.664 75.9055 131.654 73.3858C135.853 70.7611 138.478 67.1916 139.108 62.3622C139.633 58.1627 139.108 54.2782 136.063 51.0236C132.808 47.559 128.819 45.1443 124.304 43.6745C122.31 43.0446 120.105 42.4147 118.005 43.1496C116.011 43.7795 114.016 44.4094 112.231 45.5643C110.131 46.9291 108.871 49.1339 108.346 51.6535C108.136 52.8084 107.822 53.9632 107.507 55.0131C106.772 56.7979 106.457 58.7926 106.562 60.7874Z" fill="black"/>
<path d="M87.244 18.3727C91.5485 18.3727 94.3831 20.8924 96.9028 23.832C98.3727 25.5118 98.3726 27.8215 98.0577 30.0263C97.8477 31.706 97.5328 33.4908 97.0078 35.0656C96.1679 37.5853 94.2782 39.4751 91.8635 40.5249C89.8687 41.4698 87.769 41.9948 85.5642 42.6247C84.7244 42.8347 83.6745 42.8347 82.8346 42.7297C79.265 42.0997 76.2204 40.5249 73.9107 37.6903C72.3359 35.8005 72.1259 33.7008 72.8608 31.4961C73.3858 29.7113 74.0157 27.8215 74.6456 26.0368C75.3805 24.147 76.8503 22.7822 78.5301 21.8373C80.1049 20.9974 81.5748 19.9475 83.2545 19.3176C84.5144 18.6877 85.9842 18.5827 87.244 18.3727ZM86.4041 20.5774C83.2545 20.0525 80.7349 21.5223 78.3202 23.0971C77.2703 23.832 76.5354 24.7769 76.0104 25.9318C75.1706 28.0315 74.6456 30.2362 74.5406 32.5459C74.5406 33.8058 74.8556 34.8556 75.6955 35.6955C78.2152 38.1102 81.1548 39.895 84.8293 39.79C86.7191 39.79 88.6089 39.4751 90.4986 38.9501C92.8083 38.3202 94.3831 36.6404 95.328 34.5407C95.853 33.3858 96.0629 32.126 96.3779 30.8661C96.9028 28.8714 96.6929 26.7717 95.433 25.3018C93.1233 22.5722 90.3936 20.1575 86.4041 20.5774Z" fill="black"/>
<path d="M135.538 43.1496C133.648 43.1496 131.968 42.7297 130.709 41.2598C130.079 40.5249 129.554 39.58 129.344 38.7402C129.029 37.0604 129.239 35.2756 129.974 33.7008C131.234 31.0761 133.438 30.3412 136.378 30.3412C136.483 30.3412 136.588 30.3412 136.693 30.4462C140.787 31.0761 141.837 32.021 142.677 36.1155C143.202 38.9501 141.417 41.8898 138.688 42.6247C137.743 42.9396 136.588 43.0446 135.538 43.1496ZM135.643 40.7349C136.168 40.6299 137.218 40.5249 138.268 40.4199C140.577 40.105 141.837 38.1102 141.207 35.9055C140.577 33.7008 139.422 32.336 137.008 32.336C136.378 32.336 135.853 32.126 135.223 32.126C132.913 32.021 131.863 32.7559 131.339 35.0656C131.129 36.0105 131.024 37.0604 131.129 38.0052C131.234 39.58 132.913 40.7349 135.643 40.7349Z" fill="black"/>
<path d="M143.517 29.9213C142.677 29.7113 141.837 29.7113 140.997 29.3963C137.743 28.2415 136.588 24.147 138.688 21.5223C139.423 20.5774 140.262 19.6325 141.102 18.7926C141.837 18.0577 142.782 17.5328 143.727 17.1129C144.252 16.9029 145.092 16.7979 145.722 16.9029C148.556 17.5328 150.551 20.5774 150.131 23.5171C150.131 23.832 150.026 24.147 150.026 24.4619C149.396 27.9265 147.192 29.8163 143.517 29.9213ZM143.097 27.5066C146.667 27.6115 148.451 25.9318 148.661 22.6772C148.661 22.5722 148.661 22.5722 148.661 22.4672C148.661 19.9475 145.302 17.7428 143.097 19.0026C141.837 19.7375 140.682 20.6824 139.633 21.6273C139.318 21.8373 139.213 22.3622 139.108 22.7821C138.688 25.6168 140.367 27.5066 143.097 27.5066Z" fill="black"/>
<path d="M126.509 28.9764C126.509 29.8163 126.509 30.2362 126.509 30.7612C126.299 34.2257 123.464 36.4304 120.105 35.9055C118.53 35.6955 117.165 35.0656 115.905 34.1207C114.436 32.9659 113.596 31.4961 113.701 29.5013C113.911 26.5617 115.38 24.252 117.69 22.5722C119.58 21.3123 121.575 21.6273 123.464 22.2572C123.779 22.3622 124.199 22.7822 124.409 23.0971C125.669 25.0919 127.034 26.8766 126.509 28.9764ZM125.564 29.1864C125.564 28.5564 125.669 28.2415 125.564 27.8215C125.249 25.9318 124.514 24.252 122.625 23.4121C121.05 22.6772 118.425 23.4121 117.375 24.6719C115.905 26.5617 115.066 28.6614 116.01 31.1811C116.115 31.4961 116.325 31.811 116.64 32.021C118.32 33.3858 120.21 34.1207 122.415 33.7008C124.409 33.2808 125.039 32.6509 125.354 30.5512C125.459 30.0262 125.459 29.5013 125.564 29.1864Z" fill="black"/>
<path d="M128.924 22.0472C128.504 22.0472 127.769 21.9423 127.139 21.8373C124.304 21.3123 122.73 19.0026 123.255 16.168C123.465 15.2231 123.674 14.2782 123.989 13.3333C124.094 13.0184 124.304 12.5984 124.514 12.3885C126.614 10.2887 130.814 9.23885 133.543 11.6535C135.958 13.7533 136.483 15.643 135.328 18.7927C134.698 20.6824 132.388 22.0472 129.764 22.0472C129.659 22.0472 129.449 22.0472 128.924 22.0472ZM129.449 19.8425C129.449 19.8425 129.449 19.9475 129.449 19.8425C130.394 19.8425 131.339 19.8425 132.178 19.5276C134.068 19.0026 135.538 15.958 134.803 14.1732C134.698 13.9633 134.593 13.7533 134.383 13.5433C133.333 12.4934 132.178 11.6535 130.499 11.8635C129.449 11.9685 128.399 11.9685 127.349 12.1785C126.509 12.2835 125.774 12.7034 125.249 13.4383C124.199 14.9081 124.409 16.4829 125.144 17.9528C125.774 19.3176 126.929 19.6325 128.294 19.7375C128.714 19.8425 129.134 19.8425 129.449 19.8425Z" fill="black"/>
<path d="M140.157 95.5381C141.417 97.4278 140.682 99.8425 138.268 101.732C138.163 101.417 137.848 101.102 137.848 100.787C138.058 98.8976 138.793 97.2178 140.157 95.5381Z" fill="black"/>
<path d="M6.40417 76.6404C7.34906 73.8058 8.6089 71.2861 10.8136 68.6614C10.9186 69.3963 11.0236 69.8163 10.9186 70.1312C9.76375 72.4409 8.39893 74.7506 6.40417 76.6404Z" fill="black"/>
<path d="M137.218 96.9029C136.483 96.483 136.693 95.853 137.008 95.3281C137.638 93.8583 138.058 92.1785 139.528 91.0236C140.262 93.0184 139.213 95.4331 137.218 96.9029Z" fill="black"/>
<path d="M9.55376 103.727C8.60888 101.417 9.55376 98.2677 11.3385 96.5879C11.4435 96.9029 11.7585 97.1129 11.7585 97.3228C11.2335 99.4226 10.4986 101.417 9.55376 103.727Z" fill="black"/>
<path d="M12.4934 101.942C13.5433 103.307 13.1233 105.512 11.5485 106.772C10.4987 105.302 11.0236 102.992 12.4934 101.942Z" fill="black"/>
<path d="M134.908 93.7533C134.383 91.1286 136.168 89.8688 137.533 88.3989C137.638 90.2887 136.588 92.5984 134.908 93.7533Z" fill="black"/>
<path d="M9.55372 86.4042C10.0787 87.874 9.23876 90.0787 7.66396 91.2336C7.13902 89.7638 7.87393 87.874 9.55372 86.4042Z" fill="black"/>
<path d="M9.76374 80.8399C9.44878 83.1496 8.18894 84.5144 7.24406 86.1942C6.50915 84.7244 7.45403 82.5197 9.76374 80.8399Z" fill="black"/>
<path d="M7.13903 81.2598C6.92905 79.58 7.87394 77.7953 10.0787 76.1155C9.44874 78.1102 8.39887 79.58 7.13903 81.2598Z" fill="black"/>
<path d="M34.7506 30.4462C34.4356 32.6509 34.1207 34.8556 33.7007 37.1654C33.4907 37.1654 33.3857 37.1654 33.1758 37.0604C32.5458 34.6457 33.2808 32.5459 34.2256 30.4462C34.4356 30.4462 34.5406 30.4462 34.7506 30.4462Z" fill="black"/>
<path d="M38.5302 19.3176C38.5302 17.0079 39.1601 15.3281 40.5249 13.7533C40.6299 15.1181 39.79 17.5328 38.5302 19.3176Z" fill="black"/>
<path d="M29.6062 26.0367C30.7611 26.2467 31.9159 26.5617 33.4907 26.8766C31.7059 27.9265 30.6561 27.0866 29.6062 26.4567C29.5012 26.4567 29.5012 26.2467 29.6062 26.0367Z" fill="black"/>
<path d="M48.189 70.0262C47.3491 69.8163 45.6693 69.6063 44.0945 69.1863C41.8898 68.5564 40.4199 66.9816 39.3701 64.8819C37.1654 60.5774 38.3202 56.7979 41.2598 53.3333C42.2047 52.2835 43.1496 51.2336 44.1995 50.2887C45.7743 48.7139 47.979 48.5039 50.0787 48.3989C51.5486 48.294 53.0184 48.3989 54.4882 48.7139C57.0079 49.2388 59.9475 51.2336 60.7874 54.9081C61.5223 58.3727 61.2073 61.7323 59.2126 64.6719C56.6929 68.1365 53.3333 70.1312 48.189 70.0262ZM40.9449 57.3228C40.105 58.7926 40 60.1575 40.6299 61.5223C40.9449 62.2572 41.2598 62.9921 41.5748 63.727C42.2047 65.1968 43.2546 66.1417 44.8294 66.5617C46.0892 66.8766 47.3491 66.9816 48.6089 67.1916C50.9186 67.6115 52.9134 66.4567 54.9081 65.6168C57.3228 64.7769 57.9528 62.5722 58.7926 60.5774C60.2625 57.0079 59.1076 53.5433 55.958 51.3386C55.1181 50.7087 54.1732 50.2887 53.0184 50.3937C52.2835 50.3937 51.5486 50.3937 50.8136 50.2887C48.8189 49.9737 46.9291 50.7087 45.0394 51.3386C44.6194 51.4436 44.3045 51.7585 44.0945 52.1785C42.8346 54.5932 41.9948 57.0079 43.0446 59.7375C43.6745 61.5223 44.7244 63.0971 46.7192 63.727C44.0945 63.937 41.8898 61.5223 40.9449 57.3228Z" fill="black"/>
<path d="M122.73 70.2362C120.105 70.2362 118.005 68.9764 115.8 67.7165C110.761 64.8819 109.816 57.3228 111.706 53.3333C113.071 50.3937 115.381 48.8189 118.635 48.6089C120.945 48.399 123.15 48.294 125.354 49.0289C126.509 49.4488 127.454 49.9738 128.294 50.9186C129.869 52.7034 131.444 54.4882 132.808 56.4829C135.328 60.3675 132.493 68.2415 127.664 69.3963C125.984 69.6063 124.304 69.9213 122.73 70.2362ZM125.249 63.727C127.139 62.9921 128.084 61.6273 128.714 59.8425C129.659 57.5328 129.134 55.4331 128.294 53.2283C127.769 51.9685 126.929 51.3386 125.669 50.8137C123.464 50.0787 121.26 50.1837 118.95 50.2887C116.325 50.3937 114.016 52.0735 113.071 54.4882C111.706 58.1627 113.071 61.2073 114.961 64.147C115.171 64.4619 115.486 64.6719 115.8 64.7769C118.53 66.3517 121.47 67.4016 124.724 66.8766C127.664 66.4567 129.869 65.4068 130.814 62.3622C131.024 61.8373 131.234 61.3123 131.443 60.7874C131.863 59.4226 131.758 58.6877 130.919 57.3228C129.869 61.5223 127.769 63.832 125.249 63.727Z" fill="black"/>
<path d="M91.1286 24.147C88.294 28.1365 85.4593 31.916 82.6247 36.0105C82.2047 35.1706 82.4147 34.5407 82.7297 34.0157C84.7244 30.4462 87.2441 27.2966 90.0788 24.4619C90.1838 24.357 90.3937 24.252 90.4987 24.147C90.6037 24.042 90.8137 24.042 91.1286 24.147Z" fill="black"/>
<path d="M86.6141 22.0472C84.0944 25.7218 81.5747 29.2913 78.8451 33.3858C78.9501 30.3412 83.9894 22.8871 86.6141 22.0472Z" fill="black"/>
<path d="M133.858 34.5407C133.963 36.3255 135.223 37.1654 136.798 37.7953C135.328 38.5302 134.488 38.5302 133.648 37.6903C132.808 36.7454 132.913 36.2205 133.858 34.5407Z" fill="black"/>
<path d="M142.782 21.4173C142.887 22.6772 142.992 23.937 143.097 25.1969C142.152 25.4068 141.522 25.1969 141.207 24.357C140.892 23.4121 141.417 22.3622 142.782 21.4173Z" fill="black"/>
<path d="M117.9 26.6667C118.32 28.0315 118.425 29.1864 118.95 29.9213C119.475 30.6562 120.42 30.9711 121.26 31.4961C120.105 32.231 119.16 32.231 118.215 31.3911C117.165 30.5512 116.955 28.7664 117.9 26.6667Z" fill="black"/>
<path d="M128.189 13.2283C128.084 13.9633 127.979 14.4882 127.874 14.9081C127.559 16.5879 127.559 16.5879 129.029 17.5328C129.134 17.6378 129.239 17.7428 129.449 17.9528C128.399 18.3727 127.559 18.3727 126.824 17.6378C126.194 17.0079 125.984 16.273 126.299 15.4331C126.719 14.5932 126.824 13.5433 128.189 13.2283Z" fill="black"/>
<path d="M45.2493 56.273C45.2493 54.6982 45.8792 53.7533 46.8241 53.4383C48.7138 53.0184 50.6036 52.7034 52.4934 53.3333C52.5984 53.3333 52.5983 53.5433 52.8083 53.7533C50.1837 54.1732 47.244 53.2283 45.2493 56.273Z" fill="black"/>
<path d="M55.8529 60.3674C56.1679 62.1522 55.8529 62.5722 53.5432 63.4121C54.4881 62.1522 55.118 61.3123 55.8529 60.3674Z" fill="black"/>
<path d="M126.614 56.168C124.619 53.3333 121.785 54.0682 118.845 53.7533C119.37 53.4383 119.58 53.2283 119.79 53.2283C121.47 53.2283 123.15 53.2283 124.724 53.4383C125.984 53.6483 126.614 54.5932 126.614 56.168Z" fill="black"/>
<path d="M118.11 62.9921C116.116 62.5722 115.801 62.1522 115.696 60.0525C116.64 61.2073 117.375 62.1522 118.11 62.9921Z" fill="black"/>
</g>
<defs>
<clipPath id="clip0">
<rect width="171.969" height="120" fill="white"/>
</clipPath>
</defs>
</svg>
