<svg width="124" height="120" viewBox="0 0 124 120" fill="none" xmlns="http://www.w3.org/2000/svg">
<g clip-path="url(#clip0)">
<path d="M19.696 68.2067C22.4316 68.3891 24.9848 69.3009 26.4438 71.6717C31.1854 78.6018 25.3495 81.7021 20.4255 85.7143C18.7842 86.9909 18.2371 89.3617 19.1489 91.1854C19.8784 92.8268 20.9726 94.1033 22.0669 95.3799C22.9787 96.2918 24.0729 97.2037 25.3495 97.9331C28.8146 99.9392 29.9088 98.2979 32.2796 96.2918C35.0152 93.921 37.7507 93.5562 41.2158 94.4681C43.769 95.1976 46.5046 95.3799 46.8693 98.4802C47.4164 101.216 46.3222 104.681 46.1398 107.599C45.9574 109.423 46.8693 111.246 48.5106 112.158C50.152 113.07 51.9757 113.435 53.7994 113.617C59.2705 113.799 61.459 112.888 62.1884 107.599C63.2827 100.851 67.4772 94.6505 75.3191 98.845C75.8662 99.2097 76.4134 99.5745 76.7781 100.304L79.696 106.14C80.7903 108.146 83.1611 109.24 85.3495 108.511C86.6261 108.146 87.7204 107.599 88.8146 106.869C93.0091 104.316 95.927 101.398 93.3738 96.6565C91.5501 93.3739 86.9909 82.4316 94.4681 82.0669C97.2036 81.8845 101.033 84.6201 103.404 85.8967C104.681 86.6261 106.505 86.4438 107.781 85.7143C109.24 84.8024 110.517 83.7082 111.429 82.2492C113.982 78.6018 114.164 74.5897 111.064 72.0365C110.699 71.6717 110.152 71.307 109.605 71.1246C104.863 68.5714 96.8389 66.0182 98.845 59.0882C99.9392 55.2584 106.14 54.1641 109.605 52.7052C111.064 52.1581 112.158 50.6991 112.523 49.0578C112.705 47.4164 112.888 45.0456 111.611 42.4924C110.517 39.9392 107.964 37.386 104.863 37.2037C102.128 37.2037 100.122 39.5745 97.2036 39.5745C88.6322 39.2097 90.0912 29.9088 93.3738 24.8024C94.4681 23.1611 94.2857 21.155 93.1915 19.5137C91.7325 17.69 90.0912 16.231 88.0851 15.1368C86.8085 14.4073 85.3495 14.0426 83.8906 13.8602C76.4134 12.766 77.1428 25.7143 69.4833 23.8906C63.2827 21.8845 64.924 10.9423 59.2705 9.84803C57.0821 9.48329 55.076 9.48329 52.8875 9.66566C51.7933 9.84803 50.5167 10.0304 49.4225 10.5775C46.5045 11.4894 45.4103 13.6778 45.7751 16.5958C46.3222 20.9727 46.8693 24.4377 44.6808 28.4499L44.4985 28.6322C39.9392 31.9149 34.6504 26.9909 31.1854 24.4377C29.3617 23.1611 26.6261 23.1611 25.1672 24.8024C24.8024 25.1672 24.2553 25.5319 23.8906 25.8967C20.9726 28.2675 17.3252 32.6444 18.9666 36.6565C19.8784 39.0274 21.7021 39.3921 23.3435 40.8511C26.9909 43.5866 27.3556 49.7872 23.1611 52.3404C20.7903 53.7994 16.4134 52.8875 13.8602 52.8875C11.4894 52.8875 9.66564 54.5289 9.3009 56.7173C9.11853 57.4468 9.11853 58.3587 9.11853 59.0882C9.11853 60.7295 9.3009 62.3708 9.66564 63.8298C10.7599 68.3891 15.8663 67.842 19.696 68.2067ZM94.1033 39.7568C93.921 39.9392 93.921 39.9392 94.1033 39.7568C93.921 39.7568 93.7386 39.7568 93.7386 39.7568L93.5562 39.5745C93.7386 39.7568 93.921 39.7568 94.1033 39.7568ZM10.7599 56.7173C10.9422 55.2584 12.2188 53.9818 13.8602 53.9818L21.7021 53.7994C22.9787 53.7994 24.2553 53.2523 25.1672 52.1581C26.079 51.0638 26.8085 49.9696 27.3556 48.693C27.9027 47.4164 28.4498 46.1398 28.6322 44.6809C28.8146 43.769 28.6322 42.6748 28.0851 41.7629C28.0851 41.5806 28.0851 41.5806 28.0851 41.3982C28.2675 41.3982 28.4498 41.2158 28.6322 41.0334C28.8146 40.6687 28.997 40.304 29.1793 40.1216C29.5441 39.2097 28.2675 38.4802 27.9027 39.3921C27.7204 39.7568 27.538 40.1216 27.3556 40.304V40.4863C27.3556 40.4863 26.9909 40.304 26.6261 39.9392C26.8085 39.0274 27.1732 38.2979 27.3556 37.386C27.7204 36.4742 26.2614 36.1094 25.8966 37.0213C25.7143 37.7508 25.5319 38.2979 25.3495 39.0274C24.9848 38.6626 24.4377 38.2979 23.7082 37.9331C23.7082 37.9331 23.5258 37.9331 23.5258 37.7508C23.7082 36.8389 24.0729 35.7447 24.2553 34.8328C24.4377 33.921 22.9787 33.5562 22.7963 34.4681C22.614 35.1976 22.4316 36.1094 22.2492 36.8389C21.8845 36.4742 21.5197 36.2918 21.155 36.1094C21.155 36.1094 21.155 35.9271 21.3374 35.9271C21.5197 35.0152 21.8845 33.921 22.0669 33.0091C22.2492 32.2796 21.3374 31.9149 20.7903 32.2796C21.5197 29.9088 22.7963 28.8146 24.9848 26.9909C25.3495 26.6261 25.8966 26.2614 26.2614 25.8967C27.3556 24.8024 29.1793 24.8024 30.4559 25.7143L37.0213 30.8207C37.7507 31.3678 38.845 31.7325 39.9392 31.7325H40.1216C41.3982 31.7325 43.4042 31.1854 45.4103 29.9088C45.5927 29.9088 45.7751 29.7264 45.9574 29.5441V29.3617C47.4164 28.0851 48.1459 26.6261 48.693 25.7143C48.693 25.5319 48.693 25.5319 48.8754 25.3495C49.9696 25.3495 51.0638 24.9848 51.9757 24.2553C52.7052 23.5258 51.6109 22.4316 50.8814 23.1611C50.3343 23.7082 49.7872 23.8906 49.0577 23.8906C49.0577 23.7082 49.0577 23.5258 49.0577 23.3435L48.8754 22.4316C49.7872 22.4316 50.5167 22.4316 51.4286 22.4316C52.3404 22.4316 52.3404 20.9726 51.4286 20.9726C50.5167 20.9726 49.6049 20.9726 48.693 20.9726L48.3283 19.1489C49.4225 19.1489 50.3343 18.9666 51.4286 18.9666C52.3404 18.9666 52.3404 17.3252 51.4286 17.5076C50.3343 17.5076 49.2401 17.69 48.1459 17.69L47.7811 16.0486C48.8754 15.8663 49.7872 15.6839 50.8814 15.6839C51.7933 15.5015 51.4286 14.0426 50.5167 14.2249C49.6049 14.4073 48.693 14.4073 47.7811 14.5897C47.9635 13.4954 48.8754 12.5836 49.9696 12.2188C51.0638 11.8541 52.158 11.6717 53.2523 11.4894C55.2584 11.1246 57.2644 11.307 59.2705 11.6717C60.7295 11.8541 61.8237 13.1307 62.0061 14.5897L62.5532 20.0608C62.7355 21.155 63.1003 22.0669 63.8298 22.7964C64.7416 23.7082 65.8359 24.4377 67.1124 24.9848C69.4833 25.8967 72.2188 25.8967 74.772 25.1672C75.5015 24.9848 76.231 24.4377 76.7781 23.8906C77.3252 24.2553 78.0547 24.6201 78.6018 24.9848C79.5137 25.5319 80.2431 24.073 79.3313 23.7082C78.7842 23.3435 78.2371 22.9787 77.5076 22.7964L78.0547 21.8845L80.9726 23.3435C81.8845 23.7082 82.614 22.4316 81.7021 22.0669C80.7903 21.5198 79.696 21.155 78.7842 20.6079L79.8784 18.9666C81.155 19.6961 82.4316 20.4255 83.5258 20.9726C84.4377 21.5198 85.1672 20.2432 84.2553 19.6961C82.9787 18.9666 81.7021 18.2371 80.6079 17.69V16.4134C80.7903 16.0486 81.155 15.8663 81.3374 15.5015C81.3374 15.6839 81.3374 15.8663 81.7021 16.0486C83.1611 16.7781 84.62 17.3252 86.2614 18.0547C87.1732 18.4195 87.9027 17.1429 86.9909 16.7781C85.5319 16.231 84.0729 15.5015 82.614 14.772C82.9787 14.5897 83.3435 14.5897 83.7082 14.772C84.9848 14.9544 86.2614 15.3192 87.538 16.0486C89.3617 16.9605 90.8207 18.2371 92.0973 19.8784C92.8267 20.9726 92.8267 22.4316 92.0973 23.5258L88.2675 29.3617C87.538 30.6383 87.3556 32.0973 87.7204 33.3739C88.2675 35.0152 88.9969 36.4742 89.9088 37.9331C90.6383 39.0274 91.3678 39.9392 92.2796 40.8511C93.3738 41.9453 95.0152 42.31 96.4742 42.1277C97.0213 43.4043 97.386 44.6809 97.9331 46.1398C98.2979 47.0517 99.7568 46.6869 99.3921 45.7751C98.845 44.4985 98.4802 43.0395 97.9331 41.7629L100.304 40.8511C100.304 41.0334 100.304 41.2158 100.304 41.3982C100.851 42.4924 101.216 43.769 101.763 44.8632C102.128 45.7751 103.404 45.0456 103.04 44.1337C102.492 43.0395 102.128 41.7629 101.581 40.6687C101.581 40.4863 101.398 40.4863 101.398 40.4863L103.587 39.5745L104.498 42.6748C104.681 43.5866 106.14 43.2219 105.957 42.31C105.593 41.2158 105.41 40.1216 105.046 39.0274C105.593 38.845 105.957 38.845 106.505 39.0274V39.2097C107.052 40.6687 107.416 41.9453 107.964 43.4043C108.328 44.3161 109.787 43.9514 109.422 43.0395C109.058 42.1277 108.693 41.2158 108.511 40.304C109.24 41.0334 109.787 41.7629 110.152 42.6748C111.246 44.8632 111.064 47.0517 110.881 48.3283C110.699 49.4225 109.97 50.3344 108.875 50.6991L100.304 54.1641C99.2097 54.7113 98.2979 55.6231 97.7507 56.7173C97.2036 58.1763 96.8389 59.6353 96.8389 61.0942C96.8389 62.7356 97.0213 64.3769 97.5684 65.8359C97.9331 66.5654 98.2979 67.2948 98.845 67.6596C98.2979 69.3009 97.9331 70.9423 97.386 72.4012C97.2036 73.3131 98.4802 73.6778 98.845 72.766C99.2097 71.307 99.7568 69.848 100.122 68.3891L101.398 69.1185C101.398 69.3009 101.216 69.3009 101.216 69.4833L100.669 74.0426C100.486 74.9544 102.128 74.9544 102.128 74.0426L102.492 69.848L104.134 70.5775C104.134 70.5775 104.134 70.5775 103.951 70.7599C103.404 72.0365 103.04 73.4954 102.492 74.772C102.128 75.6839 103.587 76.0486 103.951 75.1368C104.498 73.8602 104.863 72.5836 105.41 71.307L107.599 72.4012C107.416 72.4012 107.234 72.5836 107.234 72.766C106.869 74.0426 106.505 75.3192 106.322 76.4134C106.14 77.3252 107.599 77.69 107.781 76.7781C108.146 75.5015 108.511 74.2249 108.693 73.1307C108.693 72.9483 108.693 72.9483 108.693 72.766L109.24 72.9483C110.517 73.4954 111.246 74.772 111.064 76.0486C110.881 77.69 110.334 79.3313 109.422 80.6079C108.511 81.8845 107.416 82.7964 106.14 83.5258C105.228 84.073 104.134 84.073 103.222 83.7082L96.2918 80.4255C95.3799 80.0608 94.2857 79.8784 93.1915 80.0608C91.3678 80.4255 89.9088 81.3374 88.6322 82.4316C86.6261 84.2553 85.7143 86.4438 85.3495 87.9027C85.1672 88.8146 85.1672 89.7264 85.5319 90.6383C84.2553 91.7325 82.9787 92.6444 81.8845 93.7386C81.155 94.2857 82.2492 95.3799 82.9787 94.8328C84.0729 93.921 85.1672 93.0091 86.4438 92.0973L86.9909 92.8268C86.079 93.7386 85.1672 94.6505 84.0729 95.5623C83.3435 96.2918 84.4377 97.2037 85.1672 96.6565C86.079 95.7447 86.9909 95.0152 87.9027 94.1033L88.9969 95.3799C88.0851 96.2918 87.1732 97.2037 86.2614 98.1155C85.5319 98.845 86.6261 99.9392 87.3556 99.2097C88.2675 98.2979 88.9969 97.5684 89.9088 96.6565L91.1854 98.1155C91.3678 98.2979 91.5501 98.4802 91.5501 98.845C90.4559 99.7568 89.3617 100.851 88.4498 101.763C87.7204 102.492 88.8146 103.404 89.5441 102.857C90.2735 102.128 91.1854 101.398 91.9149 100.669C91.9149 101.398 91.5501 102.128 91.003 102.675C89.9088 103.769 88.8146 104.681 87.3556 105.41C86.2614 105.957 85.1672 106.505 84.0729 106.869C82.614 107.416 80.9726 106.687 80.2431 105.228L77.3252 99.3921C76.9605 98.4802 76.231 97.7508 75.3191 97.386C73.8602 96.6565 71.307 95.7447 68.2067 95.9271C66.2006 96.1094 64.3769 96.6565 62.7356 97.5684C61.6413 98.1155 60.9118 99.2097 60.5471 100.304C59.0881 100.304 57.8115 100.122 56.3526 100.122C55.4407 100.122 55.4407 101.581 56.3526 101.581C57.6292 101.581 58.9058 101.763 60.1824 101.763L60 103.404C58.7234 103.222 57.2644 103.04 55.9878 102.857C55.076 102.675 54.7112 104.134 55.6231 104.316C57.0821 104.498 58.3587 104.681 59.8176 105.046L59.6352 106.505C58.541 106.322 57.2644 106.14 56.1702 106.14C55.2583 105.957 55.2583 107.599 56.1702 107.599C57.2644 107.781 58.3586 107.964 59.4529 107.964L59.2705 108.875V109.058H55.4407C54.5289 109.058 54.5289 110.517 55.4407 110.517H58.541C58.1763 110.881 57.8115 111.246 57.2644 111.429C55.9878 111.793 54.7112 112.158 53.2523 111.976C51.6109 111.976 50.152 111.429 48.693 110.699C47.5988 110.152 46.8693 108.875 47.0517 107.599L47.7811 99.0274C47.9635 97.386 47.234 95.7447 45.9574 94.8328C44.6808 93.921 43.2219 93.0091 41.9453 92.2796C41.9453 92.0973 41.7629 91.9149 41.5805 91.9149C43.0395 92.8268 44.4985 93.5562 45.9574 94.4681C46.8693 95.0152 47.5988 93.7386 46.6869 93.1915C44.1337 91.7325 41.5805 90.2736 39.0273 88.8146C38.1155 88.2675 37.386 89.5441 38.2979 90.0912C39.3921 90.6383 40.3039 91.3678 41.3982 91.9149C41.3982 91.9149 41.2158 91.9149 41.0334 91.9149C40.8511 91.9149 40.6687 91.9149 40.4863 91.9149C40.1216 91.7325 39.5745 91.5502 39.2097 91.3678C38.6626 91.1854 37.9331 91.003 37.386 91.003C37.0213 91.003 36.6565 91.003 36.2918 91.1854C35.7447 90.2736 35.1976 89.5441 34.6504 88.6322C34.1033 87.9027 32.8267 88.6322 33.3738 89.3617L34.8328 91.7325C34.6504 91.9149 34.4681 91.9149 34.2857 92.0973L33.1915 93.0091C32.462 92.0973 31.9149 91.3678 31.1854 90.4559C30.6383 89.7264 29.3617 90.4559 29.9088 91.1854C30.6383 92.0973 31.3678 93.0091 31.9149 93.921L30.2735 95.1976C29.5441 94.2857 28.8146 93.5562 28.2675 92.6444C27.7204 91.9149 26.6261 93.0091 27.1732 93.7386L29.1793 96.1094L28.8146 96.2918C28.6322 96.4742 28.4498 96.4742 28.2675 96.6565C28.2675 96.6565 28.0851 96.6565 27.9027 96.6565C26.9909 95.7447 25.8966 94.8328 24.9848 93.921C24.2553 93.1915 23.1611 94.2857 23.8906 95.0152C24.6201 95.7447 25.5319 96.4742 26.2614 97.2037C25.8966 97.2037 25.3495 97.0213 24.9848 96.8389C23.8906 96.2918 22.9787 95.3799 22.0669 94.6505C20.9726 93.5562 20.0608 92.2796 19.3313 90.8207C18.7842 89.5441 19.1489 87.9027 20.2432 86.9909L26.8085 81.7021C28.2675 80.6079 28.8146 78.6018 28.4498 76.9605C28.0851 75.5015 27.538 74.0426 26.9909 72.5836C26.9909 72.4012 26.8085 72.4012 26.8085 72.2188C26.8085 72.0365 26.8085 71.8541 26.8085 71.6717C26.6261 71.4894 26.4438 71.307 26.2614 70.9423C25.8966 70.0304 25.5319 69.3009 24.9848 68.3891C24.4377 67.4772 23.7082 66.9301 22.7963 66.5654C22.9787 66.383 23.1611 66.2006 22.9787 66.0182C22.9787 65.1064 22.9787 64.0122 22.7963 63.1003C22.7963 62.1885 21.3374 62.1885 21.3374 63.1003C21.3374 64.0122 21.3374 65.1064 21.5197 66.0182V66.2006C21.3374 66.2006 20.9726 66.0182 20.7903 66.0182H19.3313C19.5137 65.8359 19.5137 65.6535 19.5137 65.4711C19.3313 64.5593 19.1489 63.465 18.9666 62.5532C18.7842 61.6413 17.3252 62.0061 17.5076 62.9179C17.69 63.8298 17.8723 64.924 18.0547 65.8359V66.0182H16.7781L16.5957 62.9179C16.5957 62.0061 14.9544 62.0061 15.1368 62.9179L15.3191 66.0182H14.2249H14.0425C13.8602 65.1064 13.6778 64.0122 13.4954 63.1003C13.3131 62.1885 11.8541 62.5532 12.0365 63.465L12.4012 65.4711C11.6717 65.1064 11.307 64.3769 11.1246 63.465C10.7599 62.0061 10.5775 60.5471 10.7599 59.0882C10.7599 58.1763 10.7599 57.4468 10.7599 56.7173Z" fill="#231F20" stroke="black" stroke-width="0.25" stroke-miterlimit="10"/>
<path d="M42.6747 84.9848C47.4163 89.9088 52.3403 92.462 57.082 92.462C57.4467 92.462 57.8115 92.462 58.1762 92.462C59.0881 92.462 59.9999 92.2796 61.0941 92.2796C61.6413 92.2796 62.3707 92.2796 62.9179 92.2796C63.465 92.2796 64.1944 92.2796 64.7416 92.2796C66.3829 92.2796 68.389 92.2796 70.3951 91.7325C79.3312 89.7264 85.5318 83.8906 90.2735 73.1307C91.7324 69.6656 92.6443 65.8359 92.8267 61.0942C93.3738 47.9635 83.161 35.1976 70.0303 32.8267C67.1124 32.2796 64.1944 31.9149 61.4589 31.9149C50.1519 31.9149 41.3981 36.6565 36.1093 45.7751C32.8267 51.4286 31.3677 59.2705 32.0972 67.1125C33.009 74.5897 37.933 80.2431 42.6747 84.9848ZM37.3859 46.6869C43.5865 35.927 53.9817 33.5562 61.4589 33.5562C64.0121 33.5562 66.93 33.7386 69.6656 34.2857C82.0668 36.6565 91.9148 48.693 91.3677 61.0942C91.1853 65.6535 90.4558 69.3009 88.9969 72.5836C84.62 82.7963 78.6017 88.4498 70.2127 90.2735C68.389 90.6383 66.5653 90.8207 64.9239 90.8207C64.3768 90.8207 63.6473 90.8207 63.1002 90.8207C62.5531 90.8207 61.8236 90.8207 61.2765 90.8207C59.9999 90.8207 59.0881 90.8207 58.1762 91.003C53.4346 91.3678 48.6929 88.9969 43.7689 84.0729C39.2096 79.5137 34.468 74.0425 33.7385 67.2948C33.009 59.6353 34.2856 52.158 37.3859 46.6869Z" fill="#231F20" stroke="black" stroke-width="0.25" stroke-miterlimit="10"/>
<path d="M40.1215 48.5106C37.386 53.4347 36.1094 60 36.8388 66.5654C37.386 72.766 41.7629 77.5076 45.5926 81.5198C49.6048 85.7143 53.7993 87.7204 57.8115 87.7204C58.1762 87.7204 58.541 87.7204 58.7233 87.7204C59.4528 87.7204 60.1823 87.7204 61.0942 87.7204C61.6413 87.7204 62.1884 87.7204 62.7355 87.7204C63.2826 87.7204 63.8297 87.7204 64.3768 87.7204C65.8358 87.7204 67.4771 87.7204 69.1185 87.3556C76.5957 85.7143 82.0668 80.6079 85.8966 71.6717C87.1732 68.7538 87.9027 65.4711 88.085 61.459C88.6321 50.3344 79.8783 39.5745 68.7537 37.386C66.2005 36.8389 63.8297 36.6565 61.6413 36.6565C51.9756 36.6565 44.4984 40.8511 40.1215 48.5106ZM61.2765 38.6626C63.465 38.6626 65.6534 38.845 68.0242 39.3921C78.0546 41.3982 86.079 51.6109 85.5318 61.459C85.3495 65.1064 84.8024 68.2067 83.5258 70.9423C79.8783 79.3313 74.9543 84.073 68.2066 85.5319C66.7477 85.8967 65.1063 85.8967 63.8297 85.8967C63.2826 85.8967 62.7355 85.8967 62.3708 85.8967C61.8236 85.8967 61.2765 85.8967 60.9118 85.8967C59.9999 85.8967 59.0881 85.8967 58.3586 86.079C54.5288 86.4438 50.699 84.4377 46.6869 80.4255C43.0394 76.5957 39.0273 72.0365 38.4802 66.5654C37.9331 60.3647 39.0273 54.1641 41.5805 49.6049C46.8692 40.4863 55.2583 38.6626 61.2765 38.6626Z" fill="#231F20" stroke="black" stroke-width="0.25" stroke-miterlimit="10"/>
<path d="M38.1155 34.1033C41.7629 35.0152 45.2279 33.921 47.7811 31.1854C48.5106 30.4559 47.4164 29.3617 46.6869 30.0912C44.4985 32.2796 41.3982 33.3739 38.4802 32.6444C37.7507 32.462 37.2036 33.921 38.1155 34.1033Z" fill="#231F20" stroke="black" stroke-width="0.25" stroke-miterlimit="10"/>
<path d="M27.3556 55.9878C30.2736 53.2523 31.9149 49.4225 31.3678 45.228C31.1854 44.3161 29.7265 44.3161 29.9088 45.228C30.2736 48.8754 28.997 52.3404 26.2614 54.8936C25.7143 55.6231 26.8085 56.7173 27.3556 55.9878Z" fill="#231F20" stroke="black" stroke-width="0.25" stroke-miterlimit="10"/>
<path d="M30.4559 76.4134C30.6383 77.3252 32.0973 76.9605 31.9149 76.0486C31.3678 72.2188 29.7265 68.9362 27.1733 66.0182C26.6262 65.2888 25.5319 66.383 26.079 67.1125C28.4499 69.6656 29.9088 72.766 30.4559 76.4134Z" fill="#231F20" stroke="black" stroke-width="0.25" stroke-miterlimit="10"/>
<path d="M69.848 93.921C66.9301 94.4681 64.0122 94.8328 61.0942 95.3799C60.1824 95.5623 60.5471 97.0213 61.459 96.8389C64.3769 96.2918 67.2948 95.927 70.2128 95.3799C71.1246 95.1976 70.7599 93.7386 69.848 93.921Z" fill="#231F20" stroke="black" stroke-width="0.25" stroke-miterlimit="10"/>
<path d="M89.9088 79.8784C86.9909 81.5198 84.9848 83.8906 83.8906 86.9909C83.5258 87.9027 84.9848 88.2675 85.3495 87.3556C86.4438 84.6201 88.2675 82.614 90.6383 81.155C91.5501 80.7903 90.8207 79.5137 89.9088 79.8784Z" fill="#231F20" stroke="black" stroke-width="0.25" stroke-miterlimit="10"/>
<path d="M96.2917 63.465C96.6565 60.3647 97.0212 57.2644 97.5683 54.3465C97.7507 53.4346 96.1094 53.4346 96.1094 54.3465C95.7446 57.4468 95.3799 60.5471 94.8328 63.465C94.8328 64.3769 96.2917 64.3769 96.2917 63.465Z" fill="#231F20" stroke="black" stroke-width="0.25" stroke-miterlimit="10"/>
<path d="M92.4619 42.1277C89.544 39.2097 87.7203 35.5623 86.9908 31.5501C86.8084 30.6383 85.3495 31.003 85.5319 31.9149C86.2613 36.2918 88.2674 40.1216 91.3677 43.2219C92.0972 43.769 93.0091 42.6748 92.4619 42.1277Z" fill="#231F20" stroke="black" stroke-width="0.25" stroke-miterlimit="10"/>
<path d="M61.459 25.8967C66.5653 28.4499 72.0365 29.1793 77.5076 27.9027C78.4195 27.7204 78.0547 26.2614 77.1429 26.4438C72.0365 27.538 66.9301 26.9909 62.1884 24.6201C61.2766 24.2553 60.5471 25.5319 61.459 25.8967Z" fill="#231F20" stroke="black" stroke-width="0.25" stroke-miterlimit="10"/>
<path d="M22.2493 17.8724C32.2796 7.29484 46.8693 2.18846 61.2766 3.82979C59.4529 4.01216 57.8116 4.19454 55.9879 4.19454C55.076 4.19454 55.076 5.83587 55.9879 5.6535C59.2705 5.28876 62.5532 5.10639 65.8359 4.74165C66.2006 4.74165 66.5654 4.37691 66.5654 4.01216C66.7477 3.64742 66.7477 2.91794 66.2006 2.91794C65.4711 2.73557 64.7417 2.5532 63.8298 2.5532C61.459 1.82371 59.0882 0.911861 56.7173 0.182377C55.8055 -0.182364 55.4407 1.2766 56.3526 1.64134C56.7173 1.82371 57.0821 1.82371 57.4468 2.00609C43.9514 1.64134 30.6383 6.74773 21.3374 16.7781C20.6079 17.5076 21.7021 18.6018 22.2493 17.8724Z" fill="#231F20" stroke="black" stroke-width="0.25" stroke-miterlimit="10"/>
<path d="M119.088 56.5349C118.906 54.7112 118.723 52.8875 118.541 51.0638C118.541 50.152 116.9 50.152 117.082 51.0638C117.447 54.7112 117.812 58.3587 117.994 61.8237C117.994 62.5532 119.088 62.9179 119.453 62.1884C120.729 59.2705 122.006 56.5349 123.1 53.617C123.465 52.7052 122.188 51.9757 121.824 52.8875C121.459 53.9818 120.912 54.8936 120.547 55.9878C121.459 40.6687 115.441 25.5319 103.769 15.5015C103.04 14.9544 101.945 15.8663 102.675 16.5957C114.164 26.6261 120.182 41.5805 119.088 56.5349Z" fill="#231F20" stroke="black" stroke-width="0.25" stroke-miterlimit="10"/>
<path d="M110.517 93.921C102.128 107.052 87.7204 115.623 72.2189 116.717C73.8602 116.17 75.6839 115.805 77.3253 115.258C78.2371 115.076 77.8724 113.617 76.9605 113.799C73.3131 114.711 69.6657 115.805 66.0183 116.717C65.6535 116.717 65.1064 116.717 64.7417 116.717C63.8298 116.717 63.8298 117.812 64.5593 118.176C64.7417 118.359 64.924 118.541 65.1064 118.541L77.3253 119.635C78.2371 119.635 78.2371 118.176 77.3253 118.176L74.7721 117.994C89.7265 115.988 103.404 107.599 111.611 94.6505C112.34 93.921 111.064 93.1915 110.517 93.921Z" fill="#231F20" stroke="black" stroke-width="0.25" stroke-miterlimit="10"/>
<path d="M36.2919 115.988C13.3131 105.228 0.729553 80.4255 5.10645 55.9878C4.92408 58.7234 4.92408 61.459 4.74171 64.0122C4.74171 64.924 6.20068 64.924 6.20068 64.0122C6.38305 59.2705 6.74779 54.5289 6.93016 49.9696C6.93016 49.0578 5.83594 49.0578 5.47119 49.7872C5.47119 49.9696 5.28882 50.152 5.28882 50.152C5.10645 50.152 4.92408 50.3343 4.74171 50.6991C4.55934 51.2462 4.37697 51.7933 4.37697 52.5228C3.10037 55.8055 1.64141 58.9058 0.364811 62.1884C6.9648e-05 63.1003 1.45904 63.465 1.82378 62.5532L3.28274 59.0882C0.364811 83.1611 13.1308 106.687 35.5624 117.264C36.2919 117.629 37.0213 116.353 36.2919 115.988Z" fill="#231F20" stroke="black" stroke-width="0.25" stroke-miterlimit="10"/>
<path d="M42.8571 82.614C43.0395 82.614 43.2219 82.614 43.4042 82.4316C43.769 82.2493 43.769 81.7021 43.5866 81.3374C28.8146 62.3708 39.0273 47.2341 44.1337 41.3982C44.4985 41.0334 44.4985 41.0334 44.6808 40.8511C44.8632 40.4863 44.6808 39.9392 44.3161 39.7568C43.9514 39.5745 43.5866 39.7568 43.4042 40.1216C43.4042 40.1216 43.2219 40.304 43.2219 40.4863C37.9331 46.5046 26.9909 62.3708 42.4924 82.2492C42.4924 82.4316 42.6748 82.614 42.8571 82.614Z" fill="#231F20" stroke="black" stroke-width="0.25" stroke-miterlimit="10"/>
<path d="M82.614 80.2432C79.8785 83.8906 74.5897 88.2675 64.7417 88.6322H64.5593C64.1946 88.6322 63.8298 88.997 63.8298 89.3617C63.8298 89.7264 64.1946 90.0912 64.5593 90.0912H64.7417C74.9545 89.7264 80.7903 84.9848 83.7083 80.9726C91.5502 70.5775 90.456 60.5471 90.0912 58.541C90.0912 58.1763 89.5441 57.8115 89.1794 57.9939C88.8146 57.9939 88.4499 58.3587 88.6323 58.9058C88.997 60.7295 90.0912 70.2128 82.614 80.2432Z" fill="#231F20" stroke="black" stroke-width="0.25" stroke-miterlimit="10"/>
<path d="M44.4985 66.383C44.4985 66.5653 44.4985 66.9301 44.6808 67.1125C44.6808 67.6596 45.2279 68.0243 45.7751 68.0243C46.3222 68.0243 46.6869 67.8419 47.0517 67.8419C47.4164 67.8419 47.7811 67.6596 47.9635 67.6596C48.3283 68.9362 49.0577 70.0304 49.6048 71.1246L49.4225 71.307C49.0577 71.4894 48.5106 71.8541 48.1459 72.0365C47.7811 72.2188 47.5988 72.7659 47.7811 73.1307C47.9635 73.8602 48.5106 74.5897 49.0577 75.1368L49.2401 75.5015C49.6048 75.8663 49.9696 76.231 50.3343 76.7781C50.5167 76.9605 50.8814 77.1428 51.0638 77.1428H51.4286L51.6109 76.9605C51.9757 76.5957 52.3404 76.231 52.7052 75.8663C52.8875 75.6839 53.0699 75.3191 53.2523 75.3191C54.3465 76.0486 55.4407 76.7781 56.7173 77.3252C56.5349 77.69 56.3526 78.2371 56.1702 78.6018C55.9878 78.9666 56.1702 79.5137 56.5349 79.696C57.2644 80.2432 58.1763 80.4255 59.0881 80.6079L60.1824 80.7903C60.3647 80.7903 60.5471 80.7903 60.7295 80.9726H60.9118C61.2766 80.9726 61.8237 80.6079 61.8237 80.2432C62.0061 79.696 62.0061 79.3313 62.0061 78.7842C62.0061 78.6018 62.0061 78.4194 62.0061 78.4194H62.3708C63.6474 78.4194 64.924 78.2371 66.2006 77.8723C66.2006 78.2371 66.383 78.6018 66.5653 78.7842C66.7477 79.1489 67.1124 79.5137 67.4772 79.5137C67.8419 79.5137 68.389 79.3313 68.7538 79.3313C69.1185 79.1489 69.4833 78.9666 70.0304 78.7842C70.3951 78.6018 70.5775 78.6018 70.7599 78.4194C70.9422 78.2371 71.307 78.2371 71.4893 78.0547C72.0365 77.8723 72.2188 77.3252 72.2188 76.7781C72.0365 76.231 71.8541 75.8663 71.4893 75.5015C72.5836 74.772 73.6778 73.6778 74.5896 72.5836C74.772 72.7659 74.9544 72.766 75.1368 72.9483C75.3191 73.1307 75.5015 73.1307 75.6839 73.1307H76.0486L76.231 72.9483C76.5957 72.5836 76.9605 72.2188 77.1428 72.0365C77.3252 71.6717 77.69 71.307 77.8723 70.9422C78.0547 70.5775 78.2371 70.2128 78.4194 69.848L78.7842 69.3009C79.1489 68.7538 78.9665 68.2067 78.6018 67.8419C78.2371 67.4772 77.8723 67.4772 77.5076 67.2948C77.8723 65.8359 78.2371 64.5593 78.2371 63.1003C78.4194 63.1003 78.6018 63.1003 78.6018 63.1003C78.9665 63.1003 79.3313 62.7356 79.5137 62.3708C79.8784 61.459 79.696 60.3647 79.696 59.6353L79.5137 58.7234C79.5137 58.3587 79.5137 58.1763 79.3313 57.9939C79.3313 57.4468 78.7842 57.0821 78.2371 57.0821C77.8723 57.0821 77.5076 57.0821 77.1428 57.2644C76.5957 55.9878 76.0486 54.5289 75.1368 53.4346C75.3191 53.4346 75.3191 53.2523 75.5015 53.2523C75.8662 53.0699 76.0486 52.5228 75.8662 52.1581C75.6839 51.4286 75.1368 50.6991 74.5896 50.152L74.4073 49.9696C74.0425 49.6049 73.4954 49.0577 73.1307 48.693C72.9483 48.5106 72.5836 48.3283 72.4012 48.3283H72.0365L71.8541 48.5106C71.4893 48.8754 71.1246 49.0577 70.9422 49.4225C69.6656 48.693 68.389 47.9635 67.1124 47.5988C67.2948 47.4164 67.2948 47.0517 67.2948 46.8693C67.4772 46.5046 67.2948 45.9574 66.9301 45.7751C66.2006 45.4103 65.2887 45.0456 64.3769 44.8632L63.465 44.6808C63.2827 44.6808 62.9179 44.6808 62.3708 44.4985C62.0061 44.4985 61.459 44.6808 61.459 45.228C61.2766 45.7751 61.2766 46.1398 61.2766 46.6869V46.8693C59.8176 46.8693 58.541 47.234 57.2644 47.5988C57.2644 47.234 57.0821 46.8693 56.8997 46.5046C56.7173 46.1398 56.3526 45.7751 55.9878 45.7751C55.6231 45.7751 55.076 45.7751 54.5289 45.9574C54.1641 46.1398 53.7994 46.3222 53.4346 46.5046C53.0699 46.6869 52.8875 46.6869 52.7052 46.8693C52.5228 47.0517 52.158 47.0517 51.9757 47.234C51.4286 47.4164 51.2462 47.9635 51.2462 48.5106C51.4286 49.0577 51.6109 49.4225 51.9757 49.7872C52.158 49.9696 52.158 50.152 52.3404 50.3343C51.2462 51.2462 50.3343 52.1581 49.6048 53.2523C49.2401 52.8875 48.8754 52.5228 48.5106 52.3404C48.3283 52.1581 48.1459 52.1581 47.9635 52.1581H47.5988L47.4164 52.3404C47.0517 52.7052 46.6869 53.0699 46.5045 53.4346C46.3222 53.7994 45.9574 54.1641 45.7751 54.5289C45.5927 54.8936 45.4103 55.2584 45.2279 55.6231L45.0456 56.1702C44.6808 56.7173 44.8632 57.2644 45.2279 57.6292C45.5927 57.9939 46.1398 58.1763 46.5045 58.3587C46.8693 58.541 47.0517 58.541 47.234 58.7234C46.8693 60 46.6869 61.2766 46.6869 62.5532H46.5045C46.1398 62.5532 45.5927 62.5532 45.0456 62.5532C44.6808 62.5532 44.3161 62.9179 44.1337 63.2827C43.769 64.1945 43.9514 65.2887 43.9514 66.0182L44.4985 66.383ZM46.3222 64.1945C46.5045 64.1945 47.7811 64.1945 47.7811 64.1945H48.5106H48.693H48.8754C49.2401 64.0122 49.4225 63.6474 49.4225 63.2827C49.4225 63.1003 49.2401 62.9179 49.2401 62.7356C49.2401 61.2766 49.4225 59.8176 49.9696 58.3587L50.152 57.9939L49.6048 57.6292V57.4468L49.2401 57.0821C49.0577 56.8997 49.0577 56.8997 48.8754 56.7173C48.5106 56.3526 47.9635 56.1702 47.4164 55.9878C47.5988 55.8055 47.5988 55.4407 47.7811 55.2584C47.9635 54.8936 48.1459 54.7112 48.3283 54.3465C48.5106 54.5289 49.0577 55.076 49.2401 55.076C49.4225 55.2584 50.152 55.6231 50.152 55.6231H50.3343H50.5167C50.8814 55.6231 51.0638 55.4407 51.2462 55.076C51.4286 54.8936 51.4286 54.5289 51.2462 54.1641C52.158 52.8875 53.2523 51.7933 54.3465 50.8815L54.7112 50.5167L54.5289 50.3343V50.152C54.5289 49.7872 54.3465 49.6049 54.3465 49.4225C54.1641 49.0577 53.9817 48.693 53.7994 48.3283C53.9817 48.1459 54.1641 48.1459 54.7112 47.9635C55.076 47.7811 55.2583 47.7812 55.6231 47.5988C55.6231 47.5988 55.9878 48.693 55.9878 48.8754C56.1702 49.4225 56.5349 49.9696 57.2644 49.7872C57.8115 49.7872 58.3586 49.0577 58.9058 48.8754C59.6352 48.693 60.3647 48.3283 61.0942 48.3283C62.3708 48.1459 63.465 48.5106 63.6474 47.0517C63.6474 46.8693 63.6474 46.5046 63.8298 46.3222C64.0121 46.3222 64.3769 46.5046 64.5593 46.5046C64.924 46.5046 65.2887 46.6869 65.6535 46.6869C65.6535 46.8693 65.2887 47.7811 65.1064 47.9635L64.924 48.5106L65.4711 48.693C65.6535 48.693 66.0182 48.8754 66.2006 48.8754C67.6596 49.2401 69.1185 49.9696 70.3951 50.8815C70.5775 51.0638 70.7599 51.2462 70.9422 51.4286L71.307 51.7933L71.6717 51.4286C71.8541 51.2462 72.2188 51.0638 72.4012 50.6991L72.5836 50.5167C72.7659 50.6991 72.9483 50.8815 73.1307 51.2462C73.313 51.4286 73.6778 51.7933 73.6778 51.9757C73.6778 51.9757 72.4012 52.8875 72.2188 52.8875C72.4012 53.0699 72.5836 53.2523 72.5836 53.4346C72.7659 53.617 72.9483 53.7994 73.1307 53.9818C74.0425 55.2584 74.9544 56.7173 75.3191 58.1763C75.5015 58.541 75.5015 58.9058 75.6839 59.4529C75.6839 59.4529 77.1428 58.9058 77.3252 59.2705C77.69 59.6353 77.5076 60.5471 77.5076 60.9119C77.5076 61.0942 77.5076 61.0942 77.5076 61.2766H76.7781H75.8662V62.7356C75.8662 64.3769 75.5015 65.8359 75.1368 67.4772C74.9544 67.6596 74.5896 68.5714 74.5896 68.5714L74.9544 68.7538C75.1368 68.9362 75.5015 69.1185 75.6839 69.1185L76.0486 69.3009C76.0486 69.3009 75.8662 69.848 75.6839 70.0304C75.5015 70.3951 75.3191 70.7599 75.1368 70.9422L73.6778 69.848L73.3131 70.3951C73.1307 70.5775 72.9483 70.7599 72.9483 70.9422C72.0365 72.2188 70.9422 73.3131 69.4833 74.2249L69.848 74.772V75.1368C69.848 75.5015 70.0304 75.8663 70.2127 76.0486C70.3951 76.231 70.3951 76.4134 70.5775 76.7781C70.3951 76.9605 70.2127 76.9605 69.848 77.1428C69.4833 77.3252 69.3009 77.3252 68.9361 77.5076L68.7538 76.9605C68.7538 76.7781 68.5714 76.4134 68.5714 76.231L68.389 75.6839L67.8419 75.8663C67.6596 75.8663 67.4772 76.0486 67.1124 76.0486C65.8358 76.4134 64.5593 76.5957 63.2827 76.5957H62.7355L62.3708 76.4134H62.0061C61.8237 76.4134 61.6413 76.4134 61.459 76.5957L61.2766 76.7781C61.0942 76.9605 61.0942 77.3252 60.9118 77.69C60.7295 78.0547 60.7295 78.4194 60.7295 78.7842C60.5471 78.7842 60 78.6018 60 78.6018C59.6352 78.6018 59.2705 78.4194 58.9058 78.4194C58.9058 78.2371 59.2705 77.5076 59.2705 77.5076C59.4529 77.1429 59.4529 76.9605 59.4529 76.5957L59.6352 76.0486L59.0881 75.8663C58.9058 75.8663 58.7234 75.6839 58.3586 75.6839C56.7173 75.1368 55.4407 74.2249 54.1641 73.3131L53.7994 72.9483C53.7994 72.9483 53.2523 73.3131 53.2523 73.4954L52.8875 73.6778C52.5228 74.0425 52.158 74.2249 51.7933 74.772C51.7933 74.772 50.6991 73.6778 50.6991 73.3131C50.6991 72.9483 51.2462 72.7659 51.6109 72.5836C51.7933 72.4012 51.9757 72.2188 52.3404 71.8541C52.5228 71.4894 52.7052 71.1246 52.3404 70.5775C52.158 70.3951 51.9757 70.3951 51.7933 70.2128C51.2462 69.3009 50.6991 68.3891 50.3343 67.2948C50.152 66.5653 49.7872 65.6535 48.8754 65.6535C48.693 65.6535 46.8693 65.6535 46.8693 65.8359L46.6869 65.1064C46.6869 64.7416 46.6869 64.5593 46.6869 64.1945C46.3222 64.3769 46.3222 64.1945 46.3222 64.1945Z" fill="#231F20" stroke="black" stroke-width="0.25" stroke-miterlimit="10"/>
<path d="M63.1003 74.5897C69.848 74.5897 75.3192 69.1185 75.3192 62.3708C75.3192 55.6231 69.848 50.152 63.1003 50.152C56.3526 50.152 50.8815 55.6231 50.8815 62.3708C50.8815 69.1185 56.3526 74.5897 63.1003 74.5897ZM63.1003 52.1581C68.7538 52.1581 73.3131 56.7173 73.3131 62.3708C73.3131 68.0243 68.7538 72.5836 63.1003 72.5836C57.4468 72.5836 52.8875 68.0243 52.8875 62.3708C52.8875 56.7173 57.4468 52.1581 63.1003 52.1581Z" fill="#231F20" stroke="black" stroke-width="0.25" stroke-miterlimit="10"/>
</g>
<defs>
<clipPath id="clip0">
<rect width="123.465" height="120" fill="white"/>
</clipPath>
</defs>
</svg>
