<svg width="54" height="40" viewBox="0 0 54 40" fill="none" xmlns="http://www.w3.org/2000/svg">
<g opacity="0.3" filter="url(#filter0_d)">
<path fill-rule="evenodd" clip-rule="evenodd" d="M49.8845 21.8003C49.8601 27.2786 44.8754 31.7127 38.772 31.6855C32.8238 31.659 28.1882 27.4813 27.7492 21.7522C26.9999 11.9939 32.5151 4.05795 37.4651 0.227256C37.6126 0.113743 37.7949 0.0571571 37.9776 0.0579718C38.1658 0.0588109 38.3529 0.120475 38.5008 0.242094C38.9362 0.600104 39.2339 0.874431 39.884 1.47341L39.8884 1.47742L39.922 1.50845C40.4194 1.96714 41.1261 2.61896 42.2542 3.64063C42.5189 3.88038 42.5561 4.25581 42.3408 4.53311C39.4935 8.2091 39.4063 10.8604 39.5025 11.835C45.3068 12.1603 49.9081 16.5155 49.8845 21.8003ZM0.0506418 21.6294L0.0506449 21.6287C-0.697907 11.8711 4.8173 3.93516 9.76735 0.104464C9.91479 -0.00974968 10.0971 -0.0663354 10.2799 -0.0655203C10.4673 -0.0646848 10.6551 -0.00301946 10.8031 0.11797C11.2416 0.478122 11.5413 0.754279 12.1974 1.36012L12.3164 1.46979C12.8085 1.923 13.4963 2.55644 14.5571 3.51714C14.8218 3.75689 14.859 4.13232 14.6438 4.40962C11.7957 8.08771 11.7077 10.7376 11.8039 11.7115C17.609 12.0368 22.2111 16.392 22.1875 21.6768C22.1631 27.1551 17.1776 31.5892 11.0741 31.562C5.12755 31.5355 0.491239 27.3578 0.0506418 21.6294Z" fill="#FFFAFA"/>
</g>
<defs>
<filter id="filter0_d" x="-4.07025" y="-0.111084" width="58.0514" height="39.8459" filterUnits="userSpaceOnUse" color-interpolation-filters="sRGB">
<feFlood flood-opacity="0" result="BackgroundImageFix"/>
<feColorMatrix in="SourceAlpha" type="matrix" values="0 0 0 0 0 0 0 0 0 0 0 0 0 0 0 0 0 0 127 0"/>
<feOffset dy="4"/>
<feGaussianBlur stdDeviation="2"/>
<feColorMatrix type="matrix" values="0 0 0 0 0 0 0 0 0 0 0 0 0 0 0 0 0 0 0.25 0"/>
<feBlend mode="normal" in2="BackgroundImageFix" result="effect1_dropShadow"/>
<feBlend mode="normal" in="SourceGraphic" in2="effect1_dropShadow" result="shape"/>
</filter>
</defs>
</svg>
