<svg width="140" height="140" viewBox="0 0 140 140" fill="none" xmlns="http://www.w3.org/2000/svg">
<g clip-path="url(#clip0)">
<path d="M137.458 67.7761C136.097 66.3238 134.009 66.3843 132.194 66.2028C131.165 66.112 130.167 66.0212 129.138 65.9304C129.41 65.8699 129.682 65.8094 129.955 65.7489C132.315 65.2345 134.856 65.0227 136.732 63.4191C139.788 60.8472 138.76 55.0681 137.973 51.8003C137.156 48.4418 135.189 43.8427 131.649 42.5416C129.471 41.755 127.383 42.6929 125.295 43.3586C123.722 43.8427 122.148 44.3268 120.575 44.8412C121.755 43.994 122.935 43.177 124.115 42.3298C125.809 41.1196 127.958 40.0303 128.865 38.0636C130.53 34.4025 127.867 29.7731 125.688 26.9592C123.359 23.9637 120.091 20.696 116.036 20.696C114.07 20.696 112.587 22.2996 111.195 23.4494C110.469 24.0545 109.713 24.6899 108.986 25.3253C109.289 24.8412 109.622 24.3268 109.924 23.8427C111.104 21.9668 112.496 20.3026 112.587 18.0031C112.769 14.2209 108.442 11.0742 105.688 9.31926C102.602 7.35254 98.0031 5.50685 94.3723 6.9592C92.4661 7.74589 91.7399 9.44029 90.8019 11.1649C89.8639 12.9199 88.926 14.705 88.0182 16.4902C88.2906 14.9471 88.5326 13.404 88.8049 11.8911C89.1378 9.86389 89.8942 7.5946 89.0167 5.59763C87.3829 1.99702 82.6325 0.726219 79.0924 0.211847C75.3707 -0.332782 70.7717 -0.242011 67.867 2.51139C66.4146 3.87297 66.4751 5.96071 66.2936 7.77614C66.2028 8.80489 66.112 9.80337 66.0213 10.8321C65.9608 10.5598 65.9003 10.2875 65.8397 10.0152C65.3254 7.65511 65.1136 5.11351 63.5099 3.23757C60.9381 0.18159 55.1589 1.21033 51.8912 1.99702C48.5024 2.87448 43.873 4.8412 42.6022 8.35103C41.8155 10.5295 42.7535 12.6173 43.4192 14.705C43.9033 16.2784 44.3874 17.8518 44.9018 19.4554C44.0546 18.2754 43.2376 17.0954 42.3904 15.9153C41.1801 14.2209 40.0909 12.0727 38.1241 11.1649C34.463 9.5008 29.8337 12.1634 27.0198 14.342C23.994 16.6718 20.7565 19.9698 20.7565 24.0243C20.7565 25.991 22.3602 27.4736 23.5099 28.8654C24.1151 29.6218 24.7505 30.348 25.3859 31.0742C24.9018 30.7716 24.3874 30.4388 23.9033 30.1059C22.0273 28.9259 20.3632 27.5341 18.0939 27.4433C14.3117 27.2618 11.165 31.5885 9.41008 34.3419C7.44336 37.4282 5.59767 42.0273 7.05002 45.6581C7.83671 47.5643 9.53111 48.2905 11.2558 49.2285C13.0107 50.1665 14.7959 51.1044 16.581 52.0121C15.0379 51.7398 13.4948 51.4978 11.9819 51.2255C9.95471 50.8926 7.68542 50.1362 5.68845 51.0137C2.08784 52.6475 0.817039 57.3979 0.302667 60.938C-0.241962 64.6596 -0.151191 69.2587 2.60221 72.1634C3.96379 73.6158 6.05153 73.5553 7.86696 73.7368C8.89571 73.8276 9.89419 73.9183 10.9229 74.0091C10.6506 74.0696 10.3783 74.1301 10.106 74.1907C7.74593 74.705 5.20433 74.9168 3.32839 76.5205C0.27241 79.0923 1.30115 84.8714 2.08784 88.1392C2.90479 91.4978 4.8715 96.0969 8.41159 97.3979C10.5901 98.1846 12.6779 97.2466 14.7656 96.581C16.339 96.0969 17.9123 95.5825 19.516 95.0984C18.3359 95.9456 17.1559 96.7625 15.9759 97.6097C14.2815 98.82 12.1332 99.9093 11.2255 101.876C9.56137 105.537 12.224 110.166 14.4025 112.98C16.7323 115.976 20.0001 119.244 24.0546 119.244C26.0213 119.244 27.5039 117.64 28.8957 116.49C29.6219 115.885 30.3783 115.25 31.1045 114.614C30.8019 115.098 30.4691 115.613 30.1665 116.097C28.9865 117.973 27.5946 119.637 27.5039 121.936C27.3223 125.719 31.6491 128.865 34.4025 130.62C37.4887 132.587 42.0878 134.433 45.7187 132.98C47.6249 132.194 48.3511 130.499 49.2891 128.775C50.227 127.02 51.165 125.235 52.0727 123.449C51.8004 124.992 51.5583 126.536 51.286 128.048C50.9532 130.076 50.1968 132.345 51.0742 134.342C52.7081 137.943 57.4585 139.213 60.9986 139.728C64.7202 140.272 69.3193 140.182 72.224 137.428C73.6763 136.067 73.6158 133.979 73.7974 132.163C73.8881 131.135 73.9789 130.136 74.0697 129.107C74.1302 129.38 74.1907 129.652 74.2512 129.924C74.7656 132.284 74.9774 134.826 76.581 136.702C79.1529 139.758 84.932 138.729 88.1998 137.943C91.5583 137.126 96.1574 135.159 97.4585 131.619C98.2452 129.44 97.3072 127.353 96.6415 125.265C96.1574 123.691 95.6733 122.118 95.159 120.514C96.0061 121.694 96.8231 122.874 97.6703 124.054C98.8806 125.749 99.9698 127.897 101.937 128.805C105.598 130.469 110.227 127.806 113.041 125.628C116.036 123.298 119.304 120.03 119.304 115.976C119.304 114.009 117.701 112.527 116.551 111.135C115.946 110.409 115.31 109.682 114.675 108.926C115.159 109.228 115.673 109.561 116.157 109.864C118.033 111.044 119.698 112.436 121.967 112.527C125.749 112.708 128.896 108.381 130.651 105.628C132.617 102.542 134.463 97.9426 133.011 94.3117C132.224 92.4055 130.53 91.6793 128.805 90.7413C127.05 89.8034 125.265 88.8654 123.48 87.9577C125.023 88.23 126.566 88.472 128.079 88.7444C130.106 89.0772 132.375 89.8336 134.372 88.9562C137.973 87.3223 139.244 82.5719 139.758 79.0318C140.272 75.2799 140.212 70.6808 137.458 67.7761ZM107.595 96.6112C92.8291 116.611 68.23 121.392 46.5659 109.652C23.873 97.3374 18.4267 69.4705 29.8034 47.5038C41.634 24.6899 69.4403 17.882 91.5583 29.4705C116.218 42.3904 122.481 74.1907 107.595 96.6112ZM128.593 46.6264C131.982 45.5976 133.344 50.3783 134.07 52.9199C134.463 54.2512 135.371 58.3661 134.281 60.1211C133.646 59.3344 132.92 58.5779 132.466 57.7005C131.165 55.2194 130.53 52.4963 129.35 49.9849C129.319 49.9244 129.198 49.9244 129.198 50.0152C128.563 52.9501 129.229 56.2784 130.288 59.0318C130.53 59.6672 130.923 60.6052 131.437 61.4221C127.474 62.5416 123.298 63.177 119.304 64.0242C118.699 59.4252 117.458 54.9471 115.613 50.6506C119.909 49.289 124.236 47.9274 128.593 46.6264ZM114.947 25.5371C117.519 23.3888 120.605 27.2013 122.209 29.1075C123.51 30.6506 125.688 33.7671 125.114 35.9456C124.176 35.4917 123.298 34.7958 122.542 34.1604C120.484 32.4055 118.85 30.2572 116.853 28.4418C116.823 28.4115 116.793 28.4115 116.763 28.4418C116.732 28.4721 116.702 28.5023 116.732 28.5326C117.337 31.5583 119.274 34.3722 121.392 36.5507C121.785 36.9441 122.421 37.5795 123.147 38.0938C119.758 40.5447 116.339 42.935 112.95 45.3556C110.681 41.3919 107.867 37.7005 104.508 34.3722C107.958 31.4373 111.437 28.4721 114.947 25.5371ZM94.8261 12.1634C96.4903 9.0772 100.393 11.1347 102.784 12.4055C104.085 13.0711 107.958 15.4312 108.442 17.5795C107.322 17.4584 106.173 17.4282 105.144 17.0651C102.602 16.2179 100.303 14.7958 97.7913 13.9184C97.7611 13.9184 97.7308 13.9184 97.7005 13.9486C97.6703 13.9789 97.6703 14.0091 97.7005 14.0394C99.395 16.6718 102.36 18.6082 105.204 19.7882C105.779 20.0303 106.596 20.3631 107.413 20.5447C105.416 24.115 102.875 27.5038 100.635 30.9229C99.0621 29.6218 97.398 28.3813 95.6128 27.2315C93.404 25.8094 91.165 24.5689 88.8655 23.5704C90.8322 19.7277 92.8291 15.9153 94.8261 12.1634ZM77.7308 4.14528C79.9396 4.29657 83.2679 4.93197 84.8715 6.7474C83.873 7.04997 82.9048 7.44331 81.876 7.53408C79.1529 7.77614 76.46 7.35254 73.7369 7.50383C73.6763 7.50383 73.6763 7.53409 73.6461 7.56434C73.6461 7.5946 73.6461 7.62486 73.6763 7.65511C76.2179 9.41003 79.6068 9.98492 82.6325 10.0454C83.2981 10.0454 84.2966 10.0454 85.2346 9.83363C84.9623 11.2255 84.5084 12.7081 84.3874 13.404C83.9335 16.0666 83.4797 18.7595 83.0258 21.4221C78.457 20.0908 73.8276 19.5159 69.1983 19.6067C69.5009 15.0076 69.5916 10.2572 70.4388 5.74891C70.8624 3.60065 76.339 4.02425 77.7308 4.14528ZM52.9199 5.93045C54.2512 5.53711 58.3662 4.6294 60.1211 5.71865C59.3344 6.35405 58.578 7.08023 57.7006 7.53408C55.2195 8.83514 52.4963 9.47055 49.985 10.6506C49.9547 10.6808 49.9245 10.7111 49.9547 10.7413C49.9547 10.7716 49.985 10.8019 50.0152 10.8019C52.9502 11.4373 56.2785 10.7716 59.0319 9.7126C59.6673 9.47054 60.6052 9.0772 61.4222 8.56283C62.4509 12.2845 63.1166 16.1876 63.873 19.9698C59.2739 20.5749 54.7353 21.876 50.4691 23.7519C49.168 19.637 47.8972 15.522 46.6264 11.3767C45.5977 8.04846 50.3783 6.65663 52.9199 5.93045ZM29.1075 17.7913C30.6506 16.4902 33.7671 14.3117 35.9456 14.8866C35.4918 15.8246 34.7959 16.702 34.1605 17.4584C32.4055 19.5159 30.2573 21.1801 28.4419 23.1468C28.4116 23.177 28.4116 23.2073 28.4419 23.2376C28.4721 23.2678 28.5024 23.2981 28.5326 23.2678C31.5583 22.6627 34.3723 20.7262 36.5508 18.6082C36.9441 18.2149 37.5795 17.5795 38.0939 16.8533C40.4237 20.0606 42.693 23.2981 44.9925 26.5356C41.0288 28.8654 37.3375 31.7701 34.0697 35.1286C31.2255 31.7701 28.3511 28.4115 25.5372 25.0227C23.4192 22.4811 27.2316 19.3949 29.1075 17.7913ZM12.3753 37.1861C13.0409 35.8851 15.401 32.0121 17.519 31.528C17.398 32.6475 17.3677 33.7973 17.0046 34.8261C16.1877 37.3677 14.7353 39.6672 13.8579 42.1786C13.8579 42.2088 13.8579 42.2391 13.8881 42.2693C13.9184 42.2996 13.9487 42.2996 13.9789 42.2693C16.6113 40.5749 18.5477 37.6097 19.7278 34.7656C19.9698 34.1907 20.3027 33.3737 20.4842 32.5568C23.9335 34.4932 27.2316 36.9441 30.5296 39.1226C29.4706 40.4539 28.5024 41.8155 27.5644 43.2376C25.9305 45.7792 24.5689 48.4115 23.4494 51.0742C19.6673 49.1075 15.8851 47.1105 12.103 45.1135C9.07725 43.5099 11.1347 39.6067 12.3753 37.1861ZM5.7187 69.5311C3.6007 69.1377 4.05456 63.6612 4.14533 62.2693C4.29662 60.0606 4.93202 56.7323 6.74745 55.1286C7.05002 56.1271 7.44336 57.0954 7.53413 58.1241C7.77619 60.8472 7.35259 63.5401 7.50388 66.2633C7.50388 66.3238 7.53413 66.3238 7.56439 66.354C7.59465 66.354 7.62491 66.354 7.65516 66.3238C9.41008 63.7822 9.98497 60.3934 10.0455 57.3677C10.0455 56.702 10.0152 55.7035 9.83368 54.7655C11.2255 55.0379 12.7081 55.4917 13.404 55.6127C16.0969 56.0666 18.7898 56.5205 21.4827 57.0046C20.2119 61.5734 19.6673 66.233 19.758 70.8321C15.0984 70.4388 10.2875 70.348 5.7187 69.5311ZM11.4071 93.3737C8.04851 94.4025 6.65668 89.6218 5.9305 87.0802C5.53716 85.7489 4.62944 81.6339 5.7187 79.879C6.3541 80.6657 7.08028 81.4221 7.53413 82.2996C8.83519 84.7807 9.47059 87.5038 10.6506 90.0152C10.6809 90.0454 10.7111 90.0757 10.7414 90.0454C10.7717 90.0454 10.8019 90.0152 10.8019 89.9849C11.4373 87.05 10.7717 83.7217 9.71265 80.9683C9.47059 80.3329 9.07725 79.3949 8.56288 78.578C12.3148 77.519 16.2785 76.8835 20.0909 76.0969C20.696 80.7262 21.9366 85.2345 23.7822 89.5311C19.6673 90.8321 15.5523 92.1332 11.4071 93.3737ZM25.053 114.463C22.4812 116.611 19.3647 112.799 17.7913 110.893C16.4903 109.35 14.3117 106.233 14.8866 104.054C15.8246 104.508 16.7021 105.204 17.4585 105.84C19.516 107.595 21.1499 109.743 23.1468 111.558C23.1771 111.589 23.2074 111.589 23.2376 111.558C23.2679 111.528 23.2981 111.498 23.2679 111.468C22.6627 108.442 20.7263 105.628 18.6083 103.449C18.2149 103.056 17.5795 102.421 16.8533 101.906C20.0606 99.5764 23.2981 97.3071 26.5356 95.0076C28.8352 98.9713 31.7096 102.663 35.0984 105.961C31.7701 108.805 28.4419 111.649 25.053 114.463ZM45.1741 127.837C43.5099 130.923 39.6068 128.865 37.2164 127.595C35.9154 126.899 32.0425 124.569 31.5583 122.421C32.6779 122.542 33.8276 122.572 34.8564 122.935C37.398 123.782 39.6975 125.204 42.2089 126.082C42.2694 126.112 42.3602 126.021 42.2996 125.961C40.6052 123.328 37.64 121.392 34.7959 120.212C34.221 119.97 33.404 119.637 32.5871 119.455C34.4933 116.006 36.9744 112.708 39.1529 109.44C40.2422 110.318 41.3919 111.135 42.572 111.921C45.3556 113.767 48.2301 115.28 51.1347 116.49C49.168 120.303 47.1711 124.085 45.1741 127.837ZM62.2694 135.855C60.0606 135.704 56.7323 135.068 55.1287 133.253C56.1272 132.95 57.0954 132.557 58.1242 132.466C60.8473 132.224 63.5402 132.648 66.2633 132.496C66.3239 132.496 66.3239 132.466 66.3541 132.436C66.3541 132.405 66.3541 132.375 66.3238 132.345C63.7822 130.59 60.3934 130.015 57.3677 129.955C56.7021 129.955 55.7036 129.985 54.7656 130.166C55.0379 128.775 55.4918 127.292 55.6128 126.596C56.0667 123.903 56.5205 121.21 57.0046 118.487C61.5735 119.728 66.2331 120.303 70.8322 120.182C70.4993 124.841 70.4388 129.682 69.5916 134.281C69.1378 136.43 63.6612 135.976 62.2694 135.855ZM87.0803 134.07C85.749 134.463 81.634 135.371 79.8791 134.281C80.6658 133.646 81.4222 132.92 82.2996 132.466C84.7807 131.165 87.5039 130.53 90.0152 129.35C90.0455 129.35 90.0757 129.289 90.0455 129.259C90.0455 129.228 90.0152 129.198 89.985 129.198C87.05 128.563 83.7217 129.228 80.9683 130.287C80.3329 130.53 79.395 130.923 78.578 131.437C77.519 127.655 76.8533 123.661 76.0969 119.818C80.696 119.213 85.2043 117.943 89.5008 116.067C90.8019 120.242 92.1332 124.448 93.404 128.654C94.4025 131.982 89.6219 133.343 87.0803 134.07ZM110.893 122.209C109.35 123.51 106.233 125.688 104.055 125.113C104.508 124.176 105.204 123.298 105.84 122.542C107.595 120.484 109.743 118.85 111.558 116.853C111.619 116.793 111.558 116.702 111.468 116.702C108.442 117.307 105.628 119.244 103.449 121.362C103.056 121.755 102.421 122.39 101.906 123.117C99.5462 119.849 97.2164 116.551 94.8866 113.253C98.8201 110.953 102.511 108.079 105.84 104.72C108.714 108.109 111.589 111.498 114.433 114.917C116.581 117.519 112.769 120.635 110.893 122.209ZM127.625 102.814C126.959 104.115 124.599 107.988 122.481 108.472C122.602 107.353 122.632 106.203 122.996 105.174C123.843 102.632 125.265 100.333 126.142 97.8215C126.142 97.7913 126.142 97.761 126.112 97.7307C126.082 97.7005 126.052 97.7005 126.021 97.7307C123.389 99.4251 121.452 102.39 120.272 105.235C120.03 105.809 119.698 106.626 119.516 107.443C116.036 105.507 112.738 103.026 109.44 100.847C110.015 100.151 110.59 99.4252 111.135 98.699C113.253 95.4917 114.977 92.1634 116.309 88.7746C120.182 90.8018 124.055 92.8291 127.897 94.8866C130.923 96.4902 128.896 100.424 127.625 102.814ZM135.855 77.7307C135.704 79.9395 135.068 83.2678 133.253 84.8714C132.95 83.873 132.557 82.9047 132.466 81.876C132.224 79.1528 132.648 76.4599 132.496 73.7368C132.496 73.6763 132.466 73.6763 132.436 73.646C132.406 73.646 132.375 73.646 132.345 73.6763C130.59 76.2179 130.015 79.6067 129.955 82.6324C129.955 83.2981 129.955 84.2966 130.167 85.2345C128.775 84.9622 127.292 84.5084 126.596 84.3873C123.752 83.9032 120.938 83.4191 118.094 82.935C119.274 78.3661 119.788 73.7368 119.667 69.1377C124.478 69.5008 129.531 69.5613 134.251 70.4085C136.43 70.8624 135.976 76.3389 135.855 77.7307Z" fill="black"/>
<path d="M90.257 34.6445C70.5595 22.1483 45.7789 30.7111 34.493 49.7731C23.0255 69.0469 30.0452 92.9501 48.3205 104.69C67.2313 116.823 90.5898 110.711 103.54 93.3737C116.823 73.0711 110.56 47.534 90.257 34.6445ZM52.3447 102.33C34.1904 93.2829 28.8651 71.7701 36.8228 54.0091C45.4158 34.7958 67.7154 28.23 86.1117 36.9743C106.808 46.8079 112.072 72.9803 100.06 91.3162C88.4415 106.899 69.6216 110.953 52.3447 102.33Z" fill="black"/>
<path d="M83.4795 86.7474C83.6005 85.7489 83.2677 84.4781 82.0574 84.2663C80.5748 84.0242 79.1225 83.7519 77.6399 83.5099C77.1255 83.4191 76.7624 83.3888 76.4598 83.3586C77.0045 79.1226 77.5189 74.8866 78.0635 70.6506C79.062 62.7534 80.0605 54.8261 81.0589 46.9289C81.2102 45.7489 80.0302 45.0227 79.0317 44.9017C73.767 44.3571 69.894 42.9652 65.4462 45.9002C62.9046 47.5643 60.3933 49.2587 57.8517 50.9229C55.7034 52.345 56.127 56.3692 55.8244 58.5779C55.6429 60 56.3388 60.938 57.7609 61.1195C59.6671 61.3616 61.6036 61.6037 63.5098 61.8457C62.6626 68.2602 61.8456 74.6748 61.0589 81.1195C58.9712 80.8472 56.8834 80.6052 54.7957 80.3328C53.6157 80.1816 52.8895 81.3616 52.7685 82.3601C52.3751 85.6279 51.9818 88.8956 51.6489 92.1937C51.5279 93.3737 52.6777 94.0999 53.6762 94.2209C62.5113 95.2799 71.3464 96.3086 80.1815 97.3979C80.9682 97.4887 81.9969 96.702 82.1179 95.9153C82.6021 92.8593 83.0862 89.8034 83.4795 86.7474ZM71.649 92.3147C66.4145 91.6793 61.18 91.0741 55.9455 90.4387C56.1573 88.5023 56.3691 86.5356 56.6111 84.5991C58.6989 84.8714 60.7866 85.1135 62.8441 85.3858C64.0241 85.5371 64.6595 84.7504 64.7503 83.8427C64.8108 83.6914 64.8411 83.5401 64.8713 83.3586C65.8093 75.6127 66.8078 67.8669 67.8365 60.1211C67.9878 58.941 66.7775 58.2149 65.8093 58.0938C63.8426 57.8518 61.8759 57.6097 59.9092 57.3374C59.9394 55.7035 59.9999 54.3419 61.3918 53.4342C63.4493 52.0727 65.4765 50.7111 67.534 49.3798C70.4387 47.4433 73.4644 48.0787 76.8532 48.6233C75.3101 60.7262 73.7972 72.8593 72.2541 84.9622C72.1633 85.7791 72.95 86.7776 73.7367 86.8987C75.5824 87.2315 77.4281 87.5341 79.304 87.8669C79.062 89.6218 78.8199 91.3465 78.5476 93.1014C78.245 93.0711 77.7912 93.0409 77.1558 92.9803C75.3101 92.7383 73.4946 92.5265 71.649 92.3147Z" fill="black"/>
<path d="M58.2451 40.1515C51.1044 39.7884 44.7806 47.5342 41.5734 53.041C38.124 59.032 36.2783 66.8686 38.7292 73.5252C38.7594 73.6462 38.8805 73.6764 38.9712 73.6764C39.062 73.6764 39.1528 73.5857 39.1528 73.4646C39.6066 67.3527 42.0575 61.0289 44.8411 55.6432C46.475 52.4661 48.5325 49.5615 50.8926 46.8686C53.1316 44.3572 56.0363 42.7233 58.3661 40.3633C58.4266 40.3028 58.3661 40.1515 58.2451 40.1515Z" fill="black"/>
<path d="M59.758 39.6069C60.817 39.5766 61.9365 39.1833 62.9047 38.7899C63.994 38.3663 64.8109 38.0335 65.4766 37.0955C65.5674 36.9745 65.5068 36.7929 65.3858 36.7324C63.3586 35.8247 60.5447 37.4889 59.6067 39.3648C59.5462 39.4556 59.6067 39.6069 59.758 39.6069Z" fill="black"/>
<path d="M102.572 61.9969C102.421 61.4825 102.239 60.9379 102.027 60.4235C101.997 60.363 101.967 60.3025 101.906 60.2722C101.846 60.2419 101.785 60.2419 101.725 60.2419C101.604 60.2419 101.513 60.3327 101.513 60.484C100.999 68.8047 100.454 76.49 96.9745 84.2056C95.2498 88.018 92.9805 91.6489 90.2271 94.7654C87.746 97.549 84.5993 99.3645 81.6038 101.543C81.5433 101.573 81.5735 101.694 81.634 101.694C89.1378 101.543 95.6734 93.6156 98.9714 87.6247C102.965 80.3327 105.144 70.2268 102.572 61.9969Z" fill="black"/>
</g>
<defs>
<clipPath id="clip0">
<rect width="140" height="140" fill="white"/>
</clipPath>
</defs>
</svg>
