<svg width="190" height="145" viewBox="0 0 190 145" fill="none" xmlns="http://www.w3.org/2000/svg">
<g clip-path="url(#clip0)">
<path d="M107.997 10.8625C106.191 13.622 104.335 16.9836 102.98 20.7466C102.503 22.0511 103.181 23.1799 103.732 22.0009C105.288 18.6644 106.743 15.378 108.474 12.4429C109.051 11.4896 108.574 9.98444 107.997 10.8625Z" fill="black"/>
<path d="M111.735 12.0916C109.252 14.8511 106.743 17.5605 104.285 20.5207C103.482 21.474 103.607 23.1547 104.435 22.2516C106.919 19.5674 109.402 16.6072 111.886 13.7222C112.639 12.8442 112.513 11.2387 111.735 12.0916Z" fill="black"/>
<path d="M112.137 12.192C110.556 14.9014 108.951 17.7863 107.47 20.7967C106.994 21.7751 107.571 23.0545 108.073 22.2015C109.678 19.5424 111.208 16.4818 112.688 13.5216C113.165 12.6185 112.613 11.3642 112.137 12.192Z" fill="black"/>
<path d="M115.824 12.3927C113.466 15.5285 111.058 18.1626 108.625 20.7214C107.822 21.5744 107.947 23.1297 108.725 22.4022C111.259 20.0441 113.792 16.9333 116.226 13.6721C117.003 12.6436 116.577 11.4143 115.824 12.3927Z" fill="black"/>
<path d="M117.254 10.1099C115.574 13.7725 113.818 17.1592 112.037 20.5709C111.51 21.5995 111.961 23.205 112.538 22.1765C114.445 18.8149 116.251 15.077 117.957 11.2638C118.459 10.16 117.756 9.00606 117.254 10.1099Z" fill="black"/>
<path d="M120.967 11.8908C118.132 14.4496 115.323 17.2844 112.664 20.5708C111.961 21.4488 112.413 22.4021 113.14 21.5742C115.774 18.5638 118.383 15.7291 121.118 13.1953C121.845 12.5431 121.72 11.2135 120.967 11.8908Z" fill="black"/>
<path d="M121.067 11.4897C119.035 14.6506 117.003 17.8867 115.147 21.3487C114.595 22.3772 115.197 23.4308 115.774 22.4776C117.756 19.2163 119.687 15.8296 121.694 12.5935C122.271 11.6402 121.644 10.5615 121.067 11.4897Z" fill="black"/>
<path d="M124.354 11.8658C121.544 14.5751 118.684 17.3347 115.875 20.2949C114.896 21.3485 114.972 23.1296 115.975 22.1764C118.81 19.5172 121.645 16.5821 124.454 13.672C125.382 12.6937 125.307 10.9376 124.354 11.8658Z" fill="black"/>
<path d="M124.178 12.0414C122.573 15.1521 120.992 18.3381 119.462 21.5993C118.91 22.7784 119.587 23.9575 120.139 22.8537C121.745 19.7178 123.3 16.5319 124.83 13.2455C125.357 12.0915 124.705 10.9877 124.178 12.0414Z" fill="black"/>
<path d="M129.195 12.0665C126.411 14.3745 123.275 17.2343 120.265 20.621C119.236 21.8001 119.136 23.0293 120.139 22.0008C123.049 19.0907 125.884 16.2058 128.719 13.6971C129.622 12.8944 130.073 11.3139 129.195 12.0665Z" fill="black"/>
<path d="M129.146 11.4643C127.314 14.5499 125.458 17.5854 123.677 20.8466C123.1 21.9003 123.576 23.5309 124.204 22.5274C126.06 19.517 127.841 16.2307 129.647 13.0447C130.199 12.0663 129.723 10.511 129.146 11.4643Z" fill="black"/>
<path d="M133.059 11.9661C130.199 14.55 127.264 17.2594 124.379 20.1945C123.451 21.1478 123.375 22.678 124.253 21.9004C127.088 19.3917 130.074 16.4566 132.933 13.5967C133.836 12.7187 133.912 11.1884 133.059 11.9661Z" fill="black"/>
<path d="M133.059 11.59C131.478 15.0519 129.772 17.9871 127.991 20.8971C127.389 21.8504 127.891 23.3807 128.493 22.5277C130.424 19.7933 132.155 16.3564 133.761 12.7691C134.263 11.6402 133.56 10.5113 133.059 11.59Z" fill="black"/>
<path d="M145.753 11.4894C144.172 14.9514 142.466 17.8865 140.685 20.7965C140.083 21.7498 140.585 23.2801 141.187 22.4271C143.119 19.6927 144.85 16.2559 146.455 12.6685C146.957 11.5396 146.255 10.4107 145.753 11.4894Z" fill="black"/>
<path d="M136.947 11.1132C134.238 14.3243 131.503 17.2845 128.744 20.2196C127.916 21.0976 127.891 22.7533 128.744 21.8753C131.603 19.0154 134.463 15.7291 137.273 12.3675C138.101 11.4142 137.75 10.1599 136.947 11.1132Z" fill="black"/>
<path d="M136.947 11.3641C135.191 14.4999 133.56 17.9116 132.231 21.6997C131.88 22.7032 132.682 23.5059 133.059 22.5527C134.439 19.0405 135.894 15.6789 137.574 12.6184C138.026 11.7905 137.399 10.5613 136.947 11.3641Z" fill="black"/>
<path d="M141.438 12.0415C138.628 14.7759 135.768 17.5605 133.034 20.621C132.206 21.5242 132.532 22.6531 133.36 21.8252C136.169 18.9904 138.954 16.0302 141.764 13.2205C142.566 12.3927 142.24 11.2387 141.438 12.0415Z" fill="black"/>
<path d="M141.739 11.7402C140.133 14.6001 138.503 17.5101 136.997 20.5958C136.471 21.6745 137.173 23.1797 137.75 22.1762C139.381 19.3414 140.936 16.2809 142.466 13.2705C142.993 12.2169 142.291 10.7368 141.739 11.7402Z" fill="black"/>
<path d="M145.326 12.1919C142.742 14.826 140.158 17.5604 137.599 20.345C136.671 21.3736 136.922 22.653 137.825 21.7248C140.409 19.0656 142.968 16.3312 145.527 13.5215C146.455 12.5181 146.179 11.3139 145.326 12.1919Z" fill="black"/>
<path d="M158.045 11.64C156.465 15.102 154.759 18.0371 152.978 20.9471C152.376 21.9004 152.877 23.4307 153.48 22.5778C155.411 19.8433 157.142 16.4065 158.748 12.8191C159.224 11.6902 158.522 10.5362 158.045 11.64Z" fill="black"/>
<path d="M149.214 11.2638C146.505 14.4749 143.771 17.4351 141.011 20.3702C140.183 21.2483 140.158 22.904 141.011 22.0259C143.871 19.1661 146.731 15.8798 149.541 12.5182C150.368 11.5649 150.042 10.3106 149.214 11.2638Z" fill="black"/>
<path d="M149.24 11.5147C147.484 14.6505 145.853 18.0623 144.523 21.8503C144.172 22.8538 144.975 23.6566 145.351 22.7033C146.731 19.1912 148.186 15.8296 149.867 12.769C150.293 11.9412 149.691 10.7119 149.24 11.5147Z" fill="black"/>
<path d="M153.705 12.1918C150.895 14.9263 148.036 17.7109 145.301 20.7714C144.473 21.6745 144.799 22.8034 145.627 21.9756C148.437 19.1408 151.222 16.1806 154.031 13.3709C154.859 12.5431 154.533 11.3891 153.705 12.1918Z" fill="black"/>
<path d="M154.031 11.8909C152.426 14.7507 150.795 17.6608 149.29 20.7464C148.763 21.8251 149.465 23.3303 150.042 22.3269C151.673 19.4921 153.228 16.4315 154.759 13.4212C155.285 12.3675 154.583 10.8874 154.031 11.8909Z" fill="black"/>
<path d="M157.594 12.3426C155.01 14.9766 152.426 17.7111 149.867 20.4957C148.939 21.5242 149.19 22.8036 150.093 21.8754C152.677 19.2163 155.236 16.4818 157.794 13.6721C158.723 12.6687 158.472 11.4645 157.594 12.3426Z" fill="black"/>
<path d="M57.5235 10.8625C55.7173 13.622 53.8609 16.9836 52.5062 20.7466C52.0296 22.0511 52.7069 23.1799 53.2588 22.0009C54.8142 18.6644 56.2692 15.378 58.0001 12.4429C58.5771 11.4896 58.1005 9.98444 57.5235 10.8625Z" fill="black"/>
<path d="M61.2613 12.0916C58.7777 14.8511 56.2691 17.5605 53.8106 20.5207C53.0078 21.474 53.1333 23.1547 53.9611 22.2516C56.4447 19.5674 58.9283 16.6072 61.4118 13.7222C62.1393 12.8442 62.039 11.2387 61.2613 12.0916Z" fill="black"/>
<path d="M61.6375 12.192C60.0571 14.9013 58.4515 17.7863 56.9714 20.7966C56.4948 21.775 57.0718 23.0544 57.5735 22.2015C59.2041 19.5423 60.7344 16.5068 62.2145 13.5466C62.6661 12.6184 62.1142 11.3641 61.6375 12.192Z" fill="black"/>
<path d="M65.3503 12.3927C62.9922 15.5285 60.5839 18.1626 58.1505 20.7214C57.3477 21.5744 57.4732 23.1297 58.2508 22.4022C60.7846 20.0441 63.3183 16.9333 65.7517 13.6721C66.5043 12.6436 66.0778 11.4143 65.3503 12.3927Z" fill="black"/>
<path d="M66.755 10.1099C65.0742 13.7725 63.3181 17.1592 61.537 20.5709C61.0102 21.5995 61.4617 23.205 62.0387 22.1765C63.9453 18.8149 65.7515 15.077 67.4574 11.2638C67.9592 10.16 67.2567 9.00606 66.755 10.1099Z" fill="black"/>
<path d="M70.4931 11.8908C67.6583 14.4496 64.8486 17.2844 62.1895 20.5708C61.4871 21.4488 61.9386 22.4021 62.6661 21.5742C65.3002 18.5638 67.9092 15.7291 70.6436 13.1953C71.346 12.5431 71.2206 11.2135 70.4931 11.8908Z" fill="black"/>
<path d="M70.5686 11.4897C68.5366 14.6506 66.5046 17.8867 64.6482 21.3487C64.0963 22.3772 64.6984 23.4308 65.2754 22.4776C67.2572 19.2163 69.1889 15.8296 71.1958 12.5935C71.7979 11.6402 71.1707 10.5615 70.5686 11.4897Z" fill="black"/>
<path d="M73.8549 11.8658C71.0452 14.5751 68.1853 17.3347 65.3756 20.2949C64.3973 21.3485 64.4725 23.1296 65.476 22.1764C68.3108 19.5172 71.1455 16.5821 73.9552 13.672C74.9085 12.6937 74.8082 10.9376 73.8549 11.8658Z" fill="black"/>
<path d="M73.6791 12.0414C72.0736 15.1521 70.4931 18.3381 68.9628 21.5993C68.4109 22.7784 69.0883 23.9575 69.6402 22.8537C71.2457 19.7178 72.8011 16.5319 74.3313 13.2455C74.8833 12.0915 74.2059 10.9877 73.6791 12.0414Z" fill="black"/>
<path d="M78.6963 12.0665C75.9117 14.3745 72.7759 17.2343 69.7655 20.621C68.737 21.8001 68.6367 23.0293 69.6401 22.0008C72.5501 19.0907 75.3849 16.2058 78.2197 13.6971C79.1228 12.8944 79.5994 11.3139 78.6963 12.0665Z" fill="black"/>
<path d="M78.6711 11.4643C76.8398 14.5499 74.9834 17.5854 73.2022 20.8466C72.6252 21.9003 73.1019 23.5309 73.729 22.5274C75.5854 19.517 77.3666 16.2307 79.1728 13.0447C79.6996 12.0663 79.223 10.511 78.6711 11.4643Z" fill="black"/>
<path d="M82.5598 11.9661C79.725 14.55 76.7648 17.2594 73.8798 20.1945C72.9516 21.1478 72.8764 22.678 73.7544 21.9004C76.5892 19.3917 79.5745 16.4566 82.4343 13.5967C83.3375 12.7187 83.4127 11.1884 82.5598 11.9661Z" fill="black"/>
<path d="M82.56 11.59C81.0046 15.0519 79.2736 17.9871 77.4925 20.8971C76.8904 21.8504 77.3921 23.3807 77.9942 22.5277C79.9259 19.7933 81.6568 16.3564 83.2624 12.7691C83.7641 11.6402 83.0617 10.5113 82.56 11.59Z" fill="black"/>
<path d="M95.2787 11.4894C93.6982 14.9514 91.9924 17.8865 90.2112 20.7965C89.6092 21.7498 90.1109 23.2801 90.713 22.4271C92.6446 19.6927 94.3756 16.2559 95.9811 12.6685C96.4578 11.5396 95.7553 10.4107 95.2787 11.4894Z" fill="black"/>
<path d="M86.4484 11.1132C83.739 14.3243 81.0046 17.2845 78.2451 20.2196C77.4172 21.0976 77.3921 22.7533 78.2451 21.8753C81.1049 19.0154 83.9648 15.7291 86.7745 12.3675C87.6023 11.4142 87.2511 10.1599 86.4484 11.1132Z" fill="black"/>
<path d="M53.4594 11.59C51.8789 15.0519 50.173 17.9871 48.3919 20.8971C47.7898 21.8504 48.2916 23.3807 48.8936 22.5277C50.8253 19.7933 52.5563 16.3564 54.1618 12.7691C54.6635 11.6402 53.9611 10.5113 53.4594 11.59Z" fill="black"/>
<path d="M57.3478 11.1132C54.6384 14.3243 51.904 17.2845 49.1445 20.2196C48.3166 21.0976 48.2916 22.7533 49.1445 21.8753C52.0044 19.0154 54.8642 15.7291 57.6739 12.3675C58.5018 11.4142 58.1506 10.1599 57.3478 11.1132Z" fill="black"/>
<path d="M86.4481 11.3641C84.6921 14.4999 83.0615 17.9116 81.7319 21.6997C81.3807 22.7032 82.1834 23.5059 82.5597 22.5527C83.9395 19.0405 85.3945 15.6789 87.0753 12.6184C87.5269 11.7905 86.9248 10.5613 86.4481 11.3641Z" fill="black"/>
<path d="M90.9385 12.0415C88.1288 14.7759 85.269 17.5605 82.5346 20.621C81.7067 21.5242 82.0328 22.6531 82.8607 21.8252C85.6704 18.9904 88.455 16.0302 91.2647 13.2205C92.0674 12.3927 91.7413 11.2387 90.9385 12.0415Z" fill="black"/>
<path d="M91.2645 11.7402C89.659 14.6001 88.0284 17.5101 86.5232 20.5958C85.9964 21.6745 86.6988 23.1797 87.2758 22.1762C88.9064 19.3414 90.4618 16.2809 91.9921 13.2705C92.4938 12.2169 91.8164 10.7368 91.2645 11.7402Z" fill="black"/>
<path d="M94.8271 12.1919C92.2432 14.826 89.6593 17.5604 87.1005 20.345C86.1723 21.3736 86.4231 22.653 87.3263 21.7248C89.9102 19.0656 92.469 16.3312 95.0278 13.5215C95.956 12.5181 95.6801 11.3139 94.8271 12.1919Z" fill="black"/>
<path d="M107.546 11.64C105.965 15.102 104.259 18.0371 102.478 20.9471C101.876 21.9004 102.378 23.4307 102.98 22.5778C104.912 19.8433 106.643 16.4065 108.248 12.8191C108.75 11.6902 108.048 10.5362 107.546 11.64Z" fill="black"/>
<path d="M98.7404 11.2638C96.031 14.4749 93.2966 17.4351 90.5371 20.3702C89.7092 21.2483 89.6841 22.904 90.5371 22.0259C93.3969 19.1661 96.2568 15.8798 99.0665 12.5182C99.8943 11.5649 99.5431 10.3106 98.7404 11.2638Z" fill="black"/>
<path d="M98.7406 11.5147C96.9846 14.6505 95.3539 18.0623 94.0243 21.8503C93.6731 22.8538 94.4759 23.6566 94.8522 22.7033C96.232 19.1912 97.687 15.8296 99.3678 12.769C99.8193 11.9412 99.1922 10.7119 98.7406 11.5147Z" fill="black"/>
<path d="M103.206 12.1918C100.396 14.9263 97.5361 17.7109 94.8016 20.7714C93.9738 21.6745 94.2999 22.8034 95.1278 21.9756C97.9375 19.1408 100.722 16.1806 103.532 13.3709C104.36 12.5431 104.033 11.3891 103.206 12.1918Z" fill="black"/>
<path d="M103.532 11.8909C101.927 14.7507 100.296 17.6608 98.7908 20.7464C98.264 21.8251 98.9664 23.3303 99.5434 22.3269C101.174 19.4921 102.729 16.4315 104.26 13.4212C104.786 12.3675 104.084 10.8874 103.532 11.8909Z" fill="black"/>
<path d="M107.094 12.3426C104.51 14.9766 101.926 17.7111 99.3676 20.4957C98.4394 21.5242 98.6902 22.8036 99.5933 21.8754C102.177 19.2163 104.736 16.4818 107.295 13.6721C108.223 12.6687 107.972 11.4645 107.094 12.3426Z" fill="black"/>
<path d="M53.7105 136.571C52.0548 138.302 50.3238 140.384 49.0945 142.742C48.6681 143.545 49.2952 144.247 49.797 143.52C51.2269 141.438 52.5816 139.381 54.1871 137.549C54.6637 136.972 54.2373 136.019 53.7105 136.571Z" fill="black"/>
<path d="M57.1471 137.323C54.8391 139.054 52.5312 140.735 50.2734 142.592C49.5459 143.194 49.6462 144.222 50.3988 143.67C52.7068 141.989 54.9896 140.158 57.2725 138.352C57.9749 137.8 57.8746 136.797 57.1471 137.323Z" fill="black"/>
<path d="M57.4985 137.399C56.0435 139.104 54.5383 140.886 53.2087 142.767C52.7822 143.369 53.3091 144.172 53.7857 143.645C55.2658 141.989 56.6957 140.083 58.0504 138.226C58.4769 137.674 57.9501 136.872 57.4985 137.399Z" fill="black"/>
<path d="M60.9353 137.524C58.7528 139.481 56.5452 141.112 54.2874 142.717C53.5348 143.244 53.6602 144.222 54.3877 143.771C56.7459 142.291 59.0789 140.359 61.3116 138.327C61.9889 137.675 61.6127 136.922 60.9353 137.524Z" fill="black"/>
<path d="M62.2397 136.094C60.6844 138.377 59.0538 140.509 57.4231 142.642C56.9214 143.269 57.3479 144.272 57.8998 143.645C59.6809 141.563 61.3115 139.205 62.9171 136.822C63.3435 136.119 62.6913 135.417 62.2397 136.094Z" fill="black"/>
<path d="M65.6768 137.198C63.0427 138.803 60.4588 140.559 58.0003 142.617C57.348 143.168 57.7745 143.77 58.4268 143.244C60.8602 141.362 63.2685 139.581 65.8022 138.026C66.4544 137.624 66.3541 136.796 65.6768 137.198Z" fill="black"/>
<path d="M65.7518 136.947C63.8954 138.929 62.0139 140.936 60.283 143.118C59.7561 143.771 60.3331 144.423 60.8599 143.821C62.6913 141.789 64.4724 139.681 66.3288 137.649C66.8807 137.047 66.3037 136.37 65.7518 136.947Z" fill="black"/>
<path d="M68.7874 137.198C66.1784 138.904 63.5443 140.61 60.9604 142.466C60.0573 143.118 60.1326 144.222 61.0608 143.645C63.6698 141.99 66.3039 140.158 68.8878 138.327C69.7407 137.7 69.6655 136.621 68.7874 137.198Z" fill="black"/>
<path d="M68.6115 137.298C67.1314 139.23 65.6763 141.237 64.2464 143.269C63.7196 144.021 64.3468 144.749 64.8736 144.072C66.3537 142.115 67.8087 140.133 69.2135 138.076C69.7153 137.348 69.1132 136.646 68.6115 137.298Z" fill="black"/>
<path d="M73.2525 137.323C70.6686 138.778 67.7837 140.56 64.999 142.667C64.0458 143.394 63.9454 144.172 64.8987 143.52C67.583 141.714 70.192 139.907 72.801 138.327C73.6539 137.825 74.0804 136.847 73.2525 137.323Z" fill="black"/>
<path d="M73.2276 136.947C71.5468 138.879 69.8158 140.76 68.1852 142.817C67.6584 143.469 68.11 144.498 68.6619 143.871C70.3678 141.989 72.0235 139.957 73.6792 137.95C74.1809 137.323 73.7293 136.345 73.2276 136.947Z" fill="black"/>
<path d="M76.8147 137.273C74.1806 138.879 71.4712 140.585 68.8121 142.416C67.9591 143.018 67.8839 143.972 68.7117 143.47C71.3207 141.914 74.0802 140.083 76.7394 138.277C77.5422 137.725 77.6174 136.772 76.8147 137.273Z" fill="black"/>
<path d="M76.815 137.022C75.36 139.18 73.7796 141.011 72.1239 142.842C71.572 143.445 72.0235 144.398 72.6005 143.846C74.3816 142.14 75.9872 139.983 77.4673 137.75C77.9188 137.047 77.2917 136.345 76.815 137.022Z" fill="black"/>
<path d="M88.5558 136.947C87.1007 139.105 85.5203 140.936 83.8646 142.767C83.3127 143.369 83.7643 144.323 84.3412 143.771C86.1224 142.065 87.7279 139.907 89.208 137.675C89.6596 136.997 89.0073 136.27 88.5558 136.947Z" fill="black"/>
<path d="M80.4023 136.721C77.8936 138.728 75.385 140.56 72.8512 142.416C72.0986 142.968 72.0736 143.997 72.8512 143.445C75.4853 141.663 78.1194 139.606 80.7033 137.499C81.481 136.922 81.1549 136.119 80.4023 136.721Z" fill="black"/>
<path d="M80.4274 136.872C78.7968 138.829 77.2916 140.961 76.0874 143.319C75.7613 143.946 76.4888 144.448 76.84 143.846C78.1194 141.663 79.449 139.556 81.0044 137.649C81.4058 137.148 80.8288 136.37 80.4274 136.872Z" fill="black"/>
<path d="M84.5412 137.298C81.9322 139.004 79.3232 140.76 76.7895 142.667C76.0369 143.244 76.3129 143.946 77.0905 143.419C79.6744 141.638 82.2584 139.807 84.8423 138.051C85.5949 137.524 85.2938 136.797 84.5412 137.298Z" fill="black"/>
<path d="M84.8426 137.098C83.3625 138.879 81.8573 140.71 80.4775 142.617C80.0009 143.294 80.6531 144.222 81.1799 143.595C82.6851 141.839 84.1151 139.932 85.5199 138.026C85.9965 137.424 85.3443 136.495 84.8426 137.098Z" fill="black"/>
<path d="M88.1289 137.399C85.7457 139.029 83.3625 140.735 81.0043 142.491C80.1514 143.118 80.3772 143.921 81.205 143.344C83.5882 141.689 85.9715 139.983 88.3296 138.227C89.1825 137.599 88.9317 136.847 88.1289 137.399Z" fill="black"/>
<path d="M99.8693 137.048C98.4142 139.205 96.8338 141.036 95.1781 142.868C94.6262 143.47 95.0777 144.423 95.6547 143.871C97.4359 142.165 99.0414 140.008 100.522 137.775C100.973 137.073 100.346 136.37 99.8693 137.048Z" fill="black"/>
<path d="M91.7416 136.822C89.233 138.829 86.7243 140.66 84.1906 142.516C83.438 143.068 83.4129 144.097 84.1906 143.545C86.8247 141.764 89.4588 139.707 92.0427 137.599C92.7953 136.997 92.4942 136.22 91.7416 136.822Z" fill="black"/>
<path d="M91.7414 136.972C90.1108 138.929 88.6056 141.061 87.4014 143.419C87.0753 144.047 87.8028 144.548 88.154 143.946C89.4334 141.764 90.763 139.656 92.3184 137.75C92.7448 137.248 92.1678 136.47 91.7414 136.972Z" fill="black"/>
<path d="M95.8806 137.399C93.2716 139.104 90.6626 140.861 88.1289 142.767C87.3763 143.344 87.6522 144.047 88.4299 143.52C91.0138 141.739 93.5977 139.907 96.1816 138.151C96.9342 137.624 96.6332 136.897 95.8806 137.399Z" fill="black"/>
<path d="M96.1814 137.198C94.7013 138.979 93.1961 140.81 91.8164 142.717C91.3397 143.394 91.992 144.323 92.5188 143.695C94.024 141.939 95.4539 140.033 96.8588 138.126C97.3354 137.499 96.6832 136.596 96.1814 137.198Z" fill="black"/>
<path d="M99.4682 137.499C97.085 139.13 94.7018 140.835 92.3437 142.591C91.4907 143.219 91.7165 144.021 92.5444 143.444C94.9276 141.789 97.3108 140.083 99.6689 138.327C100.522 137.7 100.271 136.947 99.4682 137.499Z" fill="black"/>
<path d="M14.1238 137.524C11.9412 139.481 9.73364 141.112 7.47585 142.717C6.72326 143.244 6.84869 144.222 7.5762 143.771C9.93433 142.291 12.2674 140.359 14.5001 138.327C15.1774 137.675 14.8011 136.922 14.1238 137.524Z" fill="black"/>
<path d="M15.4282 136.094C13.8729 138.377 12.2422 140.509 10.6116 142.642C10.1099 143.269 10.5363 144.272 11.0883 143.645C12.8694 141.563 14.5 139.205 16.1055 136.822C16.532 136.119 15.8798 135.417 15.4282 136.094Z" fill="black"/>
<path d="M18.8652 137.198C16.2312 138.803 13.6473 140.559 11.1888 142.617C10.5365 143.168 10.963 143.77 11.6152 143.244C14.0486 141.362 16.4569 139.581 18.9907 138.026C19.6429 137.624 19.5426 136.796 18.8652 137.198Z" fill="black"/>
<path d="M18.9403 136.947C17.0839 138.929 15.2024 140.936 13.4714 143.118C12.9446 143.771 13.5216 144.423 14.0484 143.821C15.8797 141.789 17.6609 139.681 19.5173 137.649C20.0692 137.047 19.4922 136.37 18.9403 136.947Z" fill="black"/>
<path d="M21.9759 137.198C19.3669 138.904 16.7328 140.61 14.1489 142.466C13.2458 143.118 13.321 144.222 14.2492 143.645C16.8582 141.99 19.4923 140.158 22.0762 138.327C22.9292 137.7 22.8539 136.621 21.9759 137.198Z" fill="black"/>
<path d="M21.7999 137.298C20.3198 139.23 18.8648 141.237 17.4349 143.269C16.9081 144.021 17.5352 144.749 18.0621 144.072C19.5422 142.115 20.9972 140.133 22.402 138.076C22.9038 137.348 22.3017 136.646 21.7999 137.298Z" fill="black"/>
<path d="M26.4415 137.323C23.8576 138.778 20.9726 140.56 18.188 142.667C17.2347 143.394 17.1344 144.172 18.0877 143.52C20.7719 141.714 23.3809 139.907 25.9899 138.327C26.8429 137.825 27.2693 136.847 26.4415 137.323Z" fill="black"/>
<path d="M26.4161 136.947C24.7353 138.879 23.0043 140.76 21.3737 142.817C20.8469 143.469 21.2984 144.498 21.8503 143.871C23.5562 141.989 25.2119 139.957 26.8677 137.95C27.3694 137.323 26.9429 136.345 26.4161 136.947Z" fill="black"/>
<path d="M30.0036 137.273C27.3696 138.879 24.6602 140.585 22.001 142.416C21.1481 143.018 21.0728 143.972 21.9007 143.47C24.5097 141.914 27.2692 140.083 29.9284 138.277C30.7311 137.725 30.8064 136.772 30.0036 137.273Z" fill="black"/>
<path d="M30.0035 137.022C28.5485 139.18 26.9681 141.011 25.3123 142.842C24.7604 143.445 25.212 144.398 25.789 143.846C27.5701 142.14 29.1757 139.983 30.6558 137.75C31.1073 137.047 30.4802 136.345 30.0035 137.022Z" fill="black"/>
<path d="M41.7437 136.947C40.2887 139.105 38.7083 140.936 37.0526 142.767C36.5007 143.369 36.9522 144.323 37.5292 143.771C39.3104 142.065 40.9159 139.907 42.396 137.675C42.8476 136.997 42.1953 136.27 41.7437 136.947Z" fill="black"/>
<path d="M33.5907 136.721C31.0821 138.728 28.5734 140.56 26.0397 142.416C25.2871 142.968 25.262 143.997 26.0397 143.445C28.6738 141.663 31.3079 139.606 33.8918 137.499C34.6695 136.922 34.3433 136.119 33.5907 136.721Z" fill="black"/>
<path d="M33.6159 136.872C31.9853 138.829 30.4801 140.961 29.2759 143.319C28.9498 143.946 29.6773 144.448 30.0285 143.846C31.3079 141.663 32.6375 139.556 34.1929 137.649C34.5943 137.148 34.0173 136.37 33.6159 136.872Z" fill="black"/>
<path d="M37.7302 137.298C35.1212 139.004 32.5122 140.76 29.9785 142.667C29.2259 143.244 29.5018 143.946 30.2795 143.419C32.8634 141.638 35.4473 139.807 38.0312 138.051C38.7838 137.524 38.4828 136.797 37.7302 137.298Z" fill="black"/>
<path d="M38.0315 137.098C36.5514 138.879 35.0462 140.71 33.6665 142.617C33.1898 143.294 33.8421 144.222 34.3689 143.595C35.8741 141.839 37.304 139.932 38.7089 138.026C39.1855 137.424 38.5333 136.495 38.0315 137.098Z" fill="black"/>
<path d="M41.3174 137.399C38.9342 139.029 36.5509 140.735 34.1928 142.491C33.3399 143.118 33.5656 143.921 34.3935 143.344C36.7767 141.689 39.1599 139.983 41.5181 138.227C42.371 137.599 42.1201 136.847 41.3174 137.399Z" fill="black"/>
<path d="M53.0582 137.048C51.6032 139.205 50.0227 141.036 48.367 142.868C47.8151 143.47 48.2667 144.423 48.8437 143.871C50.6248 142.165 52.2304 140.008 53.7105 137.775C54.162 137.073 53.5349 136.37 53.0582 137.048Z" fill="black"/>
<path d="M44.9296 136.822C42.421 138.829 39.9123 140.66 37.3786 142.516C36.626 143.068 36.6009 144.097 37.3786 143.545C40.0127 141.764 42.6467 139.707 45.2307 137.599C45.9832 136.997 45.6822 136.22 44.9296 136.822Z" fill="black"/>
<path d="M44.9299 136.972C43.2992 138.929 41.794 141.061 40.5899 143.419C40.2638 144.047 40.9913 144.548 41.3425 143.946C42.6219 141.764 43.9515 139.656 45.5069 137.75C45.9333 137.248 45.3563 136.47 44.9299 136.972Z" fill="black"/>
<path d="M49.0696 137.399C46.4606 139.104 43.8516 140.861 41.3178 142.767C40.5652 143.344 40.8412 144.047 41.6189 143.52C44.2028 141.739 46.7867 139.907 49.3706 138.151C50.1232 137.624 49.8222 136.897 49.0696 137.399Z" fill="black"/>
<path d="M49.3704 137.198C47.8903 138.979 46.3851 140.81 45.0053 142.717C44.5287 143.394 45.1809 144.323 45.7078 143.695C47.2129 141.939 48.6429 140.033 50.0477 138.126C50.5244 137.499 49.8721 136.596 49.3704 137.198Z" fill="black"/>
<path d="M52.6562 137.499C50.273 139.13 47.8898 140.835 45.5317 142.591C44.6787 143.219 44.9045 144.021 45.7324 143.444C48.1156 141.789 50.4988 140.083 52.8569 138.327C53.7099 137.7 53.459 136.947 52.6562 137.499Z" fill="black"/>
<path d="M131.604 136.571C129.948 138.302 128.217 140.384 126.988 142.742C126.562 143.545 127.189 144.247 127.691 143.52C129.12 141.438 130.475 139.381 132.081 137.549C132.582 136.972 132.156 136.019 131.604 136.571Z" fill="black"/>
<path d="M135.066 137.323C132.758 139.054 130.45 140.735 128.192 142.592C127.465 143.194 127.565 144.222 128.318 143.67C130.626 141.989 132.909 140.158 135.191 138.352C135.894 137.8 135.768 136.797 135.066 137.323Z" fill="black"/>
<path d="M135.417 137.399C133.962 139.104 132.457 140.886 131.127 142.767C130.701 143.369 131.228 144.172 131.704 143.645C133.184 141.989 134.614 140.083 135.969 138.226C136.37 137.674 135.843 136.872 135.417 137.399Z" fill="black"/>
<path d="M138.829 137.524C136.646 139.481 134.439 141.112 132.181 142.717C131.428 143.244 131.554 144.222 132.281 143.771C134.639 142.291 136.972 140.359 139.205 138.327C139.908 137.675 139.531 136.922 138.829 137.524Z" fill="black"/>
<path d="M140.133 136.094C138.578 138.377 136.947 140.509 135.317 142.642C134.815 143.269 135.241 144.272 135.793 143.645C137.574 141.563 139.205 139.205 140.811 136.822C141.237 136.119 140.61 135.417 140.133 136.094Z" fill="black"/>
<path d="M143.57 137.198C140.936 138.803 138.352 140.559 135.894 142.617C135.242 143.168 135.668 143.77 136.32 143.244C138.754 141.362 141.162 139.581 143.696 138.026C144.373 137.624 144.248 136.796 143.57 137.198Z" fill="black"/>
<path d="M143.67 136.947C141.814 138.929 139.932 140.936 138.201 143.118C137.675 143.771 138.252 144.423 138.778 143.821C140.61 141.789 142.391 139.681 144.247 137.649C144.774 137.047 144.197 136.37 143.67 136.947Z" fill="black"/>
<path d="M146.681 137.198C144.072 138.904 141.438 140.61 138.854 142.466C137.951 143.118 138.026 144.222 138.954 143.645C141.563 141.99 144.197 140.158 146.781 138.327C147.659 137.7 147.584 136.621 146.681 137.198Z" fill="black"/>
<path d="M146.53 137.298C145.05 139.23 143.595 141.237 142.165 143.269C141.639 144.021 142.266 144.749 142.793 144.072C144.273 142.115 145.728 140.133 147.133 138.076C147.634 137.348 147.032 136.646 146.53 137.298Z" fill="black"/>
<path d="M151.146 137.323C148.562 138.778 145.677 140.56 142.893 142.667C141.939 143.394 141.839 144.172 142.792 143.52C145.477 141.714 148.086 139.907 150.695 138.327C151.547 137.825 151.999 136.847 151.146 137.323Z" fill="black"/>
<path d="M151.121 136.947C149.44 138.879 147.709 140.76 146.079 142.817C145.552 143.469 146.004 144.498 146.555 143.871C148.261 141.989 149.917 139.957 151.573 137.95C152.1 137.323 151.648 136.345 151.121 136.947Z" fill="black"/>
<path d="M154.734 137.273C152.1 138.879 149.39 140.585 146.731 142.416C145.878 143.018 145.803 143.972 146.631 143.47C149.24 141.914 151.999 140.083 154.658 138.277C155.436 137.725 155.511 136.772 154.734 137.273Z" fill="black"/>
<path d="M154.734 137.022C153.278 139.18 151.698 141.011 150.042 142.842C149.49 143.445 149.942 144.398 150.519 143.846C152.3 142.14 153.906 139.983 155.386 137.75C155.837 137.047 155.185 136.345 154.734 137.022Z" fill="black"/>
<path d="M166.449 136.947C164.994 139.105 163.414 140.936 161.758 142.767C161.206 143.369 161.658 144.323 162.235 143.771C164.016 142.065 165.621 139.907 167.102 137.675C167.553 136.997 166.901 136.27 166.449 136.947Z" fill="black"/>
<path d="M158.321 136.721C155.812 138.728 153.303 140.56 150.77 142.416C150.017 142.968 149.992 143.997 150.77 143.445C153.404 141.663 156.038 139.606 158.622 137.499C159.374 136.922 159.073 136.119 158.321 136.721Z" fill="black"/>
<path d="M158.321 136.872C156.69 138.829 155.185 140.961 153.981 143.319C153.655 143.946 154.382 144.448 154.734 143.846C156.013 141.663 157.343 139.556 158.898 137.649C159.299 137.148 158.747 136.37 158.321 136.872Z" fill="black"/>
<path d="M162.46 137.298C159.851 139.004 157.242 140.76 154.708 142.667C153.956 143.244 154.232 143.946 155.009 143.419C157.593 141.638 160.177 139.807 162.761 138.051C163.514 137.524 163.213 136.797 162.46 137.298Z" fill="black"/>
<path d="M162.761 137.098C161.281 138.879 159.776 140.71 158.396 142.617C157.919 143.294 158.572 144.222 159.098 143.595C160.604 141.839 162.033 139.932 163.438 138.026C163.915 137.424 163.263 136.495 162.761 137.098Z" fill="black"/>
<path d="M166.047 137.399C163.664 139.029 161.281 140.735 158.923 142.491C158.07 143.118 158.296 143.921 159.123 143.344C161.507 141.689 163.89 139.983 166.248 138.227C167.076 137.599 166.85 136.847 166.047 137.399Z" fill="black"/>
<path d="M177.788 137.048C176.333 139.205 174.753 141.036 173.097 142.868C172.545 143.47 172.997 144.423 173.574 143.871C175.355 142.165 176.96 140.008 178.44 137.775C178.892 137.073 178.24 136.37 177.788 137.048Z" fill="black"/>
<path d="M169.66 136.822C167.151 138.829 164.643 140.66 162.109 142.516C161.356 143.068 161.331 144.097 162.109 143.545C164.743 141.764 167.377 139.707 169.961 137.599C170.714 136.997 170.388 136.22 169.66 136.822Z" fill="black"/>
<path d="M169.66 136.972C168.029 138.929 166.524 141.061 165.32 143.419C164.994 144.047 165.721 144.548 166.072 143.946C167.352 141.764 168.681 139.656 170.237 137.75C170.638 137.248 170.086 136.47 169.66 136.972Z" fill="black"/>
<path d="M173.8 137.399C171.191 139.104 168.582 140.861 166.048 142.767C165.295 143.344 165.571 144.047 166.349 143.52C168.933 141.739 171.517 139.907 174.101 138.151C174.853 137.624 174.552 136.897 173.8 137.399Z" fill="black"/>
<path d="M174.075 137.198C172.595 138.979 171.09 140.81 169.71 142.717C169.233 143.394 169.886 144.323 170.412 143.695C171.918 141.939 173.347 140.033 174.752 138.126C175.229 137.499 174.602 136.596 174.075 137.198Z" fill="black"/>
<path d="M177.387 137.499C175.004 139.13 172.62 140.835 170.262 142.591C169.409 143.219 169.635 144.021 170.463 143.444C172.846 141.789 175.229 140.083 177.587 138.327C178.415 137.7 178.19 136.947 177.387 137.499Z" fill="black"/>
<path d="M99.7189 137.298C98.2388 139.23 96.7838 141.237 95.3538 143.269C94.827 144.021 95.4542 144.749 95.981 144.072C97.4611 142.115 98.9161 140.133 100.321 138.076C100.823 137.348 100.221 136.646 99.7189 137.298Z" fill="black"/>
<path d="M104.335 137.323C101.751 138.778 98.8662 140.56 96.0816 142.667C95.1283 143.394 95.0279 144.172 95.9812 143.52C98.6655 141.714 101.274 139.907 103.883 138.327C104.736 137.825 105.188 136.847 104.335 137.323Z" fill="black"/>
<path d="M104.31 136.947C102.629 138.879 100.898 140.76 99.2673 142.817C98.7404 143.469 99.192 144.498 99.7439 143.871C101.45 141.989 103.105 139.957 104.761 137.95C105.288 137.323 104.836 136.345 104.31 136.947Z" fill="black"/>
<path d="M107.922 137.273C105.288 138.879 102.579 140.585 99.9195 142.416C99.0666 143.018 98.9913 143.972 99.8191 143.47C102.428 141.914 105.188 140.083 107.847 138.277C108.625 137.725 108.7 136.772 107.922 137.273Z" fill="black"/>
<path d="M107.922 137.022C106.467 139.18 104.887 141.011 103.231 142.842C102.679 143.445 103.13 144.398 103.707 143.846C105.489 142.14 107.094 139.983 108.574 137.75C109.026 137.047 108.374 136.345 107.922 137.022Z" fill="black"/>
<path d="M119.637 136.947C118.182 139.105 116.602 140.936 114.946 142.767C114.394 143.369 114.846 144.323 115.423 143.771C117.204 142.065 118.809 139.907 120.29 137.675C120.741 136.997 120.089 136.27 119.637 136.947Z" fill="black"/>
<path d="M111.51 136.721C109.001 138.728 106.492 140.56 103.959 142.416C103.206 142.968 103.181 143.997 103.959 143.445C106.593 141.663 109.227 139.606 111.811 137.499C112.563 136.922 112.262 136.119 111.51 136.721Z" fill="black"/>
<path d="M111.51 136.872C109.879 138.829 108.374 140.961 107.17 143.319C106.844 143.946 107.571 144.448 107.923 143.846C109.202 141.663 110.532 139.556 112.087 137.649C112.488 137.148 111.936 136.37 111.51 136.872Z" fill="black"/>
<path d="M115.649 137.298C113.04 139.004 110.431 140.76 107.897 142.667C107.144 143.244 107.42 143.946 108.198 143.419C110.782 141.638 113.366 139.807 115.95 138.051C116.702 137.524 116.401 136.797 115.649 137.298Z" fill="black"/>
<path d="M115.95 137.098C114.47 138.879 112.965 140.71 111.585 142.617C111.108 143.294 111.761 144.222 112.287 143.595C113.793 141.839 115.222 139.932 116.627 138.026C117.104 137.424 116.452 136.495 115.95 137.098Z" fill="black"/>
<path d="M119.236 137.399C116.853 139.029 114.47 140.735 112.112 142.491C111.259 143.118 111.485 143.921 112.312 143.344C114.696 141.689 117.079 139.983 119.437 138.227C120.29 137.599 120.039 136.847 119.236 137.399Z" fill="black"/>
<path d="M130.977 137.048C129.522 139.205 127.941 141.036 126.285 142.868C125.734 143.47 126.185 144.423 126.762 143.871C128.543 142.165 130.149 140.008 131.629 137.775C132.08 137.073 131.428 136.37 130.977 137.048Z" fill="black"/>
<path d="M122.849 136.822C120.34 138.829 117.832 140.66 115.298 142.516C114.545 143.068 114.52 144.097 115.298 143.545C117.932 141.764 120.566 139.707 123.15 137.599C123.903 136.997 123.577 136.22 122.849 136.822Z" fill="black"/>
<path d="M122.849 136.972C121.218 138.929 119.713 141.061 118.509 143.419C118.183 144.047 118.91 144.548 119.261 143.946C120.541 141.764 121.87 139.656 123.426 137.75C123.827 137.248 123.275 136.47 122.849 136.972Z" fill="black"/>
<path d="M126.988 137.399C124.379 139.104 121.77 140.861 119.236 142.767C118.484 143.344 118.76 144.047 119.537 143.52C122.121 141.739 124.705 139.907 127.289 138.151C128.042 137.624 127.741 136.897 126.988 137.399Z" fill="black"/>
<path d="M127.264 137.198C125.784 138.979 124.279 140.81 122.899 142.717C122.422 143.394 123.075 144.323 123.601 143.695C125.107 141.939 126.536 140.033 127.941 138.126C128.418 137.499 127.791 136.596 127.264 137.198Z" fill="black"/>
<path d="M130.575 137.499C128.192 139.13 125.809 140.835 123.451 142.591C122.598 143.219 122.823 144.021 123.651 143.444C126.035 141.789 128.418 140.083 130.776 138.327C131.604 137.7 131.378 136.947 130.575 137.499Z" fill="black"/>
<path d="M181.601 137.273C181.375 139.105 180.874 140.886 180.171 142.592C179.87 143.319 181.049 143.645 181.375 142.918C182.128 141.086 182.605 139.23 182.856 137.273C182.931 136.496 181.676 136.496 181.601 137.273Z" fill="black"/>
<path d="M158.722 10.2854C156.816 14.2741 154.734 18.1374 152.476 21.9255C152.074 22.6028 153.128 23.23 153.554 22.5527C155.837 18.7646 157.92 14.9013 159.801 10.9125C160.127 10.185 159.048 9.55786 158.722 10.2854Z" fill="black"/>
<path d="M164.041 10.3105C161.959 14.1989 159.876 18.0873 157.794 21.9506C157.418 22.653 158.497 23.2802 158.873 22.5778C160.955 18.6894 163.037 14.801 165.12 10.9376C165.471 10.2352 164.417 9.60805 164.041 10.3105Z" fill="black"/>
<path d="M171.567 10.5613C169.108 14.5501 166.625 18.5137 164.166 22.5025C163.74 23.1798 164.819 23.807 165.245 23.1297C167.703 19.1409 170.187 15.1772 172.646 11.1885C173.047 10.5111 171.993 9.88398 171.567 10.5613Z" fill="black"/>
<path d="M176.333 13.2455C174.226 17.2092 171.843 20.9722 169.183 24.5846C168.707 25.2369 169.785 25.839 170.262 25.2118C172.921 21.5993 175.304 17.8364 177.412 13.8727C177.763 13.1703 176.709 12.5431 176.333 13.2455Z" fill="black"/>
<path d="M177.613 21.9255C175.079 25.6383 172.545 29.3511 170.036 33.0639C169.585 33.7161 170.664 34.3433 171.115 33.6911C173.649 29.9782 176.183 26.2654 178.691 22.5526C179.143 21.8753 178.064 21.2732 177.613 21.9255Z" fill="black"/>
<path d="M176.057 35.6227C173.824 38.0561 171.592 40.5146 169.334 42.948C168.807 43.525 169.66 44.403 170.212 43.826C172.444 41.3926 174.677 38.9341 176.935 36.5007C177.462 35.8987 176.584 35.0206 176.057 35.6227Z" fill="black"/>
<path d="M173.724 45.557C171.692 47.6391 169.735 49.7715 167.854 51.9791C167.327 52.5812 168.205 53.4592 168.732 52.8572C170.613 50.6495 172.57 48.5172 174.602 46.435C175.154 45.8831 174.276 45.0051 173.724 45.557Z" fill="black"/>
<path d="M173.122 52.556C171.567 54.1114 170.011 55.6667 168.431 57.2472C167.879 57.7991 168.732 58.6771 169.309 58.1252C170.864 56.5698 172.42 55.0145 174 53.434C174.552 52.8821 173.674 52.0041 173.122 52.556Z" fill="black"/>
<path d="M46.4855 72.7758C44.4786 75.0837 42.3462 77.2412 40.0634 79.2481C39.4613 79.7749 40.3393 80.6529 40.9414 80.1261C43.2243 78.1192 45.3566 75.9618 47.3635 73.6538C47.8653 73.0517 47.0123 72.1737 46.4855 72.7758Z" fill="black"/>
<path d="M46.8117 78.9723C44.9051 81.0545 42.8982 83.0614 40.7909 84.9429C40.1888 85.4697 41.0669 86.3477 41.6689 85.8209C43.7762 83.9144 45.7831 81.9325 47.6897 79.8503C48.2416 79.2483 47.3636 78.3702 46.8117 78.9723Z" fill="black"/>
<path d="M47.0375 84.4663C45.4571 85.9213 43.977 87.4516 42.5721 89.0822C42.0453 89.6843 42.9233 90.5623 43.4501 89.9602C44.855 88.3296 46.3351 86.7993 47.9155 85.3443C48.4925 84.7924 47.6396 83.9395 47.0375 84.4663Z" fill="black"/>
<path d="M50.5494 86.8241C49.0191 88.0283 47.6645 89.383 46.4603 90.9132C45.9837 91.5404 46.8366 92.4184 47.3383 91.7913C48.5425 90.261 49.8972 88.9063 51.4274 87.7022C52.0546 87.2004 51.1766 86.3224 50.5494 86.8241Z" fill="black"/>
<path d="M54.1869 87.2006C53.5346 88.0285 52.8824 88.8563 52.2552 89.6842C51.7786 90.3113 52.6315 91.1894 53.1333 90.5622C53.7855 89.7344 54.4378 88.9065 55.0649 88.0786C55.5667 87.4515 54.6886 86.5735 54.1869 87.2006Z" fill="black"/>
<path d="M44.6789 11.3139C41.8191 14.9013 38.9843 18.4886 36.1244 22.1011C35.6227 22.7283 36.5007 23.6063 37.0024 22.9791C39.8623 19.3918 42.6971 15.8044 45.557 12.1919C46.0336 11.5648 45.1807 10.6867 44.6789 11.3139Z" fill="black"/>
<path d="M51.5531 11.4394C50.0229 13.346 48.4926 15.2275 46.9623 17.134C46.4606 17.7361 47.3386 18.6392 47.8403 18.0121C49.3706 16.1055 50.9009 14.224 52.4312 12.3174C52.9329 11.6903 52.0549 10.8122 51.5531 11.4394Z" fill="black"/>
<path d="M51.7284 81.5561C50.6747 82.6097 49.8469 83.8139 49.2448 85.1435C48.9187 85.871 49.9974 86.4981 50.3235 85.7706C50.8754 84.5163 51.628 83.3874 52.6064 82.409C53.1834 81.8571 52.3054 80.9791 51.7284 81.5561Z" fill="black"/>
<path d="M53.4592 82.0077C52.7819 83.1366 52.1297 84.2655 51.4523 85.3693C51.0509 86.0467 52.1046 86.6738 52.531 85.9965C53.2084 84.8676 53.8606 83.7387 54.5379 82.6349C54.9393 81.9325 53.8606 81.3053 53.4592 82.0077Z" fill="black"/>
<path d="M56.5954 81.6565C55.8929 82.8105 55.1905 83.9645 54.4881 85.1185C54.0616 85.7958 55.1403 86.423 55.5668 85.7456C56.2692 84.5916 56.9717 83.4377 57.6741 82.2837C58.0755 81.6064 57.0218 80.9792 56.5954 81.6565Z" fill="black"/>
<path d="M59.2294 81.6564C58.7277 82.6097 58.2008 83.5881 57.6991 84.5414C57.3228 85.2438 58.4015 85.871 58.7778 85.1685C59.2796 84.2153 59.8064 83.2369 60.3081 82.2836C60.6593 81.5812 59.6057 80.954 59.2294 81.6564Z" fill="black"/>
<path d="M62.8168 81.531C61.9137 82.5595 61.2614 83.7135 60.835 84.9929C60.5841 85.7455 61.7882 86.0717 62.0391 85.3191C62.3903 84.2403 62.9422 83.262 63.6948 82.3839C64.2216 81.8069 63.3436 80.9289 62.8168 81.531Z" fill="black"/>
<path d="M66.3538 80.954C65.5009 81.9575 64.9239 83.1366 64.7232 84.4411C64.5978 85.2187 65.7768 85.5449 65.9273 84.7672C66.1029 83.6634 66.5294 82.685 67.2569 81.8321C67.7336 81.2049 66.8555 80.3269 66.3538 80.954Z" fill="black"/>
<path d="M69.1888 81.0794C68.4613 82.108 67.9344 83.2118 67.5832 84.4159C67.3575 85.1936 68.5616 85.5197 68.7874 84.742C69.1135 83.6382 69.5902 82.6348 70.2675 81.7066C70.719 81.0543 69.6403 80.4272 69.1888 81.0794Z" fill="black"/>
<path d="M71.5467 81.0796C71.0199 82.2335 70.468 83.3875 69.9412 84.5164C69.6151 85.2439 70.6687 85.8711 71.0199 85.1435C71.5467 83.9896 72.0986 82.8356 72.6255 81.7067C72.9516 80.9792 71.8729 80.352 71.5467 81.0796Z" fill="black"/>
<path d="M75.4351 80.9792C74.5069 82.083 73.8295 83.3373 73.4031 84.7171C73.1773 85.4697 74.3564 85.7958 74.6072 85.0432C74.9584 83.8641 75.5354 82.8105 76.3131 81.8572C76.8149 81.2301 75.9368 80.352 75.4351 80.9792Z" fill="black"/>
<path d="M79.0976 81.0544C78.5207 82.1331 77.9186 83.2118 77.3416 84.2654C76.9653 84.9679 78.0189 85.595 78.4203 84.8926C78.9973 83.8139 79.5994 82.7352 80.1764 81.6815C80.5527 80.9791 79.4739 80.352 79.0976 81.0544Z" fill="black"/>
<path d="M81.5061 80.8036C80.7786 82.2336 80.0511 83.6886 79.3235 85.1185C78.9723 85.8209 80.026 86.4481 80.4023 85.7457C81.1298 84.3157 81.8573 82.8607 82.5848 81.4308C82.936 80.7284 81.8573 80.1012 81.5061 80.8036Z" fill="black"/>
<path d="M84.4163 81.6817C83.7891 83.0363 83.187 84.391 82.5599 85.7206C82.2337 86.4481 83.2874 87.0753 83.6386 86.3477C84.2657 84.9931 84.8678 83.6384 85.495 82.2837C85.8211 81.5813 84.7424 80.9541 84.4163 81.6817Z" fill="black"/>
<path d="M87.1005 82.1582C86.649 83.3121 86.1723 84.441 85.7208 85.595C85.4197 86.3225 86.6239 86.6486 86.9249 85.9211C87.3765 84.7671 87.8531 83.6383 88.3047 82.4843C88.6057 81.7568 87.4016 81.4306 87.1005 82.1582Z" fill="black"/>
<path d="M90.3617 82.0078C89.6843 83.3373 89.0823 84.7171 88.5554 86.1219C88.2795 86.8745 89.4836 87.2007 89.7596 86.4481C90.2362 85.1436 90.7881 83.8642 91.4404 82.6098C91.7916 81.9325 90.738 81.3053 90.3617 82.0078Z" fill="black"/>
<path d="M93.0961 84.3408C93.8989 84.3408 93.8989 83.1116 93.0961 83.1116C92.3184 83.1116 92.2934 84.3408 93.0961 84.3408Z" fill="black"/>
<path d="M96.7586 81.4055C96.1063 82.7351 95.4541 84.0646 94.8018 85.3942C94.4506 86.0967 95.5293 86.7238 95.8805 86.0214C96.5328 84.6918 97.185 83.3622 97.8373 82.0326C98.1634 81.3051 97.1098 80.678 96.7586 81.4055Z" fill="black"/>
<path d="M100.547 81.1044C99.7941 82.6347 99.0666 84.165 98.314 85.6953C97.9628 86.3977 99.0415 87.0249 99.3927 86.3224C100.145 84.7922 100.873 83.2619 101.625 81.7316C101.977 81.0292 100.898 80.402 100.547 81.1044Z" fill="black"/>
<path d="M93.2466 81.6814C92.6446 83.036 92.0425 84.3907 91.4655 85.7705C91.1394 86.498 92.2181 87.1251 92.5442 86.3976C93.1463 85.043 93.7484 83.6883 94.3253 82.3085C94.6264 81.581 93.5477 80.9539 93.2466 81.6814Z" fill="black"/>
<path d="M105.213 81.8572C104.61 83.3122 103.983 84.7672 103.381 86.2222C103.08 86.9497 104.259 87.2758 104.585 86.5483C105.187 85.0933 105.815 83.6383 106.417 82.1833C106.693 81.4307 105.514 81.1297 105.213 81.8572Z" fill="black"/>
<path d="M109.503 81.6315C108.675 82.8357 108.073 84.1904 107.772 85.6203C107.596 86.398 108.8 86.7241 108.976 85.9464C109.277 84.5917 109.804 83.3876 110.582 82.2587C111.008 81.5814 109.929 80.9793 109.503 81.6315Z" fill="black"/>
<path d="M113.918 80.7785C113.115 82.1332 112.413 83.5631 111.786 85.0181C111.485 85.7456 112.664 86.0718 112.99 85.3443C113.567 83.9896 114.244 82.66 114.997 81.4057C115.398 80.7032 114.319 80.0761 113.918 80.7785Z" fill="black"/>
<path d="M118.132 82.4089C118.057 82.4089 117.957 82.4089 117.881 82.4089C117.881 82.1078 117.881 81.8319 117.881 81.5308C116.878 82.7601 116.1 84.0897 115.498 85.5698C115.197 86.2973 116.401 86.6234 116.702 85.8959C117.204 84.6416 117.906 83.4625 118.759 82.4089C118.985 82.1329 118.985 81.8068 118.759 81.5308C118.383 81.0542 117.656 81.0542 117.254 81.5308C116.752 82.1329 117.63 83.0109 118.132 82.4089Z" fill="black"/>
<path d="M121.895 81.1044C121.093 82.5594 120.29 84.0145 119.487 85.4444C119.111 86.1468 120.164 86.774 120.566 86.0716C121.369 84.6165 122.171 83.1615 122.974 81.7316C123.35 81.0292 122.297 80.402 121.895 81.1044Z" fill="black"/>
<path d="M125.106 81.1045C124.354 82.6347 123.626 84.165 122.874 85.6953C122.522 86.3977 123.601 87.0249 123.952 86.3225C124.705 84.7922 125.432 83.2619 126.185 81.7316C126.511 81.0041 125.458 80.3769 125.106 81.1045Z" fill="black"/>
<path d="M127.841 81.7817C126.938 83.011 126.286 84.3657 125.884 85.8207C125.684 86.5984 126.863 86.9245 127.088 86.1468C127.465 84.767 128.067 83.5378 128.92 82.3838C129.371 81.7567 128.318 81.1295 127.841 81.7817Z" fill="black"/>
<path d="M131.93 81.857C131.528 83.1866 130.876 84.4409 130.023 85.5448C129.547 86.1719 130.4 87.0499 130.901 86.4228C131.905 85.1434 132.632 83.7385 133.134 82.1832C133.36 81.4306 132.156 81.1044 131.93 81.857Z" fill="black"/>
<path d="M135.869 81.6565C135.141 83.2871 134.439 84.9428 133.711 86.5734C133.385 87.3009 134.464 87.9281 134.79 87.2006C135.517 85.5699 136.22 83.9142 136.947 82.2836C137.248 81.5561 136.195 80.929 135.869 81.6565Z" fill="black"/>
<path d="M139.105 82.1332C138.628 83.4878 138.126 84.8676 137.65 86.2223C137.374 86.9749 138.578 87.301 138.854 86.5484C139.33 85.1937 139.832 83.814 140.309 82.4593C140.56 81.7067 139.381 81.3806 139.105 82.1332Z" fill="black"/>
<path d="M143.545 81.8321C143.068 83.2621 142.617 84.7171 142.14 86.147C141.889 86.8996 143.093 87.2257 143.344 86.4731C143.821 85.0432 144.272 83.5882 144.749 82.1583C144.975 81.4057 143.796 81.0795 143.545 81.8321Z" fill="black"/>
<path d="M148.086 82.8859C148.136 82.9109 148.186 82.936 148.236 82.9611C148.211 82.7103 148.161 82.4594 148.136 82.2085C147.333 83.3374 146.756 84.5917 146.405 85.9213C146.204 86.699 147.408 87.0251 147.609 86.2475C147.935 84.9931 148.462 83.8642 149.214 82.8106C149.39 82.5597 149.29 82.2587 149.114 82.058C148.863 81.7319 148.487 81.5814 148.086 81.6315C147.308 81.7319 147.308 82.9611 148.086 82.8859Z" fill="black"/>
<path d="M151.397 81.531C151.021 83.0863 150.544 84.5915 149.892 86.0465C149.566 86.774 150.644 87.4012 150.97 86.6737C151.648 85.1183 152.2 83.5379 152.601 81.8822C152.777 81.0794 151.573 80.7533 151.397 81.531Z" fill="black"/>
<path d="M155.11 84.3408C155.913 84.3408 155.913 83.1116 155.11 83.1116C154.332 83.1116 154.332 84.3408 155.11 84.3408Z" fill="black"/>
<path d="M158.497 81.857C157.945 83.3873 157.343 84.8674 156.665 86.3475C156.339 87.075 157.393 87.7022 157.744 86.9747C158.472 85.4193 159.124 83.8138 159.701 82.1832C159.952 81.4306 158.773 81.1044 158.497 81.857Z" fill="black"/>
<path d="M161.306 81.8068C160.704 83.2618 160.127 84.7169 159.525 86.197C159.224 86.9245 160.428 87.2506 160.729 86.5231C161.331 85.0681 161.908 83.6131 162.51 82.133C162.786 81.4054 161.607 81.0793 161.306 81.8068Z" fill="black"/>
<path d="M156.139 82.3589C156.114 82.3339 156.088 82.3339 156.063 82.3088C156.164 82.5346 156.264 82.7854 156.339 83.0112C156.339 83.0363 156.314 83.0614 156.314 83.0865C156.114 83.1366 155.913 83.1868 155.712 83.237C155.511 82.7854 155.336 82.7603 155.21 83.2119C155.085 83.4377 154.96 83.6635 154.834 83.8892C154.633 84.2154 154.458 84.5666 154.257 84.8927C153.806 85.6704 153.354 86.4481 152.902 87.2258C152.501 87.9282 153.58 88.5303 153.981 87.8529C154.483 86.9498 155.01 86.0718 155.511 85.1687C155.863 84.5415 156.59 83.7136 156.64 82.961C156.716 81.9325 155.436 81.6314 155.135 82.6349C155.06 82.8858 155.185 83.1868 155.411 83.3373C155.436 83.3624 155.461 83.3624 155.486 83.3875C156.214 83.8391 156.816 82.7603 156.139 82.3589Z" fill="black"/>
<path d="M112.237 37.9307C110.356 39.6617 108.474 41.3676 106.593 43.0986C106.016 43.6254 106.869 44.5034 107.471 43.9766C109.352 42.2456 111.234 40.5397 113.115 38.8088C113.717 38.2569 112.839 37.3788 112.237 37.9307Z" fill="black"/>
<path d="M114.545 39.737C111.911 41.6184 109.503 43.7508 107.295 46.1089C106.743 46.6859 107.621 47.5639 108.173 46.987C110.305 44.7041 112.638 42.6219 115.172 40.7906C115.799 40.339 115.197 39.2603 114.545 39.737Z" fill="black"/>
<path d="M116.126 41.819C113.241 44.1771 110.481 46.6858 107.872 49.3449C107.32 49.9219 108.198 50.7999 108.75 50.223C111.359 47.5638 114.119 45.0551 117.004 42.697C117.606 42.1702 116.728 41.3172 116.126 41.819Z" fill="black"/>
<path d="M116.753 44.7794C113.968 47.3633 111.184 49.9221 108.399 52.506C107.822 53.0579 108.7 53.9109 109.277 53.3841C112.062 50.8002 114.846 48.2413 117.631 45.6574C118.233 45.1306 117.355 44.2526 116.753 44.7794Z" fill="black"/>
<path d="M118.634 47.2127C115.825 49.6461 112.99 52.1046 110.18 54.538C109.578 55.0648 110.456 55.9428 111.058 55.416C113.868 52.9826 116.703 50.5242 119.512 48.0908C120.114 47.5639 119.236 46.6859 118.634 47.2127Z" fill="black"/>
<path d="M118.258 51.0258C115.975 52.6815 113.768 54.4626 111.685 56.3692C111.108 56.896 111.961 57.7741 112.563 57.2472C114.57 55.4159 116.678 53.685 118.885 52.0794C119.512 51.6279 118.885 50.5491 118.258 51.0258Z" fill="black"/>
<path d="M96.4329 46.5855C95.5799 47.89 94.6266 49.0941 93.5479 50.223C92.996 50.8 93.8741 51.6781 94.426 51.1011C95.5799 49.8969 96.6085 48.6175 97.5116 47.2127C97.9381 46.5353 96.8593 45.9082 96.4329 46.5855Z" fill="black"/>
<path d="M96.8589 51.1765C95.8554 52.4308 94.852 53.66 93.8485 54.9143C93.3468 55.5415 94.2248 56.4195 94.7266 55.7924C95.73 54.538 96.7335 53.3088 97.7369 52.0545C98.2136 51.4273 97.3606 50.5493 96.8589 51.1765Z" fill="black"/>
<path d="M97.9377 54.3121C96.6583 55.4661 95.5294 56.7706 94.5761 58.2256C94.1497 58.9029 95.2033 59.505 95.6549 58.8528C96.5329 57.4981 97.6116 56.2689 98.8158 55.1901C99.3928 54.6633 98.5147 53.7853 97.9377 54.3121Z" fill="black"/>
<path d="M99.5182 56.4444C98.3642 58.0249 97.2102 59.6053 96.0813 61.1858C95.6047 61.838 96.6834 62.4401 97.16 61.8129C98.314 60.2325 99.468 58.652 100.597 57.0716C101.048 56.4193 99.9697 55.7922 99.5182 56.4444Z" fill="black"/>
<path d="M101.5 58.4764C100.095 59.9565 98.9161 61.6373 98.013 63.4686C97.6618 64.171 98.7154 64.7982 99.0917 64.0958C99.9697 62.3648 101.048 60.7844 102.378 59.3544C102.93 58.7775 102.052 57.8994 101.5 58.4764Z" fill="black"/>
<path d="M103.582 61.1607C102.177 62.4903 100.923 63.9453 99.7688 65.5007C99.2922 66.1529 100.371 66.755 100.848 66.1278C101.926 64.6477 103.13 63.2931 104.46 62.0387C105.037 61.4868 104.159 60.6088 103.582 61.1607Z" fill="black"/>
<path d="M111.46 57.0216C108.575 60.0821 105.79 63.2681 103.156 66.5795C102.654 67.2067 103.532 68.0847 104.034 67.4576C106.668 64.1712 109.453 60.9853 112.338 57.8996C112.89 57.3226 112.012 56.4446 111.46 57.0216Z" fill="black"/>
<path d="M121.268 53.9609C116.1 58.8277 110.933 63.7196 105.765 68.5863C105.188 69.1382 106.066 70.0163 106.643 69.4644C111.811 64.5976 116.978 59.7057 122.146 54.8389C122.723 54.287 121.87 53.4341 121.268 53.9609Z" fill="black"/>
<path d="M123.551 56.2437C118.183 61.6122 112.839 66.9807 107.471 72.3493C106.919 72.9012 107.772 73.7792 108.349 73.2273C113.717 67.8588 119.061 62.4903 124.429 57.1218C125.006 56.5699 124.128 55.6918 123.551 56.2437Z" fill="black"/>
<path d="M127.314 57.6485C122.547 62.44 117.605 67.056 112.488 71.4712C111.886 71.998 112.764 72.876 113.366 72.3492C118.483 67.934 123.425 63.3181 128.192 58.5265C128.744 57.9746 127.866 57.0966 127.314 57.6485Z" fill="black"/>
<path d="M127.214 63.4186C124.58 66.3286 121.72 69.0631 118.684 71.5717C118.082 72.0734 118.96 72.9515 119.562 72.4497C122.598 69.9411 125.433 67.2317 128.092 64.2966C128.619 63.6945 127.741 62.8165 127.214 63.4186Z" fill="black"/>
<path d="M38.4327 10.6115C34.0676 10.9627 35.0209 15.5285 35.1965 18.8901C35.6481 27.1937 36.1749 35.5224 36.7017 43.8261C37.2034 51.929 37.7303 60.057 38.2571 68.16C38.7086 75.4351 37.7804 84.6669 40.5901 91.4653C41.142 92.7949 43.3496 92.2179 42.7726 90.8633C40.4647 85.2439 41.142 77.5674 40.7657 71.4965C40.3393 64.7984 39.9128 58.1003 39.4863 51.4273C39.11 45.3814 38.7086 39.3607 38.3323 33.3148C38.1316 30.3546 37.956 27.3944 37.7553 24.4342C37.5547 21.7499 35.7735 13.4714 38.7588 11.8408C39.3107 11.5146 39.0849 10.5363 38.4327 10.6115Z" fill="black"/>
<path d="M176.584 12.0162C179.895 13.095 176.458 29.05 176.132 32.0102C175.405 38.6832 174.652 45.3562 173.874 52.0292C173.147 58.3259 172.419 64.6227 171.667 70.9194C171.316 73.8796 170.964 76.8398 170.588 79.8C170.287 82.2585 170.513 90.2109 167.778 91.1391C166.825 91.4652 166.9 93.0457 168.029 92.9955C172.921 92.8199 172.143 85.5448 172.595 82.0327C173.774 72.3995 174.928 62.7662 176.032 53.133C177.136 43.4998 178.214 33.8666 179.218 24.2083C179.594 20.5457 182.63 11.3891 177.06 10.3104C175.931 10.1348 175.505 11.665 176.584 12.0162Z" fill="black"/>
<path d="M41.5935 90.0101C40.4646 90.5119 41.0416 91.992 41.9698 92.3432C42.4715 92.5439 43.0987 92.5439 43.6255 92.594C44.3279 92.6442 45.0805 92.7195 45.6073 92.1676C45.8833 91.8665 45.9585 91.2895 45.6073 91.0136C45.0303 90.5369 44.4533 90.6373 43.7258 90.6373C43.3997 90.6373 43.0987 90.6373 42.7725 90.6122C42.7725 90.6122 42.5217 90.5871 42.4966 90.5871C42.3962 90.537 42.3963 90.562 42.4715 90.6373C42.5719 90.7126 42.5719 90.838 42.5217 90.9634C42.9231 90.3112 42.1956 89.7342 41.5935 90.0101Z" fill="black"/>
<path d="M43.4997 93.0455C63.9703 94.6009 84.9426 93.4469 105.463 93.4469C115.799 93.4469 126.11 93.4469 136.445 93.4469C146.58 93.4469 157.367 94.4504 167.427 93.1459C168.631 92.9954 168.631 91.4149 167.427 91.2644C157.367 89.9599 146.605 90.9634 136.445 90.9634C126.11 90.9634 115.799 90.9634 105.463 90.9634C84.9426 90.9634 63.9703 89.8094 43.4997 91.3647C42.3959 91.44 42.3959 92.9703 43.4997 93.0455Z" fill="black"/>
<path d="M39.9376 87.9031C40.0881 95.1029 50.8502 92.6695 55.1651 93.372C55.7671 93.4723 56.4947 92.8451 56.0431 92.218C54.8389 90.5121 52.2049 91.1142 50.2983 90.8382C46.8614 90.3616 43.249 90.7128 41.0915 87.577C40.7654 87.1003 39.9125 87.2258 39.9376 87.9031Z" fill="black"/>
<path d="M170.839 86.8493C167.904 91.114 162.836 90.1607 158.346 91.3147C157.468 91.5405 157.618 92.9955 158.571 92.9202C162.736 92.6443 172.068 93.8484 172.244 87.2256C172.269 86.4228 171.24 86.2723 170.839 86.8493Z" fill="black"/>
<path d="M41.5684 88.9565C37.0528 91.8665 33.7414 96.6832 30.1791 100.647C25.4628 105.915 20.7466 111.208 16.0052 116.502C11.6151 121.418 6.89883 126.21 2.75956 131.378C0.150561 134.639 -0.70238 137.8 0.652291 141.814C1.17911 143.369 3.63759 142.692 3.11077 141.136C0.852983 134.413 8.57963 128.668 12.6436 124.128C16.3815 119.963 20.0943 115.774 23.8322 111.61C30.1289 104.56 37.1532 97.6866 42.6973 90.0352C43.1488 89.383 42.2206 88.53 41.5684 88.9565Z" fill="black"/>
<path d="M38.9092 84.165C39.1852 87.351 39.6367 90.5872 37.68 93.3969C37.2535 94.0241 38.1315 94.9272 38.7587 94.4756C42.2457 91.967 41.5935 87.6019 40.2388 84.0145C39.988 83.3372 38.834 83.3372 38.9092 84.165Z" fill="black"/>
<path d="M44.905 91.7663C42.7475 91.2896 38.2069 90.4868 38.0814 93.8484C38.0564 94.7014 39.2605 95.0024 39.687 94.2749C40.2138 93.3718 41.1922 93.3467 42.1204 93.2965C43.0737 93.2715 43.9768 93.1711 44.9301 93.0206C45.5321 92.9202 45.507 91.8917 44.905 91.7663Z" fill="black"/>
<path d="M168.581 90.9886C170.814 99.217 174.477 107.169 177.838 114.996C181.526 123.551 188.299 133.134 187.17 142.767C186.995 144.272 189.378 144.272 189.529 142.767C190.507 134.087 185.414 126.26 182.003 118.659C177.838 109.352 174.627 99.4679 169.861 90.4367C169.51 89.7092 168.381 90.2109 168.581 90.9886Z" fill="black"/>
<path d="M170.438 85.9964C168.004 92.9705 172.344 101.199 175.104 107.496C175.455 108.273 176.659 107.721 176.458 106.919C174.728 99.8944 171.642 93.4973 171.692 86.172C171.692 85.4194 170.663 85.3442 170.438 85.9964Z" fill="black"/>
<path d="M167.202 92.2178C167.202 92.1676 167.202 92.1174 167.202 92.0673C167.101 92.268 166.976 92.4436 166.876 92.6443C167.051 92.5188 167.854 92.8951 168.08 92.9704C168.531 93.146 168.958 93.4219 169.334 93.723C170.011 94.3 170.312 95.2282 170.99 95.755C171.416 96.0811 172.269 96.0811 172.37 95.3787C172.645 93.5976 170.714 92.0171 169.234 91.3899C168.331 91.0136 165.22 90.5871 166.073 92.5188C166.299 93.146 167.152 92.7697 167.202 92.2178Z" fill="black"/>
<path d="M164.668 92.8452C166.374 92.7699 168.004 92.6947 169.309 94.0242C170.337 95.0779 170.212 96.5329 171.09 97.5615C171.466 98.013 172.169 97.8123 172.445 97.3858C173.548 95.705 171.717 93.1462 170.387 92.1427C168.732 90.8884 166.123 90.4118 164.317 91.6159C163.84 91.9671 163.99 92.8703 164.668 92.8452Z" fill="black"/>
<path d="M169.158 91.5656C167.377 91.2896 165.421 91.2395 163.74 92.0172C162.987 92.3684 163.439 93.422 164.141 93.4722C165.772 93.5976 167.528 93.1963 169.158 92.9705C169.861 92.8701 169.836 91.691 169.158 91.5656Z" fill="black"/>
<path d="M47.4639 91.8666C44.9552 91.0889 42.6473 90.9133 40.1888 91.9167C38.4077 92.6192 36.0245 93.447 35.5478 95.5041C35.3722 96.2818 36.4258 97.0846 37.0028 96.357C38.0314 95.0526 40.4648 94.0993 41.9699 93.5975C43.8263 92.9704 45.6075 93.4972 47.4639 93.146C48.1412 92.9955 48.0409 92.0422 47.4639 91.8666Z" fill="black"/>
<path d="M2.40845 144.197C17.36 145.828 33.1394 144.498 48.1913 144.498C63.4439 144.498 78.7216 144.498 93.9742 144.498C124.479 144.498 155.035 144.021 185.54 144.573C187.171 144.598 187.196 141.989 185.54 142.014C155.035 142.541 124.479 142.09 93.9742 142.09C79.0979 142.09 64.1965 142.09 49.3202 142.09C41.4932 142.09 33.6913 142.09 25.8643 142.115C18.1126 142.115 10.11 141.563 2.40845 142.391C1.25447 142.516 1.25447 144.072 2.40845 144.197Z" fill="black"/>
<path d="M1.8815 138.226C33.0139 139.155 64.2716 138.427 95.4291 138.427C110.657 138.427 125.859 138.427 141.087 138.427C148.888 138.427 156.665 138.427 164.467 138.427C171.868 138.427 179.67 139.155 186.995 138.076C187.923 137.95 187.923 136.345 186.995 136.194C180.021 135.166 172.62 135.843 165.571 135.843C157.769 135.843 149.992 135.843 142.19 135.843C126.612 135.843 111.008 135.843 95.4291 135.843C64.2716 135.843 33.0389 135.116 1.8815 136.044C0.50174 136.119 0.50174 138.201 1.8815 138.226Z" fill="black"/>
<path d="M37.3036 12.0415C48.8684 11.038 60.6089 11.7906 72.224 11.8408C84.416 11.8659 96.583 11.8157 108.775 11.7906C120.591 11.7404 132.406 11.7154 144.222 11.7154C150.494 11.7154 156.74 11.7404 163.012 11.7906C166.424 11.8157 176.383 10.4861 178.039 14.5501C178.541 15.7543 180.221 15.3027 179.996 13.9982C178.741 6.4221 164.793 8.88058 159.701 8.85549C145.326 8.75515 130.926 8.78024 116.552 8.83041C102.528 8.88058 88.5051 8.93075 74.4567 8.93075C67.4575 8.93075 60.4584 8.90567 53.4593 8.88058C47.8901 8.8555 42.1452 8.45411 36.9774 10.8373C36.4004 11.0882 36.6764 12.1167 37.3036 12.0415Z" fill="black"/>
<path d="M13.2961 122.296C27.0184 123.375 41.0418 122.623 54.8143 122.598C69.0132 122.598 83.2373 122.598 97.4362 122.598C125.383 122.598 153.655 123.827 181.576 122.372C182.781 122.322 182.781 120.566 181.576 120.515C153.655 119.06 125.383 120.29 97.4362 120.29C83.5885 120.29 69.7658 120.29 55.9181 120.29C41.7944 120.29 27.3696 119.512 13.2961 120.591C12.1923 120.691 12.1923 122.196 13.2961 122.296Z" fill="black"/>
<path d="M73.7293 122.021C70.6437 126.436 68.3608 131.579 65.501 136.17C64.8487 137.223 66.5044 138.176 67.1567 137.123C69.9162 132.507 73.1774 127.615 74.8833 122.497C75.1091 121.795 74.1056 121.469 73.7293 122.021Z" fill="black"/>
<path d="M122.297 121.619C123.451 126.762 125.132 131.804 126.336 136.922C126.637 138.201 128.619 137.649 128.318 136.37C127.139 131.202 125.834 125.884 123.551 121.067C123.2 120.34 122.121 120.867 122.297 121.619Z" fill="black"/>
<path d="M44.2279 22.3772C43.8265 36.6263 44.7045 50.9005 45.6076 65.0995C45.9839 71.2206 45.7331 77.8434 46.8369 83.8642C47.3135 86.3979 48.317 87.9282 51.0514 87.2509C52.1301 86.9749 51.9294 85.1436 50.7754 85.2691C47.9407 85.5199 47.3637 59.0035 47.163 55.5165C46.5107 44.4784 46.2348 33.4153 45.5825 22.3772C45.5575 21.4992 44.253 21.4741 44.2279 22.3772Z" fill="black"/>
<path d="M45.8077 23.9323C45.8829 23.6815 45.8328 23.0292 45.9833 22.8536C46.1589 22.6529 45.908 22.8285 46.2843 22.8536C46.6105 22.8536 46.9366 22.9038 47.2627 22.9289C48.3665 22.979 49.4954 23.0543 50.5992 22.8536C51.402 22.7031 51.3267 21.4739 50.5992 21.2983C49.7714 21.0725 48.8933 21.0223 48.0404 20.9721C47.2627 20.947 46.3345 20.8216 45.5568 21.0223C44.0767 21.4237 44.6035 22.7031 44.5784 23.8069C44.5534 24.4591 45.6321 24.6097 45.8077 23.9323Z" fill="black"/>
<path d="M165.772 81.7567C165.295 83.1114 165.42 85.7956 163.79 86.1469C162.234 86.4981 160.378 86.3977 158.797 86.5482C157.719 86.6486 157.694 88.229 158.797 88.2541C160.804 88.2792 163.94 88.8813 165.721 87.6771C167.302 86.5984 167.327 83.6382 167.176 81.9323C167.076 81.1547 166.022 80.9791 165.772 81.7567Z" fill="black"/>
<path d="M169.56 24.1081C168.757 34.7448 168.205 45.3815 167.277 55.993C166.399 66.1531 165.044 76.3633 164.693 86.5484C164.643 87.6522 166.499 87.9282 166.65 86.8244C168.029 76.9905 168.506 66.9559 169.359 57.0718C170.287 46.1341 171.316 35.1211 170.814 24.1332C170.764 23.2802 169.61 23.3053 169.56 24.1081Z" fill="black"/>
<path d="M46.7864 21.2983C43.0987 22.8788 44.9551 29.0501 44.2025 32.0103C44.0018 32.7629 45.1558 33.3148 45.507 32.5622C46.3348 30.8814 46.2596 29.3009 46.2094 27.4696C46.1341 25.3623 46.4603 23.9073 47.6644 22.1764C48.0909 21.5743 47.3132 21.0726 46.7864 21.2983Z" fill="black"/>
<path d="M46.0838 23.0293C66.8053 24.7101 87.9783 23.7067 108.75 23.8321C129.195 23.9575 149.766 23.4558 170.187 24.4342C171.14 24.4844 171.391 22.8788 170.413 22.7283C160.855 21.1729 150.82 21.9004 141.162 21.8503C130.726 21.775 120.29 21.7248 109.854 21.6496C88.7058 21.5242 67.1816 20.1946 46.0587 21.6496C45.1807 21.6998 45.1807 22.9541 46.0838 23.0293Z" fill="black"/>
<path d="M49.0189 21.6746C48.2412 21.3234 47.2879 21.474 46.5353 21.8753C45.8329 22.2516 44.9298 23.0293 45.0552 23.9073C45.1054 24.3589 45.4817 24.685 45.9333 24.685C46.435 24.685 46.6858 24.3087 46.9618 23.9575C47.1876 23.6816 47.4384 23.506 47.7395 23.3304C48.0907 23.1297 48.467 23.1297 48.8433 23.0042C49.3952 22.8286 49.621 21.9506 49.0189 21.6746Z" fill="black"/>
<path d="M47.9402 22.8034C52.2551 22.5024 56.4947 23.4557 60.7594 23.2801C61.5872 23.255 61.813 22.0257 60.9601 21.8C56.8961 20.6711 52.1046 20.6962 47.9402 21.0223C46.7862 21.0975 46.7862 22.8787 47.9402 22.8034Z" fill="black"/>
<path d="M49.7969 87.1252C58.3263 88.2792 67.1568 87.7524 75.7615 87.6269C85.5703 87.5015 95.354 87.5266 105.163 87.8276C124.73 88.4548 144.398 88.8813 163.966 88.0785C165.396 88.0283 165.396 85.8458 163.966 85.8458C144.724 85.9712 125.533 86.197 106.292 85.62C87.6775 85.0681 68.6369 84.6918 50.0227 85.5197C49.1698 85.5698 48.8687 86.9747 49.7969 87.1252Z" fill="black"/>
<path d="M47.9904 85.6953C48.8935 87.4765 50.7499 87.8277 52.6063 87.8528C55.717 87.928 58.8779 87.8778 61.9636 87.7775C62.666 87.7524 62.8667 86.6988 62.1392 86.4981C60.1072 85.9713 58.1755 85.7957 56.0682 85.7957C53.4843 85.7957 51.2265 86.1469 48.8684 84.7671C48.2914 84.441 47.6893 85.1183 47.9904 85.6953Z" fill="black"/>
<path d="M165.345 83.6132C165.094 84.2404 164.693 84.9679 164.216 85.4446C163.765 85.871 163.162 85.9714 162.56 85.9964C161.908 85.9964 161.582 86.7992 162.034 87.2759C162.962 88.2542 164.392 87.9281 165.32 87.1253C166.323 86.2724 166.474 85.0181 166.624 83.8139C166.675 83.0112 165.596 83.0112 165.345 83.6132Z" fill="black"/>
<path d="M48.1412 82.1332C67.5331 83.2371 87.226 82.3089 106.643 82.4092C126.035 82.5095 145.778 83.4377 165.145 82.2336C166.198 82.1583 166.198 80.6782 165.145 80.603C145.778 79.3988 126.035 80.327 106.643 80.4274C87.2009 80.5277 67.5331 79.5995 48.1412 80.7033C47.2381 80.7535 47.2381 82.0831 48.1412 82.1332Z" fill="black"/>
<path d="M63.7197 32.2109C63.3685 45.6071 64.5224 59.229 65.275 72.6001C65.3503 73.8043 67.1816 73.8043 67.1565 72.6001C66.6799 59.2039 66.5545 45.5318 64.9991 32.2109C64.8987 31.4081 63.7448 31.383 63.7197 32.2109Z" fill="black"/>
<path d="M65.1501 71.5466C64.9243 72.6253 65.5514 73.5284 66.5298 73.9549C67.458 74.3562 69.1388 74.6071 69.766 73.6287C69.9667 73.3026 69.8663 72.8761 69.6405 72.6253C69.1137 72.0232 68.3611 72.3242 67.6587 72.1988C67.157 72.1235 66.7054 71.8225 66.4295 71.396C66.1284 70.8943 65.2755 70.9445 65.1501 71.5466Z" fill="black"/>
<path d="M105.012 7.47584C105.037 7.47584 105.037 7.47584 105.062 7.45075C104.811 7.35041 104.586 7.25006 104.335 7.14971C104.335 7.1748 104.36 7.19989 104.36 7.22497C104.36 6.9992 104.36 6.77342 104.36 6.54764C104.335 6.57273 104.335 6.59781 104.31 6.59781C104.636 6.52255 104.962 6.42221 105.288 6.34695C105.589 6.52255 105.238 6.14625 105.138 6.02082C105.012 5.84522 104.862 5.66961 104.711 5.49401C104.31 5.01736 103.883 4.54072 103.432 4.08916C102.604 3.23622 101.751 2.38328 100.923 1.50525C100.195 0.752656 99.1168 1.85646 99.7941 2.63414C100.772 3.78812 101.726 4.99228 102.729 6.14625C103.356 6.84868 104.234 8.12809 105.313 7.60127C105.614 7.45075 105.689 7.09954 105.639 6.7985C105.564 6.49747 105.363 6.32186 105.087 6.2466C104.836 6.17134 104.485 6.29677 104.36 6.54764C104.36 6.57273 104.335 6.57272 104.335 6.59781C104.084 7.02428 104.46 7.65144 105.012 7.47584Z" fill="black"/>
<path d="M110.983 5.56908C111.108 4.79139 111.058 4.01371 111.134 3.23603C111.184 2.40818 111.284 1.58032 111.384 0.752466C111.485 -0.175734 110.08 -0.27608 109.829 0.551775C109.327 2.05696 109.077 4.06389 109.679 5.56908C109.879 6.12098 110.833 6.32167 110.983 5.56908Z" fill="black"/>
<path d="M115.649 7.52582C117.179 6.67288 118.434 5.31821 119.889 4.31475C120.666 3.78793 119.964 2.5336 119.136 3.03533C117.556 4.01371 115.774 4.99208 114.696 6.54744C114.269 7.17461 115.072 7.85194 115.649 7.52582Z" fill="black"/>
<path d="M145.803 34.1176C146.38 34.0674 142.366 70.1669 141.889 72.7257C141.663 73.9549 143.57 74.5068 143.796 73.2525C146.204 60.1574 147.935 46.5605 147.709 33.2396C147.709 32.7629 147.207 32.3114 146.731 32.487C146.355 32.6124 146.003 32.7629 145.627 32.8883C145.025 33.1141 145.025 34.1928 145.803 34.1176Z" fill="black"/>
<path d="M65.3252 33.415C65.3753 33.5655 84.0146 32.8631 85.8209 32.8631C92.7949 32.8631 99.7689 32.8882 106.743 32.9635C120.064 33.0638 133.485 32.8631 146.781 33.7411C148.211 33.8415 148.211 31.5084 146.781 31.5084C129.396 31.5837 112.011 31.2576 94.6262 31.2074C85.8209 31.1823 76.9904 31.1071 68.2101 31.3328C66.73 31.3579 62.4402 31.3077 64.121 33.9418C64.5224 34.5188 65.576 34.1676 65.3252 33.415Z" fill="black"/>
<path d="M65.0996 32.7126C65.2752 32.4367 69.4897 32.8882 70.0165 32.9133C71.9733 32.9886 73.9551 33.114 75.937 32.9886C76.8652 32.9384 76.8401 31.6841 75.937 31.5586C73.5788 31.2827 71.1956 31.2827 68.8124 31.2074C67.5079 31.1573 65.3253 30.6305 64.1964 31.4834C63.9456 31.6841 63.7449 31.9851 63.8452 32.3112C63.8703 32.3865 63.8954 32.4618 63.9205 32.537C64.0961 33.0889 64.8236 33.1893 65.0996 32.7126Z" fill="black"/>
<path d="M144.925 32.6373C145 33.7161 145.326 34.7697 145.527 35.8233C145.753 36.9773 145.828 38.1564 146.054 39.3103C146.229 40.1382 147.459 39.9124 147.484 39.1097C147.559 37.0024 147.107 34.1676 146.079 32.3112C145.803 31.8095 144.875 32.0102 144.925 32.6373Z" fill="black"/>
<path d="M67.6584 73.9549C80.0511 74.7827 92.6445 74.3061 105.062 74.3061C117.505 74.3061 129.998 74.5068 142.441 74.2308C144.047 74.2057 144.047 71.7222 142.441 71.7222C129.973 71.7974 117.53 71.9479 105.062 71.973C92.6445 71.9981 80.0511 71.5215 67.6584 72.3744C66.6549 72.4497 66.6549 73.8796 67.6584 73.9549Z" fill="black"/>
<path d="M66.7805 73.955C67.9847 74.3564 69.239 74.6323 70.5184 74.5821C71.8731 74.532 73.1776 74.0553 74.5574 74.0052C75.335 73.9801 75.5859 72.7257 74.758 72.6003C73.6542 72.4247 72.7762 72.6254 71.6724 72.8261C70.1421 73.102 68.662 72.9264 67.1318 72.7007C66.3039 72.5752 65.9527 73.679 66.7805 73.955Z" fill="black"/>
<path d="M86.0717 32.3615C85.0432 45.5821 85.0181 59.0285 85.2689 72.2741C85.294 73.3278 86.8996 73.3278 86.8996 72.2741C86.9497 58.9532 87.3511 45.6574 87.4264 32.3615C87.4264 31.5086 86.147 31.5337 86.0717 32.3615Z" fill="black"/>
<path d="M65.0995 39.0343C72.0736 40.2636 79.2985 40.2134 86.3478 39.7618C87.3512 39.6866 87.3512 38.1312 86.3478 38.1814C79.2734 38.6079 72.3244 38.1814 65.2751 37.8051C64.5727 37.78 64.3971 38.9089 65.0995 39.0343Z" fill="black"/>
<path d="M68.8121 44.7542C68.8372 44.7542 68.8372 44.7542 68.8623 44.7542C69.1382 44.7542 69.4142 44.5536 69.4894 44.2776C69.5898 43.9013 69.4393 43.6003 69.1131 43.3996C68.8623 43.2491 68.3856 43.2491 68.1849 43.525C67.5578 44.3529 67.4825 45.7075 68.3856 46.3849C69.364 47.1124 70.4427 46.4601 70.8692 45.5068C71.2957 44.5786 71.4964 43.2741 70.4176 42.6721C69.4643 42.1453 68.21 42.8226 68.4609 43.9766C68.5863 44.5786 69.4142 44.7542 69.8155 44.3278C69.7403 44.3529 69.7654 44.3529 69.8657 44.3027C69.7152 44.3529 69.5647 44.378 69.3891 44.4281C69.9159 44.4281 69.1382 44.2023 69.2636 44.1522C69.2636 44.1522 69.063 44.7041 69.063 44.7542C69.063 44.9048 68.787 44.8546 69.2135 44.8044C69.5145 44.7793 69.3891 44.8295 69.4643 44.7292C69.5396 44.5786 69.5145 44.1271 69.4894 43.9515C69.1633 44.1522 68.8121 44.3278 68.486 44.5285C68.5111 44.5285 68.5111 44.5536 68.5361 44.5536C68.4358 44.3529 68.3104 44.1773 68.21 43.9766C68.21 44.0017 68.21 44.0267 68.21 44.0518C68.3605 43.8511 68.5361 43.6254 68.6867 43.4247C68.6616 43.4247 68.6616 43.4247 68.6365 43.4247C67.909 43.6504 68.0846 44.7292 68.8121 44.7542Z" fill="black"/>
<path d="M68.2852 50.1729C67.7584 51.0258 67.7584 52.5812 68.4608 53.3589C68.9123 53.8355 69.6398 53.9609 70.2168 53.6348C70.6684 53.384 70.9193 52.9073 71.0949 52.4558C71.4712 51.5025 71.4712 50.2732 70.5179 49.6461C69.8405 49.2196 68.7618 49.345 68.3855 50.0976C68.0594 50.7499 68.7367 51.5025 69.4141 51.1262C69.3388 51.1513 69.2886 51.1513 69.2134 51.1011C69.0879 51.0258 69.0629 51.0509 69.1883 51.1513C69.113 51.2014 69.1883 50.8753 69.1381 51.1011C69.0629 51.3519 68.9374 51.653 68.7869 51.7784C68.9625 51.6781 69.1381 51.5777 69.3137 51.4774C69.2886 51.5025 69.2385 51.5025 69.2134 51.5025C69.4141 51.5025 69.6398 51.5025 69.8405 51.5025C69.7904 51.5025 69.7653 51.4774 69.7151 51.4774C69.8907 51.5777 70.0663 51.6781 70.2419 51.7784C70.3924 51.9289 70.2921 51.8537 70.267 51.7032C70.2419 51.5526 70.1918 51.4272 70.1667 51.2767C70.1165 50.9756 70.0914 50.6746 69.9911 50.3987C69.7402 49.621 68.6866 49.4705 68.2852 50.1729Z" fill="black"/>
<path d="M68.8376 57.5482C68.5115 57.9747 68.4613 58.5768 68.3861 59.1287C68.3108 59.6304 68.3861 60.1572 68.7624 60.5335C69.4899 61.2109 70.6439 60.8346 71.0954 60.0318C71.5219 59.2792 71.6473 57.9245 71.0453 57.2472C70.4934 56.62 69.3645 56.62 68.9882 57.4479C68.5868 58.3008 69.6655 58.9029 70.2425 58.1754C70.1923 58.2507 69.8411 58.3761 69.8411 58.351C69.7909 58.3008 69.7658 58.3259 69.7909 58.4263C69.7909 58.4764 69.7909 58.5266 69.7658 58.5768C69.7408 58.6771 69.6153 59.1538 69.6153 59.1538C69.6906 59.0785 69.7658 59.1036 69.8662 59.229C70.0418 59.4046 70.1171 59.4046 70.092 59.2541C70.1672 59.1789 70.1171 58.8527 70.1421 58.7273C70.1672 58.3761 70.1672 58.0249 70.0418 57.6737C69.7909 57.1719 69.1889 57.0967 68.8376 57.5482Z" fill="black"/>
<path d="M69.2137 63.7697C68.4611 64.723 68.436 65.9272 68.6367 67.0811C68.737 67.6581 69.3893 67.8588 69.8659 67.7836C70.8694 67.608 71.6471 66.6547 71.6722 65.6512C71.6722 64.6477 70.8694 63.569 69.7907 63.6945C69.1384 63.7697 68.712 64.5223 69.2388 65.0491C69.4144 65.2247 69.6151 65.4254 69.6652 65.7014C69.6151 65.4756 69.6903 65.7014 69.59 65.7516C69.4896 65.8017 69.4896 65.8017 69.3642 65.8268C69.7656 66.0526 70.1921 66.3035 70.5934 66.5292C70.3175 65.7516 70.4178 65.0491 70.3927 64.2464C70.3927 63.7195 69.6151 63.268 69.2137 63.7697Z" fill="black"/>
<path d="M75.1092 46.0336C77.5175 46.2844 80.2018 46.3095 82.6101 45.9583C83.4881 45.8329 83.162 44.6036 82.4094 44.5284C80.0011 44.2775 77.3168 44.428 74.9336 44.7792C74.1559 44.8796 74.457 45.9583 75.1092 46.0336Z" fill="black"/>
<path d="M74.7831 52.7068C77.1914 53.0329 79.8255 53.2336 82.284 53.2085C83.0616 53.2085 83.2373 52.0294 82.4596 51.8538C80.0764 51.2518 77.2165 51.1263 74.7831 51.4775C74.181 51.5528 74.181 52.6064 74.7831 52.7068Z" fill="black"/>
<path d="M75.5105 59.2291C78.0694 59.4047 80.7787 59.48 83.2873 58.9531C84.065 58.7775 83.8894 57.5483 83.1117 57.5734C80.578 57.6988 78.0694 57.9998 75.5105 57.9246C74.6827 57.8995 74.6827 59.1789 75.5105 59.2291Z" fill="black"/>
<path d="M75.5357 66.3286C78.0945 66.5042 80.7035 66.4541 83.2624 66.429C84.2156 66.4039 84.2156 64.9489 83.2624 64.9238C80.7035 64.8987 78.0945 64.8485 75.5357 65.0241C74.6828 65.0994 74.6828 66.2534 75.5357 66.3286Z" fill="black"/>
<path d="M106.467 41.2673C104.862 46.4351 105.865 52.7318 109.854 56.6453C113.341 60.0822 118.132 58.2258 120.114 54.1618C122.247 49.8469 121.143 43.2993 117.882 39.737C115.172 36.7517 110.08 35.9741 107.646 39.6367C107.119 40.4144 108.248 41.1419 108.876 40.59C116.201 34.0926 121.168 48.3417 118.208 53.6851C117.054 55.7673 114.52 57.4983 112.062 56.1436C110.707 55.391 109.754 53.8106 109.026 52.481C107.245 49.1194 107.044 45.3313 107.797 41.6687C108.023 40.7656 106.743 40.3893 106.467 41.2673Z" fill="black"/>
<path d="M108.951 38.6079C106.191 39.2602 105.715 43.4245 105.89 45.7074C105.965 46.6105 107.195 46.5854 107.27 45.7074C107.42 43.8761 107.596 40.7654 109.452 39.7619C110.105 39.4358 109.628 38.4574 108.951 38.6079Z" fill="black"/>
<path d="M127.59 63.5189C127.54 66.5292 127.364 69.5898 127.565 72.5751C127.615 73.4531 128.869 73.4531 128.944 72.5751C129.145 69.5647 128.97 66.5292 128.919 63.5189C128.869 62.6659 127.59 62.6659 127.59 63.5189Z" fill="black"/>
<path d="M128.518 64.1462C133.536 64.3469 138.603 64.5475 143.62 64.4472C144.498 64.4221 144.473 63.1678 143.62 63.0925C138.603 62.7915 133.536 62.8668 128.518 62.8668C127.69 62.8918 127.69 64.1211 128.518 64.1462Z" fill="black"/>
<path d="M135.367 64.8987C134.614 65.852 134.94 67.307 135.919 67.9844C136.872 68.6366 138.327 68.4109 138.979 67.4325C139.606 66.5294 139.456 65.1747 138.578 64.4974C137.625 63.7448 136.295 63.9956 135.593 64.9489C135.141 65.5761 136.119 66.2785 136.646 65.7517C137.323 65.0994 138.452 65.8771 137.825 66.6799C137.574 67.006 137.048 67.0562 136.721 66.8304C136.245 66.5043 136.345 65.9775 136.445 65.5008C136.521 64.974 135.793 64.3719 135.367 64.8987Z" fill="black"/>
<path d="M134.288 71.8977C134.539 71.0949 135.242 69.8406 136.044 69.4392C137.324 68.812 138.126 70.7688 138.453 71.5967C138.804 72.4245 139.908 72.1235 139.782 71.2204C139.556 69.6148 137.976 67.6581 136.195 67.8839C134.614 68.0845 133.41 70.1667 133.059 71.5465C132.858 72.3493 134.037 72.6754 134.288 71.8977Z" fill="black"/>
<path d="M119.362 54.0864C123.978 55.441 129.472 58.2256 130.5 63.4687C130.726 64.6478 132.432 64.121 132.281 62.9921C131.479 57.473 124.831 52.9826 119.562 52.8571C118.81 52.832 118.684 53.8857 119.362 54.0864Z" fill="black"/>
<path d="M108.85 55.5917C107.671 56.6203 106.342 58.7025 105.012 59.4049C102.729 60.609 101.324 57.7241 100.296 56.0433C98.3139 52.7319 97.4359 49.1194 97.2352 45.3063C97.185 44.2275 95.5293 44.2025 95.5293 45.3063C95.5544 50.6246 97.486 55.8426 100.873 59.9066C101.876 61.1108 102.93 62.4153 104.636 61.8634C106.743 61.186 108.624 58.0502 109.904 56.3945C110.406 55.7673 109.377 55.1151 108.85 55.5917Z" fill="black"/>
<path d="M97.0851 44.704C93.297 40.6902 92.2936 51.3018 92.4692 53.0077C92.7953 56.3191 93.7486 59.9064 95.605 62.7412C97.336 65.4004 106.041 69.7404 105.84 71.8978C105.74 72.9765 107.371 73.1019 107.672 72.1487C108.6 69.2386 106.819 67.4575 104.235 66.2533C99.9199 64.2715 97.0851 62.9921 95.4043 58.2257C94.9778 56.9964 94.6517 55.717 94.4259 54.4376C94.2503 53.3589 94.2503 44.2023 96.3325 45.7075C96.9346 46.1089 97.5617 45.2058 97.0851 44.704Z" fill="black"/>
<path d="M138.779 100.747C139.556 107.37 140.359 114.369 141.864 120.842C142.065 121.669 143.369 121.494 143.344 120.641C143.119 114.043 141.689 106.944 140.008 100.572C139.832 99.9195 138.678 100.02 138.779 100.747Z" fill="black"/>
<path d="M139.531 101.274C150.62 101.826 161.808 101.475 172.896 101.073C173.975 101.023 173.975 99.3675 172.896 99.3926C161.783 99.7689 150.645 99.6435 139.531 99.9696C138.678 99.9947 138.678 101.224 139.531 101.274Z" fill="black"/>
<path d="M21.5998 114.319C30.054 114.67 37.9562 113.316 46.3853 114.921C47.3386 115.097 47.7399 113.767 46.7867 113.466C38.8593 110.983 29.7027 112.287 21.5998 113.065C20.797 113.115 20.7719 114.269 21.5998 114.319Z" fill="black"/>
<path d="M46.4104 114.67C46.7867 114.821 43.9018 120.641 43.7262 121.243C43.5004 121.945 44.4788 122.547 44.9805 121.97C45.9839 120.816 49.9727 113.617 46.586 113.391C45.7833 113.341 45.7833 114.419 46.4104 114.67Z" fill="black"/>
<path d="M42.07 113.266C43.6003 110.932 47.4386 107.019 43.224 105.589C40.9662 104.836 38.1565 105.188 35.8235 105.288C32.6877 105.439 29.6021 105.74 26.4913 106.241C25.4879 106.392 25.9143 107.897 26.9178 107.772C30.7309 107.245 34.5692 106.868 38.4325 106.818C40.038 106.793 43.3745 106.041 43.0986 108.574C42.9732 109.728 41.468 111.56 40.9411 112.638C40.5899 113.366 41.6185 113.968 42.07 113.266Z" fill="black"/>
<path d="M44.7543 107.671C45.6574 105.714 46.9117 103.482 47.3633 101.374C47.564 100.521 47.6393 99.8692 46.8114 99.2671C45.6323 98.4141 43.2742 98.4643 41.8443 98.3138C39.2855 98.0629 36.7517 98.0378 34.1929 98.1884C33.0138 98.2636 33.0138 100.095 34.1929 100.02C37.3538 99.8441 40.4896 99.9444 43.6254 100.346C44.0017 100.396 45.3313 100.371 45.6073 100.747C45.9334 101.199 45.3564 102.102 45.1306 102.679C44.5787 104.159 44.0017 105.614 43.5502 107.119C43.3495 107.847 44.4533 108.348 44.7543 107.671Z" fill="black"/>
<path d="M47.5137 115.598C60.6841 115.423 73.7542 116.276 86.8995 116.702C100.17 117.129 113.265 115.924 126.536 117.003C127.966 117.129 127.966 114.871 126.536 114.77C113.24 113.968 100.17 115.147 86.8995 114.946C73.7793 114.745 60.6339 113.165 47.5137 114.118C46.5855 114.193 46.5604 115.623 47.5137 115.598Z" fill="black"/>
<path d="M126.21 115.724C126.135 117.38 127.189 119.161 127.916 120.591C128.468 121.669 130.099 120.716 129.547 119.637C128.794 118.232 128.318 116.501 127.339 115.247C126.963 114.796 126.235 115.222 126.21 115.724Z" fill="black"/>
<path d="M137.073 97.3105C120.415 95.9308 103.181 97.2102 86.4732 97.2102C69.6151 97.2102 52.7318 96.859 35.8737 97.3607C34.8702 97.3858 34.8702 98.8659 35.8737 98.9161C52.7067 99.4178 69.6151 99.0666 86.4732 99.0666C103.181 99.0666 120.415 100.346 137.073 98.9662C138.151 98.8659 138.151 97.4109 137.073 97.3105Z" fill="black"/>
<path d="M46.5102 98.1633C46.2091 98.7905 46.0335 99.4678 45.883 100.145C45.6322 101.249 47.3381 101.701 47.5638 100.597C47.6893 99.9194 47.8398 99.1919 47.8398 98.4894C47.8147 97.8623 46.8363 97.486 46.5102 98.1633Z" fill="black"/>
<path d="M135.392 98.615C136.044 98.6401 136.972 98.5146 137.6 98.7404C138.829 99.1669 138.628 100.346 138.804 101.4C139.105 103.181 139.306 105.012 139.807 106.743C140.033 107.496 141.237 107.37 141.212 106.542C141.162 105.238 140.911 103.908 140.71 102.604C140.51 101.324 140.485 99.5934 139.958 98.4143C139.205 96.7084 136.897 97.1349 135.392 97.2854C134.589 97.4108 134.539 98.5899 135.392 98.615Z" fill="black"/>
<path d="M46.9368 103.858C61.9636 105.037 77.3166 104.209 92.3685 104.209C107.496 104.209 122.698 104.586 137.8 104.059C138.929 104.009 138.929 102.353 137.8 102.328C122.673 101.801 107.496 102.177 92.3685 102.177C77.2915 102.177 61.9636 101.374 46.9368 102.528C46.109 102.604 46.109 103.783 46.9368 103.858Z" fill="black"/>
<path d="M59.254 98.5648C58.9028 99.1669 58.8024 99.8693 58.6519 100.547C58.5014 101.224 58.2756 101.952 58.3509 102.654C58.4261 103.331 59.4045 103.783 59.7808 103.03C60.132 102.353 60.1571 101.575 60.2825 100.848C60.3829 100.145 60.5334 99.4428 60.408 98.7153C60.3076 98.1634 59.5049 98.1133 59.254 98.5648Z" fill="black"/>
<path d="M140.259 102.554C139.205 102.253 137.725 102.328 136.697 102.729C135.994 103.005 136.019 104.159 136.897 104.134C137.474 104.134 138.026 104.034 138.603 103.984C139.155 103.958 139.707 103.958 140.259 103.883C140.986 103.783 140.861 102.729 140.259 102.554Z" fill="black"/>
<path d="M127.414 98.5146C127.364 99.2923 127.414 100.07 127.414 100.823C127.439 101.55 127.389 102.303 127.615 103.005C127.816 103.632 128.869 103.758 129.02 103.005C129.17 102.227 129.045 101.45 128.97 100.647C128.894 99.8693 128.844 99.0916 128.719 98.3139C128.568 97.5613 127.465 97.8122 127.414 98.5146Z" fill="black"/>
<path d="M73.6289 98.1883C73.378 98.7402 73.3529 99.3674 73.3027 99.9695C73.2526 100.597 73.1271 101.249 73.3278 101.876C73.5034 102.403 74.3815 102.654 74.6323 102.052C74.8832 101.45 74.9083 100.873 74.9083 100.22C74.9083 99.5932 74.9835 98.9158 74.7828 98.3388C74.6323 97.8873 73.8546 97.6615 73.6289 98.1883Z" fill="black"/>
<path d="M114.093 98.7153C113.968 99.518 114.018 100.321 114.043 101.149C114.093 101.951 114.018 102.855 114.319 103.607C114.57 104.284 115.699 104.46 115.874 103.607C116.025 102.779 115.849 101.977 115.749 101.149C115.649 100.346 115.598 99.493 115.322 98.7153C115.147 98.1885 114.194 98.0379 114.093 98.7153Z" fill="black"/>
<path d="M88.5052 98.5145C88.4802 99.819 88.4802 101.174 88.5554 102.453C88.6056 103.206 89.7847 103.482 89.9603 102.654C90.2362 101.299 90.1359 99.6685 89.7847 98.3389C89.6091 97.6114 88.5303 97.7619 88.5052 98.5145Z" fill="black"/>
<path d="M101.199 98.7151C101.3 100.27 101.174 101.851 101.3 103.406C101.35 104.159 102.554 104.46 102.73 103.607C103.081 101.951 102.83 100.195 102.479 98.5646C102.328 97.812 101.149 97.9625 101.199 98.7151Z" fill="black"/>
<path d="M55.9431 103.231C55.4414 105.414 55.0902 107.721 54.8644 109.954C54.7641 110.807 56.194 110.983 56.3445 110.155C56.7459 107.947 57.0971 105.639 57.2476 103.407C57.2978 102.654 56.0936 102.503 55.9431 103.231Z" fill="black"/>
<path d="M55.5664 110.556C56.3692 110.556 56.3692 109.327 55.5664 109.327C54.7637 109.327 54.7637 110.556 55.5664 110.556Z" fill="black"/>
<path d="M55.7672 109.402C52.1297 109.076 48.3416 108.725 44.704 108.7C43.8762 108.7 43.6504 110.029 44.5034 110.18C48.0907 110.882 52.1297 110.957 55.7672 110.656C56.57 110.606 56.57 109.477 55.7672 109.402Z" fill="black"/>
<path d="M54.8141 110.732C60.1074 110.832 65.501 110.581 70.7942 110.305C71.7726 110.255 71.7977 108.725 70.7942 108.775C65.501 108.976 60.0823 108.9 54.8141 109.477C54.0365 109.527 53.9863 110.707 54.8141 110.732Z" fill="black"/>
<path d="M70.5935 103.758C70.5684 105.79 70.2423 107.747 70.1168 109.779C70.0666 110.556 71.2206 110.657 71.4464 109.954C71.9983 108.022 71.9983 105.765 71.8729 103.758C71.8227 102.955 70.6186 102.93 70.5935 103.758Z" fill="black"/>
<path d="M70.5686 110.381C75.5608 110.581 80.4025 110.13 85.3696 110.882C86.0971 110.983 86.7494 109.904 85.9215 109.553C84.1654 108.8 82.2338 108.65 80.3272 108.675C77.0911 108.725 73.8047 108.8 70.5686 109.101C69.7658 109.176 69.7407 110.355 70.5686 110.381Z" fill="black"/>
<path d="M86.072 102.855C85.6706 105.188 85.5703 107.596 85.3696 109.954C85.7459 109.728 86.1222 109.528 86.4985 109.302C85.495 108.8 84.3912 109.101 83.3376 108.976C82.5097 108.875 82.4344 110.13 83.1369 110.381C83.9647 110.656 84.9682 110.255 85.7459 110.606C86.2727 110.857 86.8497 110.556 86.8748 109.954C87.0504 107.671 87.3263 105.313 87.3012 103.03C87.3012 102.328 86.1974 102.127 86.072 102.855Z" fill="black"/>
<path d="M85.5699 110.857C90.3615 110.33 95.153 110.004 99.9947 110.155C101.048 110.18 101.048 108.549 99.9947 108.524C95.0777 108.374 90.236 108.625 85.3943 109.578C84.6668 109.703 84.8173 110.932 85.5699 110.857Z" fill="black"/>
<path d="M100.02 102.83C99.7687 104.912 99.4677 107.169 99.7437 109.277C99.8691 110.205 101.174 110.255 101.224 109.277C101.349 107.144 101.249 104.962 101.299 102.83C101.324 101.977 100.095 102.027 100.02 102.83Z" fill="black"/>
<path d="M99.9698 109.904C104.636 110.456 109.678 110.782 114.344 110.08C115.122 109.954 114.921 108.7 114.169 108.7C109.427 108.8 104.711 108.625 99.9949 108.625C99.1169 108.625 99.1671 109.804 99.9698 109.904Z" fill="black"/>
<path d="M113.266 103.607C112.89 105.539 112.965 107.696 113.441 109.603C113.642 110.405 114.997 110.255 114.896 109.402C114.721 107.521 114.57 105.664 114.495 103.783C114.47 103.105 113.416 102.88 113.266 103.607Z" fill="black"/>
<path d="M113.993 110.004C118.182 111.108 122.899 110.757 127.163 110.356C128.142 110.255 128.192 108.725 127.163 108.775C122.773 109.001 118.559 108.875 114.169 108.75C113.441 108.75 113.291 109.829 113.993 110.004Z" fill="black"/>
<path d="M126.185 103.181C126.261 105.288 126.461 107.42 126.612 109.503C126.687 110.431 127.942 110.406 128.042 109.503C128.268 107.445 128.092 104.987 127.49 103.005C127.289 102.328 126.16 102.428 126.185 103.181Z" fill="black"/>
<path d="M127.339 110.18C131.303 110.18 135.392 110.18 139.331 109.879C140.259 109.804 140.234 108.549 139.331 108.449C135.417 108.022 131.052 108.298 127.164 108.9C126.411 109.001 126.612 110.18 127.339 110.18Z" fill="black"/>
<path d="M58.2007 110.13C57.7993 111.359 57.3728 112.814 57.3227 114.093C57.2976 114.997 58.4766 114.997 58.7526 114.294C59.2292 113.115 59.4048 111.585 59.5554 110.33C59.6557 109.503 58.4265 109.402 58.2007 110.13Z" fill="black"/>
<path d="M73.7289 109.402C73.3275 110.857 72.9512 112.362 72.7254 113.842C72.5749 114.821 74.0048 115.297 74.2557 114.269C74.632 112.739 74.8327 111.133 75.0083 109.578C75.1087 108.825 73.9296 108.725 73.7289 109.402Z" fill="black"/>
<path d="M89.885 109.753C89.2077 111.559 88.5303 113.817 88.6809 115.749C88.7561 116.552 89.9101 116.803 90.1359 115.95C90.6125 114.068 90.738 112.011 91.0892 110.079C91.2899 109.277 90.186 108.976 89.885 109.753Z" fill="black"/>
<path d="M103.833 109.202C103.432 110.958 103.181 112.814 102.955 114.62C102.855 115.498 104.36 115.699 104.51 114.821C104.811 113.04 105.062 111.183 105.163 109.352C105.188 108.625 103.984 108.474 103.833 109.202Z" fill="black"/>
<path d="M119.035 109.402C118.809 110.932 118.559 112.739 118.784 114.269C118.885 114.996 120.014 114.921 120.189 114.269C120.54 112.839 120.465 111.058 120.39 109.578C120.34 108.85 119.161 108.599 119.035 109.402Z" fill="black"/>
<path d="M125.659 115.724C130.952 116.677 136.496 116.401 141.814 115.699C142.742 115.573 142.542 113.918 141.588 114.043C136.295 114.72 131.153 114.595 125.834 114.445C125.107 114.419 124.931 115.573 125.659 115.724Z" fill="black"/>
<path d="M142.918 116.05C151.447 115.297 159.851 115.297 168.356 116.326C169.46 116.451 169.434 114.746 168.356 114.595C159.826 113.491 151.247 113.466 142.742 114.771C142.04 114.896 142.191 116.125 142.918 116.05Z" fill="black"/>
<path d="M167.979 115.975C168.055 116.803 168.28 117.63 168.406 118.458C168.531 119.311 168.506 120.164 168.657 120.992C168.782 121.669 169.961 121.694 170.062 120.992C170.312 119.311 169.936 117.154 169.184 115.649C168.883 115.122 167.929 115.373 167.979 115.975Z" fill="black"/>
<path d="M145.978 101.149C146.38 105.664 147.358 110.155 148.613 114.495C148.863 115.398 150.268 115.022 150.017 114.093C148.838 109.753 148.01 105.388 147.258 100.948C147.107 100.271 145.903 100.421 145.978 101.149Z" fill="black"/>
<path d="M154.759 101.149C155.11 104.184 155.511 107.194 155.988 110.205C156.214 111.585 155.988 114.67 157.669 115.122C158.471 115.348 158.873 114.269 158.22 113.817C157.493 113.341 157.267 108.8 157.117 107.847C156.74 105.564 156.364 103.281 156.038 100.973C155.938 100.246 154.658 100.421 154.759 101.149Z" fill="black"/>
<path d="M163.715 100.923C164.442 105.94 165.797 111.183 167.402 115.975C167.703 116.903 169.083 116.527 168.883 115.573C167.804 110.581 166.524 105.438 164.944 100.597C164.668 99.794 163.589 100.12 163.715 100.923Z" fill="black"/>
<path d="M140.459 106.166C151.472 106.241 162.51 106.04 173.498 105.915C174.552 105.915 174.527 104.335 173.498 104.309C162.536 103.883 151.397 104.134 140.459 104.861C139.632 104.886 139.606 106.141 140.459 106.166Z" fill="black"/>
<path d="M140.961 110.631C149.265 110.957 157.593 110.255 165.922 110.681C167.001 110.732 167.001 109.076 165.922 109.001C157.543 108.499 149.315 109.026 140.961 109.302C140.108 109.377 140.108 110.606 140.961 110.631Z" fill="black"/>
<path d="M45.9085 12.4427C43.0737 15.2023 39.8877 18.6391 36.9526 22.7533C35.9491 24.1832 35.9993 25.7637 37.0028 24.5344C39.8877 21.0223 42.6974 17.5102 45.5823 14.5249C46.5105 13.5465 46.8116 11.5396 45.9085 12.4427Z" fill="black"/>
<path d="M48.5427 15.1522C45.1058 17.6609 41.669 20.1194 38.1819 22.8789C37.053 23.7569 36.3506 25.8391 37.4795 25.0363C40.8913 22.6029 44.4034 19.8434 47.8904 17.1843C48.944 16.3564 49.5963 14.3746 48.5427 15.1522Z" fill="black"/>
<path d="M48.8184 15.403C46.1844 18.1625 43.4499 21.0976 40.7657 24.2836C39.9127 25.3122 39.8124 27.0431 40.6402 26.1902C43.2743 23.5059 46.0338 20.3199 48.693 17.2343C49.4958 16.281 49.6212 14.5751 48.8184 15.403Z" fill="black"/>
<path d="M51.9041 16.9081C48.392 19.9185 45.1057 22.3017 41.8193 24.5846C40.7155 25.3372 40.0884 27.2688 41.1169 26.6417C44.4032 24.6097 48.0408 21.6996 51.6783 18.5638C52.7821 17.5855 53.0079 15.9548 51.9041 16.9081Z" fill="black"/>
<path d="M41.8193 23.6314C40.0884 25.3875 38.1818 27.5951 36.4006 30.2292C35.7986 31.1323 35.8236 32.1608 36.4257 31.3581C38.1818 29.1003 39.8877 26.8676 41.6186 24.961C42.1705 24.3338 42.3712 23.0544 41.8193 23.6314Z" fill="black"/>
<path d="M43.3994 25.3622C41.3172 26.9678 39.235 28.5482 37.1027 30.3043C36.4253 30.8813 35.9989 32.1858 36.6762 31.684C38.7333 30.1287 40.8656 28.3726 42.998 26.6667C43.6502 26.1399 44.0516 24.8605 43.3994 25.3622Z" fill="black"/>
<path d="M43.5757 25.538C41.9702 27.3191 40.3145 29.2006 38.7089 31.2076C38.1821 31.8598 38.132 32.9887 38.6337 32.4368C40.2141 30.7058 41.8949 28.6738 43.5256 26.692C44.0022 26.0899 44.0524 24.9861 43.5757 25.538Z" fill="black"/>
<path d="M45.4567 26.4912C43.3243 28.4229 41.3425 29.9531 39.3356 31.4082C38.6833 31.8848 38.2819 33.1391 38.9091 32.7377C40.916 31.4332 43.1236 29.5768 45.3062 27.5699C45.9835 26.9177 46.1089 25.864 45.4567 26.4912Z" fill="black"/>
<path d="M43.0987 28.724C41.167 30.0034 38.9594 31.6591 36.7518 33.7664C35.9992 34.4939 35.7734 35.4722 36.5009 34.8702C38.5831 33.1392 40.6151 31.3831 42.5969 29.9532C43.2492 29.5017 43.7258 28.2975 43.0987 28.724Z" fill="black"/>
<path d="M44.0771 30.8062C41.8695 31.8598 39.6869 32.8633 37.4041 34.0424C36.6766 34.4187 35.9741 35.5977 36.7016 35.2716C38.8842 34.2682 41.167 33.0891 43.4248 31.9853C44.1022 31.609 44.7544 30.4801 44.0771 30.8062Z" fill="black"/>
<path d="M44.1773 31.0069C42.346 32.3365 40.4395 33.7413 38.5329 35.2967C37.9057 35.7984 37.5796 36.8771 38.1566 36.4758C39.9628 35.1963 41.9196 33.641 43.801 32.1358C44.4031 31.6341 44.7292 30.6055 44.1773 31.0069Z" fill="black"/>
<path d="M45.5824 32.3866C43.2493 33.7413 41.1421 34.6945 39.0599 35.6227C38.3574 35.9238 37.7303 37.0276 38.3825 36.8018C40.4396 36.0492 42.8228 34.7949 45.2061 33.365C45.9336 32.9385 46.3099 31.9601 45.5824 32.3866Z" fill="black"/>
<path d="M43.3496 34.1425C41.418 35.4219 39.2104 37.0777 37.0028 39.1849C36.2502 39.9124 36.0244 40.8908 36.7519 40.2887C38.8341 38.5578 40.8661 36.8017 42.8479 35.3718C43.5001 34.9202 43.9768 33.7412 43.3496 34.1425Z" fill="black"/>
<path d="M44.328 36.2249C42.1204 37.2785 39.9379 38.282 37.655 39.4611C36.9275 39.8374 36.2251 41.0164 36.9526 40.6903C39.1351 39.6868 41.418 38.5078 43.6758 37.404C44.3531 37.0528 45.0054 35.8988 44.328 36.2249Z" fill="black"/>
<path d="M44.4283 36.4255C42.597 37.7551 40.6904 39.16 38.7839 40.7153C38.1567 41.2171 37.8306 42.2958 38.4076 41.8944C40.2138 40.615 42.1705 39.0596 44.052 37.5544C44.6541 37.0778 44.9802 36.0241 44.4283 36.4255Z" fill="black"/>
<path d="M45.8329 37.8053C43.4998 39.16 41.3925 40.1132 39.3104 41.0414C38.6079 41.3425 37.9808 42.4463 38.633 42.2205C40.6901 41.4679 43.0733 40.2136 45.4566 38.7837C46.1841 38.3572 46.5604 37.3788 45.8329 37.8053Z" fill="black"/>
<path d="M43.751 39.0595C41.8193 40.3389 39.6117 41.9947 37.4041 44.1019C36.6515 44.8294 36.4257 45.8078 37.1533 45.2057C39.2354 43.4748 41.2674 41.7187 43.2493 40.2888C43.9015 39.8372 44.3782 38.6581 43.751 39.0595Z" fill="black"/>
<path d="M44.704 41.1416C42.4964 42.1953 40.3139 43.1987 38.031 44.3778C37.3035 44.7541 36.6011 45.9332 37.3286 45.607C39.5111 44.6036 41.794 43.4245 44.0518 42.3207C44.7291 41.9695 45.4064 40.8155 44.704 41.1416Z" fill="black"/>
<path d="M44.8297 41.3425C42.9984 42.6721 41.0918 44.0769 39.1852 45.6323C38.5581 46.134 38.2319 47.2128 38.8089 46.8114C40.6152 45.532 42.5719 43.9766 44.4534 42.4714C45.0304 41.9948 45.3565 40.9411 44.8297 41.3425Z" fill="black"/>
<path d="M46.2093 42.7472C43.8763 44.1018 41.769 45.0551 39.6868 45.9833C38.9844 46.2844 38.3572 47.3882 39.0095 47.1624C41.0666 46.4098 43.4498 45.1555 45.833 43.7256C46.5605 43.2991 46.9368 42.3207 46.2093 42.7472Z" fill="black"/>
<path d="M44.0523 43.9514C42.1206 45.2308 39.913 46.8865 37.7054 48.9938C36.9528 49.7213 36.727 50.6996 37.4545 50.0976C39.5367 48.3666 41.5687 46.6106 43.5506 45.1806C44.2028 44.7291 44.6794 43.55 44.0523 43.9514Z" fill="black"/>
<path d="M45.0053 46.0335C42.7977 47.0871 40.6152 48.0906 38.3323 49.2696C37.6048 49.6459 36.9024 50.825 37.6299 50.4989C39.8124 49.4954 42.0953 48.3164 44.353 47.2126C45.0304 46.8613 45.7077 45.7074 45.0053 46.0335Z" fill="black"/>
<path d="M45.1305 46.2344C43.2991 47.5639 41.3926 48.9688 39.486 50.5242C38.8588 51.0259 38.5327 52.1046 39.1097 51.7032C40.9159 50.4238 42.8727 48.8684 44.7542 47.3633C45.3562 46.8866 45.6824 45.833 45.1305 46.2344Z" fill="black"/>
<path d="M46.5106 47.6141C44.1775 48.9688 42.0703 49.9221 39.9881 50.8503C39.2857 51.1513 38.6585 52.2551 39.3108 52.0293C41.3678 51.2767 43.7511 50.0224 46.1343 48.5925C46.8618 48.166 47.2381 47.2127 46.5106 47.6141Z" fill="black"/>
<path d="M45.457 49.8467C43.2493 50.9004 41.0668 51.9038 38.7839 53.0829C38.0564 53.4592 37.354 54.6383 38.0815 54.3121C40.264 53.3087 42.5469 52.1296 44.8047 51.0258C45.482 50.6495 46.1594 49.5206 45.457 49.8467Z" fill="black"/>
<path d="M45.0304 51.2517C43.1991 52.5813 41.2925 53.9861 39.3859 55.5415C38.7587 56.0432 38.4326 57.1219 39.0096 56.7206C40.8158 55.4411 42.7726 53.8858 44.6541 52.3806C45.2561 51.9039 45.5823 50.8503 45.0304 51.2517Z" fill="black"/>
<path d="M46.41 52.6315C44.077 53.9861 41.9697 54.9394 39.8875 55.8676C39.1851 56.1687 38.5579 57.2725 39.2102 57.0467C41.2673 56.2941 43.6505 55.0398 46.0337 53.6098C46.7863 53.1834 47.1626 52.205 46.41 52.6315Z" fill="black"/>
<path d="M45.0049 53.8607C43.0732 55.1401 40.8656 56.7958 38.658 58.9031C37.9054 59.6306 37.6797 60.609 38.4072 60.0069C40.4893 58.2759 42.5213 56.5199 44.5032 55.0899C45.1554 54.6384 45.6321 53.4342 45.0049 53.8607Z" fill="black"/>
<path d="M45.9833 55.9427C43.7757 56.9963 41.5932 57.9998 39.3103 59.1789C38.5828 59.5551 37.8804 60.7342 38.6079 60.4081C40.7904 59.4046 43.0733 58.2256 45.3311 57.1218C46.0084 56.7455 46.6607 55.6166 45.9833 55.9427Z" fill="black"/>
<path d="M46.0841 56.1434C44.2528 57.473 42.3462 58.8778 40.4396 60.4332C39.8125 60.9349 39.4863 62.0136 40.0633 61.6122C41.8695 60.3328 43.8263 58.7775 45.7078 57.2723C46.3099 56.7705 46.636 55.742 46.0841 56.1434Z" fill="black"/>
<path d="M46.7362 57.5233C44.4031 58.878 42.2959 59.8313 40.2137 60.7595C39.5113 61.0605 38.8841 62.1643 39.5363 61.9385C41.5934 61.1859 43.9767 59.9316 46.3599 58.5017C47.0874 58.0752 47.4637 57.0968 46.7362 57.5233Z" fill="black"/>
</g>
<defs>
<clipPath id="clip0">
<rect width="189.679" height="145" fill="white"/>
</clipPath>
</defs>
</svg>
