<svg width="176" height="140" viewBox="0 0 176 140" fill="none" xmlns="http://www.w3.org/2000/svg">
<g clip-path="url(#clip0)">
<path fill-rule="evenodd" clip-rule="evenodd" d="M47.5477 65.1572C49.8957 66.3312 52.8307 68.0922 55.1787 69.5597C57.8202 71.0272 60.4617 72.2013 62.8097 73.9623C63.6902 92.1593 63.3967 112.998 63.1032 131.782C60.1682 131.782 57.5267 133.543 54.2982 135.891C52.5372 137.065 50.4827 139.706 48.7217 140C46.3737 140.293 43.7321 137.065 41.9711 135.597C39.6231 133.836 37.5686 132.662 35.8076 130.901C36.6881 112.998 35.2206 91.2788 36.3946 73.9623C39.9166 71.0272 44.3191 68.9727 47.5477 65.1572ZM47.5477 67.7987C45.1997 71.0272 41.3841 72.4947 38.4491 74.8428C42.8516 76.8973 44.9061 81.0063 49.8957 82.1803C53.1242 79.5388 57.5267 78.0713 60.4617 74.8428C55.7657 72.7883 52.2437 69.5597 47.5477 67.7987ZM37.5686 76.6038C37.5686 94.5073 37.5686 112.117 37.5686 130.021C41.0906 132.369 44.3191 135.597 48.1347 137.945C48.1347 120.042 48.1347 101.845 48.1347 83.9413C44.0256 82.1803 41.3841 78.0713 37.5686 76.6038ZM51.0697 87.1698C52.2437 86.2893 53.4177 85.1153 54.8852 84.2348C56.0592 83.3543 57.8202 81.5933 59.2877 82.4738C56.6462 85.4088 52.5372 86.8763 50.1892 90.1048C53.7112 89.5178 57.2332 84.5283 61.0487 84.8218C58.1137 88.0503 52.5372 88.9308 50.1892 93.0398C51.6567 92.7463 53.4177 91.2788 55.1787 90.3983C56.9397 89.5178 58.9942 87.7568 60.4617 88.3438C57.8202 91.5723 53.1242 92.1593 50.1892 95.0943C50.1892 95.3878 49.8957 96.2683 50.4827 96.5618C51.9502 95.6813 53.4177 94.5073 55.1787 93.3333C56.6462 92.4528 58.7007 90.6918 60.1682 91.2788C58.9942 93.0398 56.9397 93.9203 54.8852 95.0943C53.1242 96.2683 50.4827 96.8553 50.1892 99.4968C53.4177 98.6163 56.3527 94.8008 59.2877 95.0943C58.4072 96.5618 56.3527 97.7358 54.5917 98.6163C53.1242 99.4968 49.8957 100.084 50.4827 102.432C53.7112 100.084 57.5267 98.0293 61.3422 96.2683C61.0487 90.1048 61.6357 83.0608 61.0487 77.1908C57.5267 79.5388 53.7112 81.5933 50.1892 83.9413C50.1892 84.5283 50.1892 85.1153 50.1892 85.4088C52.8307 84.2348 56.0592 79.2453 59.8747 80.1258C57.2332 82.7673 52.8307 84.8218 51.0697 87.1698ZM60.7552 97.7358C57.5267 99.7903 53.1242 102.138 50.1892 103.899C50.4827 107.128 49.8957 110.943 50.4827 113.878C51.9502 112.704 54.0047 111.53 55.7657 110.65C57.8202 109.769 60.4617 109.182 61.0487 107.128C58.1137 107.715 55.1787 111.53 51.9502 111.53C54.0047 108.302 58.4072 107.421 61.0487 105.073C60.7552 102.725 61.6357 99.2033 60.7552 97.7358ZM51.3632 133.249C51.3632 131.195 54.2982 130.314 55.7657 129.434C57.5267 128.553 59.2877 126.499 61.0487 127.086C61.0487 128.26 59.5812 128.26 58.9942 129.14C60.1682 128.847 59.5812 130.021 60.1682 130.314C61.9292 129.727 61.3422 127.379 61.3422 125.912C61.3422 120.335 61.3422 114.465 61.3422 109.182C59.5812 110.063 57.5267 111.237 55.4722 112.411C53.7112 113.291 50.4827 114.172 50.1892 116.52C51.6567 115.639 53.1242 115.052 54.5917 114.172C56.0592 113.291 57.2332 111.53 58.9942 111.824C57.5267 115.346 53.4177 116.226 50.1892 117.987C50.4827 124.151 49.8957 130.901 50.4827 136.771C50.7762 136.184 51.6567 136.184 51.9502 135.304C51.0697 135.597 51.3632 134.717 51.3632 134.13C54.2982 133.249 56.9397 131.195 58.4072 129.434C55.7657 130.608 54.0047 132.075 51.3632 133.249Z" fill="black"/>
<path fill-rule="evenodd" clip-rule="evenodd" d="M60.1684 99.7903C59.2879 101.551 57.2334 102.432 55.4724 103.606C53.7114 104.78 52.2439 106.247 50.4829 106.834C50.4829 104.78 52.8309 103.899 54.2984 102.725C56.0594 101.551 57.5269 100.377 59.2879 99.4968C59.8749 99.4968 59.8749 99.7903 60.1684 99.7903Z" fill="black"/>
<path fill-rule="evenodd" clip-rule="evenodd" d="M59.8745 103.312C59.2875 105.073 57.233 106.247 55.472 107.128C53.711 108.008 51.6565 109.182 50.189 109.182C52.2435 106.247 56.646 105.954 58.994 103.019C59.581 103.019 59.581 103.019 59.8745 103.312Z" fill="black"/>
<path fill-rule="evenodd" clip-rule="evenodd" d="M60.1679 112.998C60.7549 115.346 57.5264 116.227 55.7654 117.107C54.0044 117.988 51.9499 119.749 50.1889 119.455C49.8954 117.988 51.6564 117.988 52.5369 117.401C54.8849 116.227 57.8199 114.759 59.5809 112.998C59.8744 112.998 59.8744 112.998 60.1679 112.998Z" fill="black"/>
<path fill-rule="evenodd" clip-rule="evenodd" d="M59.8749 117.107C58.7009 118.281 56.9398 119.162 55.4723 119.749C54.0048 120.629 52.5373 121.51 51.0698 122.097C51.3633 118.868 56.0593 118.281 58.4073 116.52C59.2879 116.814 59.8749 116.52 59.8749 117.107Z" fill="black"/>
<path fill-rule="evenodd" clip-rule="evenodd" d="M59.5814 119.748C57.5269 122.683 53.7114 124.738 50.4829 125.325C52.2439 122.39 56.3529 121.803 58.7009 119.455C58.9944 119.161 59.2879 119.455 59.5814 119.748Z" fill="black"/>
<path fill-rule="evenodd" clip-rule="evenodd" d="M60.4619 121.509C59.2879 124.738 54.8854 125.031 52.8309 127.673C55.4724 127.086 57.5269 124.444 60.1684 124.738C59.5814 126.499 57.2334 127.086 55.7659 127.966C54.2984 128.847 52.2439 130.021 50.4829 130.021C50.1894 128.847 51.3634 128.847 51.9504 128.553C51.9504 128.26 51.0699 128.26 51.3634 127.966C53.1244 125.031 57.2334 124.151 59.5814 121.803C60.1684 121.216 60.1684 121.509 60.4619 121.509Z" fill="black"/>
<path fill-rule="evenodd" clip-rule="evenodd" d="M137.358 10.2725C136.771 12.6205 136.478 14.9686 136.771 17.6101C138.239 54.2977 136.478 94.5073 137.358 132.369C133.249 132.956 129.14 135.304 125.325 137.652C124.151 138.239 122.39 139.413 121.509 139.413C119.748 139.413 117.694 136.478 116.226 135.304C113.291 133.249 109.182 131.488 105.66 130.021C105.66 98.3228 105.66 59.2872 105.66 25.5346C105.66 20.5451 104.78 14.3815 105.66 10.566C106.247 8.51153 110.65 6.45702 113.291 5.28302C117.4 3.52201 118.574 1.761 121.509 0.293499C123.857 -0.880506 124.738 2.0545 126.792 3.22851C129.727 5.57652 134.717 7.92453 137.358 10.2725ZM121.803 1.4675C117.987 5.28302 112.117 6.75052 108.008 10.2725C111.824 13.7945 116.226 16.4361 120.335 19.6646C124.444 16.1426 130.314 14.3815 133.836 9.97903C130.608 6.75052 125.031 5.28302 121.803 1.4675ZM121.803 21.4256C125.912 19.9581 128.26 16.7296 132.075 15.2621C132.369 15.5556 132.662 15.8491 132.662 16.7296C132.369 17.6101 131.488 17.0231 130.901 17.3166C129.727 18.7841 127.673 19.6646 125.912 20.5451C124.444 21.4256 122.096 22.5996 121.509 24.6541C125.325 22.0126 129.727 19.6646 133.543 17.0231C133.836 17.0231 134.13 17.0231 134.423 17.3166C134.13 15.2621 135.01 14.3815 135.01 12.327C130.901 15.5556 125.618 17.6101 121.803 21.4256ZM107.421 128.847C110.65 130.021 113.878 131.782 116.52 133.249C117.987 134.13 118.868 136.184 120.042 135.891C120.042 108.595 120.042 81.0063 120.042 54.8847C120.042 45.7862 120.922 36.3941 120.042 27.5891C120.042 26.4151 120.042 24.9476 118.868 24.3606C119.161 23.4801 120.042 23.1866 119.748 21.4256C115.346 18.4906 111.53 15.2621 107.421 12.327C107.421 51.0692 107.421 90.1048 107.421 128.847ZM129.434 133.249C131.488 132.662 133.249 131.488 135.304 130.901C135.304 125.618 135.304 120.335 135.304 115.052C133.543 116.226 131.782 117.4 129.727 118.281C127.966 119.161 126.205 121.216 123.857 120.922C126.792 117.694 132.369 115.933 135.304 113.585C135.304 108.889 135.304 104.486 135.304 99.7904C132.956 100.671 131.195 102.138 129.14 103.312C127.086 104.486 124.738 105.954 122.977 106.541C123.564 104.193 126.205 103.019 127.966 102.138C130.021 100.964 132.075 99.7904 134.13 98.9099C134.423 98.3229 135.597 99.4968 135.597 98.3228C135.597 95.9748 135.597 93.3333 135.597 90.9853C132.662 93.0398 129.14 95.0943 126.499 97.1488C125.618 97.7358 124.738 99.2033 123.27 98.6163C124.151 96.5618 126.499 95.3878 128.26 94.2138C130.901 92.4528 132.956 90.6918 135.597 89.5178C135.597 78.0713 135.597 66.6247 135.597 55.4717C133.836 56.0587 132.369 57.5262 130.608 58.7002C129.14 59.8742 127.379 61.3417 125.325 61.0482C126.499 59.5807 128.553 58.4067 130.021 57.2327C131.782 56.0587 133.249 54.8847 135.304 54.0042C135.304 52.2432 135.304 50.7757 135.304 49.0147C132.075 51.3627 128.26 53.1237 125.325 55.4717C124.444 56.3522 123.564 57.8197 122.096 57.5262C122.683 54.8847 125.618 54.0042 127.379 52.5367C129.434 51.0692 131.488 49.6017 133.543 48.1342C133.836 47.5472 135.304 48.1342 135.01 47.5472C134.423 37.5681 135.891 25.8281 134.13 17.3166C130.314 20.5451 125.031 22.3061 121.509 25.8281C121.803 29.0566 121.803 32.8721 121.803 36.3941C124.151 35.5136 126.205 34.0461 127.966 32.5786C130.021 31.1111 131.782 29.3501 134.13 29.0566C132.956 31.4046 130.608 32.5786 128.847 34.0461C126.792 35.5136 124.738 37.2746 121.803 37.5681C122.096 39.3291 121.509 41.9706 122.096 43.4382C123.564 41.6771 125.912 40.5031 127.673 39.0356C129.434 37.5681 131.488 35.5136 133.836 35.8071C132.662 37.8616 130.021 38.7421 128.26 40.2096C126.205 41.6771 124.738 43.1446 122.977 44.6122C122.096 44.9057 121.803 43.4381 121.803 44.6122C121.803 45.1992 121.509 46.6667 122.096 46.9602C123.857 45.4927 126.499 44.3187 128.26 42.8512C130.314 41.3836 131.782 39.0356 134.13 38.7421C132.956 41.0901 130.608 42.5576 128.847 44.0252C126.792 45.4927 124.151 46.6667 121.803 48.1342C121.803 53.7107 121.803 59.2872 121.803 64.8637C123.857 63.6897 125.912 62.2222 127.966 61.0482C130.021 59.8742 132.075 57.8197 134.423 57.8197C132.075 61.0482 127.673 62.8092 124.444 64.8637C123.27 65.4507 121.803 66.0377 121.509 67.5052C125.031 66.3312 128.26 61.9287 132.369 61.3417C130.314 63.9832 126.499 65.7442 123.857 67.5052C122.977 68.0922 121.216 68.9727 121.509 70.4402C125.031 68.9727 128.553 64.5702 132.956 63.6897C132.075 66.0377 129.434 66.6247 127.673 68.0922C125.912 69.5597 124.151 71.3208 121.509 71.9078C121.803 74.5493 121.216 78.0713 121.803 80.4193C123.564 78.9518 125.325 77.4843 127.379 76.0168C129.14 74.5493 131.195 72.4948 133.543 72.7883C129.727 76.0168 126.205 79.2453 121.509 81.5933C121.509 83.0608 121.509 84.2348 121.509 85.7023C123.27 84.5283 125.031 83.3543 127.086 81.8868C129.14 80.7128 130.608 78.3648 132.956 78.3648C130.314 82.1803 125.031 84.8218 121.509 87.1698C121.509 91.8658 121.509 96.5618 121.509 101.258C123.27 100.084 125.912 98.9099 127.966 97.4423C130.314 95.9748 131.782 93.3333 134.13 93.0398C132.075 97.4423 126.792 98.9099 122.977 101.845C125.618 100.964 128.26 97.7358 130.901 98.6163C128.553 100.964 125.031 102.138 122.39 103.899C122.096 102.725 122.39 102.432 121.216 102.138C121.216 112.117 121.216 122.39 121.216 132.369C123.857 130.314 127.673 129.14 130.314 127.379C131.195 126.792 131.782 125.031 133.249 125.618C131.195 130.608 123.857 130.314 121.216 134.717C125.325 133.836 129.434 130.021 133.543 129.14C133.836 131.488 130.021 131.782 129.434 133.249ZM122.096 136.771C122.977 136.771 125.618 135.597 125.325 134.717C124.444 135.597 122.683 135.597 122.096 136.771Z" fill="black"/>
<path fill-rule="evenodd" clip-rule="evenodd" d="M133.836 20.8387C132.956 22.8932 130.314 23.4802 128.553 24.6542C126.792 25.8282 124.738 27.5892 122.683 27.2957C125.031 24.0672 129.727 23.1867 132.662 20.5452C133.249 20.5452 133.543 20.8387 133.836 20.8387Z" fill="black"/>
<path fill-rule="evenodd" clip-rule="evenodd" d="M135.011 23.7737C133.837 26.1217 130.902 26.7087 128.847 27.8827C126.499 29.0567 124.445 30.8177 122.39 31.1112C123.271 28.7632 125.912 28.1762 127.967 27.0022C130.315 25.8282 132.369 24.9477 134.13 23.7737C134.717 23.1867 134.717 23.4802 135.011 23.7737Z" fill="black"/>
<path fill-rule="evenodd" clip-rule="evenodd" d="M134.423 26.1213C134.423 28.1758 131.195 29.3498 129.14 30.8174C127.379 32.2849 125.031 34.6329 122.683 34.0459C122.683 32.5784 124.151 32.8719 125.031 32.2849C127.966 30.5239 130.608 27.8823 133.836 26.1213C133.836 26.1213 134.13 26.1213 134.423 26.1213Z" fill="black"/>
<path fill-rule="evenodd" clip-rule="evenodd" d="M134.717 32.285C133.543 34.046 131.195 35.5135 129.434 36.6875C127.673 37.8615 125.619 39.6225 123.271 39.916C124.151 37.8615 126.793 36.981 128.554 35.807C130.315 34.633 132.076 33.1655 133.837 31.9915C134.13 31.9915 134.424 32.285 134.717 32.285Z" fill="black"/>
<path fill-rule="evenodd" clip-rule="evenodd" d="M133.836 42.8509C132.956 44.9054 130.314 46.0794 128.553 47.2534C126.792 48.7209 125.031 50.7755 122.683 50.482C125.325 46.9599 129.727 45.1989 132.956 42.2639C133.543 42.5574 133.543 42.5574 133.836 42.8509Z" fill="black"/>
<path fill-rule="evenodd" clip-rule="evenodd" d="M134.717 44.9058C133.837 46.9603 131.195 48.1343 129.434 49.3083C127.673 50.4823 125.619 52.5368 123.271 52.5368C125.912 49.0148 130.608 47.5473 133.837 44.6123C134.424 44.3188 134.424 44.6123 134.717 44.9058Z" fill="black"/>
<path fill-rule="evenodd" clip-rule="evenodd" d="M134.717 52.5365C133.543 54.2975 131.195 55.765 129.434 57.2325C127.673 58.7 125.619 60.1675 123.271 60.461C123.564 58.7 126.499 57.526 128.26 56.0585C130.021 54.591 132.076 53.417 133.543 51.9495C134.13 52.243 134.424 52.5365 134.717 52.5365Z" fill="black"/>
<path fill-rule="evenodd" clip-rule="evenodd" d="M134.717 66.6247C133.543 68.3857 131.195 69.5597 129.434 71.0272C127.673 72.2012 125.618 74.2557 123.564 74.2557C126.205 70.7337 130.315 69.2662 133.543 66.6247C134.13 66.3312 134.424 66.3312 134.717 66.6247Z" fill="black"/>
<path fill-rule="evenodd" clip-rule="evenodd" d="M134.717 69.8534C133.543 71.6144 131.195 73.0819 129.14 74.2559C127.086 75.7234 125.031 77.1909 122.977 77.4844C123.857 75.1364 126.205 74.5494 128.26 73.0819C130.021 71.9079 131.782 70.4404 133.543 69.2664C134.13 69.5599 134.423 69.5599 134.717 69.8534Z" fill="black"/>
<path fill-rule="evenodd" clip-rule="evenodd" d="M133.543 75.7235C132.369 77.4845 130.315 78.952 128.26 80.4195C126.499 81.5935 124.445 83.3545 122.39 83.648C122.977 81.5935 125.325 80.713 127.086 79.2455C128.847 78.0715 130.608 76.604 132.369 75.1365C132.956 75.43 133.25 75.7235 133.543 75.7235Z" fill="black"/>
<path fill-rule="evenodd" clip-rule="evenodd" d="M134.424 81.0064C132.076 83.9414 128.847 85.9959 125.619 88.3439C124.738 88.9309 123.564 90.3984 122.39 89.8114C125.325 85.9959 130.021 83.9414 133.543 80.7129C133.837 80.7129 134.13 80.7129 134.424 81.0064Z" fill="black"/>
<path fill-rule="evenodd" clip-rule="evenodd" d="M133.836 84.2346C133.543 86.5826 130.608 87.4631 128.847 88.9306C127.086 90.3981 125.031 92.4526 122.683 93.0396C123.27 90.6916 125.912 89.5176 127.673 88.3436C129.434 86.8761 131.195 85.7021 132.956 84.2346C133.249 84.2346 133.543 84.2346 133.836 84.2346Z" fill="black"/>
<path fill-rule="evenodd" clip-rule="evenodd" d="M133.836 87.7566C133.836 90.1046 130.901 91.2786 129.14 92.4526C127.379 93.6266 125.325 95.6811 122.977 95.6811C125.618 92.4526 130.314 90.9851 132.956 87.7566C133.543 87.7566 133.836 87.7566 133.836 87.7566Z" fill="black"/>
<path fill-rule="evenodd" clip-rule="evenodd" d="M134.717 101.845C133.543 104.193 130.902 105.367 128.847 106.541C126.793 107.715 124.738 109.476 122.39 110.357C122.684 108.302 125.325 107.128 127.38 105.954C129.728 104.78 132.076 103.313 133.837 101.552C134.424 101.552 134.424 101.845 134.717 101.845Z" fill="black"/>
<path fill-rule="evenodd" clip-rule="evenodd" d="M134.424 106.247C133.543 108.302 130.902 109.182 129.141 110.356C127.086 111.53 125.325 113.291 123.271 113.585C123.858 111.53 126.206 110.65 127.673 109.769C129.728 108.595 131.782 107.421 133.25 106.247C133.837 105.954 134.13 105.954 134.424 106.247Z" fill="black"/>
<path fill-rule="evenodd" clip-rule="evenodd" d="M133.836 109.183C133.249 110.944 130.901 112.118 129.433 113.292C127.966 114.466 126.205 116.227 124.15 115.933C126.205 112.998 130.314 111.824 132.662 108.889C133.249 108.889 133.542 109.183 133.836 109.183Z" fill="black"/>
<path fill-rule="evenodd" clip-rule="evenodd" d="M134.717 111.824C134.423 114.172 131.488 115.052 129.434 116.226C127.379 117.4 125.031 118.575 122.977 119.455C122.977 116.813 126.205 116.52 128.26 115.346C130.314 114.172 132.369 112.998 134.13 111.824C134.423 111.824 134.717 111.824 134.717 111.824Z" fill="black"/>
<path fill-rule="evenodd" clip-rule="evenodd" d="M134.717 117.4C133.543 119.161 130.901 120.335 128.847 121.509C126.792 122.683 124.737 123.857 122.683 125.031C122.389 122.683 125.324 122.096 127.673 120.629C130.021 119.455 132.369 117.107 134.717 117.4Z" fill="black"/>
<path fill-rule="evenodd" clip-rule="evenodd" d="M134.717 120.336C133.836 122.39 131.195 123.271 129.14 124.738C127.086 125.912 125.031 127.673 122.683 127.673C123.857 125.912 126.205 125.032 127.966 124.151C130.021 122.977 132.075 121.803 133.836 120.336C134.13 120.042 134.423 120.042 134.717 120.336Z" fill="black"/>
<path fill-rule="evenodd" clip-rule="evenodd" d="M133.837 123.271C132.956 125.032 130.608 126.499 128.554 127.673C126.499 128.847 124.445 130.315 122.39 130.608C123.271 128.554 125.619 127.673 127.38 126.499C129.141 125.325 131.195 124.445 132.663 123.271C133.543 122.977 133.543 123.271 133.837 123.271Z" fill="black"/>
<path fill-rule="evenodd" clip-rule="evenodd" d="M175.514 10.2725C174.927 12.6205 174.633 14.9686 174.927 17.6101C176.394 54.2977 174.633 94.5073 175.514 132.369C171.405 132.956 167.296 135.304 163.48 137.652C162.306 138.239 160.545 139.413 159.665 139.413C157.904 139.413 155.849 136.478 154.382 135.304C151.447 133.249 147.338 131.488 143.816 130.021C143.816 98.3228 143.816 59.2872 143.816 25.5346C143.816 20.5451 142.935 14.3815 143.816 10.566C144.403 8.51153 148.805 6.45702 151.447 5.28302C155.556 3.52201 156.73 1.761 159.665 0.293499C162.013 -0.880506 162.893 2.0545 164.948 3.22851C167.883 5.57652 172.872 7.92453 175.514 10.2725ZM159.958 1.4675C156.143 5.28302 150.273 6.75052 146.164 10.2725C149.979 13.7945 154.382 16.4361 158.491 19.6646C162.6 16.1426 168.47 14.3815 171.992 9.97903C168.47 6.75052 163.187 5.28302 159.958 1.4675ZM159.958 21.4256C164.067 19.9581 166.415 16.7296 170.231 15.2621C170.524 15.5556 170.818 15.8491 170.818 16.7296C170.524 17.6101 169.644 17.0231 169.057 17.3166C167.883 18.7841 165.828 19.6646 164.067 20.5451C162.6 21.4256 160.252 22.5996 159.665 24.6541C163.48 22.0126 167.883 19.6646 171.698 17.0231C171.992 17.0231 172.285 17.0231 172.579 17.3166C172.285 15.2621 173.166 14.3815 173.166 12.327C169.057 15.5556 163.774 17.6101 159.958 21.4256ZM145.577 128.847C148.805 130.021 152.034 131.782 154.675 133.249C156.143 134.13 157.023 136.184 158.197 135.891C158.197 108.595 158.197 81.0063 158.197 54.8847C158.197 45.7862 159.078 36.3941 158.197 27.5891C158.197 26.4151 158.197 24.9476 157.023 24.3606C157.317 23.4801 158.197 23.1866 157.904 21.4256C153.501 18.4906 149.686 15.2621 145.577 12.327C145.577 51.0692 145.577 90.1048 145.577 128.847ZM167.589 133.249C169.644 132.662 171.405 131.488 173.459 130.901C173.459 125.618 173.459 120.335 173.459 115.052C171.698 116.226 169.937 117.4 167.883 118.281C166.122 119.161 164.361 121.216 162.013 120.922C164.948 117.694 170.524 115.933 173.459 113.585C173.459 108.889 173.459 104.486 173.459 99.7904C171.111 100.671 169.35 102.138 167.296 103.312C165.241 104.486 162.893 105.954 161.132 106.541C161.719 104.193 164.361 103.019 166.122 102.138C168.176 100.964 170.231 99.7904 172.285 98.9099C172.579 98.3229 173.753 99.4968 173.753 98.3228C173.753 95.9748 173.753 93.3333 173.753 90.9853C170.818 93.0398 167.296 95.0943 164.654 97.1488C163.774 97.7358 162.893 99.2033 161.426 98.6163C162.306 96.5618 164.654 95.3878 166.415 94.2138C169.057 92.4528 171.111 90.6918 173.753 89.5178C173.753 78.0713 173.753 66.6247 173.753 55.4717C171.992 56.0587 170.524 57.5262 168.763 58.7002C167.296 59.8742 165.535 61.3417 163.48 61.0482C164.654 59.5807 166.709 58.4067 168.176 57.2327C169.937 56.0587 171.698 54.8847 173.459 54.0042C173.459 52.2432 173.459 50.7757 173.459 49.0147C170.231 51.3627 166.415 53.1237 163.48 55.4717C162.6 56.3522 161.719 57.8197 160.252 57.5262C160.839 54.8847 163.774 54.0042 165.535 52.5367C167.589 51.0692 169.644 49.6017 171.698 48.1342C171.992 47.5472 173.459 48.1342 173.166 47.5472C172.579 37.5681 174.046 25.8281 172.285 17.3166C168.47 20.5451 163.187 22.3061 159.665 25.8281C159.958 29.0566 159.958 32.8721 159.958 36.3941C162.306 35.5136 164.361 34.0461 166.122 32.5786C168.176 31.1111 169.937 29.3501 172.285 29.0566C171.111 31.4046 168.763 32.5786 167.002 34.0461C164.948 35.5136 162.893 37.2746 159.958 37.5681C160.252 39.3291 159.665 41.9706 160.252 43.4382C161.719 41.6771 164.067 40.5031 165.828 39.0356C167.589 37.5681 169.644 35.5136 171.992 35.8071C170.818 37.8616 168.176 38.7421 166.415 40.2096C164.361 41.6771 162.893 43.1446 161.132 44.6122C160.252 44.9057 159.958 43.4381 159.958 44.6122C159.958 45.1992 159.665 46.6667 160.252 46.9602C162.013 45.4927 164.654 44.3187 166.415 42.8512C168.47 41.3836 169.937 39.0356 172.285 38.7421C171.111 41.0901 168.763 42.5576 167.002 44.0252C164.948 45.4927 162.306 46.6667 159.958 48.1342C159.958 53.7107 159.958 59.2872 159.958 64.8637C162.013 63.6897 164.067 62.2222 166.122 61.0482C168.176 59.8742 170.231 57.8197 172.579 57.8197C170.231 61.0482 165.828 62.8092 162.6 64.8637C161.426 65.4507 159.958 66.0377 159.665 67.5052C163.187 66.3312 166.415 61.9287 170.524 61.3417C168.47 63.9832 164.654 65.7442 162.013 67.5052C161.132 68.0922 159.371 68.9727 159.665 70.4402C163.187 68.9727 166.709 64.5702 171.111 63.6897C170.231 66.0377 167.589 66.6247 165.828 68.0922C164.067 69.5597 162.306 71.3208 159.665 71.9078C159.958 74.5493 159.371 78.0713 159.958 80.4193C161.719 78.9518 163.48 77.4843 165.535 76.0168C167.296 74.5493 169.35 72.4948 171.698 72.7883C167.883 76.0168 164.361 79.2453 159.665 81.5933C159.665 83.0608 159.665 84.2348 159.665 85.7023C161.426 84.5283 163.187 83.3543 165.241 81.8868C167.296 80.7128 168.763 78.3648 171.111 78.3648C168.47 82.1803 163.187 84.8218 159.665 87.1698C159.665 91.8658 159.665 96.5618 159.665 101.258C161.426 100.084 164.067 98.9099 166.122 97.4423C168.47 95.9748 169.937 93.3333 172.285 93.0398C170.231 97.4423 164.948 98.9099 161.132 101.845C163.774 100.964 166.415 97.7358 169.057 98.6163C166.709 100.964 163.187 102.138 160.545 103.899C160.252 102.725 160.545 102.432 159.371 102.138C159.371 112.117 159.371 122.39 159.371 132.369C162.013 130.314 165.828 129.14 168.47 127.379C169.35 126.792 169.937 125.031 171.405 125.618C169.35 130.608 162.013 130.314 159.371 134.717C163.48 133.836 167.589 130.021 171.698 129.14C171.992 131.488 168.176 131.782 167.589 133.249ZM160.252 136.771C161.132 136.771 163.774 135.597 163.48 134.717C162.6 135.597 160.839 135.597 160.252 136.771Z" fill="black"/>
<path fill-rule="evenodd" clip-rule="evenodd" d="M171.698 20.8387C170.818 22.8932 168.176 23.4802 166.415 24.6542C164.654 25.8282 162.6 27.5892 160.545 27.2957C162.893 24.0672 167.589 23.1867 170.524 20.5452C171.111 20.5452 171.698 20.8387 171.698 20.8387Z" fill="black"/>
<path fill-rule="evenodd" clip-rule="evenodd" d="M173.166 23.7735C171.992 26.1215 169.057 26.7085 167.002 27.8825C164.654 29.0565 162.6 30.8175 160.545 31.111C161.426 28.763 164.067 28.176 166.122 27.002C168.176 25.828 170.231 24.654 172.285 23.48C172.872 23.1865 172.872 23.48 173.166 23.7735Z" fill="black"/>
<path fill-rule="evenodd" clip-rule="evenodd" d="M172.578 26.1213C172.578 28.1758 169.35 29.3498 167.295 30.8174C165.534 32.2849 163.186 34.6329 160.838 34.0459C160.838 32.5784 162.306 32.8719 163.186 32.2849C166.121 30.5239 168.763 27.8823 171.991 26.1213C171.991 26.1213 172.285 26.1213 172.578 26.1213Z" fill="black"/>
<path fill-rule="evenodd" clip-rule="evenodd" d="M172.872 32.285C171.698 34.046 169.35 35.5135 167.589 36.6875C165.828 37.8615 163.774 39.6225 161.426 39.916C162.306 37.8615 164.948 36.981 166.709 35.807C168.47 34.633 170.231 33.1655 171.992 31.9915C172.285 31.9915 172.579 32.285 172.872 32.285Z" fill="black"/>
<path fill-rule="evenodd" clip-rule="evenodd" d="M171.991 42.8509C171.111 44.9054 168.469 46.0794 166.708 47.2534C164.947 48.7209 163.186 50.7755 160.838 50.482C163.48 46.9599 167.882 45.1989 171.111 42.2639C171.698 42.5574 171.698 42.5574 171.991 42.8509Z" fill="black"/>
<path fill-rule="evenodd" clip-rule="evenodd" d="M172.872 44.9058C171.992 46.9603 169.35 48.1343 167.589 49.3083C165.828 50.4823 163.774 52.5368 161.426 52.5368C164.067 49.0148 168.763 47.5473 171.992 44.6123C172.579 44.3188 172.579 44.6123 172.872 44.9058Z" fill="black"/>
<path fill-rule="evenodd" clip-rule="evenodd" d="M172.578 52.5365C171.404 54.2975 169.056 55.765 167.295 57.2325C165.534 58.7 163.48 60.1675 161.132 60.461C161.425 58.7 164.36 57.526 166.121 56.0585C167.882 54.591 169.937 53.417 171.404 51.9495C171.991 52.243 172.578 52.5365 172.578 52.5365Z" fill="black"/>
<path fill-rule="evenodd" clip-rule="evenodd" d="M172.872 66.6247C171.698 68.3857 169.35 69.5597 167.589 71.0272C165.828 72.2012 163.774 74.2557 161.719 74.2557C164.361 70.7337 168.47 69.2662 171.698 66.6247C172.285 66.3312 172.579 66.3312 172.872 66.6247Z" fill="black"/>
<path fill-rule="evenodd" clip-rule="evenodd" d="M172.578 69.8534C171.404 71.6144 169.056 73.0819 167.002 74.2559C164.947 75.7234 162.893 77.1909 160.838 77.4844C161.719 75.1364 164.067 74.5494 166.121 73.0819C167.882 71.9079 169.643 70.4404 171.404 69.2664C171.991 69.5599 172.578 69.5599 172.578 69.8534Z" fill="black"/>
<path fill-rule="evenodd" clip-rule="evenodd" d="M171.698 75.7235C170.524 77.4845 168.47 78.952 166.415 80.4195C164.654 81.5935 162.6 83.3545 160.545 83.648C161.132 81.5935 163.48 80.713 165.241 79.2455C167.002 78.0715 168.763 76.604 170.524 75.1365C171.111 75.43 171.405 75.7235 171.698 75.7235Z" fill="black"/>
<path fill-rule="evenodd" clip-rule="evenodd" d="M172.579 81.0064C170.231 83.9414 167.002 85.9959 163.774 88.3439C162.893 88.9309 161.719 90.3984 160.545 89.8114C163.48 85.9959 168.176 83.9414 171.698 80.7129C171.992 80.7129 172.285 80.7129 172.579 81.0064Z" fill="black"/>
<path fill-rule="evenodd" clip-rule="evenodd" d="M171.698 84.2346C171.405 86.5826 168.47 87.4631 166.709 88.9306C164.948 90.3981 162.893 92.4526 160.545 93.0396C161.132 90.6916 163.774 89.5176 165.535 88.3436C167.296 86.8761 169.057 85.7021 170.818 84.2346C171.405 84.2346 171.698 84.2346 171.698 84.2346Z" fill="black"/>
<path fill-rule="evenodd" clip-rule="evenodd" d="M171.991 87.7566C171.991 90.1046 169.056 91.2786 167.295 92.4526C165.534 93.6266 163.48 95.6811 161.132 95.6811C163.773 92.4526 168.469 90.9851 171.111 87.7566C171.698 87.7566 171.698 87.7566 171.991 87.7566Z" fill="black"/>
<path fill-rule="evenodd" clip-rule="evenodd" d="M172.872 101.845C171.698 104.193 169.057 105.367 167.002 106.541C164.948 107.715 162.893 109.476 160.545 110.357C160.839 108.302 163.48 107.128 165.535 105.954C167.883 104.78 170.231 103.313 171.992 101.552C172.579 101.552 172.579 101.845 172.872 101.845Z" fill="black"/>
<path fill-rule="evenodd" clip-rule="evenodd" d="M172.579 106.247C171.698 108.302 169.057 109.182 167.296 110.356C165.241 111.53 163.48 113.291 161.426 113.585C162.013 111.53 164.361 110.65 165.828 109.769C167.883 108.595 169.937 107.421 171.405 106.247C171.992 105.954 172.285 105.954 172.579 106.247Z" fill="black"/>
<path fill-rule="evenodd" clip-rule="evenodd" d="M171.699 109.183C171.112 110.944 168.764 112.118 167.296 113.292C165.829 114.466 164.068 116.227 162.013 115.933C164.068 112.998 168.177 111.824 170.525 108.889C171.112 108.889 171.699 109.183 171.699 109.183Z" fill="black"/>
<path fill-rule="evenodd" clip-rule="evenodd" d="M172.872 111.824C172.578 114.172 169.643 115.052 167.589 116.226C165.534 117.4 163.186 118.575 161.132 119.455C161.132 116.813 164.36 116.52 166.415 115.346C168.469 114.172 170.524 112.998 172.285 111.824C172.578 111.824 172.578 111.824 172.872 111.824Z" fill="black"/>
<path fill-rule="evenodd" clip-rule="evenodd" d="M172.872 117.4C171.698 119.161 169.056 120.335 167.002 121.509C164.947 122.683 162.893 123.857 160.838 125.031C160.545 122.683 163.48 122.096 165.828 120.629C168.176 119.455 170.524 117.107 172.872 117.4Z" fill="black"/>
<path fill-rule="evenodd" clip-rule="evenodd" d="M172.579 120.336C171.698 122.39 169.057 123.271 167.002 124.738C164.948 125.912 162.893 127.673 160.545 127.673C161.426 125.912 164.067 125.032 165.828 124.151C167.883 122.977 169.937 121.803 171.698 120.336C171.992 120.042 172.579 120.042 172.579 120.336Z" fill="black"/>
<path fill-rule="evenodd" clip-rule="evenodd" d="M171.992 123.271C171.111 125.032 168.763 126.499 166.709 127.673C164.654 128.847 162.6 130.315 160.545 130.608C161.426 128.554 163.774 127.673 165.535 126.499C167.296 125.325 169.35 124.445 170.818 123.271C171.698 122.977 171.698 123.271 171.992 123.271Z" fill="black"/>
<path fill-rule="evenodd" clip-rule="evenodd" d="M27.2956 94.5073C26.7086 106.541 27.2956 119.455 27.0021 132.075C23.1866 134.423 19.6646 137.065 15.8491 139.413C9.39203 137.945 5.28302 134.423 0 131.782C0.587002 120.629 0 108.302 0.293501 96.8553C4.98952 95.0943 8.51153 90.9853 12.0335 88.6373C12.327 88.0503 12.327 88.0503 12.914 88.0503C18.1971 88.0503 22.8931 92.4528 27.2956 94.5073ZM13.2075 89.8113C9.97904 91.8658 7.63103 95.0943 4.10901 97.1488C7.92453 98.3228 11.4465 99.7903 15.2621 101.258C18.7841 99.7903 21.7191 97.7358 24.3606 95.0943C20.8386 93.0398 17.6101 90.6918 13.2075 89.8113ZM24.6541 97.4423C22.5996 99.2033 19.9581 100.671 17.6101 101.845C16.7296 102.138 15.2621 102.432 15.5556 103.899C18.1971 103.606 20.8386 98.9098 23.7736 99.7903C21.7191 102.432 17.0231 103.606 15.5556 106.247C18.1971 105.073 20.5451 101.258 23.7736 102.138C22.5996 103.606 20.8386 103.899 19.3711 105.073C17.9036 105.954 15.8491 106.834 15.2621 108.595C17.9036 108.008 21.1321 103.899 24.3606 104.486C22.0126 107.128 18.1971 108.008 15.2621 110.356C15.2621 111.824 15.2621 113.291 15.2621 114.759C18.4906 112.704 21.4256 110.65 24.9476 108.595C24.9476 104.78 24.9476 100.964 24.9476 97.1488C25.2411 97.4423 24.9476 97.4423 24.6541 97.4423ZM2.34801 98.6163C2.05451 98.6163 1.76101 98.9098 1.76101 99.2033C1.76101 109.769 1.76101 120.042 1.76101 130.608C5.87002 132.369 9.09853 135.01 13.7945 136.478C13.7945 124.444 13.7945 114.759 13.7945 102.432C10.566 100.964 7.04402 99.4968 2.34801 98.6163ZM23.7736 122.977C24.3606 125.031 22.0126 125.618 20.5451 126.499C19.0776 127.673 17.6101 128.847 16.4361 129.727C15.8491 130.021 15.5556 129.14 15.5556 130.021C15.5556 131.488 15.5556 132.662 15.5556 134.13C19.0776 132.662 21.1321 128.847 24.6541 128.26C22.5996 131.782 18.4906 133.249 15.5556 135.891C15.5556 136.184 15.2621 137.065 15.8491 137.065C18.4906 134.717 22.0126 132.075 24.9476 130.901C25.5346 124.444 24.9476 117.107 25.2411 110.356C22.0126 112.411 18.1971 114.172 15.5556 117.107C18.4906 116.226 20.8386 112.411 23.7736 112.704C22.8931 114.172 21.1321 115.052 19.6646 115.933C18.1971 116.813 15.8491 117.4 15.5556 119.455C18.1971 118.574 20.8386 114.759 24.0671 114.172C22.8931 117.987 15.5556 118.574 15.5556 123.27C18.7841 121.509 21.1321 117.694 24.3606 117.107C23.7736 119.161 21.4256 120.042 19.9581 121.509C18.4906 122.977 17.0231 124.444 15.5556 125.618C15.5556 126.792 15.2621 128.26 15.8491 128.847C18.1971 126.499 21.1321 125.031 23.7736 122.977Z" fill="black"/>
<path fill-rule="evenodd" clip-rule="evenodd" d="M22.0122 109.182C22.3057 110.65 19.9576 111.237 19.0771 111.824C18.1966 112.411 17.0226 114.172 15.8486 113.291C17.3161 111.53 19.9576 109.476 22.0122 109.182Z" fill="black"/>
<path fill-rule="evenodd" clip-rule="evenodd" d="M16.1426 127.379C16.7296 125.618 18.4906 124.738 19.9581 123.564C21.1321 122.683 22.8931 120.922 24.3606 121.216C22.8931 124.151 19.3711 125.031 17.3166 127.379C17.0231 127.379 16.7296 127.673 16.1426 127.379Z" fill="black"/>
<path fill-rule="evenodd" clip-rule="evenodd" d="M24.9476 126.205C24.0671 127.966 22.0126 128.847 20.5451 129.727C19.0776 130.901 17.9036 132.662 16.1426 132.956C17.3166 129.14 21.4256 128.553 23.4801 125.912C24.0671 125.912 24.6541 125.912 24.9476 126.205Z" fill="black"/>
<path fill-rule="evenodd" clip-rule="evenodd" d="M97.4416 89.2239C94.8 92.1589 91.278 94.2135 88.0495 96.5615C87.756 94.507 90.104 93.6264 91.5715 92.4524C93.3325 91.2784 95.0935 90.1044 96.561 88.9304C96.8546 88.9304 97.4416 89.2239 97.4416 89.2239Z" fill="black"/>
<path fill-rule="evenodd" clip-rule="evenodd" d="M96.5618 92.453C95.9748 94.214 94.2138 95.388 92.7463 96.8555C91.5723 98.0295 90.1048 99.7905 88.3438 100.084C88.3438 98.6165 90.3983 97.149 91.5723 95.975C92.7463 94.801 94.2138 93.3335 95.6813 92.453C96.2683 92.1595 96.2683 92.453 96.5618 92.453Z" fill="black"/>
<path fill-rule="evenodd" clip-rule="evenodd" d="M97.7354 114.172C95.3874 117.107 90.9849 117.987 87.7563 120.335C88.3433 116.52 93.9199 116.226 96.5614 114.172C97.1484 113.878 97.4419 114.172 97.7354 114.172Z" fill="black"/>
<path fill-rule="evenodd" clip-rule="evenodd" d="M97.4419 116.813C96.8549 118.574 94.5069 119.455 93.0394 120.335C91.2784 121.216 89.5174 122.683 87.7563 122.683C89.2239 119.455 94.2134 119.161 96.5614 116.52C96.8549 116.52 97.1484 116.813 97.4419 116.813Z" fill="black"/>
<path fill-rule="evenodd" clip-rule="evenodd" d="M100.084 54.8845C100.084 81.0061 100.377 106.247 100.084 132.075C97.442 133.836 93.0395 135.891 90.1045 137.358C88.9305 137.945 87.463 139.413 86.5825 139.706C85.4085 139.706 81.593 136.771 80.4189 136.184C77.1904 133.836 75.1359 132.662 71.9074 131.195C71.6139 112.117 71.6139 85.9956 71.6139 64.5701C71.6139 61.3416 71.0269 57.2325 71.6139 55.178C72.2009 53.417 76.0164 51.9495 77.7774 50.7755C80.7125 49.308 82.767 48.4275 84.528 46.96C85.702 45.786 90.1045 48.721 91.8655 49.895C92.746 50.482 93.0395 51.656 94.2135 52.243C95.9745 53.1235 98.616 53.1235 100.084 54.8845ZM85.4085 48.4275C82.18 51.069 77.4839 52.243 74.2554 54.8845C78.9514 57.2325 82.4735 60.4611 86.289 63.3961C88.9305 59.874 93.6265 58.113 96.855 55.178C92.159 54.004 89.811 50.1885 85.4085 48.4275ZM85.4085 74.2556C85.4085 71.6141 85.702 67.5051 85.115 65.4506C84.528 63.6896 81.593 61.9286 79.832 60.7546C77.1904 58.9935 75.1359 56.6455 73.3749 56.6455C73.3749 80.7126 73.3749 104.78 73.3749 129.14C76.3099 131.195 79.832 133.249 82.767 135.01C83.6475 135.597 84.528 136.771 85.4085 136.478C85.115 117.107 85.9955 94.2137 85.4085 74.2556ZM87.1695 66.3311C89.811 63.6896 92.746 61.6351 95.9745 59.5805C96.5615 61.9286 93.6265 62.5156 92.4525 63.6896C90.6915 64.8636 89.224 66.0376 88.05 67.2116C87.1695 67.2116 87.1695 66.9181 87.1695 67.7986C90.398 67.2116 92.746 62.5156 96.268 62.5156C95.3875 64.2766 93.333 65.4506 91.572 66.9181C89.811 68.0921 87.1695 69.2661 87.1695 71.3206C88.637 70.7336 90.398 68.9726 92.159 67.7986C93.6265 66.6246 95.681 64.5701 97.7355 65.4506C95.094 67.5051 92.4525 69.5596 89.811 71.6141C88.9305 72.2011 87.463 72.7881 87.463 73.9621C89.224 73.6686 90.985 71.9076 92.746 70.7336C94.507 69.5596 96.268 67.7986 98.029 68.3856C96.5615 70.1466 94.507 71.3206 92.746 72.7881C90.985 73.9621 88.05 74.5491 87.463 77.1906C90.1045 76.6036 93.333 71.6141 96.268 72.2011C95.3875 73.9621 93.333 74.5491 91.8655 75.7231C90.398 76.8971 88.3435 78.0711 87.463 79.8321C88.9305 79.2451 90.6915 78.0711 92.4525 76.8971C93.92 75.7231 95.681 73.3751 97.442 74.5491C95.9745 76.3101 94.2135 77.1906 92.159 78.6581C90.398 79.8321 87.7565 80.7126 87.463 83.0606C91.2785 81.2996 94.2135 78.6581 98.3225 76.8971C98.029 70.4401 98.616 63.3961 98.029 57.2325C94.507 59.874 88.637 61.9286 87.1695 66.3311ZM97.7355 77.7776C95.9745 78.9516 93.92 80.1256 92.159 81.0061C90.398 81.8866 87.7565 83.0606 87.463 85.4086C88.9305 84.8216 90.398 83.6476 91.8655 82.4736C93.0395 81.5931 94.8005 79.5386 96.268 80.4191C93.92 83.0606 90.1045 84.8216 87.1695 87.1696C87.1695 88.9307 87.1695 90.3982 87.1695 92.1592C90.398 90.1047 93.92 86.8761 98.029 85.1151C98.029 84.5281 98.029 83.6476 98.029 83.0606C95.3875 84.8216 92.4525 86.8761 90.1045 88.6372C89.224 89.2242 88.9305 90.6917 87.7565 90.1047C88.3435 87.7566 90.985 86.5826 92.4525 85.4086C94.2135 83.9411 95.681 82.1801 98.029 81.5931C98.029 80.7126 98.9095 78.3646 97.7355 77.7776ZM87.463 93.9202C87.7565 96.8552 87.1695 100.377 87.7565 103.019C88.9305 101.845 90.6915 100.377 92.159 99.4967C93.92 98.3227 95.681 97.1487 97.442 96.8552C96.855 99.2032 94.2135 99.7902 92.4525 100.964C90.6915 102.138 89.224 103.899 87.463 105.367C87.463 105.954 87.1695 107.128 87.7565 107.128C88.637 106.541 89.811 105.954 90.985 105.66C90.985 105.073 90.985 104.486 91.572 104.486C94.2135 103.899 95.681 100.964 98.029 100.964C98.029 102.432 96.855 102.432 96.855 103.606C95.3875 104.486 93.6265 105.66 91.8655 106.541C90.398 107.421 87.7565 107.715 87.463 110.063C88.637 109.476 90.398 108.595 92.4525 107.715C93.92 106.834 96.268 104.78 97.7355 106.247C97.442 106.834 96.268 106.834 95.681 107.128C93.333 109.476 87.7565 109.476 87.463 113.291C90.398 111.53 93.92 108.889 98.3225 108.008C98.029 100.964 98.616 93.3332 98.029 86.8761C94.507 88.9307 91.2785 91.5722 87.463 93.9202ZM97.442 109.182C95.3875 110.063 93.6265 110.943 91.8655 112.117C90.398 112.998 87.7565 113.878 87.463 116.226C88.9305 115.933 90.6915 114.465 92.4525 113.291C94.2135 112.117 95.9745 110.356 97.7355 110.943C94.8005 113.878 90.6915 115.639 87.463 117.987C87.463 121.509 87.463 124.738 87.463 128.26C88.9305 127.379 90.985 126.205 92.746 125.325C94.507 124.444 96.268 122.683 98.029 123.27C95.3875 126.792 89.5175 126.792 87.7565 131.195C90.398 130.314 94.2135 126.205 97.7355 126.499C95.9745 128.847 92.159 129.727 89.811 131.488C88.9305 132.075 87.7565 133.249 87.7565 134.717C91.2785 133.836 94.507 130.021 97.7355 129.434C96.268 132.662 92.4525 133.249 89.811 135.597C93.333 134.717 95.9745 132.956 98.3225 130.901C98.029 127.673 98.616 123.857 98.029 120.922C95.094 122.977 91.572 125.618 88.3435 126.499C88.9305 124.444 91.2785 123.564 92.746 122.683C94.507 121.803 96.268 120.335 98.029 119.748C97.7355 116.52 98.3225 112.411 97.7355 109.476C98.029 108.889 97.7355 109.182 97.442 109.182Z" fill="black"/>
<path fill-rule="evenodd" clip-rule="evenodd" d="M84.5281 19.9578H83.9411V19.6643C83.9411 19.6643 83.6476 19.6643 83.6476 19.9578C83.0606 19.3708 82.4736 19.3708 81.5931 19.9578C81.2996 20.2513 81.0061 20.8383 80.4191 21.1318C74.5491 23.4798 68.3855 24.3603 61.9285 24.3603C60.1675 24.3603 60.1675 27.2954 61.9285 27.2954C66.918 27.2954 71.614 26.7084 76.3101 25.5343C60.7545 42.2639 41.3834 56.6455 20.5449 65.4505C18.7839 66.0375 19.6644 68.9725 21.4254 68.3855C42.5574 59.287 62.5155 44.9054 78.3646 28.1759C76.8971 32.2849 75.4296 36.1004 73.6686 40.2094C72.7881 41.9704 75.4296 43.4379 76.3101 41.6769C77.7776 38.4484 79.2451 34.9264 80.4191 31.4044C81.0061 29.3499 81.8866 27.5889 82.4736 25.5343C82.7671 24.6538 82.7671 24.0668 83.0606 23.7733C83.9411 23.4798 84.8216 23.1863 85.7021 22.5993C86.5826 21.7188 85.9956 19.9578 84.5281 19.9578Z" fill="black"/>
</g>
<defs>
<clipPath id="clip0">
<rect width="175.514" height="140" fill="white"/>
</clipPath>
</defs>
</svg>
