<svg width="26" height="20" viewBox="0 0 26 20" fill="none" xmlns="http://www.w3.org/2000/svg">
<g clip-path="url(#clip0)">
<path d="M25.6429 3.25868C24.8848 2.51668 24.1368 1.79861 23.5157 0.923242C23.4589 0.841177 23.3754 0.810402 23.2986 0.817241C22.2668 0.485561 21.1615 0.307752 20.1163 0.0171044C19.8358 -0.0615415 19.6855 0.249623 19.7957 0.454786C19.7757 0.482141 19.7556 0.512916 19.7456 0.547109C18.5334 1.62764 17.3747 2.78681 16.226 3.95282C16.2059 3.9665 16.1859 3.98359 16.1725 4.00753C15.3277 4.85554 14.4928 5.71039 13.6447 6.5413C12.6061 7.55685 11.5676 8.56899 10.5291 9.58455C10.2018 9.90255 9.84116 10.224 9.47717 10.5488C8.68575 9.15713 7.74072 7.83724 6.55526 6.7704C6.52521 6.67465 6.46176 6.59259 6.35156 6.54472C5.50671 6.19594 4.65852 5.85742 3.80699 5.52574C3.64337 5.46077 3.50311 5.58729 3.4597 5.73774C3.33949 5.72064 3.21259 5.77877 3.15582 5.87793C2.18408 6.59601 1.18228 7.26621 0.153769 7.89537C-0.10336 8.05267 -0.00651913 8.38093 0.200519 8.47667C0.203858 8.48009 0.203858 8.48351 0.207198 8.49035C1.41603 10.7335 2.82523 12.8774 4.1643 15.0419C4.80211 16.0711 5.43658 17.0969 6.0744 18.1262C6.27809 18.4579 6.50517 19.0528 6.87917 19.2648C6.90255 19.3469 6.95932 19.4187 7.05616 19.4426C8.07131 19.682 9.11986 19.8427 10.1517 20C10.2886 20.0205 10.3988 19.9658 10.4723 19.8769C10.5992 19.9556 10.7361 19.9521 10.8396 19.7675C10.8697 19.7128 10.8029 19.6683 10.7595 19.7059C10.3821 20.0308 10.9365 19.4837 10.9264 19.4939C11.3038 19.1588 11.6644 18.7998 12.0284 18.451C12.6696 17.8424 13.3074 17.2269 13.9385 16.608C15.3377 15.2368 16.7202 13.8451 18.086 12.4363C20.7674 9.6632 23.3754 6.81143 25.9067 3.89127C26.1371 3.62114 25.9033 3.25868 25.6429 3.25868ZM23.2986 1.4806C23.6927 2.08925 24.1402 2.68081 24.6511 3.19372C24.0767 3.12875 23.469 3.14242 22.9013 3.13217C22.5473 2.66371 22.033 2.30126 21.6156 1.89435C21.2483 1.53531 20.8977 1.16602 20.5504 0.789886C21.4453 1.09763 22.387 1.38828 23.2986 1.4806ZM3.5699 8.15867C3.4931 9.57087 3.41629 10.9831 3.33949 12.3953C3.15582 12.0978 2.97216 11.8003 2.7885 11.5062C3.04563 10.3881 3.30609 9.27339 3.5699 8.15867ZM3.8838 7.22175C4.05744 7.48163 4.22775 7.7415 4.40473 8.00137C4.40473 8.00479 4.40139 8.00479 4.40139 8.00821C4.15094 9.15029 3.90717 10.2924 3.6634 11.4379C3.73687 10.0291 3.81033 8.62712 3.8838 7.22175ZM5.29967 9.29732C5.02919 10.3573 4.76204 11.4173 4.49155 12.4774C4.555 11.1199 4.62179 9.76236 4.68524 8.40486C4.8856 8.70235 5.09263 8.99984 5.29967 9.29732ZM6.28477 10.8942L5.30969 13.787C5.39985 12.4295 5.49001 11.0686 5.58351 9.71107C5.83062 10.0735 6.07106 10.4565 6.31817 10.8395C6.30481 10.8566 6.29145 10.8737 6.28477 10.8942ZM4.41475 13.975C4.6819 12.9219 4.9457 11.8721 5.21285 10.8189C5.11935 12.1867 5.02585 13.5545 4.93235 14.9222C4.93235 14.9393 4.93569 14.9564 4.93902 14.9701C4.74868 14.6623 4.555 14.3546 4.36466 14.0469C4.38804 14.0332 4.40473 14.0092 4.41475 13.975ZM5.22621 14.9632C5.53009 14.0708 5.83396 13.1783 6.13784 12.2859C6.00093 13.6023 5.86402 14.9188 5.72377 16.2353C5.47666 15.8352 5.22621 15.4351 4.97576 15.0351C5.05256 15.0966 5.18947 15.0761 5.22621 14.9632ZM6.56194 11.2122C6.73558 11.4721 6.91591 11.7285 7.10625 11.9713C6.78901 13.0347 6.47511 14.0981 6.15788 15.1616L6.56194 11.2122ZM7.78079 12.7235C7.79415 12.7338 7.80417 12.7406 7.81752 12.7509C7.51699 13.9716 7.21311 15.1923 6.91257 16.4131C7.00273 15.0419 7.16302 13.6776 7.39677 12.3201C7.52032 12.4603 7.64722 12.597 7.78079 12.7235ZM8.69577 12.3953C8.46535 13.5989 8.2316 14.8025 8.00119 16.0062C8.07465 14.912 8.14812 13.8178 8.21824 12.7235C8.38187 12.6244 8.54216 12.515 8.69577 12.3953ZM8.58557 14.6897C8.51878 15.5069 8.44866 16.3207 8.38187 17.138C8.37185 17.2542 8.48539 17.3124 8.57889 17.2953C8.36851 17.5175 8.16148 17.7398 7.95444 17.9655C8.16481 16.8747 8.37519 15.7839 8.58557 14.6897ZM9.62744 12.8774C9.60073 14.0092 9.57401 15.1411 9.5473 16.2729C9.26345 16.5669 8.97961 16.8644 8.69911 17.1619C9.00632 15.736 9.31688 14.3067 9.62744 12.8774ZM9.98475 15.8181C10.1851 14.5016 10.4255 13.192 10.7227 11.8961C10.7094 12.9697 10.6927 14.0434 10.6726 15.1171C10.4422 15.3496 10.2118 15.5856 9.98475 15.8181ZM16.6701 6.45581C16.65 5.87793 16.62 5.30348 16.5766 4.7256C16.7335 4.57515 16.8938 4.42128 17.0508 4.27082C16.9105 4.99915 16.7836 5.72406 16.6701 6.45581ZM15.6349 7.65602C15.6282 7.00291 15.6015 6.34981 15.5648 5.69329C15.7017 5.56335 15.8352 5.43341 15.9722 5.30348C15.8586 6.08994 15.7451 6.87298 15.6349 7.65602ZM14.5596 6.69175C14.5596 6.68149 14.5563 6.67465 14.5529 6.66781C14.7166 6.51052 14.8802 6.34981 15.0472 6.19252C14.8936 7.03027 14.7433 7.86802 14.5897 8.70577C14.5997 8.03215 14.593 7.36195 14.5596 6.69175ZM13.6981 7.50214C13.8383 7.36537 13.9786 7.22859 14.1188 7.0884C13.9318 8.02873 13.7482 8.96906 13.5612 9.90939C13.6213 9.10926 13.668 8.3057 13.6981 7.50214ZM12.5059 8.66474C12.7297 8.4459 12.9534 8.22705 13.1805 8.00821C12.9033 8.91777 12.6529 9.83417 12.4325 10.7608C12.4926 10.1146 12.556 9.47171 12.6161 8.82545C12.6228 8.75022 12.5694 8.69209 12.5059 8.66474ZM11.7713 14.0092C11.5409 14.2418 11.3105 14.4743 11.08 14.7068C11.267 13.1236 11.621 11.5815 12.1453 10.0872C12.0217 11.3934 11.8948 12.6996 11.7713 14.0092ZM13.2807 8.90067C13.2072 10.2171 13.0903 11.5268 12.9367 12.8364C12.6929 13.0792 12.4492 13.3254 12.2054 13.5681C12.4859 11.9918 12.8466 10.436 13.2807 8.90067ZM14.2324 8.35015C14.2224 9.49223 14.1489 10.6309 14.002 11.7661C13.815 11.9542 13.628 12.1423 13.441 12.3303C13.7048 11.0036 13.9686 9.67688 14.2324 8.35015ZM15.2475 7.13627C15.2742 8.28176 15.2542 9.42726 15.1841 10.5728C15.0238 10.7369 14.8602 10.901 14.6965 11.0651C14.6264 11.137 14.5563 11.2053 14.4862 11.2771C14.7433 9.89571 14.9971 8.5177 15.2475 7.13627ZM16.2727 5.90529C16.3328 7.08156 16.3428 8.26125 16.2961 9.44436C16.2961 9.44778 16.2961 9.44778 16.2961 9.45119C16.089 9.65978 15.882 9.87178 15.675 10.0804C15.872 8.68867 16.0723 7.29698 16.2727 5.90529ZM17.3246 4.88631C17.3346 6.13097 17.2712 7.36879 17.1242 8.61003C16.984 8.75364 16.8404 8.89725 16.7001 9.04087C16.8504 7.64576 17.0608 6.26091 17.3246 4.88631ZM17.6852 3.65533C17.899 3.44675 18.1093 3.23475 18.323 3.02617C18.1227 3.96308 17.9223 4.90341 17.722 5.84032C17.7387 5.11199 17.7253 4.38366 17.6852 3.65533ZM18.5067 4.16824C18.5267 5.16328 18.5501 6.15491 18.5702 7.14995C18.5368 7.18414 18.5 7.22175 18.4666 7.25595C18.2028 7.52266 17.939 7.78937 17.6752 8.05609C17.949 6.76356 18.2295 5.46419 18.5067 4.16824ZM18.8907 2.44829C19.1245 2.20893 19.3549 1.96616 19.5853 1.71996C19.3048 2.50984 19.0844 3.31339 18.9208 4.12721C18.9108 3.56643 18.9008 3.00907 18.8907 2.44829ZM19.6588 2.83468C19.6688 3.88443 19.6822 4.9376 19.6922 5.98736C19.4584 6.23013 19.228 6.47633 18.9943 6.71568C19.0644 5.38896 19.2881 4.09643 19.6588 2.83468ZM21.0145 2.22945C21.0613 2.27732 21.1047 2.32519 21.1515 2.37306C21.1748 2.397 21.1982 2.42093 21.2216 2.44487L21.0847 3.0672C21.0613 2.79023 21.0379 2.50984 21.0145 2.22945ZM20.6806 3.34417C20.714 3.72714 20.7441 4.11011 20.7775 4.4965C20.7875 4.6025 20.8609 4.67431 20.9478 4.70167C20.724 4.92393 20.5036 5.14619 20.2832 5.37187C20.4135 4.69483 20.547 4.02121 20.6806 3.34417ZM21.5956 2.83126C21.816 3.05694 22.0531 3.2792 22.3035 3.45017C21.9362 3.75791 21.5789 4.08276 21.2316 4.42128C21.3518 3.89127 21.472 3.36127 21.5956 2.83126ZM20.0695 1.19679C20.2298 1.38486 20.3934 1.56951 20.5604 1.75415C20.4034 2.56113 20.2465 3.3681 20.0896 4.1785C20.0795 3.31339 20.0695 2.44829 20.0595 1.58318C20.0595 1.46351 19.9827 1.39854 19.8992 1.38486C19.956 1.31989 20.0127 1.25834 20.0695 1.19679ZM12.1987 8.96564C11.6978 10.2035 11.3105 11.4721 11.0433 12.7714C11.06 11.9644 11.0767 11.1609 11.0901 10.3539C11.0901 10.2582 11.0233 10.2 10.9498 10.1864C10.9765 10.159 11.0032 10.1317 11.0333 10.1043C11.424 9.72475 11.8114 9.34519 12.1987 8.96564ZM10.7261 10.412C10.4189 11.6225 10.1584 12.8466 9.93466 14.0742C9.95803 13.1065 9.98141 12.1388 10.0048 11.1711C10.2486 10.9147 10.489 10.6582 10.7261 10.412ZM9.55398 11.6328C9.34026 12.6278 9.12654 13.6263 8.91616 14.6213C8.98963 13.7596 9.05975 12.8945 9.13322 12.0328C9.27347 11.9063 9.41372 11.7695 9.55398 11.6328ZM6.17792 7.20808C6.21131 7.22175 6.24136 7.22859 6.26808 7.23201C7.2632 8.40828 8.19821 9.60507 8.95624 10.9626C8.96625 10.9797 8.97627 10.9933 8.98629 11.007C8.639 11.3387 8.30841 11.6875 8.03458 12.0568C7.50029 11.007 6.6521 10.0393 5.98757 9.09216C5.30969 8.12447 4.62847 7.16021 3.92721 6.21645C4.67522 6.55155 5.42323 6.88323 6.17792 7.20808ZM3.42965 6.53788C3.48976 6.6302 3.5532 6.72252 3.61331 6.81485L2.75844 10.5078C2.74843 9.42042 2.82189 8.33989 2.99554 7.25595C3.01557 7.12943 2.83525 7.02001 2.7718 7.16021C2.39446 8.01163 2.0839 8.88016 1.83679 9.77604C1.83345 9.07848 1.87686 8.38435 1.97704 7.68337C1.98372 7.6355 1.96702 7.59447 1.93697 7.57053C2.44455 7.24227 2.94211 6.90033 3.42965 6.53788ZM2.51801 11.0788C2.33435 10.7882 2.15069 10.4975 1.96702 10.2069C2.14735 9.49565 2.36774 8.79809 2.63155 8.11421C2.52135 9.099 2.48462 10.0838 2.51801 11.0788ZM1.60972 9.65636C1.52623 9.52984 1.44275 9.40674 1.35927 9.28365C1.45945 9.02035 1.56296 8.75706 1.66314 8.49377C1.62975 8.88016 1.61305 9.26997 1.60972 9.65636ZM1.73661 7.69705C1.57632 8.16893 1.41269 8.6408 1.24573 9.11268C1.06874 8.84596 0.888421 8.58267 0.701418 8.3228C1.05539 8.12447 1.396 7.91247 1.73661 7.69705ZM3.64003 12.8843C3.8671 11.8619 4.09084 10.8395 4.31457 9.82049L4.13425 13.6844C4.12757 13.6741 4.12423 13.6673 4.11755 13.657C3.9606 13.4006 3.80031 13.1407 3.64003 12.8843ZM6.03432 16.7311C6.28811 15.8796 6.5419 15.0282 6.79569 14.1768C6.65878 15.2881 6.57196 16.4028 6.52854 17.5244L6.03432 16.7311ZM7.21978 18.7417C7.153 18.6254 6.97935 18.3074 6.84244 18.0578C7.15634 16.7892 7.47023 15.5206 7.78413 14.252C7.69397 15.6505 7.60047 17.0491 7.51031 18.4476C7.42014 18.5468 7.32664 18.6459 7.23982 18.7485C7.23314 18.7485 7.22646 18.7451 7.21978 18.7417ZM17.9858 11.5131C16.7602 12.7919 15.518 14.0571 14.2624 15.3018C12.9567 16.6011 11.4874 17.815 10.2786 19.2067C10.2486 19.2409 10.2252 19.2785 10.2118 19.3161C9.46715 19.193 8.7158 19.0734 7.96112 18.9844C10.4389 16.5943 12.7831 14.0366 15.2008 11.5815C16.453 10.3095 17.7086 9.04087 18.9675 7.77569C20.2599 6.47633 21.6958 5.23509 22.8679 3.81946C22.8879 3.79553 22.9046 3.77159 22.918 3.74424C23.5758 3.81946 24.2837 3.92546 24.9416 3.90153C22.6775 6.49001 20.3634 9.03403 17.9858 11.5131Z" fill="#20BF6B"/>
</g>
<defs>
<clipPath id="clip0">
<rect width="26" height="20" fill="white"/>
</clipPath>
</defs>
</svg>
