<svg width="198" height="88" viewBox="0 0 198 88" fill="none" xmlns="http://www.w3.org/2000/svg">
<g clip-path="url(#clip0)">
<path d="M171.7 33.3C171.9 33.4 172.1 33 171.9 32.9C171.8 32.9 171.8 32.8 171.7 32.8C171.6 31.8 171.5 30.8 171.4 29.8C171.8 29.7 171.9 29.1 171.5 28.9C171.4 28.8 171.3 28.8 171.2 28.7C171.2 28.5 171.2 28.3 171.1 28C169.9 17.5 165.8 8.5 156.8 2.4C156.6 2.3 156.5 2.3 156.4 2.3C154.4 0.999997 152 0.399997 149.2 0.699997C147.9 0.199997 146.3 0.199997 145 0.199997C143.9 0.199997 142.6 0.299997 141.6 0.799997C129.2 -0.600003 123.3 17.6 121.7 27.2C120.3 35.2 120.2 43.4 120.6 51.5C120.9 58.6 121.3 66.2 124.4 72.8C125.7 75.7 127.3 77.8 129.4 79.3C136 85.7 145.8 88.7 154.7 86C164.3 83.1 169.6 74.2 171.4 64.7C173.2 54.7 172.8 43.6 171.7 33.3ZM170.5 42.5C170.1 42.1 169.6 41.8 169.2 41.5C168.6 41 168 40.6 167.4 40.2C167.4 39.6 167.4 39 167.4 38.4C167.9 38.7 168.3 39.1 168.8 39.5C169.3 40 169.8 40.6 170.4 41C170.4 41.4 170.5 42 170.5 42.5ZM170.3 39.2C170 39 169.7 38.7 169.4 38.5C168.7 38 168.1 37.6 167.4 37.1C167.4 36.4 167.4 35.7 167.4 34.9C168.3 35.8 169.2 36.7 170.3 37.5C170.2 38.1 170.3 38.7 170.3 39.2ZM170.1 35.8C169.3 35 168.3 34.4 167.4 33.7C167.3 33.7 167.3 33.6 167.2 33.6C167.2 32.8 167.1 32 167.1 31.3C167.1 31.2 167.1 31.1 167.1 31C167.3 31.2 167.6 31.3 167.8 31.5C167.8 31.5 167.9 31.5 167.9 31.6C168.4 31.9 168.9 32.2 169.4 32.4C169.5 32.4 169.6 32.5 169.7 32.5C170 33.6 170.1 34.7 170.1 35.8ZM169.6 29.7C169.7 30.3 169.7 30.8 169.8 31.4C168.9 30.9 168 30.5 167.1 30C167 29.2 167 28.3 166.9 27.5C167.8 28.1 168.7 28.6 169.6 29.1C169.6 29.2 169.6 29.5 169.6 29.7ZM169.4 27.5C168.5 27 167.6 26.6 166.8 26.2C166.7 25.3 166.6 24.4 166.4 23.5C167.2 24 168.1 24.6 169 25C169.1 25.8 169.2 26.6 169.4 27.5ZM166.2 22.4C166.1 21.6 165.9 20.8 165.8 20C166.2 20.3 166.6 20.6 167 20.8C167.4 21.1 167.8 21.4 168.2 21.6C168.4 22.3 168.6 22.9 168.7 23.6C167.9 23.3 167 22.9 166.2 22.4ZM167.7 20.1C167.6 20.1 167.6 20 167.5 20C166.8 19.6 166.1 19.1 165.5 18.7C165.3 17.9 165.1 17.1 164.9 16.3C165.5 16.8 166.1 17.2 166.8 17.6C167.1 18.4 167.4 19.2 167.7 20.1ZM166 15.8C165.5 15.5 165 15.1 164.5 14.8C164.5 14.8 164.5 14.8 164.4 14.8C164 13.3 163.5 11.9 162.9 10.6C164.1 12.2 165.1 13.9 166 15.8ZM127.9 75.4C125.7 72.3 124.5 68.6 123.7 64.9C122.2 57.5 122.1 49.6 122.2 42.1C122.4 29.1 125.4 -0.900003 144.7 2.7C144.8 3.1 145.2 3.3 145.7 3.2C155.2 -0.200003 161.8 9 163.7 17.1C165.5 24.7 165.7 33.1 165.6 40.9C165.4 49.1 164.4 57.3 162 65.1C160.6 69.8 159 74.9 154.5 77.6C150.5 80.1 145.8 80.5 141.2 80.4C136 80.3 131.3 80.1 127.9 75.4ZM134.7 81.6C135.6 81.8 136.5 81.9 137.5 82C137.7 82 137.9 82 138.1 82C139.1 82.7 140.1 83.4 141.1 84C141.3 84.1 141.5 84.2 141.7 84.4C139.3 83.7 136.9 82.8 134.7 81.6ZM144.3 84.9C143.5 84.2 142.5 83.8 141.6 83.2C141 82.8 140.3 82.4 139.6 82C140.4 82 141.2 82.1 142 82.1C143.5 83.1 145.2 84.3 146.9 85.1C146.1 85.1 145.2 85.1 144.3 84.9ZM148.8 85.2C147.4 84 145.6 83 143.9 82.2C144.9 82.2 145.8 82.1 146.8 82C148.3 83 149.8 84.2 151.4 85C150.6 85 149.7 85.1 148.8 85.2ZM152.7 84.6C152.7 84.5 152.7 84.5 152.6 84.4C151.4 83.3 149.7 82.5 148.1 81.7C148.7 81.6 149.3 81.5 149.9 81.3C150.8 81.8 151.6 82.4 152.4 83C152.9 83.4 153.5 83.8 154 84.2C153.6 84.4 153.1 84.5 152.7 84.6ZM155.2 83.8C154.1 82.7 152.5 81.8 151.1 81C151.9 80.8 152.7 80.5 153.4 80.1C154.6 81.1 155.9 82.1 157.4 82.8C156.6 83.2 155.9 83.6 155.2 83.8ZM158.5 82.2C157.2 81.3 155.8 80.5 154.5 79.7C155.2 79.3 155.9 78.9 156.5 78.4C157.6 79.5 158.9 80.6 160.3 81C159.8 81.4 159.2 81.8 158.5 82.2ZM161 80.4C161 80.3 160.9 80.2 160.8 80.2C160.1 79.7 159.4 79.4 158.7 79C158.2 78.7 157.7 78.3 157.2 77.8C157.3 77.7 157.4 77.6 157.6 77.5C158.1 77.1 158.5 76.6 158.9 76.1C159.9 77.2 161.2 78.2 162.6 78.9C162 79.5 161.5 80 161 80.4ZM163.4 78.1C162.1 77.2 160.8 76.3 159.6 75.3C160 74.8 160.4 74.2 160.8 73.6C162 74.6 163.2 75.8 164.6 76.5C164.6 76.5 164.6 76.5 164.7 76.5C164.2 77.1 163.8 77.6 163.4 78.1ZM167 72.4C166.5 72.1 166 71.8 165.4 71.5C164.6 71 163.8 70.4 163 70C162.8 69.9 162.5 70.1 162.6 70.4C163.1 71.2 163.9 71.7 164.6 72.2C165.2 72.6 165.8 73 166.5 73.3C166.1 74.1 165.6 74.9 165.1 75.7C164 74.6 162.5 73.7 161.1 72.9C162.1 71.1 162.9 69 163.5 66.9C164 67.4 164.6 67.9 165.2 68.4C165.9 68.9 166.8 69.9 167.8 69.8C167.9 69.8 167.9 69.8 168 69.7C167.7 70.6 167.4 71.5 167 72.4ZM168.3 69.1C167.9 68.3 167 67.9 166.2 67.4C165.4 66.9 164.7 66.3 163.9 65.7C164.2 64.6 164.5 63.6 164.7 62.5C166 63.8 167.5 65.2 169.1 66C168.9 67.2 168.6 68.2 168.3 69.1ZM169.4 65C168.8 64.6 168.2 64.3 167.7 63.9C166.7 63.2 165.8 62.5 164.9 61.8C165.1 61 165.2 60.2 165.4 59.4C166 59.9 166.5 60.4 167.1 60.8C168 61.5 168.8 62.4 169.8 62.9C169.7 63.7 169.5 64.3 169.4 65ZM169.9 61.9C169.2 61.2 168.4 60.7 167.6 60.1C166.9 59.6 166.2 59.1 165.5 58.6C165.6 57.9 165.7 57.2 165.9 56.6C166.6 57.2 167.3 57.7 168 58.4C168.7 59.1 169.4 59.9 170.1 60.6C170.1 61 170 61.4 169.9 61.9ZM170.4 57.1C170.4 57.8 170.3 58.5 170.2 59.2C169.6 58.6 168.9 58 168.3 57.4C167.6 56.8 166.8 56.2 166 55.7C166.1 55 166.2 54.3 166.3 53.6C167.6 54.8 168.9 55.9 170.4 56.9C170.4 57 170.4 57 170.4 57.1ZM170.5 55.5C169.3 54.4 168 53.5 166.6 52.5C166.6 52.5 166.5 52.5 166.5 52.4C166.6 51.4 166.8 50.3 166.9 49.3C167.5 49.9 168 50.5 168.6 51.1C169.2 51.7 169.8 52.4 170.6 52.9C170.5 53.8 170.5 54.6 170.5 55.5ZM170.5 51.5C170.1 51.1 169.6 50.8 169.2 50.4C168.4 49.7 167.7 49 166.9 48.4C167 47.2 167.1 46 167.2 44.8C167.8 45.4 168.4 46 169 46.5C169.5 47 170 47.6 170.6 48C170.6 49.2 170.6 50.4 170.5 51.5ZM169.8 45.7C169.1 45.1 168.4 44.5 167.7 43.8C167.6 43.7 167.4 43.7 167.3 43.7C167.3 42.8 167.4 41.9 167.4 41.1C167.8 41.5 168.3 41.8 168.7 42.2C169.3 42.8 169.9 43.4 170.6 43.9C170.6 44.7 170.6 45.5 170.7 46.4C170.3 46.1 170.1 45.9 169.8 45.7Z" fill="black"/>
<path d="M153.1 23C152.4 18.8 151.5 13.9 146.8 12.6C146.7 12.6 146.7 12.6 146.6 12.6C144.2 12.1 142.4 12.7 140.8 14.1C140.6 14.1 140.4 14.3 140.3 14.5C135.2 19.6 134.4 32.9 134 38C133.4 45.5 133.8 53 135.1 60.4C135.9 64.7 136.9 70.5 142.2 71.1C154 72.4 154 52.1 154.3 44.9C154.7 37.5 154.3 30.2 153.1 23ZM143.9 14.2C144.9 14.9 145.9 15.7 146.9 16.5C147.5 17 148 17.5 148.5 18C148.3 18 148.1 18 147.9 18C147 17.3 146 16.8 145 16.2C144.2 15.8 143.4 15.3 142.7 14.9C143 14.6 143.4 14.4 143.9 14.2ZM141.8 15.7C142.6 16.3 143.5 16.8 144.3 17.4C144.9 17.8 145.4 18.2 146 18.5C145.3 18.8 144.7 19.2 144.1 19.7C143.6 19.3 143 19.1 142.4 18.8C141.7 18.5 140.9 18.2 140.1 18C140.6 17.1 141.2 16.3 141.8 15.7ZM139.7 18.8C140.5 19.1 141.2 19.4 141.9 19.8C142.3 20 142.8 20.3 143.2 20.6C142.7 21.2 142.3 21.8 142 22.5C141 21.9 139.8 21.6 138.7 21.2C139 20.4 139.3 19.6 139.7 18.8ZM138.3 22.3C139.3 22.8 140.4 23.3 141.5 23.6C141.1 24.5 140.8 25.5 140.6 26.5C139.6 26.1 138.5 25.7 137.5 25.2C137.7 24.2 138 23.3 138.3 22.3ZM137.3 26.1C138.3 26.7 139.3 27.2 140.4 27.4C140.2 28.2 140.1 29.1 140 29.9C139 29.4 137.9 29 136.8 28.7C136.9 27.8 137.1 27 137.3 26.1ZM136.6 29.9C137.6 30.4 138.7 31 139.8 31.3C139.7 32.2 139.6 33.2 139.5 34C138.4 33.6 137.2 33.2 136.2 32.9C136.3 31.9 136.5 30.9 136.6 29.9ZM136.1 33.9C136.9 34.3 137.7 34.6 138.5 35C138.8 35.1 139.1 35.3 139.4 35.4C139.3 36.3 139.3 37.3 139.2 38.2C138.1 37.7 137 37.3 135.8 37C135.9 36.1 136 35 136.1 33.9ZM135.6 40.9C135.6 40.1 135.7 39.1 135.8 37.9C136.9 38.5 138 39.1 139.2 39.5C139.1 40.5 139.1 41.6 139.1 42.6C138.7 42.5 138.3 42.4 137.9 42.3C137.1 42 136.4 41.7 135.7 41.3C135.6 41.1 135.6 41 135.6 40.9ZM135.6 42.4C136.2 42.7 136.8 43 137.4 43.3C137.9 43.5 138.5 43.8 139 43.9C139 44.8 139 45.7 139 46.6C138.5 46.4 137.9 46.3 137.4 46C136.8 45.7 136.2 45.4 135.6 45.1C135.5 44.2 135.5 43.3 135.6 42.4ZM135.6 46.1C136.7 46.8 137.8 47.5 139.1 47.7C139.1 48.5 139.1 49.3 139.2 50.1C138 49.7 136.8 49.2 135.7 48.5C135.6 47.7 135.6 46.9 135.6 46.1ZM135.7 49.8C136.8 50.5 137.9 51 139.2 51.2C139.2 51.9 139.3 52.6 139.3 53.3C138.2 52.8 137 52.5 135.9 52.1C135.8 51.3 135.7 50.5 135.7 49.8ZM135.9 53.4C135.9 53.2 135.9 53 135.8 52.8C136.9 53.3 138.1 53.9 139.2 54.3C139.3 55.4 139.4 56.6 139.6 57.7C138.5 57.2 137.4 56.8 136.2 56.4C136.2 55.4 136 54.4 135.9 53.4ZM136.4 57C137.6 57.5 138.7 58.1 139.8 58.6C139.9 59.4 140 60.3 140.2 61.1C139 60.6 137.9 60.1 136.8 59.4C136.7 58.6 136.5 57.8 136.4 57ZM137 60.8V60.7C138.1 61.3 139.2 61.9 140.4 62.2C140.6 63.1 140.8 64.1 141 65C139.9 64.4 138.8 64 137.7 63.5C137.4 62.6 137.2 61.7 137 60.8ZM137.8 64.2C137.8 64.2 137.8 64.1 137.8 64.2C138.9 64.7 140 65.3 141.2 65.8C141.4 66.4 141.5 67.1 141.7 67.7C139.3 67.8 138 66.6 137.8 64.2ZM151.6 56.3C151.3 58 151.1 59.8 150.6 61.4C150.2 62.9 149.7 64.3 148.9 65.7C147.5 68.5 145.5 69.2 143 67.9C141.8 60.2 140.6 52.5 140.5 44.6C140.5 42.5 140.4 39.2 140.6 35.7C140.7 35.7 140.8 35.7 140.9 35.8C141.3 35.8 141.6 35.2 141.3 34.9C141.1 34.8 140.9 34.6 140.7 34.5C140.8 33.4 140.9 32.3 141 31.1C141.1 31 141.1 30.8 141.1 30.7C142 24.6 144.3 19.1 149.8 19.4C150.7 19.4 150.7 18.3 150.1 18C148.8 16.3 146.8 14.9 144.9 13.7C145.3 13.6 145.7 13.5 146.2 13.5C146.3 13.6 146.3 13.6 146.4 13.7C151.6 15.9 151.8 24.5 152.2 29C152.6 32.9 152.8 36.9 152.7 40.8C152.8 46 152.4 51.2 151.6 56.3Z" fill="black"/>
<path d="M52.6 58.8C50.3 52.9 46 48.9 40.8 46C52 41 56.3 27.5 51.8 16.3C47 4.19999 34.2 -1.70001 21.7 0.599994C11.6 0.799994 1.79999 5.19999 0.999995 14.9C-5.42402e-06 17.2 -0.300005 20 0.499995 22.1C0.599995 22.3 0.799995 22.4 0.999995 22.5C1.09999 22.7 1.19999 22.9 1.49999 22.9C2.29999 23.6 3.09999 24.4 3.79999 25.1C4.49999 25.8 5.09999 26.8 6.09999 27.2H6.19999C10.6 27.3 15.6 27.7 19.9 27C20.4 26.9 20.5 26.2 20.2 25.9C22 22.6 24.9 19.3 29 19.9C29.3 19.9 29.6 19.8 29.7 19.6C30.1 20.5 30.3 21.4 30.3 22.4C30.5 29 24.1 32.1 18.4 32.1C18 32.1 17.8 32.3 17.6 32.6C17.4 32.2 16.8 32.4 16.8 32.9C16 38.8 16.2 45.1 16.5 51C16.5 51.4 16.8 51.7 17.1 51.7C17.2 51.7 17.2 51.8 17.3 51.8C21.2 52.1 25.5 53.6 27.4 57.3C29.3 60.9 27.4 64.5 23.9 65.9C23.9 65.7 23.8 65.5 23.6 65.4C22 64.3 21.6 63.3 21.2 61.4C20.9 60 20.6 58.7 20.3 57.3C20.5 57.1 20.5 56.9 20.4 56.6C19.9 55.7 18.8 55.2 18 54.7C17 54.1 16 53.4 15 52.8C14.9 52.7 14.8 52.7 14.7 52.8C14.6 52.7 14.4 52.6 14.2 52.6C9.99999 52.4 5.69999 52.5 1.49999 52.5C0.999995 52.5 0.899994 53.2 1.29999 53.4C-0.700006 59.1 0.399994 65.6 3.59999 70.7C8.69999 86.4 34.4 93.2 46.4 81.7C52.7 76 55.9 67.1 52.6 58.8ZM51.9 62.4C51.2 61.8 50.4 61.3 49.7 60.7C48.6 59.8 47.4 58.8 46.3 57.8C46.2 57.7 46.1 57.7 46 57.7C45.8 57.1 45.6 56.5 45.3 55.9C47.2 57.3 49.1 58.7 51.2 59.8C51.5 60.7 51.7 61.5 51.9 62.4ZM49.2 55.8C49.7 56.6 50.2 57.4 50.6 58.3C48.7 56.9 46.7 55.5 44.7 54.3C44.3 53.3 43.8 52.4 43.2 51.5C44.2 52.3 45.3 53 46.3 53.8C47.3 54.5 48.2 55.3 49.2 55.8ZM47.5 53.4C47.3 53.2 47 53.1 46.8 52.9C45.6 52.1 44.4 51.2 43.2 50.4C43 50.2 42.8 50.3 42.7 50.5C41.9 49.3 41.1 48.2 40.1 47.2C42.9 48.9 45.5 50.9 47.5 53.4ZM40 45.5C38.2 44.6 36.3 43.7 34.4 43C34.9 42.8 35.4 42.6 35.8 42.4C37.3 43.4 39 44.5 40.7 44.9C40.5 45 40.3 45.2 40.1 45.3C40.1 45.3 40 45.4 40 45.5ZM41.2 44.5C41.2 44.4 41.2 44.3 41.1 44.2C40.3 43.6 39.3 43.3 38.3 42.9C37.7 42.6 37.1 42.3 36.5 42C37.1 41.7 37.6 41.3 38.2 40.9L38.3 41C39.1 41.5 40 41.9 40.8 42.4C41.4 42.8 41.9 43.2 42.5 43.5C42.1 43.9 41.7 44.2 41.2 44.5ZM43.4 42.9C42.2 41.8 40.5 41 39.1 40.4C39.8 39.9 40.4 39.3 41 38.7C42.3 39.7 43.9 40.6 45.4 41.1C44.7 41.7 44.1 42.3 43.4 42.9ZM46 40.3C45.2 39.7 44.3 39.4 43.4 38.9C42.8 38.6 42.2 38.2 41.6 37.8C42 37.3 42.4 36.8 42.8 36.2C44 37.3 45.5 38.5 47 39C46.7 39.5 46.3 39.9 46 40.3ZM47.6 38.2C46.9 37.7 46 37.4 45.3 36.9C44.6 36.5 43.9 36 43.2 35.5C43.6 34.9 43.9 34.2 44.3 33.6C45.7 34.7 47.2 35.8 48.8 36.4C48.4 37.1 48 37.7 47.6 38.2ZM49.3 35.6C48.5 35.1 47.7 34.7 46.9 34.3C46.1 33.9 45.4 33.4 44.7 32.9C45.1 32.1 45.4 31.3 45.6 30.5C46.3 31.1 47 31.7 47.8 32.3C48.5 32.8 49.3 33.5 50.1 33.9C49.9 34.5 49.6 35 49.3 35.6ZM50.5 32.9C49.9 32.5 49.2 32.1 48.6 31.7C47.6 31.1 46.7 30.4 45.8 29.7C46 29 46.2 28.3 46.3 27.5C47.8 28.7 49.4 30 51.1 30.7C51 31.5 50.8 32.2 50.5 32.9ZM51.5 29.8C50 28.6 48.2 27.7 46.6 26.6C46.8 25.6 46.9 24.7 46.9 23.7C47.8 24.3 48.7 24.9 49.6 25.6C50.4 26.1 51.1 26.7 51.9 27.2C51.8 28.1 51.7 28.9 51.5 29.8ZM52 26.1C51.4 25.7 50.7 25.3 50 24.9C49 24.3 47.9 23.6 46.9 23C46.9 22.1 46.9 21.2 46.8 20.3C48.4 21.7 50.1 23 52 23.9C52 24.7 52 25.4 52 26.1ZM51.9 22.6C50.2 21.4 48.4 20.4 46.7 19.2C46.6 18.2 46.4 17.3 46.1 16.3C47.7 17.8 49.5 19.2 51.5 20.2C51.6 21 51.8 21.8 51.9 22.6ZM50.9 18.1C51 18.4 51.1 18.7 51.2 19C49.6 17.9 48.1 16.8 46.5 15.7C46.3 15.6 46.1 15.7 46 15.9C45.8 15.2 45.6 14.5 45.3 13.9C46.9 14.9 48.6 15.9 50.3 16.7C50.6 17.2 50.7 17.7 50.9 18.1ZM47.9 12.8C48 12.9 48.2 12.9 48.3 12.8C48.8 13.5 49.2 14.3 49.7 15.1C48.2 14.2 46.6 13.5 45.1 12.7C45 12.7 45 12.7 44.9 12.7C44.4 11.6 43.9 10.6 43.2 9.69999C45 10.5 46.3 11.6 47.9 12.8ZM46.3 10.3C45.1 9.59999 43.8 8.99999 42.6 8.59999C42.5 8.59999 42.5 8.59999 42.4 8.59999C42.1 8.19999 41.8 7.79999 41.5 7.49999C42 7.69999 42.4 7.79999 42.9 7.89999C43.2 7.99999 43.4 7.79999 43.4 7.49999C44.4 8.29999 45.4 9.29999 46.3 10.3ZM42.4 6.79999C41.6 6.49999 40.7 6.19999 39.9 5.99999C38.8 4.99999 37.4 4.19999 35.9 3.49999C38.3 4.19999 40.5 5.29999 42.4 6.79999ZM6.69999 26.3C6.29999 25.5 5.39999 24.8 4.69999 24.2C4.19999 23.8 3.69999 23.4 3.19999 22.9C3.89999 22.9 4.6 22.9 5.29999 22.9C6.2 23.9 7.29999 25 8.49999 25.9C7.79999 26.1 7.19999 26.2 6.69999 26.3ZM9.69999 25.8C9.09999 25.2 8.5 24.7 7.89999 24.2C7.39999 23.8 6.99999 23.4 6.49999 23C6.89999 23 7.39999 23 7.79999 23C8.5 23.7 9.19999 24.4 9.89999 25.1C10.1 25.3 10.3 25.5 10.5 25.7C10.3 25.7 9.99999 25.8 9.69999 25.8ZM11.8 25.5C11.3 25.1 10.8 24.7 10.4 24.4C9.89999 23.9 9.29999 23.4 8.79999 23C9.49999 23 10.2 23 10.9 22.9C11.6 23.8 12.4 24.6 13.2 25.4C12.7 25.5 12.3 25.5 11.8 25.5ZM14.5 25.4C13.7 24.5 12.8 23.7 11.9 22.9C12.3 22.9 12.7 22.9 13.1 22.8C13.7 23.3 14.3 23.9 14.8 24.4C15.1 24.7 15.4 25 15.6 25.4C15.3 25.4 14.9 25.4 14.5 25.4ZM17 25.4C16.5 24.8 15.9 24.2 15.3 23.7C14.9 23.3 14.5 23 14 22.7C14.1 22.7 14.1 22.7 14.2 22.7C14.5 22.7 14.7 22.5 14.8 22.3C15.3 22.9 15.8 23.6 16.3 24.2C16.6 24.6 17 25 17.4 25.4C17.3 25.4 17.1 25.4 17 25.4ZM19 25.6C18.4 24.8 17.7 24.2 17 23.5C16.5 23 16 22.4 15.5 21.8C15.5 21.7 15.6 21.7 15.6 21.6C15.7 21.2 15.9 20.8 16 20.4C16.6 21 17.2 21.6 17.7 22.2C18.3 22.8 18.8 23.5 19.5 24C19.4 24.6 19.2 25.1 19 25.6ZM20.1 23.2C19.6 22.6 19 22.1 18.5 21.6C17.8 20.9 17.1 20.3 16.5 19.6C16.8 18.9 17.2 18.3 17.6 17.7C18.2 18.4 18.8 19.1 19.4 19.8C19.9 20.4 20.5 21.3 21.2 21.7C20.7 22.2 20.4 22.7 20.1 23.2ZM21.7 21.1C21.3 20.4 20.6 19.9 20.1 19.3C19.4 18.6 18.7 17.9 18 17.2C18.4 16.8 18.8 16.4 19.2 16C19.9 16.9 20.6 17.8 21.3 18.7C21.7 19.2 22.1 19.8 22.6 20.3C22.3 20.5 22 20.8 21.7 21.1ZM23.5 19.5C23.1 19 22.5 18.5 22.1 18.1C21.3 17.3 20.5 16.4 19.7 15.5C20.3 15.1 20.9 14.9 21.6 14.7C22.2 15.4 22.7 16.1 23.3 16.8C23.8 17.4 24.3 18.1 24.9 18.7C24.4 19 23.9 19.3 23.5 19.5ZM26 18.3C25.5 17.5 24.8 16.9 24.1 16.2C23.6 15.7 23.1 15.1 22.5 14.6C22.6 14.6 22.6 14.6 22.7 14.6C23.3 14.6 23.8 14.7 24.3 14.8C25.1 15.9 25.9 17.1 26.9 18.1C26.7 18.1 26.3 18.2 26 18.3ZM28.2 18.1C27.6 17.2 26.9 16.4 26.3 15.6C27.4 16.3 28.3 17.3 29 18.4C28.7 18.2 28.5 18.1 28.2 18.1ZM21 65.9C21.2 66.1 21.5 66.3 21.7 66.5C19.3 66.6 17.5 65.2 16.4 63.2C17.9 64.1 19.4 65.1 21 65.9ZM20 64.4C18.7 63.6 17.3 63 16 62.4C15.7 61.6 15.4 60.6 15.3 59.7C16.5 60.7 17.9 61.7 19.4 62.4C19.6 63.1 19.8 63.8 20 64.4ZM19.3 61.2C18.8 60.9 18.3 60.7 17.8 60.4C17 59.9 16.2 59.4 15.3 58.9C15.3 58.5 15.3 58 15.4 57.5C16.6 58.4 17.8 59.4 19.1 60.1C19.2 60.5 19.2 60.9 19.3 61.2ZM17.2 55.9C17.8 56.3 18.4 57 19 57.3C19 57.8 19 58.3 19.1 58.9C18.7 58.7 18.4 58.5 18 58.3C17.2 57.8 16.3 57.3 15.5 56.8C15.6 56 15.6 55.1 15.3 54.4C15.9 54.9 16.5 55.4 17.2 55.9ZM2.29999 53.8C5.99999 54.1 9.69999 54.4 13.5 54.5V54.6C14.1 55.6 13.5 57.1 13.4 58.2C13.4 59.4 13.4 60.6 13.7 61.8C14.2 64 15.3 66 17.1 67.3C20.3 69.6 24.6 68.8 27.5 66.4C30.8 63.7 31 58.9 28.7 55.5C26.3 52 22.2 50.6 18.1 50.9C18.6 45.4 18.6 39.3 17.8 33.8C17.9 33.9 18.1 34 18.4 34C26.5 34.4 35.3 27.2 31.3 18.5C27.1 9.69999 16 12 14.5 21.2C14.4 21.2 14.4 21.3 14.4 21.3H14.3C10.2 20.9 5.89999 21.2 1.69999 21.7C1.79999 20.5 1.69999 19.2 1.89999 18C1.99999 16.9 2.09999 15.8 2.29999 14.7C4.99999 7.19999 11.5 3.49999 19.5 2.59999C26.5 1.79999 34.2 2.59999 39.4 7.79999C49.9 18.5 45.6 39.9 29.8 42.4C29.7 42.4 29.7 42.4 29.6 42.5C29.5 42.5 29.4 42.5 29.3 42.5C28.8 42.5 28.6 43.4 29.2 43.4C29.2 43.4 29.2 43.4 29.3 43.4C29.4 43.8 29.7 44.1 30.1 44C30.5 44 30.9 43.9 31.3 43.8C38.6 46 42.9 52.8 44.8 60C45.9 64.1 46.3 69.2 43.8 73C41 77 36 78.2 31.4 78.7C23.9 79.5 15.3 79.4 9.19999 74.3C2.99999 69.3 0.999995 61.4 2.29999 53.8ZM8.49999 76.5C8.59999 76.6 8.59999 76.6 8.69999 76.7C10.1 77.7 11.6 78.6 13.3 79.3C14 80.1 14.7 80.9 15.3 81.6C15.4 81.7 15.4 81.7 15.5 81.8C12.9 80.3 10.5 78.6 8.49999 76.5ZM17.7 82.9C17.3 82.2 16.5 81.6 15.9 81C15.5 80.6 15.1 80.1 14.6 79.7C15.3 79.9 16.1 80.2 16.8 80.3C16.7 80.4 16.7 80.6 16.8 80.7C18 81.7 19.1 82.8 20.2 83.9C19.4 83.7 18.5 83.3 17.7 82.9ZM22.2 84.6C20.8 83.1 19.1 81.8 17.5 80.5C18.7 80.8 19.9 80.9 21.1 81.1C21.8 82.1 22.6 83.1 23.5 83.9C23.9 84.3 24.3 84.8 24.8 85.2C23.9 85.1 23.1 84.9 22.2 84.6ZM26.7 85.6C26.1 84.7 25 84.1 24.3 83.4C23.6 82.7 22.9 82 22.3 81.2C23.2 81.3 24.1 81.3 25.1 81.3C25.9 82.2 26.7 83.1 27.5 83.9C28.1 84.5 28.6 85.2 29.3 85.8C28.4 85.9 27.5 85.8 26.7 85.6ZM30.6 85.9C30.1 84.9 28.9 84.1 28.1 83.3C27.4 82.6 26.7 82 26 81.3C26.9 81.3 27.8 81.2 28.6 81.2C29.3 82.1 30 83 30.7 83.9C31.2 84.5 31.7 85.3 32.3 85.9C31.8 85.9 31.2 85.9 30.6 85.9ZM33.4 85.8C32.9 84.9 32 84.1 31.3 83.3C30.6 82.6 30 81.9 29.3 81.1C30.2 81 31 80.9 31.8 80.8C32.6 81.8 33.5 82.8 34.2 83.9C34.5 84.4 34.8 85 35.2 85.5C34.7 85.6 34.1 85.7 33.4 85.8ZM36.6 85.2C36.2 84.4 35.6 83.8 35.1 83.1C34.4 82.2 33.7 81.4 32.9 80.6C33.7 80.5 34.6 80.3 35.4 80.1C36.4 81.6 37.6 83.3 38.9 84.4C38.2 84.8 37.4 85 36.6 85.2ZM40 84C39.5 83.2 38.7 82.5 38.1 81.8C37.5 81.2 37 80.5 36.5 79.9C36.6 79.9 36.8 79.8 36.9 79.8C37.8 79.5 38.7 79.2 39.5 78.8C39.8 79.6 40.2 80.3 40.6 81C41 81.6 41.5 82.4 42.1 83C41.4 83.4 40.7 83.7 40 84ZM44.5 81.2C44 81.6 43.5 82 43 82.3C42.5 81.6 41.8 81 41.4 80.3C41 79.7 40.7 79 40.3 78.4C40.9 78.1 41.5 77.7 42 77.3C42.5 78.1 43 78.9 43.6 79.6C44 80.1 44.3 80.6 44.8 81C44.7 81 44.6 81.1 44.5 81.2ZM45.7 80.2C45.3 79.8 44.9 79.3 44.5 78.9C43.9 78.2 43.3 77.5 42.8 76.7C43.3 76.2 43.8 75.8 44.2 75.2C44.6 75.7 45 76.2 45.5 76.7C46 77.3 46.5 78 47.2 78.5C46.7 79.1 46.2 79.7 45.7 80.2ZM47.7 77.9C47.3 77.2 46.7 76.6 46.2 76C45.7 75.5 45.3 75 44.8 74.4C45.3 73.7 45.7 72.9 46.1 72.1C46.9 73.4 48 74.8 49.2 75.7C48.7 76.6 48.2 77.3 47.7 77.9ZM49.8 74.8C49.3 74.3 48.8 73.9 48.4 73.4C47.7 72.7 47.1 71.9 46.6 71C46.9 70.1 47.1 69.2 47.3 68.2C47.9 68.7 48.5 69.3 49 69.9C49.7 70.6 50.3 71.5 51.1 72C50.7 73 50.2 73.9 49.8 74.8ZM51.4 71.1C50.9 70.3 50.2 69.7 49.6 69.1C48.9 68.4 48.1 67.8 47.4 67.2C47.5 66 47.5 64.8 47.4 63.5C48 64.1 48.7 64.7 49.3 65.3C50.2 66.2 51 67.3 52 68C52.1 68 52.1 68 52.2 68C51.9 69 51.7 70 51.4 71.1ZM52.1 67C51.4 66 50.4 65.2 49.6 64.5C48.8 63.8 48 63.1 47.2 62.5C47.1 61.8 47 61.1 46.8 60.3C46.7 59.9 46.6 59.4 46.5 59C48.2 60.7 50.1 62.6 52.2 63.9C52.2 64.9 52.2 66 52.1 67Z" fill="black"/>
<path d="M104.2 39.3C99.7 33.9 92.3 31.3 84.9 32.2C85 31.9 85.1 31.7 85.2 31.4C85.4 31.4 85.5 31.1 85.4 30.9C88.1 24.5 95.6 16.6 102.7 19C103.6 19.3 104 18.1 103.5 17.6C103.7 13.7 103.9 9.4 103.4 5.6C103.3 5.1 102.8 4.8 102.4 5C99.8 3.7 97.3 2.4 94.8 0.800005C94.5 0.600005 94 1 94 1.4C93.9 1.5 93.9 1.6 93.8 1.7C93.4 3.2 93.7 5 93.9 6.5C94.1 8.1 94.3 9.8 95 11.2C94.9 11.2 94.9 11.2 94.8 11.2C85 12.8 75.4 25.2 77.1 35.1C77.2 35.4 77.4 35.5 77.7 35.5C77.9 35.7 78.2 35.9 78.6 35.7C86.4 32.4 95.5 32.8 101.8 39.1C107.9 45.2 107.9 54.4 105.8 62.3C105.5 63.4 105.1 64.5 104.7 65.6C104.5 65.6 104.3 65.9 104.5 66.1C102.2 71.8 98.4 76.9 92.7 79.5C86.1 82.5 76.1 83.7 69.6 79.7C62.7 75.4 61 64.9 60.5 57.5C59.9 49.2 61.2 40.9 63.5 33C67.7 18.6 75.5 0.800005 93.2 1.8C93.9 1.8 94 0.800005 93.4 0.600005C79.7 -2.49999 70.3 10.7 65.7 21.7C59.5 36.6 56.1 54 61.2 69.8C62.3 73.3 63.9 76.6 66.4 79C76.6 91.3 98 88.4 107.6 76.9C116.8 65.7 115.9 48.4 104.2 39.3ZM102.1 17.1C101.2 16.2 100 15.4 99 14.6C97.9 13.7 96.8 12.8 95.8 11.9C95.8 11.8 95.8 11.7 95.8 11.7C95.9 11.7 95.9 11.6 96 11.5C96.1 11.1 96.1 10.7 96.1 10.3C96.8 10.9 97.4 11.6 98.1 12.2C99 13.1 99.9 14.2 101.1 14.8C101.4 15 101.9 14.6 101.6 14.3C100.9 13.2 99.7 12.4 98.7 11.6C97.8 10.9 96.9 10.1 96.1 9.4C96 8.5 95.9 7.6 95.8 6.7C95.8 6.6 95.8 6.5 95.8 6.3C96.4 7.20001 97.3 8 98.1 8.7C99.2 9.7 100.4 11 101.7 11.7H101.8C101.7 13.5 101.9 15.4 102.1 17.1ZM101.9 6.6C101.7 7.7 101.7 8.90001 101.7 10.1C100.8 9.3 99.7 8.60001 98.8 7.9C97.8 7.1 96.8 5.9 95.7 5.3C95.7 4.5 95.6 3.7 95.5 2.9C97.4 4.4 99.7 5.7 101.9 6.6ZM95.3 12.6C96.4 13.6 97.5 14.5 98.5 15.5C99 15.9 99.5 16.4 100 16.9C99.2 16.9 98.4 17 97.6 17.2C97 16.6 96.3 16.2 95.7 15.6C94.8 14.9 94 14.2 93.1 13.5C93.8 13.3 94.6 12.9 95.3 12.6ZM92.2 14.1C93.1 14.9 94.1 15.7 95 16.4C95.5 16.8 95.9 17.2 96.4 17.6C95.8 17.8 95.3 18 94.7 18.3C94.2 17.7 93.5 17.3 92.8 16.9C92 16.3 91.2 15.7 90.4 15.1C91 14.7 91.6 14.4 92.2 14.1ZM89.9 15.4C90.7 16.1 91.5 16.8 92.3 17.5C92.8 17.9 93.2 18.4 93.7 18.7C93 19.1 92.4 19.5 91.8 19.9C91.2 19.3 90.6 18.9 89.9 18.5C89.2 18 88.4 17.4 87.7 16.9C88.4 16.4 89.1 15.9 89.9 15.4ZM87 17.5C87.7 18.1 88.5 18.8 89.2 19.4C89.7 19.8 90.3 20.3 90.8 20.7C90.2 21.2 89.6 21.7 89.1 22.3C88.5 21.9 87.9 21.5 87.4 21.1C86.6 20.5 85.8 20 84.9 19.4C85.7 18.7 86.4 18.1 87 17.5ZM84.5 19.9C85.3 20.5 86.1 21.2 86.9 21.8C87.4 22.2 87.9 22.7 88.5 23.1C88.1 23.6 87.6 24.1 87.2 24.6C86.6 24 85.8 23.6 85.1 23.1C84.4 22.6 83.7 22.1 83.1 21.5C83.6 21 84 20.4 84.5 19.9ZM82.7 22.1C83.3 22.7 84 23.3 84.7 23.8C85.4 24.3 86.1 25 86.8 25.3C86.3 26 85.9 26.6 85.6 27.3C84.3 26.2 82.9 25.2 81.5 24.1C81.4 24.1 81.4 24.1 81.3 24.1C81.7 23.4 82.2 22.7 82.7 22.1ZM78.3 34C78.3 32.5 78.6 31.1 78.9 29.7C79.3 30.5 80.2 31.1 80.9 31.7C81.3 32.1 81.8 32.4 82.2 32.7C80.9 33 79.6 33.4 78.3 34ZM83.9 32.4C83.8 32.4 83.6 32.5 83.5 32.5C82.8 32 82.1 31.6 81.4 31.1C80.7 30.6 80 29.8 79.2 29.5C79.1 29.5 79.1 29.5 79 29.5C79.2 28.7 79.5 28 79.8 27.3C80.6 28 81.4 28.7 82.3 29.4C82.9 29.9 83.6 30.6 84.2 31.1C84 31.4 84 31.9 83.9 32.4ZM82.7 28.7C81.8 28 80.9 27.3 80 26.7C80.3 25.9 80.7 25.2 81.1 24.4V24.5C82.4 25.7 83.8 26.9 85.2 27.9C84.9 28.6 84.6 29.3 84.4 30C83.8 29.6 83.2 29.2 82.7 28.7ZM111.7 55.5C111.3 55.2 110.9 54.8 110.5 54.5C109.9 54 109.4 53.4 108.8 52.9C108.8 52.5 108.8 52.2 108.8 51.8C108.8 51.4 108.8 51.1 108.7 50.7C109.4 51.5 110.2 52.2 111.1 52.8C111.3 53.7 111.5 54.6 111.7 55.5ZM108.7 54.3C109.1 54.7 109.4 55.1 109.8 55.4C110.5 56 111.1 56.7 111.9 57.2C112 57.8 112 58.5 112 59.1C111.6 58.7 111.1 58.4 110.7 58C110 57.4 109.3 56.8 108.5 56.2C108.7 55.5 108.7 54.9 108.7 54.3ZM110.5 51C110.4 51 110.4 50.9 110.3 50.9C109.7 50.4 109.1 49.8 108.5 49.3C108.3 48 108 46.7 107.6 45.6C108.8 47.3 109.8 49.1 110.5 51ZM76.6 83.6C78.4 83.8 80.2 83.8 82 83.7C82.6 84 83.2 84.4 83.8 84.7C84 84.8 84.3 85 84.5 85.1C81.8 84.9 79.2 84.4 76.6 83.6ZM86.5 85.1C85.8 84.6 84.9 84.3 84.1 83.9C83.8 83.8 83.6 83.7 83.3 83.5C84 83.4 84.7 83.3 85.3 83.2C86.1 83.8 87 84.5 88 85C87.6 85.1 87.1 85.1 86.5 85.1ZM90.1 84.8C89.4 84.4 88.6 84.1 87.9 83.8C87.4 83.6 87 83.3 86.5 83.1C87.4 82.9 88.3 82.7 89.1 82.5C89.6 82.9 90.2 83.2 90.7 83.6C91.1 83.9 91.6 84.2 92.1 84.5C91.4 84.6 90.8 84.7 90.1 84.8ZM93.3 84.1C92.7 83.5 91.9 83.1 91.2 82.7L90.1 82.1C90.4 82 90.6 81.9 90.9 81.9C91.3 81.8 91.7 81.6 92.1 81.4L93.5 82.5C93.9 82.8 94.4 83.3 94.9 83.5C94.4 83.8 93.9 84 93.3 84.1ZM95.8 83.3C95.5 82.6 94.7 82.3 94.1 81.9C93.7 81.7 93.3 81.4 92.9 81.2C93.7 80.9 94.4 80.5 95.1 80.1C95.6 80.6 96 81.1 96.5 81.5C96.9 81.8 97.3 82.2 97.8 82.5C97.2 82.7 96.5 83 95.8 83.3ZM99 81.7C98.5 81.3 97.8 81 97.3 80.6C96.8 80.3 96.3 79.9 95.9 79.5C96.6 79.1 97.2 78.6 97.9 78.1C98.4 78.7 98.9 79.2 99.5 79.6C99.9 79.9 100.4 80.3 100.9 80.6C100.3 81 99.7 81.4 99 81.7ZM101.8 79.9C101.3 79.5 100.6 79.3 100.1 78.9C99.5 78.5 99 78.1 98.4 77.6C99.1 77 99.7 76.4 100.3 75.8C100.8 76.3 101.2 76.9 101.8 77.4C102.3 77.8 102.8 78.4 103.4 78.7C102.8 79.1 102.3 79.5 101.8 79.9ZM105.8 76.3C105.2 77 104.6 77.6 104 78.2C103.5 77.6 102.7 77.3 102.1 76.8C101.6 76.4 101.1 76 100.7 75.5C101.4 74.8 102 74 102.6 73.1C103.1 73.5 103.6 73.9 104 74.3C104.6 74.8 105.3 75.5 106 75.9C106 76.1 105.9 76.2 105.8 76.3ZM106.6 75.3C106 74.6 105.2 74.1 104.5 73.6C104 73.2 103.5 72.8 103 72.4C103.4 71.8 103.8 71.2 104.1 70.6C105.2 71.7 106.4 72.9 107.8 73.7C107.4 74.2 107 74.7 106.6 75.3ZM108.3 72.8C107.7 72.3 107.1 71.9 106.5 71.4C105.9 70.9 105.2 70.4 104.6 69.9C105.1 69 105.5 68.1 105.9 67.2C106.4 67.6 106.8 68 107.3 68.4C108 69.1 108.8 69.9 109.7 70.4C109.2 71.2 108.8 72 108.3 72.8ZM110 69.6C109.4 68.9 108.5 68.4 107.8 67.8C107.2 67.3 106.7 66.9 106.1 66.4C106.5 65.5 106.8 64.6 107 63.7C107.6 64.2 108.1 64.7 108.7 65.1C109.4 65.7 110 66.4 110.9 66.8H111C110.7 67.8 110.4 68.7 110 69.6ZM111.3 66.1C110.7 65.5 110 65 109.4 64.5C108.7 64 108.1 63.5 107.4 63C107.6 62.4 107.7 61.8 107.9 61.1C108.5 61.6 109 62.1 109.6 62.6C110.3 63.2 111 63.9 111.7 64.3C111.5 64.9 111.4 65.5 111.3 66.1ZM111.8 63.2C111.3 62.7 110.6 62.3 110 61.8C109.3 61.3 108.6 60.7 107.9 60.2C108.1 59.2 108.3 58.1 108.4 57.1C108.9 57.6 109.5 58.1 110 58.6C110.6 59.2 111.2 59.9 112 60.4C112 61.3 112 62.3 111.8 63.2Z" fill="black"/>
<path d="M83.8 43.8C83.7 43.8 83.7 43.9 83.6 43.9C76.1 43.6 69.5 48.2 68.9 56.3C68.2 64.9 73.7 72.7 82.8 72.8C90.7 72.9 97.3 66.1 98.1 58.5C99 50.6 92.5 41.2 83.8 43.8ZM94.9 51.7C94.7 51.6 94.5 51.5 94.4 51.5C94.4 51.4 94.4 51.3 94.3 51.1C93.4 49.9 91.9 49 90.8 47.9C90 47.2 89.2 46.5 88.4 45.7C91.5 46.9 93.7 49 94.9 51.7ZM86 45.2C86.3 45.2 86.6 45.3 86.8 45.4C87.9 46.5 88.9 47.6 90 48.7C90.6 49.3 91.2 49.9 91.8 50.5C90.8 50.2 89.7 50 88.6 49.9C87 48.4 85.2 47 83.6 45.5C84.4 45.3 85.2 45.2 86 45.2ZM82.7 45.6C84 47 85.4 48.5 86.9 49.8C86.3 49.8 85.6 49.9 85 50C84.3 49.4 83.5 48.9 82.7 48.3C81.7 47.6 80.7 46.9 79.8 46.2C80.7 46 81.7 45.8 82.7 45.6ZM79 46.4C80.1 47.3 81.1 48.1 82.2 49C82.7 49.4 83.3 49.9 83.8 50.3C83.1 50.5 82.5 50.8 81.8 51.1C81 50.6 80.2 50.1 79.5 49.5C78.6 48.8 77.7 48 76.9 47.1C77.6 46.9 78.3 46.7 79 46.4ZM76.2 47.6C77.1 48.7 78.1 49.6 79.2 50.6C79.7 51 80.2 51.5 80.8 51.9C80.4 52.2 79.9 52.5 79.6 52.9C78.9 52.4 78.2 52 77.6 51.6C76.4 50.8 75.3 49.9 74.2 49C74.8 48.4 75.5 48 76.2 47.6ZM73.6 49.5C74.6 50.4 75.7 51.3 76.8 52.2C77.4 52.7 78.1 53.2 78.8 53.7C78.3 54.3 77.9 54.9 77.6 55.5C76.9 54.9 76.1 54.4 75.4 53.9C74.3 53.1 73.1 52.4 72 51.7C72.4 50.9 73 50.1 73.6 49.5ZM71.7 52.3C72.7 53 73.8 53.8 74.8 54.5C75.6 55.1 76.4 55.9 77.3 56.4C77 57.1 76.9 57.9 76.7 58.7C75.9 58.2 75 57.7 74.1 57.1C73 56.4 71.9 55.6 70.8 54.9C71.1 53.9 71.4 53.1 71.7 52.3ZM70.6 57.3C70.6 56.8 70.7 56.3 70.7 55.8C72.5 57.3 74.5 58.9 76.6 60C76.6 60.8 76.6 61.5 76.7 62.3C75.8 61.7 74.7 61.2 73.8 60.6C72.8 60 71.8 59.3 70.7 58.8C70.6 58.2 70.6 57.7 70.6 57.3ZM70.7 59.5C71.5 60.1 72.4 60.7 73.3 61.2C74.4 61.9 75.6 62.8 76.8 63.3C76.9 63.9 77 64.5 77.2 65.1C76.2 64.6 75.2 64.2 74.3 63.7C73.2 63 72.1 62.3 71 61.5C70.9 60.9 70.8 60.2 70.7 59.5ZM77.4 69.7C77.7 69.8 78 70 78.3 70C78.6 70.1 78.9 69.7 78.6 69.4C77.6 68.5 76.2 67.9 75.1 67.1C74.2 66.5 73.4 65.9 72.6 65.2C72.1 64.4 71.7 63.5 71.4 62.6C72.2 63.3 73 63.9 73.9 64.4C75 65.1 76.3 66 77.6 66.3C78.1 67.8 78.8 69.2 79.5 70.4C78.8 70.4 78.1 70.1 77.4 69.7ZM82.9 71C82 71 81.2 70.9 80.5 70.7C78.8 66.2 76.8 59.8 79.6 55.4C79.8 55 80.1 54.7 80.4 54.3C80.7 54.4 80.9 54.1 80.8 53.8C81.3 53.3 81.8 52.9 82.4 52.5C82.5 52.5 82.5 52.5 82.6 52.6C82.9 52.7 83.1 52.4 83.1 52.2C86.9 50.4 91.9 51.8 95.7 53.8C97.4 61.5 92.7 71.1 82.9 71Z" fill="black"/>
<path d="M197 12.2C196.9 10.6 196.6 9 195.9 7.3C194.7 4 192.5 0.699999 188.8 0.599999C186.6 -0.200001 184.1 0.099999 181.9 1.5C178.3 4 177.6 9 178 13.2C178.2 14.9 178.6 16.8 179.4 18.5C179.4 18.5 179.3 18.5 179.3 18.6C180.7 22.1 182.9 25 186.9 25.3C190.7 25.6 193.9 23 195.5 19.6C196.6 17.2 197.1 14.8 197 12.3V12.2ZM196.5 11.9C196.3 11.8 196.2 11.8 196 11.7C195.6 11.5 195.2 11.4 194.9 11.2H194.8C194.8 10.9 194.7 10.5 194.7 10.2C195.3 10.6 195.8 10.9 196.5 11.2C196.5 11.5 196.5 11.7 196.5 11.9ZM196.4 10.9C195.8 10.6 195.2 10.3 194.6 9.9C194.6 9.7 194.5 9.5 194.5 9.3C195.1 9.6 195.7 10 196.3 10.2C196.3 10.4 196.4 10.7 196.4 10.9ZM196.2 9.8C195.6 9.5 195 9.2 194.4 9C194.3 8.7 194.3 8.5 194.2 8.2C194.8 8.6 195.4 9 196 9.2C196.1 9.4 196.2 9.6 196.2 9.8ZM195.7 8.1C195.8 8.4 195.9 8.6 196 8.9C195.5 8.5 194.8 8.3 194.2 8C194.1 7.8 194.1 7.6 194 7.4C194.5 7.6 195.1 7.9 195.7 8.1ZM195.3 7.2C195.4 7.4 195.5 7.6 195.6 7.9C195.1 7.6 194.4 7.3 193.8 7.1C193.7 6.9 193.6 6.6 193.5 6.4C194.1 6.6 194.7 7 195.3 7.2ZM195.2 6.9C194.7 6.6 194 6.3 193.4 6C193.3 5.7 193.2 5.5 193 5.2C193.3 5.3 193.6 5.5 194 5.6C194.2 5.7 194.5 5.8 194.7 5.9C194.9 6.3 195.1 6.6 195.2 6.9ZM194.2 4.9C194.3 5.1 194.5 5.3 194.6 5.6C194.5 5.5 194.3 5.5 194.2 5.5C193.8 5.4 193.5 5.2 193.1 5.1C193.1 5.1 193.1 5.1 193 5.1C192.9 4.8 192.7 4.6 192.6 4.3C193.1 4.6 193.6 4.8 194.2 4.9ZM193.4 3.8C193.6 4.1 193.8 4.3 194 4.6C193.5 4.4 193 4.2 192.5 4H192.4C192.3 3.8 192.2 3.6 192.1 3.4C192.5 3.5 192.9 3.7 193.4 3.8ZM193.1 3.4C192.7 3.2 192.2 3.1 191.8 3C191.7 2.9 191.6 2.8 191.5 2.7C191.6 2.7 191.7 2.8 191.8 2.8C192.1 2.9 192.3 3 192.6 3.1H192.7C192.9 3.1 193 3.3 193.1 3.4ZM192.2 2.5C192.1 2.5 192 2.4 192 2.4C191.7 2.3 191.5 2.2 191.2 2.2C190.9 1.9 190.6 1.6 190.2 1.3C191 1.6 191.6 2 192.2 2.5ZM178.4 11.3C178.3 6.2 180.8 0.599999 186.5 0.599999C187.2 0.599999 187.8 0.699999 188.4 0.899999C188.4 0.899999 188.5 0.999999 188.6 0.999999C192.5 2.6 194.2 8.4 194.4 12.4C194.6 15.1 194.1 17.9 192.4 20C190.8 21.9 188.4 23.2 185.9 22.8H185.8C180.4 22.1 178.5 16.4 178.4 11.3ZM181.1 21.1C181.6 21.7 182.2 22.2 182.8 22.5C183.4 23 183.9 23.6 184.6 24.2C183.1 23.5 182 22.4 181.1 21.1ZM185.3 24.5C184.8 23.9 184.2 23.4 183.6 23C183.9 23.1 184.3 23.2 184.7 23.3C185 23.6 185.3 23.9 185.6 24.2C185.8 24.4 186 24.6 186.3 24.8C185.9 24.6 185.6 24.6 185.3 24.5ZM186.7 24.8C186.4 24.5 186 24.2 185.7 23.9C185.5 23.7 185.2 23.5 185 23.3C185.2 23.3 185.5 23.3 185.7 23.3C186.2 23.8 186.7 24.4 187.3 24.8C187.1 24.8 186.9 24.8 186.7 24.8ZM187.7 24.8C187.4 24.5 187.1 24.2 186.7 23.9C186.5 23.7 186.2 23.5 186 23.3C186.3 23.3 186.6 23.4 186.8 23.4C187.1 23.7 187.4 24 187.7 24.3C187.9 24.4 188 24.6 188.2 24.7C188.1 24.8 187.9 24.8 187.7 24.8ZM188.7 24.7C188.5 24.5 188.2 24.3 187.9 24.1C187.6 23.9 187.4 23.7 187.1 23.4C187.4 23.4 187.8 23.4 188.1 23.3C188.3 23.5 188.5 23.7 188.7 23.8C188.9 24 189.2 24.3 189.5 24.4C189.6 24.4 189.7 24.3 189.6 24.2C189.4 23.9 189.1 23.7 188.9 23.6C188.7 23.5 188.6 23.4 188.4 23.2C188.6 23.1 188.9 23.1 189.1 23C189.3 23.2 189.6 23.5 189.8 23.7C190 23.8 190.1 24 190.3 24.1C189.9 24.4 189.3 24.6 188.7 24.7ZM190.8 24C190.6 23.8 190.4 23.7 190.2 23.5C190 23.3 189.8 23.1 189.5 23C189.7 22.9 189.9 22.8 190 22.8C190.2 23 190.4 23.2 190.7 23.4C190.9 23.5 191.1 23.7 191.3 23.8C191.1 23.8 191 23.9 190.8 24ZM191.6 23.5C191.4 23.3 191.1 23.1 190.9 23C190.7 22.9 190.5 22.7 190.3 22.6C190.5 22.5 190.8 22.3 191 22.2C191.2 22.4 191.4 22.5 191.5 22.7C191.7 22.9 191.9 23.1 192.1 23.2C191.9 23.3 191.7 23.4 191.6 23.5ZM192.3 22.9C192.1 22.7 191.9 22.5 191.6 22.4C191.4 22.3 191.3 22.1 191.1 22C191.2 21.9 191.4 21.8 191.5 21.7C191.8 22 192.2 22.4 192.6 22.6C192.6 22.7 192.5 22.8 192.3 22.9ZM192.9 22.4C192.8 22.3 192.6 22.2 192.4 22C192.2 21.8 192 21.7 191.7 21.5C191.8 21.4 192 21.2 192.1 21.1C192.2 21.3 192.4 21.5 192.5 21.6C192.7 21.8 192.8 22 193 22.1C193.1 22.2 193 22.3 192.9 22.4ZM193.3 22C193.1 21.8 192.9 21.7 192.8 21.5C192.6 21.3 192.5 21.2 192.3 21C192.4 20.8 192.6 20.7 192.7 20.5C192.9 20.7 193 20.8 193.2 21C193.3 21.2 193.5 21.4 193.7 21.5C193.5 21.7 193.4 21.8 193.3 22ZM193.9 21.3C193.8 21.1 193.6 21 193.4 20.8C193.2 20.6 193.1 20.5 192.9 20.3C193 20.2 193.1 20 193.2 19.9C193.4 20.1 193.6 20.3 193.9 20.5C194 20.6 194.1 20.7 194.3 20.8C194.1 20.9 194 21.1 193.9 21.3ZM194.4 20.5C194.3 20.4 194.2 20.4 194 20.3C193.8 20.1 193.5 20 193.3 19.8C193.4 19.6 193.6 19.4 193.7 19.1C193.9 19.3 194 19.4 194.2 19.6C194.4 19.8 194.5 20 194.7 20.1C194.6 20.2 194.5 20.4 194.4 20.5ZM194.8 19.8C194.7 19.6 194.5 19.5 194.3 19.4C194.1 19.2 193.9 19.1 193.7 18.9C193.8 18.7 193.9 18.5 194 18.3C194.2 18.5 194.4 18.7 194.6 18.9C194.7 19 194.9 19.1 195 19.2C195 19.4 194.9 19.6 194.8 19.8ZM195.2 18.9C195.1 18.8 194.9 18.7 194.8 18.6C194.6 18.4 194.4 18.2 194.2 18.1C194.2 18.1 194.2 18.1 194.1 18.1C194.2 17.9 194.3 17.6 194.3 17.4C194.5 17.6 194.7 17.7 194.9 17.9C195.1 18 195.2 18.2 195.4 18.3C195.4 18.5 195.3 18.7 195.2 18.9ZM195.6 17.9C195.5 17.8 195.3 17.6 195.2 17.5C195 17.3 194.8 17.2 194.5 17C194.6 16.7 194.7 16.4 194.7 16C194.9 16.2 195.2 16.4 195.4 16.6C195.5 16.7 195.7 16.9 195.9 17C195.8 17.4 195.7 17.7 195.6 17.9ZM196 16.8C195.9 16.7 195.7 16.6 195.6 16.5C195.3 16.3 195.1 16.1 194.8 15.9C194.9 15.6 194.9 15.3 194.9 15C195.2 15.2 195.4 15.4 195.7 15.6C195.9 15.8 196 15.9 196.2 16.1C196.1 16.3 196.1 16.5 196 16.8ZM196.2 15.7C195.8 15.3 195.3 15 194.9 14.7C194.9 14.4 194.9 14.1 195 13.8C195.2 14 195.5 14.1 195.7 14.3C195.9 14.5 196.2 14.7 196.5 14.8C196.4 15.2 196.3 15.5 196.2 15.7ZM196.4 14.5C196.2 14.3 195.9 14.2 195.7 14.1C195.4 13.9 195.1 13.8 194.9 13.6C194.9 13.3 194.9 12.9 194.9 12.6C195.2 12.8 195.4 12.9 195.7 13.1C196 13.3 196.2 13.6 196.5 13.7C196.5 14 196.5 14.3 196.4 14.5ZM196.5 13.2C196.3 13.1 196.1 12.9 195.9 12.8C195.6 12.6 195.2 12.4 194.8 12.2C194.8 11.9 194.8 11.6 194.7 11.3C195.1 11.5 195.4 11.7 195.8 11.9C196 12 196.2 12.1 196.4 12.1C196.5 12.5 196.5 12.9 196.5 13.2Z" fill="black" stroke="black" stroke-width="0.25" stroke-miterlimit="10"/>
<path d="M191.2 11.7C190.9 8.8 189.5 4.1 185.7 4.8C182.1 5.5 181.9 10.2 182 13.1C182.1 15.8 183.7 20.3 187 19.3H187.1C191.1 19.7 191.6 14.6 191.2 11.7ZM189 6.8C188.9 6.8 188.8 6.7 188.7 6.7C188.4 6.4 188 6.2 187.6 6C187.3 5.8 186.9 5.5 186.6 5.3C187.7 5.3 188.4 5.9 189 6.8ZM185.5 5.5C185.8 5.4 186 5.4 186.2 5.3C186.6 5.6 187 5.9 187.4 6.2C187.6 6.3 187.8 6.5 188 6.6C187.8 6.6 187.6 6.6 187.4 6.7C186.8 6.2 186.1 5.8 185.5 5.5ZM185.1 5.6C185.4 5.8 185.8 6 186.1 6.2C186.4 6.4 186.7 6.6 187 6.8C186.8 6.9 186.6 7 186.3 7.1C185.7 6.7 185 6.4 184.4 6C184.6 5.9 184.9 5.8 185.1 5.6ZM184.3 6.2C184.9 6.6 185.5 7 186.1 7.3C186 7.4 185.8 7.5 185.7 7.7C185.7 7.7 185.7 7.6 185.6 7.6C185.1 7.2 184.5 6.9 183.9 6.7C184 6.5 184.1 6.4 184.3 6.2ZM183.7 6.8C184.3 7.2 184.8 7.5 185.4 7.8H185.5C185.4 7.9 185.2 8.1 185.1 8.2C184.5 7.9 183.9 7.6 183.3 7.3C183.5 7.2 183.6 7 183.7 6.8ZM183.3 7.6C183.9 7.9 184.4 8.3 185 8.5C184.9 8.6 184.8 8.8 184.8 8.9C184.6 8.7 184.3 8.6 184 8.5C183.7 8.4 183.4 8.3 183.1 8.1C183.1 8 183.2 7.8 183.3 7.6ZM183 8.4C183.3 8.5 183.6 8.7 183.9 8.8C184.1 8.9 184.4 9.1 184.6 9.2C184.5 9.4 184.4 9.5 184.4 9.7C184.2 9.6 183.9 9.5 183.7 9.4C183.4 9.3 183.1 9.2 182.9 9C182.9 8.8 182.9 8.6 183 8.4ZM182.8 9.3C183.3 9.6 183.8 9.9 184.3 10C184.2 10.3 184.1 10.5 184.1 10.8C183.6 10.6 183.2 10.4 182.7 10.2C182.7 9.9 182.7 9.6 182.8 9.3ZM182.6 10.5C183.1 10.7 183.5 10.9 184 11.1C184 11.3 183.9 11.6 183.9 11.8C183.5 11.6 183 11.5 182.5 11.3C182.6 11 182.6 10.8 182.6 10.5ZM182.6 12.9C182.6 12.5 182.6 12 182.6 11.6C183 11.8 183.5 12 184 12C184 12.2 184 12.4 184 12.6C183.6 12.4 183.2 12.3 182.8 12.2C182.7 12.2 182.7 12.3 182.8 12.3C183.2 12.5 183.6 12.7 184.1 12.8C184.1 13 184.1 13.2 184.1 13.4C183.7 13.2 183.2 13.1 182.8 12.9C182.6 13 182.6 12.9 182.6 12.9ZM182.6 13.2C183 13.4 183.5 13.6 184 13.8C184 14 184 14.2 184.1 14.4C183.7 14.2 183.2 14 182.7 13.9C182.6 13.7 182.6 13.4 182.6 13.2ZM182.7 14.1C183.2 14.3 183.6 14.5 184.1 14.7C184.1 14.9 184.2 15.1 184.2 15.3C183.7 15.2 183.3 15 182.8 14.8C182.7 14.5 182.7 14.3 182.7 14.1ZM182.8 14.9C183.2 15.2 183.7 15.4 184.2 15.5C184.3 15.7 184.3 16 184.4 16.2C183.9 16 183.5 15.8 183 15.6C182.9 15.4 182.9 15.2 182.8 14.9ZM183.1 15.9C183.5 16.2 184 16.5 184.5 16.6C184.6 16.8 184.6 17 184.7 17.1C184.2 16.9 183.7 16.7 183.3 16.4C183.2 16.3 183.2 16.1 183.1 15.9ZM183.8 17.3C183.7 17.1 183.6 17 183.5 16.8C183.9 17.1 184.4 17.4 184.9 17.4C185 17.6 185.2 17.9 185.3 18.1C184.8 17.9 184.3 17.6 183.8 17.3ZM184.3 17.9C184.7 18.1 185.1 18.3 185.5 18.4H185.6C185.7 18.5 185.8 18.7 186 18.8C185.3 18.7 184.8 18.4 184.3 17.9ZM187.1 18.8C187 18.8 187 18.8 187 18.8C186.8 18.8 186.6 18.8 186.3 18.8C185.8 18.2 185.3 17.5 185 16.7C185.1 16.7 185.1 16.6 185 16.5H184.9C184.4 15.2 184.3 13.9 184.3 12.5C184.3 9.8 185.7 6.4 189 7.3C189.1 7.3 189.2 7.3 189.2 7.2C190 8.6 190.4 10.4 190.5 11.7C191 14.4 190.8 18.8 187.1 18.8Z" fill="black" stroke="black" stroke-width="0.25" stroke-miterlimit="10"/>
</g>
<defs>
<clipPath id="clip0">
<rect width="197.1" height="87.7" fill="white"/>
</clipPath>
</defs>
</svg>
