<svg width="92" height="120" viewBox="0 0 92 120" fill="none" xmlns="http://www.w3.org/2000/svg">
<g clip-path="url(#clip0)">
<path d="M36.8944 40.9938C34.2857 39.8758 34.0994 43.2298 34.2857 45.2795C35.0311 45.8385 35.4037 47.1429 36.8944 46.5839C38.5714 46.0248 38.3851 41.5528 36.8944 40.9938Z" fill="black"/>
<path d="M31.677 110.87C30.3727 110.87 26.8323 112.36 25.9006 112.919C24.9689 113.292 23.2919 114.596 24.0373 115.901C25.528 115.714 25.7143 114.783 26.8323 114.224C27.764 113.851 28.6957 113.478 29.8137 113.106C30.559 112.919 32.6087 112.36 32.6087 111.615C32.6087 111.242 32.236 110.87 31.677 110.87Z" fill="black"/>
<path d="M20.3106 17.5155C18.8199 21.0559 18.6335 24.969 19.1925 29.441C13.6025 28.1367 10.2484 31.4907 10.2484 36.7081C7.45342 38.3851 4.47205 40.2485 0.559006 40.8075C0.559006 41.3665 0.186335 41.5528 0 41.9255C2.6087 43.0435 5.7764 43.2298 8.75776 42.2981C7.82609 43.2298 5.7764 43.0435 4.28571 43.4162C3.91304 43.6025 4.28571 44.5342 3.91304 44.5342C2.79503 44.5342 1.49068 44.3478 0.559006 44.7205C3.1677 46.2112 7.08074 46.2112 9.68944 47.3292C9.31677 48.6335 8.01242 49.1926 7.08074 49.9379C6.14907 50.3106 4.28571 50.6832 4.28571 52.1739C7.08074 53.8509 11.3665 52.1739 13.4161 51.0559C14.7205 52.1739 12.4845 53.1056 11.3665 53.6646C9.68944 54.4099 7.82609 54.5963 6.89441 55.3416C7.08074 57.0186 9.13043 56.646 10.6211 57.0186C8.9441 57.3913 7.08074 57.5776 5.7764 58.1367C7.45342 59.8137 11.1801 59.8137 12.8571 61.677C11.5528 63.913 10.0621 65.5901 8.75776 67.8261C11.3665 67.6398 13.6025 67.4534 16.0248 67.0807C17.3292 68.5714 15.4658 70.4348 15.2795 72.2981C20.4969 72.8571 24.2236 69.8758 27.0186 67.4534C26.087 68.1988 25.3416 69.3168 24.4099 70.2485C23.6646 71.1801 21.9876 71.7391 22.1739 73.2298C22.3602 73.9752 23.6646 73.6025 24.4099 73.6025C26.8323 72.8571 28.6956 71.3665 30.559 69.8758C29.6273 71.7391 27.764 72.8572 27.0186 74.9068C29.0683 76.0249 31.677 73.9752 32.9814 73.0435C33.5404 72.6708 34.0994 71.9255 34.6584 71.9255C35.2174 76.2112 34.2857 80.1242 32.236 82.1739C26.4596 83.6646 17.8882 82.5466 14.1615 85.7143C10.2484 89.0683 8.19876 94.2857 8.75776 100.994C8.9441 103.416 9.68944 106.025 9.87578 108.634C10.2484 111.242 11.1801 113.665 11.3665 116.087C9.5031 116.46 2.79503 113.851 3.1677 116.832C3.35404 119.068 10.2484 118.696 12.6708 118.882C20.3106 119.255 28.323 120.932 37.2671 120.373C37.6397 120.373 38.1988 120.373 38.7578 120.373V117.019C37.6397 117.578 36.3354 117.764 34.472 117.578C35.5901 116.646 37.6397 116.646 38.7578 115.901V113.665C38.3851 113.851 37.8261 114.037 37.4534 114.224C36.7081 114.596 35.7764 114.783 35.0311 115.155C32.795 116.087 30.9317 117.205 27.5776 117.019C29.6273 115.901 31.8633 115.155 34.472 114.037C34.8447 113.851 36.3354 113.478 36.3354 112.733C36.1491 111.429 31.4907 113.665 30.559 114.037C28.323 114.969 26.4596 115.528 24.9689 116.832C24.4099 116.646 23.2919 116.832 22.5466 116.646C22.7329 113.665 22.3602 111.056 22.1739 108.261C21.9876 105.093 22.3602 100.994 19.3789 103.23C19.0062 105.839 19.7516 108.447 19.5652 111.242C18.2609 112.733 16.5838 113.851 14.9068 114.969C13.6025 114.224 13.0435 110.497 12.6708 107.888C11.9255 102.857 10.4348 95.7764 12.8571 91.4907C13.6025 90.1863 15.2795 87.9503 16.3975 87.3913C19.5652 85.528 27.0186 85.7143 31.118 84.9689C32.6087 84.5963 32.4224 85.528 33.7267 86.646C34.8447 87.764 36.5217 88.882 38.5714 89.8137V86.646C36.8944 85.7143 35.5901 84.5963 34.8447 83.2919C37.0807 79.9379 38.3851 75.2795 37.2671 70.9938C37.2671 70.8075 37.2671 70.8075 37.4534 70.8075C37.8261 70.9938 38.1988 71.3665 38.7578 71.5528V68.5714C38.3851 68.3851 38.0124 68.1988 37.6397 68.0124C35.4037 66.5217 32.9814 63.354 30.9317 61.3044C27.764 57.9503 24.4099 55.1553 23.1056 50.3106C23.8509 47.5155 23.4783 43.7888 23.1056 41.5528C25.3416 41.1801 27.205 40.4348 29.0683 39.5031C30.7453 38.5714 32.4224 37.0808 33.913 36.5217C35.2174 36.1491 37.2671 36.5217 38.7578 36.5217V35.0311C38.0124 35.0311 37.2671 35.0311 36.5217 35.0311C36.3354 34.6584 37.2671 34.0994 37.8261 33.7267C38.1988 33.5404 38.3851 33.1677 38.7578 32.9814V29.6273C38.7578 29.6273 38.7578 29.6273 38.7578 29.8137C36.8944 31.8634 34.0994 33.354 31.4907 35.2174C28.882 37.0808 25.9006 38.3851 23.1056 39.1304C22.5466 38.7578 23.1056 38.0124 22.9193 37.4534C25.9006 35.7764 29.0683 34.2857 32.0497 32.0497C34.0994 30.7454 37.0807 27.9503 38.7578 25.7143V22.9193C38.3851 23.4783 38.1988 24.0373 37.8261 24.4099C36.3354 26.4596 33.354 29.2547 30.9317 30.7453C28.1366 32.6087 25.3416 34.0994 22.5466 35.4037C21.9876 33.354 24.0373 32.9814 25.5279 31.8634C29.441 29.0683 33.913 26.2733 36.3354 22.1739C36.8944 21.2422 38.1988 19.9379 37.2671 18.6335C35.5901 19.0062 35.7764 20.6832 35.2174 21.6149C33.913 23.8509 31.3043 25.7143 29.2547 27.3913C27.0186 29.2547 24.5963 30.7454 22.3602 32.0497C21.9876 31.118 21.8012 29.6273 21.6149 28.5093C24.9689 25.7143 28.6957 23.4783 31.8634 20.3106C32.795 19.3789 34.6584 18.4472 34.2857 16.7702C32.9814 16.7702 32.0497 18.0745 31.3043 18.8199C28.6956 21.4286 25.5279 23.8509 22.1739 26.087C22.9193 23.8509 23.6646 20.4969 25.1553 18.2609C26.8323 15.8385 29.2547 15.4658 32.4224 13.9752C33.913 13.2298 35.4037 12.2981 36.8944 12.1118C37.6397 12.1118 38.1988 11.9255 38.7578 12.1118V10.0621C35.7764 10.0621 32.9814 11.5528 30.559 12.4845C28.1366 13.6025 26.646 13.7888 25.1553 15.2795C24.7826 15.6522 24.4099 16.2112 24.0373 16.0249C25.3416 13.0435 27.764 10.4348 30.559 8.3851C32.6087 6.89442 35.5901 5.40374 38.9441 4.28572V1.49069C37.4534 2.0497 36.1491 2.42237 34.6584 3.16771C27.5776 5.96274 23.1056 10.6211 20.3106 17.5155ZM19.1925 116.46C19.3789 116.087 19.7516 116.087 19.9379 115.714C20.1242 115.901 19.7516 116.646 19.1925 116.46ZM19.9379 113.106C20.3106 113.106 19.9379 113.665 20.1242 113.851C18.6335 114.224 18.2609 116.273 16.5838 115.901C17.5155 114.783 19.0062 114.224 19.9379 113.106ZM3.72671 41.5528C5.96273 40.6211 8.19876 39.6894 10.0621 38.3851C10.6211 38.5714 10.0621 40.0621 10.4348 40.4348C8.38509 40.9938 6.3354 41.5528 3.72671 41.5528ZM7.26708 51.2422C8.75776 49.9379 10.8075 49.1926 11.5528 47.1429C11.9255 48.0745 12.2981 48.8199 12.4845 49.7516C10.9938 50.6832 9.68944 51.4286 7.26708 51.2422ZM13.6025 43.2298C13.0435 40.2485 12.8571 37.6398 13.0435 35.7764C13.4161 32.6087 15.6522 31.118 19.3789 32.236C20.3106 34.0994 20.3106 37.2671 20.4969 40.6211C20.6832 43.9752 21.4286 48.2609 19.9379 50.6832C15.0932 51.8013 14.5342 47.7019 13.6025 43.2298ZM11.1801 55.3416C12.4845 54.5963 13.9752 54.0373 14.9068 52.9193C16.0248 52.9193 16.5839 53.6646 17.8882 53.6646C16.5839 54.969 14.1615 55.3416 11.1801 55.3416ZM34.6584 68.9441C34.0994 70.9938 32.0497 71.7391 30.559 72.8571C30.9317 71.1801 32.795 69.6895 33.1677 67.4534C33.7267 67.8261 34.0994 68.5714 34.6584 68.9441ZM29.8137 64.2857C30.7453 64.6584 31.118 65.7764 31.8634 66.3354C30.1863 68.5714 27.9503 70.2485 25.1553 71.5528C26.646 69.3168 29.0683 68.0124 30 65.2174C30.3727 64.6584 29.6273 64.8447 29.8137 64.2857ZM26.4596 60.7453C26.2733 60.9317 25.9006 61.118 25.7143 61.3044C25.3416 62.236 24.7826 62.6087 23.8509 63.5404C23.4783 63.913 20.8696 66.1491 22.5466 66.3354C24.0373 66.5217 26.646 62.6087 27.0186 61.4907C28.882 61.8634 26.8323 63.354 25.9006 64.2857C24.0373 66.3354 21.4286 68.7578 18.6335 69.1304C19.3789 67.8261 20.3106 65.0311 17.8882 64.8447C20.6832 63.354 23.1056 61.677 24.9689 59.0683C25.7143 59.441 26.087 60.1863 26.4596 60.7453ZM22.3602 54.969C21.2422 56.2733 20.3106 57.0186 18.4472 58.1367C17.8882 58.5093 15.8385 59.441 15.8385 60.1863C16.2112 61.677 19.1925 59.441 19.7516 59.0683C21.0559 58.1367 22.1739 57.5776 22.9193 56.4596C23.2919 56.8323 23.6646 57.3913 24.0373 57.9503C22.1739 60.9317 19.0062 62.6087 15.8385 64.2857C15.6522 64.8447 16.2112 65.2174 16.0248 65.4037C15.2795 65.5901 14.5342 65.7764 13.7888 65.9627C14.3478 63.9131 17.7019 59.441 13.6025 59.0683C15.4658 57.764 17.8882 57.205 19.5652 55.9006C20.3106 55.3416 20.6832 55.7143 21.6149 53.8509C21.8012 53.8509 21.8012 53.8509 21.9876 53.8509C21.8012 55.528 22.1739 54.5963 22.3602 54.969Z" fill="black"/>
<path d="M38.0124 58.323C37.8261 59.2547 38.3851 59.441 38.9441 59.8137V58.1366C38.5714 57.9503 38.3851 57.9503 38.0124 58.323Z" fill="black"/>
<path d="M60 34.4721C61.4907 34.8447 62.6087 36.8944 63.9131 36.1491C63.9131 34.2857 59.8137 32.236 57.0187 33.1677C56.646 33.354 56.087 33.354 56.2733 34.0994C57.0187 34.8447 58.6957 34.0994 60 34.4721Z" fill="black"/>
<path d="M51.4286 52.1739C51.4286 51.6149 50.3105 50.1242 49.9379 49.1925C48.8199 46.3975 48.4472 41.7391 49.1925 38.5714C47.1428 37.2671 47.3292 42.2981 47.5155 44.5342C47.7019 47.7019 49.0062 50.6832 49.5652 51.9876C48.4472 53.2919 45.8385 51.6149 45.6522 53.6646C46.5838 54.7826 51.2422 53.4783 51.4286 52.1739Z" fill="black"/>
<path d="M57.5776 45.2795C59.441 45.0932 59.8137 39.5031 56.8323 40.0621C54.4099 40.6211 55.1553 45.4658 57.5776 45.2795Z" fill="black"/>
<path d="M46.0248 104.907C46.7702 104.534 47.7019 103.975 48.8199 103.416C49.1925 103.23 51.4286 102.484 51.4286 101.739C51.6149 100.994 50.8696 100.807 50.3106 100.994C47.8882 102.112 44.7205 103.789 42.1118 105.093C41.1801 105.466 39.6894 106.025 40.2484 107.143C42.2981 107.143 43.7888 106.025 46.0248 104.907Z" fill="black"/>
<path d="M41.1801 110.683C41.3664 111.988 44.1615 110.124 44.9068 109.565C47.5155 107.888 49.7515 106.584 52.3602 105.093C53.2919 104.534 55.9006 103.416 55.7143 102.484C55.5279 101.925 55.1553 102.112 54.7826 102.112C54.5962 102.112 54.5962 102.112 54.5962 102.298C51.8012 104.161 47.7018 106.398 44.3478 108.261C43.7888 108.634 40.9938 109.938 41.1801 110.683Z" fill="black"/>
<path d="M38.9441 35.2174V36.7081C39.6894 36.7081 40.2484 36.5217 40.8074 36.3354C40.6211 35.4037 39.8758 35.2174 38.9441 35.2174Z" fill="black"/>
<path d="M85.9006 116.273C88.5093 116.087 91.4907 116.832 91.4907 114.783C91.4907 113.106 87.9503 113.292 85.9006 113.478C83.4783 113.665 81.8013 114.224 80.4969 114.037C81.2423 109.379 81.0559 101.739 80.6832 95.9627C80.3106 91.8634 80.3106 89.0683 78.2609 86.8323C76.0249 84.2236 73.4162 84.2236 69.5031 83.2919C66.3354 82.5466 63.1677 82.1739 59.2547 82.3603C56.8323 79.9379 55.528 76.3975 54.969 72.2981C55.7143 70.8075 58.323 71.1801 59.0683 69.5031C60 71.1801 61.118 73.0435 62.6087 74.1615C63.9131 75.0932 65.9627 76.3975 67.4534 75.4658C67.6398 73.7888 66.3354 73.6025 66.1491 72.2981C67.2671 72.6708 68.3851 73.4162 69.6895 73.7888C70.9938 74.1615 75.0932 74.7205 75.4659 73.6025C75.6522 72.8571 73.9752 71.7391 73.4162 71.3665C72.4845 70.6211 71.1801 70.2485 71.3665 69.3168C72.6708 70.0621 78.6336 72.6708 79.3789 70.0621C79.5652 69.3168 79.0062 68.7578 79.0062 68.1988C80.6832 68.1988 82.9193 68.7578 83.8509 67.6398C83.6646 66.8944 83.2919 65.9627 83.4783 64.8447C84.2236 63.1677 87.0187 63.7267 89.441 63.5404C89.2547 62.4224 88.1367 62.4224 87.3913 61.8634C85.9006 60.7453 84.41 59.0683 83.2919 57.3913C81.9876 55.7143 80.8696 53.8509 80.4969 51.6149C81.6149 50.6832 83.4783 49.9379 83.6646 47.5155C84.0373 45.2795 83.6646 42.1118 83.4783 39.3168C83.2919 37.2671 83.6646 35.2174 83.2919 33.7267C82.7329 30 80.3106 25.9006 76.0249 27.3913C75.6522 26.087 74.7205 25.528 74.5342 24.4099C74.1615 22.1739 74.7205 20.1242 74.5342 18.2609C74.3478 16.5839 73.6025 14.7205 73.0435 13.0435C72.4845 11.3665 72.1118 9.68945 70.9938 8.3851C70.2485 7.26709 68.3851 6.33541 67.2671 5.40373C63.354 2.6087 57.5777 1.11802 51.6149 0.74535C46.5839 0.372679 42.8572 1.11802 39.1304 2.23603V5.03106C41.5528 4.28572 43.9752 3.54038 46.3975 3.35405C47.8882 3.16771 49.5652 3.16771 51.0559 3.35405C56.087 3.72672 61.4907 5.03106 65.2174 7.26709C66.1491 7.45342 67.6398 8.3851 68.3851 9.31678C70.2485 11.5528 70.9938 16.0249 71.3665 19.9379C69.8758 17.7019 68.1988 15.0932 65.4037 13.4162C64.2857 12.6708 62.6087 12.1118 60.9317 11.5528C59.441 10.9938 57.764 10.0621 56.4596 9.87578C54.0373 9.31678 46.9565 9.31678 44.5342 10.0621C43.7888 10.2485 43.2298 10.8075 42.4845 11.1801C41.1801 10.6211 39.8758 10.2485 38.7578 10.2485V12.8572C42.6708 13.0435 43.9752 16.3975 43.4162 21.0559C43.2298 21.9876 42.6708 23.1056 42.1118 24.2236C41.1801 26.087 40.2485 28.1367 38.7578 29.8137V33.1677C41.9255 30.559 44.1615 27.0186 45.8385 22.5466C46.0249 22.5466 46.0249 22.5466 46.0249 22.7329C46.2112 22.9193 46.2112 23.2919 46.3975 23.4783C48.8199 26.4596 54.5963 27.9503 58.882 29.2547C61.118 29.8137 63.3541 30.559 65.2174 31.677C67.8261 32.9814 69.6895 34.6584 70.9938 37.0807C70.8075 39.3168 71.1801 41.3665 70.9938 43.4162C70.8075 45.0932 69.8758 46.9565 69.5031 48.8199C68.7578 52.7329 68.0124 55.9006 66.3354 58.5093C65.4037 59.6273 64.0994 61.118 62.795 62.4224C61.8634 63.5404 60.1863 65.7764 58.5093 65.5901C56.8323 65.5901 55.9006 63.5404 53.6646 63.7267C55.7143 62.6087 57.5777 61.118 59.0683 59.441C58.6957 58.882 60.559 57.205 59.2547 56.8323C58.5093 56.646 56.646 59.0683 56.087 59.441C52.3603 61.677 44.1615 60.559 40.4348 58.882C39.8758 58.6957 39.5031 58.1367 38.9441 57.9503V59.6273C39.1304 59.8137 39.1304 59.8137 39.3168 60.1863C42.6708 60.9317 44.1615 63.5404 47.5155 64.0994C45.0932 65.0311 40.9938 66.7081 43.0435 70.2485C41.7391 69.5031 40.2485 69.1304 38.7578 68.5714V71.5528C42.2981 73.2298 47.7019 73.9752 52.1739 73.2298C52.7329 77.8882 54.5963 81.2422 56.8323 84.0373C54.2236 89.6273 44.7205 89.8137 38.7578 86.646V89.8137C41.7391 91.118 45.6522 92.0497 49.5652 91.4907C53.8509 91.118 57.5777 87.9503 59.6273 84.9689C63.1677 84.7826 65.9627 85.1553 68.7578 85.7143C70.4348 86.087 72.2982 86.087 73.6025 86.646C79.1926 88.882 77.7019 98.0124 78.0746 105.652C78.0746 106.211 77.3292 105.839 76.9565 106.025C75.0932 109.006 72.6708 111.242 70.2485 113.851C70.0621 114.41 70.2485 115.155 69.5031 114.969C69.3168 114.224 69.6895 112.547 69.8758 110.683C70.0621 109.006 69.8758 107.143 70.0621 105.839C70.2485 104.907 71.1801 103.043 69.3168 102.857C67.4534 102.671 67.2671 105.093 67.2671 106.957C62.4224 110.124 56.8323 112.36 51.4286 114.969C51.0559 115.155 51.2422 115.714 51.0559 116.087C49.7516 115.901 48.4472 116.273 47.3292 116.273C46.7702 116.273 45.6522 116.646 45.6522 115.901C45.4659 115.714 46.2112 115.528 46.5839 115.342C51.2422 113.106 55.9006 110.311 60.7454 107.516C61.677 106.957 65.5901 105.28 65.4037 104.161C65.2174 102.857 63.1677 104.348 62.9814 104.348C57.3913 107.702 51.2422 111.056 45.4658 114.41C45.2795 114.783 45.2795 114.969 45.2795 115.528C43.9752 115.342 43.6025 116.832 41.7391 116.646C41.1801 116.646 42.2981 115.901 41.7391 115.342C47.5155 109.938 55.9006 106.77 62.6087 101.925C63.5404 101.366 64.8447 100.807 64.8447 99.3168C63.7267 98.7578 62.6087 100.062 61.8634 100.435C56.087 104.721 47.5155 108.261 41.9255 112.919C41.1801 113.665 40.4348 114.596 39.8758 115.714C39.5031 115.901 38.9441 116.087 38.5714 116.46V119.814C46.3975 119.441 55.1553 118.882 62.9814 118.509C70.9938 117.95 78.4472 116.646 85.9006 116.273ZM83.4783 61.677C82.7329 61.8634 81.6149 61.118 80.8696 61.3044C78.8199 61.677 79.3789 64.2857 80.8696 65.0311C79.5652 65.4037 73.4162 63.9131 75.4659 67.4534C73.7888 67.4534 72.1118 66.1491 70.6211 65.5901C71.9255 64.6584 72.8572 63.5404 74.1615 62.6087C74.7205 63.1677 75.0932 64.4721 76.0249 64.2857C77.7019 63.9131 75.4659 61.8634 74.7205 61.3044C75.0932 60.3727 75.6522 60 75.8385 59.0683C76.7702 60 77.3292 61.118 78.6336 61.677C79.1926 61.8634 79.1926 61.3044 79.3789 61.118C79.3789 60.1863 78.2609 59.8137 77.7019 59.2547C77.1429 58.6957 76.9565 57.764 76.2112 57.205C76.5839 56.4596 76.7702 55.7143 76.9565 54.5963C77.3292 55.1553 77.7019 55.9006 78.0746 56.2733C78.4472 56.2733 78.8199 56.2733 78.8199 56.087C80.3106 58.1367 81.6149 60.1863 83.4783 61.677ZM76.9565 53.6646C76.9565 53.1056 76.9565 52.5466 77.1429 52.1739C77.7019 52.3603 77.5155 53.2919 77.8882 53.8509C77.7019 53.4783 77.1429 53.8509 76.9565 53.6646ZM76.7702 29.2547C78.6336 28.323 79.9379 31.8634 80.3106 33.7267C80.4969 35.2174 80.3106 37.2671 80.4969 39.3168C80.6832 42.1118 81.4286 45.6522 80.6832 47.3292C80.1242 48.6335 77.3292 49.9379 75.2795 49.0062C73.6025 43.9752 72.2982 31.677 76.7702 29.2547ZM55.1553 26.2733C52.1739 25.3416 49.3789 24.969 47.7019 22.7329C46.9565 21.9876 46.3975 20.3106 46.0249 19.1926C46.2112 19.1926 46.2112 19.0062 46.2112 19.1926C48.4472 21.8013 51.6149 23.4783 55.1553 24.5963C58.6957 25.9006 61.677 27.5776 64.6584 29.441C62.236 28.5093 58.5093 27.3913 55.1553 26.2733ZM69.6895 31.3044C66.3354 28.882 62.795 26.2733 58.6957 24.4099C55.3416 22.7329 52.1739 22.3603 49.5652 20.1242C48.4472 19.1926 47.5155 18.0745 46.0249 17.3292C46.0249 16.3975 45.6522 16.0249 45.8385 15.2795C50.8696 16.2112 55.7143 17.8882 59.6273 20.1242C63.5404 22.3603 67.4534 24.5963 70.0621 28.323C69.5031 28.5093 69.3168 27.764 68.9441 27.5776C68.5714 27.205 68.1988 26.646 67.8261 26.4596C65.7764 24.5963 62.0497 24.4099 58.882 22.7329C56.8323 21.6149 55.1553 20.6832 53.1056 19.7516C52.3603 19.3789 51.0559 18.2609 50.1242 19.1926C50.4969 20.6832 52.3603 20.8696 53.4783 21.4286C54.0373 21.8013 54.5963 22.1739 55.1553 22.5466C55.7143 22.9193 56.4596 22.9193 57.205 23.2919C57.5777 23.4783 57.9503 24.0373 58.323 24.2236C61.118 25.7143 64.6584 25.9006 66.7081 27.5776C68.0124 28.5093 68.9441 30 69.6895 31.3044C69.8758 31.677 70.8075 31.3044 70.6211 32.0497C70.9938 32.236 70.0621 31.4907 69.6895 31.3044ZM71.1801 27.5776C70.8075 27.205 70.6211 26.8323 70.4348 26.4596C63.9131 20.4969 55.528 15.2795 45.2795 13.9752C45.2795 13.2298 46.3975 13.6025 46.9565 13.6025C48.8199 13.4162 51.6149 13.2298 53.8509 13.4162C55.3416 13.6025 57.0186 13.9752 58.6957 14.1615C62.795 14.7205 65.5901 16.2112 67.4534 18.8199C66.3354 18.2609 64.8447 17.5155 63.1677 16.7702C62.4224 16.3975 61.4907 15.8385 60.9317 16.3975C60.9317 18.0745 62.6087 18.2609 63.5404 18.4472C66.8944 19.7516 69.1304 22.3603 71.3665 24.7826C71.3665 25.7143 70.9938 26.4596 71.1801 27.5776ZM72.1118 49.3789C72.6708 50.3106 73.2298 51.2422 74.3478 51.6149C74.3478 52.3603 74.5342 53.4783 74.1615 53.8509C74.1615 54.4099 72.8572 52.7329 72.4845 53.8509C72.4845 54.9689 73.4162 55.3416 73.6025 56.087C73.2298 57.3913 72.6708 58.6957 72.1118 59.6273C70.9938 59.0683 71.3665 56.8323 69.5031 57.0186C70.8075 54.7826 71.3665 51.9876 72.1118 49.3789ZM69.3168 57.764C69.8758 58.882 70.6211 60.1863 71.3665 61.3044C70.2485 63.7267 69.3168 61.677 68.3851 60C68.5714 59.0683 68.9441 58.5093 69.3168 57.764ZM67.0808 61.118C67.8261 61.677 68.0124 62.6087 68.5714 63.354C67.2671 63.7267 66.3354 64.0994 64.8447 64.2857C65.4037 63.1677 66.3354 62.236 67.0808 61.118ZM65.5901 66.8944C66.1491 66.8944 65.2174 67.2671 65.4037 67.6398C66.5218 68.3851 67.2671 71.5528 69.1304 70.6211C68.5714 68.9441 67.4534 67.8261 66.3354 66.8944C67.0808 65.9627 68.1988 66.8944 68.5714 67.6398C69.6895 69.1304 70.9938 72.1118 72.8572 72.4845C69.6895 72.6708 67.0808 70.9938 64.8447 69.6895C63.354 70.6211 64.8447 72.8571 65.4037 73.7888C62.9814 73.0435 60.9317 70.8075 60 68.0124C61.677 67.8261 63.3541 67.0808 65.5901 66.8944ZM45.2795 62.0497C48.0745 62.0497 51.9876 62.236 54.41 61.4907C54.7826 61.4907 54.5963 61.677 54.5963 61.677C52.3603 63.5404 47.7019 63.5404 45.2795 62.0497ZM74.7205 114.41C75.8385 113.292 76.9565 111.988 78.2609 110.87C77.1429 112.36 76.3975 113.851 74.7205 114.41ZM72.6708 113.478C74.3478 111.615 76.5839 109.752 77.8882 107.329C78.4472 107.329 78.0746 108.447 78.0746 109.006C77.7019 109.193 77.7019 109.006 77.3292 109.193C76.2112 111.056 74.9068 112.36 73.2298 113.665C72.8572 114.037 73.0435 114.969 72.1118 114.783C71.9255 114.224 72.4845 113.851 72.6708 113.478ZM66.5218 115.528C65.9627 115.528 65.9627 115.342 65.5901 115.528C65.9627 115.155 66.3354 114.783 66.8944 114.596C66.8944 114.969 66.7081 115.155 66.5218 115.528ZM53.1056 117.019C57.764 113.292 62.795 112.174 67.2671 109.565C67.4534 109.752 67.4534 111.056 67.2671 111.242C63.7267 113.292 59.6273 113.292 56.646 117.019C55.3416 117.019 54.2236 117.019 53.1056 117.019ZM59.8137 115.901C61.677 114.41 64.6584 113.665 66.7081 112.36C67.2671 112.36 66.5218 113.106 66.8944 113.665C64.2857 113.106 63.7267 116.646 59.8137 115.901Z" fill="black"/>
<path d="M39.8758 114.037C39.6894 113.665 39.3168 113.665 38.9441 113.665V115.342C39.3168 114.969 39.6894 114.596 39.8758 114.037Z" fill="black"/>
<path d="M41.5528 19.3789C41.7391 18.4472 41.9255 16.3975 40.6211 16.7702C39.8758 16.9565 40.2484 18.6336 40.0621 19.5652C39.8758 20.6832 39.3168 21.9876 38.7578 23.2919V26.087C38.9441 25.9006 39.1304 25.7143 39.1304 25.3416C40.4348 23.4783 41.3664 21.2422 41.5528 19.3789Z" fill="black"/>
</g>
<defs>
<clipPath id="clip0">
<rect width="91.4907" height="120" fill="white"/>
</clipPath>
</defs>
</svg>
