<svg width="389" height="391" viewBox="0 0 389 391" fill="none" xmlns="http://www.w3.org/2000/svg">
<path d="M209.157 112.115H0V255.36H209.157V112.115Z" fill="#F08900"/>
<path d="M0 255.36L104.578 170.383L209.157 255.36H0Z" fill="#FC9D21"/>
<path d="M0 112.115L104.578 190.359L209.157 112.115H0Z" fill="#FCAB42"/>
<path d="M102.105 35.6926H66.62C61.46 35.6942 56.5118 37.7451 52.8636 41.3944C49.2154 45.0437 47.166 49.9925 47.166 55.1526V80.3348C47.1676 84.3812 48.4312 88.3263 50.7806 91.6207C53.1301 94.9151 56.4485 97.3947 60.2736 98.7143L60.8965 112.211L78.3785 99.7948H102.105C107.266 99.7945 112.215 97.7441 115.864 94.0947C119.513 90.4453 121.563 85.4957 121.563 80.3348V55.1526C121.563 49.9917 119.513 45.0421 115.864 41.3927C112.215 37.7433 107.266 35.6929 102.105 35.6926Z" fill="#BDBDBD"/>
<path d="M144.971 0H98.1604C91.3508 0 84.8202 2.7051 80.0051 7.5202C75.19 12.3353 72.4849 18.866 72.4849 25.6756V58.8993C72.4849 65.7089 75.19 72.2396 80.0051 77.0547C84.8202 81.8698 91.3508 84.5749 98.1604 84.5749H129.462L152.523 100.956L153.344 83.1508C158.392 81.4111 162.772 78.14 165.873 73.7934C168.974 69.4468 170.642 64.2411 170.644 58.9017V25.6732C170.643 18.8644 167.938 12.3347 163.124 7.5202C158.309 2.70568 151.78 0.000630412 144.971 0Z" fill="#DEDEDE"/>
<path d="M144.314 19.9187C148.472 22.0325 151.968 25.2507 154.418 29.2202C156.813 33.1364 158.059 37.6471 158.013 42.2375C158.101 45.4588 157.461 48.6584 156.141 51.5983C155.057 54.0035 153.303 56.0458 151.089 57.4811C148.981 58.8057 146.536 59.4972 144.046 59.4734C142.044 59.5333 140.06 59.0833 138.28 58.1658C136.694 57.2932 135.425 55.9408 134.656 54.3026C132.912 57.7498 129.901 59.4738 125.622 59.4746C123.439 59.4742 121.303 58.8444 119.469 57.6606C117.477 56.3756 115.866 54.5797 114.804 52.4601C113.579 50.0505 112.967 47.3766 113.021 44.6743C112.965 41.9846 113.567 39.322 114.775 36.9181C115.827 34.8088 117.429 33.0224 119.411 31.7473C121.265 30.5592 123.421 29.9298 125.623 29.9346C126.98 29.8575 128.337 30.0783 129.6 30.5814C130.863 31.0845 132 31.8577 132.932 32.8468V30.4695H144.344V47.4677C144.344 49.6477 145.116 50.7373 146.66 50.7365C147.611 50.7365 148.354 50.1224 148.889 48.8941C149.548 46.8014 149.821 44.6061 149.693 42.4158C149.752 39.0726 148.877 35.7793 147.167 32.9063C145.452 30.1067 142.979 27.8502 140.035 26.3982C136.735 24.7817 133.098 23.9768 129.424 24.0506C125.714 23.9784 122.049 24.8696 118.787 26.6372C115.766 28.2901 113.273 30.7623 111.594 33.7693C109.874 36.8664 108.994 40.3593 109.04 43.9016C108.978 47.4992 109.849 51.0515 111.566 54.2134C113.21 57.2071 115.673 59.6706 118.667 61.3158C121.894 63.0632 125.519 63.9438 129.188 63.8715C133.331 63.8746 137.427 62.9826 141.194 61.2564L143.69 68.5656C141.58 69.5411 139.353 70.2403 137.064 70.6458C134.47 71.1572 131.833 71.4159 129.189 71.4184C123.828 71.5286 118.524 70.2923 113.765 67.8227C109.464 65.5755 105.888 62.1544 103.454 57.9566C101.01 53.6799 99.7564 48.826 99.8249 43.9004C99.7635 39.0193 101.027 34.2129 103.48 29.9928C105.949 25.801 109.542 22.3835 113.851 20.1267C118.656 17.6319 124.011 16.3852 129.423 16.5013C134.592 16.4039 139.705 17.5774 144.314 19.9187ZM131.981 48.7146C132.841 47.5495 133.262 46.1182 133.17 44.6731C133.265 43.2368 132.844 41.8138 131.981 40.6613C131.606 40.2095 131.132 39.849 130.597 39.6072C130.061 39.3655 129.478 39.2487 128.891 39.2657C128.307 39.2465 127.728 39.3624 127.197 39.6045C126.666 39.8466 126.198 40.2083 125.83 40.6613C124.985 41.8213 124.574 43.2412 124.67 44.6731C124.578 46.1138 124.988 47.542 125.83 48.7146C126.193 49.1755 126.659 49.5448 127.19 49.7926C127.722 50.0404 128.304 50.1597 128.891 50.141C129.481 50.1575 130.067 50.0373 130.603 49.7899C131.139 49.5424 131.611 49.1744 131.981 48.7146Z" fill="#393E66"/>
<path d="M316.107 52.879H347.594C355.772 52.879 363.615 56.1275 369.397 61.9098C375.179 67.6922 378.428 75.5347 378.428 83.7122V290.027C378.428 298.205 375.179 306.047 369.397 311.83C363.615 317.612 355.772 320.861 347.594 320.861H316.107C314.052 320.861 312.016 320.456 310.116 319.669C308.217 318.882 306.491 317.729 305.038 316.275C303.584 314.821 302.431 313.095 301.645 311.196C300.858 309.296 300.453 307.26 300.454 305.204V68.5375C300.453 66.4814 300.857 64.4454 301.644 62.5456C302.43 60.6458 303.583 58.9196 305.037 57.4655C306.49 56.0114 308.216 54.858 310.116 54.071C312.015 53.284 314.051 52.879 316.107 52.879Z" fill="#CF3A53"/>
<path d="M336.936 113.163H299.158V260.577H336.936V113.163Z" fill="#992B3E"/>
<path d="M325.225 52.879H286.504C277.859 52.879 270.851 59.8874 270.851 68.5327V117.8C270.851 126.445 277.859 133.454 286.504 133.454H325.225C333.87 133.454 340.878 126.445 340.878 117.8V68.5327C340.878 59.8874 333.87 52.879 325.225 52.879Z" fill="#F24561"/>
<path d="M318.303 63.1183H293.425C286.555 63.1183 280.985 68.6877 280.985 75.5579V110.774C280.985 117.644 286.555 123.213 293.425 123.213H318.303C325.173 123.213 330.742 117.644 330.742 110.774V75.5579C330.742 68.6877 325.173 63.1183 318.303 63.1183Z" fill="#CF3A53"/>
<path d="M302.11 73.6311C302.109 74.2147 301.936 74.7851 301.611 75.2702C301.286 75.7552 300.825 76.1332 300.286 76.3562C299.747 76.5792 299.153 76.6373 298.581 76.5232C298.008 76.409 297.483 76.1277 297.07 75.7149C296.658 75.302 296.377 74.7761 296.263 74.2036C296.149 73.6312 296.208 73.0378 296.431 72.4986C296.655 71.9595 297.033 71.4986 297.519 71.1744C298.004 70.8502 298.574 70.6772 299.158 70.6772C299.546 70.6772 299.93 70.7536 300.288 70.9021C300.646 71.0506 300.972 71.2682 301.246 71.5425C301.52 71.8168 301.737 72.1425 301.886 72.5008C302.034 72.8592 302.11 73.2433 302.11 73.6311Z" fill="#571823"/>
<path d="M315.519 73.631C315.519 74.2148 315.347 74.7856 315.022 75.2711C314.698 75.7567 314.237 76.1351 313.698 76.3587C313.159 76.5823 312.565 76.6409 311.993 76.5272C311.42 76.4134 310.894 76.1324 310.481 75.7197C310.068 75.3069 309.787 74.781 309.673 74.2085C309.559 73.6359 309.617 73.0424 309.841 72.503C310.064 71.9636 310.442 71.5026 310.928 71.1782C311.413 70.8539 311.984 70.6807 312.568 70.6807C313.35 70.6807 314.101 70.9915 314.654 71.5448C315.208 72.098 315.519 72.8485 315.519 73.631Z" fill="#571823"/>
<path d="M295.404 83.3961C295.404 83.9796 295.231 84.55 294.907 85.0352C294.583 85.5203 294.122 85.8985 293.583 86.1218C293.044 86.3451 292.45 86.4035 291.878 86.2897C291.306 86.1758 290.78 85.8948 290.368 85.4822C289.955 85.0696 289.674 84.5439 289.56 83.9716C289.446 83.3993 289.505 82.8061 289.728 82.267C289.951 81.7279 290.329 81.2671 290.815 80.943C291.3 80.6188 291.87 80.4457 292.454 80.4457C293.236 80.4457 293.987 80.7566 294.54 81.3099C295.093 81.8632 295.404 82.6136 295.404 83.3961Z" fill="#571823"/>
<path d="M308.81 83.3961C308.81 83.9796 308.637 84.55 308.313 85.0352C307.989 85.5203 307.528 85.8985 306.989 86.1218C306.45 86.3451 305.857 86.4035 305.284 86.2897C304.712 86.1758 304.186 85.8948 303.774 85.4822C303.361 85.0696 303.08 84.5439 302.966 83.9716C302.853 83.3993 302.911 82.8061 303.134 82.267C303.358 81.7279 303.736 81.2671 304.221 80.943C304.706 80.6188 305.276 80.4457 305.86 80.4457C306.642 80.4457 307.393 80.7566 307.946 81.3099C308.499 81.8632 308.81 82.6136 308.81 83.3961Z" fill="#571823"/>
<path d="M322.223 83.3961C322.224 83.9796 322.051 84.5501 321.727 85.0356C321.404 85.521 320.943 85.8995 320.404 86.1233C319.865 86.347 319.272 86.4059 318.7 86.2925C318.127 86.1791 317.602 85.8986 317.189 85.4863C316.776 85.074 316.494 84.5486 316.38 83.9763C316.266 83.4041 316.324 82.8109 316.546 82.2716C316.769 81.7323 317.147 81.2712 317.632 80.9467C318.117 80.6221 318.687 80.4486 319.271 80.4481C319.658 80.4478 320.042 80.5238 320.4 80.6718C320.758 80.8198 321.083 81.0368 321.358 81.3106C321.632 81.5843 321.849 81.9094 321.998 82.2672C322.146 82.625 322.223 83.0086 322.223 83.3961Z" fill="#571823"/>
<path d="M288.699 93.1658C288.699 93.7493 288.526 94.3197 288.202 94.8049C287.878 95.29 287.417 95.6682 286.878 95.8915C286.339 96.1148 285.745 96.1732 285.173 96.0594C284.601 95.9456 284.075 95.6646 283.662 95.252C283.25 94.8393 282.969 94.3137 282.855 93.7413C282.741 93.169 282.8 92.5758 283.023 92.0367C283.246 91.4976 283.624 91.0369 284.11 90.7127C284.595 90.3885 285.165 90.2155 285.749 90.2155C286.531 90.2155 287.282 90.5263 287.835 91.0796C288.388 91.6329 288.699 92.3833 288.699 93.1658Z" fill="#571823"/>
<path d="M302.11 93.1658C302.11 93.7496 301.937 94.3203 301.613 94.8059C301.289 95.2914 300.828 95.6699 300.288 95.8934C299.749 96.117 299.156 96.1756 298.583 96.0619C298.01 95.9481 297.484 95.6671 297.071 95.2544C296.659 94.8417 296.377 94.3158 296.263 93.7432C296.149 93.1706 296.208 92.5771 296.431 92.0377C296.654 91.4984 297.033 91.0373 297.518 90.713C298.004 90.3886 298.574 90.2155 299.158 90.2155C299.941 90.2155 300.691 90.5262 301.245 91.0795C301.798 91.6328 302.109 92.3832 302.11 93.1658Z" fill="#571823"/>
<path d="M315.519 93.1658C315.519 93.7496 315.347 94.3203 315.022 94.8059C314.698 95.2914 314.237 95.6699 313.698 95.8934C313.159 96.117 312.565 96.1756 311.993 96.0619C311.42 95.9481 310.894 95.6671 310.481 95.2544C310.068 94.8417 309.787 94.3158 309.673 93.7432C309.559 93.1706 309.617 92.5771 309.841 92.0377C310.064 91.4984 310.442 91.0373 310.928 90.713C311.413 90.3886 311.984 90.2155 312.568 90.2155C313.35 90.2155 314.101 90.5262 314.654 91.0795C315.208 91.6328 315.519 92.3832 315.519 93.1658Z" fill="#571823"/>
<path d="M328.928 93.1658C328.929 93.7496 328.756 94.3204 328.431 94.806C328.107 95.2915 327.646 95.67 327.107 95.8936C326.568 96.1171 325.974 96.1757 325.401 96.0618C324.829 95.948 324.303 95.6668 323.89 95.254C323.477 94.8411 323.196 94.3151 323.082 93.7425C322.968 93.1698 323.027 92.5763 323.25 92.0369C323.474 91.4975 323.852 91.0366 324.338 90.7124C324.823 90.3882 325.394 90.2152 325.978 90.2155C326.761 90.2155 327.511 90.5263 328.064 91.0796C328.618 91.6329 328.928 92.3833 328.928 93.1658Z" fill="#571823"/>
<path d="M295.404 102.933C295.404 103.517 295.231 104.087 294.907 104.572C294.583 105.058 294.122 105.436 293.583 105.659C293.044 105.882 292.45 105.941 291.878 105.827C291.306 105.713 290.78 105.432 290.368 105.019C289.955 104.607 289.674 104.081 289.56 103.509C289.446 102.936 289.505 102.343 289.728 101.804C289.951 101.265 290.329 100.804 290.815 100.48C291.3 100.156 291.87 99.9829 292.454 99.9829C293.236 99.9832 293.986 100.294 294.54 100.847C295.093 101.401 295.404 102.151 295.404 102.933Z" fill="#571823"/>
<path d="M308.81 102.933C308.81 103.517 308.637 104.087 308.313 104.572C307.989 105.058 307.528 105.436 306.989 105.659C306.45 105.882 305.857 105.941 305.284 105.827C304.712 105.713 304.186 105.432 303.774 105.019C303.361 104.607 303.08 104.081 302.966 103.509C302.853 102.936 302.911 102.343 303.134 101.804C303.358 101.265 303.736 100.804 304.221 100.48C304.706 100.156 305.276 99.9829 305.86 99.9829C306.642 99.9832 307.393 100.294 307.946 100.847C308.499 101.401 308.81 102.151 308.81 102.933Z" fill="#571823"/>
<path d="M322.223 102.933C322.223 103.517 322.05 104.087 321.726 104.572C321.402 105.058 320.941 105.436 320.402 105.659C319.863 105.882 319.27 105.941 318.697 105.827C318.125 105.713 317.599 105.432 317.187 105.019C316.774 104.607 316.493 104.081 316.379 103.509C316.266 102.936 316.324 102.343 316.547 101.804C316.771 101.265 317.149 100.804 317.634 100.48C318.119 100.156 318.69 99.9829 319.273 99.9829C320.055 99.9832 320.806 100.294 321.359 100.847C321.912 101.401 322.223 102.151 322.223 102.933Z" fill="#571823"/>
<path d="M302.11 112.702C302.11 113.286 301.936 113.856 301.612 114.342C301.288 114.827 300.827 115.205 300.288 115.429C299.748 115.652 299.155 115.711 298.582 115.597C298.01 115.483 297.484 115.202 297.071 114.789C296.658 114.376 296.377 113.85 296.263 113.278C296.149 112.705 296.208 112.112 296.431 111.572C296.655 111.033 297.033 110.572 297.518 110.248C298.004 109.923 298.574 109.75 299.158 109.75C299.941 109.75 300.692 110.061 301.245 110.615C301.799 111.168 302.11 111.919 302.11 112.702Z" fill="#571823"/>
<path d="M315.519 112.702C315.519 113.286 315.346 113.856 315.022 114.342C314.697 114.827 314.237 115.205 313.697 115.429C313.158 115.652 312.564 115.711 311.992 115.597C311.419 115.483 310.893 115.202 310.481 114.789C310.068 114.376 309.787 113.85 309.673 113.278C309.559 112.705 309.617 112.112 309.841 111.572C310.064 111.033 310.443 110.572 310.928 110.248C311.413 109.923 311.984 109.75 312.568 109.75C313.35 109.75 314.101 110.061 314.655 110.615C315.208 111.168 315.519 111.919 315.519 112.702Z" fill="#571823"/>
<path d="M325.224 240.286H286.503C277.858 240.286 270.85 247.294 270.85 255.939V305.207C270.85 313.852 277.858 320.861 286.503 320.861H325.224C333.869 320.861 340.877 313.852 340.877 305.207V255.939C340.877 247.294 333.869 240.286 325.224 240.286Z" fill="#F24561"/>
<path d="M318.303 250.525H293.425C286.555 250.525 280.985 256.094 280.985 262.965V298.181C280.985 305.051 286.555 310.62 293.425 310.62H318.303C325.173 310.62 330.742 305.051 330.742 298.181V262.965C330.742 256.094 325.173 250.525 318.303 250.525Z" fill="#CF3A53"/>
<path d="M302.11 261.038C302.11 261.622 301.937 262.192 301.613 262.678C301.289 263.163 300.828 263.542 300.288 263.765C299.749 263.989 299.156 264.048 298.583 263.934C298.01 263.82 297.484 263.539 297.071 263.126C296.659 262.714 296.377 262.188 296.263 261.615C296.149 261.043 296.208 260.449 296.431 259.91C296.654 259.37 297.033 258.909 297.518 258.585C298.004 258.261 298.574 258.087 299.158 258.087C299.941 258.087 300.691 258.398 301.245 258.951C301.798 259.505 302.109 260.255 302.11 261.038Z" fill="#571823"/>
<path d="M315.519 261.038C315.519 261.622 315.347 262.192 315.022 262.678C314.698 263.163 314.237 263.542 313.698 263.765C313.159 263.989 312.565 264.048 311.993 263.934C311.42 263.82 310.894 263.539 310.481 263.126C310.068 262.714 309.787 262.188 309.673 261.615C309.559 261.043 309.617 260.449 309.841 259.91C310.064 259.37 310.442 258.909 310.928 258.585C311.413 258.261 311.984 258.087 312.568 258.087C313.35 258.087 314.101 258.398 314.654 258.951C315.208 259.505 315.519 260.255 315.519 261.038Z" fill="#571823"/>
<path d="M295.404 270.805C295.404 271.389 295.231 271.959 294.907 272.444C294.583 272.929 294.122 273.308 293.583 273.531C293.044 273.754 292.45 273.813 291.878 273.699C291.306 273.585 290.78 273.304 290.368 272.891C289.955 272.479 289.674 271.953 289.56 271.381C289.446 270.808 289.505 270.215 289.728 269.676C289.951 269.137 290.329 268.676 290.815 268.352C291.3 268.028 291.87 267.855 292.454 267.855C293.236 267.855 293.986 268.166 294.54 268.719C295.093 269.273 295.404 270.023 295.404 270.805Z" fill="#571823"/>
<path d="M308.81 270.805C308.81 271.389 308.637 271.959 308.313 272.444C307.989 272.929 307.528 273.308 306.989 273.531C306.45 273.754 305.857 273.813 305.284 273.699C304.712 273.585 304.186 273.304 303.774 272.891C303.361 272.479 303.08 271.953 302.966 271.381C302.853 270.808 302.911 270.215 303.134 269.676C303.358 269.137 303.736 268.676 304.221 268.352C304.706 268.028 305.276 267.855 305.86 267.855C306.642 267.855 307.393 268.166 307.946 268.719C308.499 269.273 308.81 270.023 308.81 270.805Z" fill="#571823"/>
<path d="M322.223 270.805C322.223 271.389 322.05 271.959 321.726 272.444C321.402 272.929 320.941 273.308 320.402 273.531C319.863 273.754 319.27 273.813 318.697 273.699C318.125 273.585 317.599 273.304 317.187 272.891C316.774 272.479 316.493 271.953 316.379 271.381C316.266 270.808 316.324 270.215 316.547 269.676C316.771 269.137 317.149 268.676 317.634 268.352C318.119 268.028 318.69 267.855 319.273 267.855C320.055 267.855 320.806 268.166 321.359 268.719C321.912 269.273 322.223 270.023 322.223 270.805Z" fill="#571823"/>
<path d="M288.699 280.574C288.7 281.157 288.527 281.728 288.203 282.214C287.88 282.7 287.419 283.078 286.88 283.302C286.341 283.526 285.747 283.585 285.175 283.471C284.602 283.358 284.076 283.077 283.663 282.664C283.25 282.252 282.969 281.726 282.855 281.153C282.741 280.581 282.8 279.988 283.023 279.448C283.246 278.909 283.625 278.448 284.11 278.124C284.595 277.8 285.166 277.627 285.75 277.627C286.531 277.627 287.281 277.938 287.834 278.49C288.387 279.043 288.698 279.792 288.699 280.574Z" fill="#571823"/>
<path d="M302.11 280.574C302.11 281.158 301.936 281.728 301.612 282.214C301.288 282.699 300.827 283.077 300.288 283.301C299.748 283.524 299.155 283.582 298.582 283.469C298.01 283.355 297.484 283.074 297.071 282.661C296.658 282.248 296.377 281.722 296.263 281.15C296.149 280.577 296.208 279.984 296.431 279.444C296.655 278.905 297.033 278.444 297.518 278.12C298.004 277.795 298.574 277.622 299.158 277.622C299.941 277.622 300.692 277.933 301.245 278.487C301.799 279.04 302.11 279.791 302.11 280.574Z" fill="#571823"/>
<path d="M315.519 280.574C315.519 281.158 315.346 281.728 315.022 282.214C314.697 282.699 314.237 283.077 313.697 283.301C313.158 283.524 312.564 283.582 311.992 283.469C311.419 283.355 310.893 283.074 310.481 282.661C310.068 282.248 309.787 281.722 309.673 281.15C309.559 280.577 309.617 279.984 309.841 279.444C310.064 278.905 310.443 278.444 310.928 278.12C311.413 277.795 311.984 277.622 312.568 277.622C313.35 277.622 314.101 277.933 314.655 278.487C315.208 279.04 315.519 279.791 315.519 280.574Z" fill="#571823"/>
<path d="M328.928 280.574C328.928 281.158 328.755 281.728 328.431 282.214C328.107 282.699 327.645 283.077 327.106 283.301C326.567 283.524 325.973 283.582 325.401 283.468C324.828 283.354 324.302 283.073 323.889 282.66C323.477 282.247 323.196 281.721 323.082 281.149C322.968 280.576 323.027 279.983 323.25 279.443C323.474 278.904 323.852 278.443 324.338 278.119C324.824 277.795 325.394 277.622 325.978 277.622C326.761 277.623 327.511 277.934 328.064 278.487C328.618 279.041 328.928 279.791 328.928 280.574Z" fill="#571823"/>
<path d="M295.404 290.346C295.404 290.929 295.231 291.5 294.906 291.985C294.582 292.47 294.121 292.848 293.582 293.071C293.043 293.294 292.45 293.352 291.877 293.238C291.305 293.124 290.78 292.843 290.367 292.431C289.955 292.018 289.674 291.492 289.56 290.92C289.446 290.348 289.505 289.755 289.728 289.215C289.951 288.676 290.33 288.216 290.815 287.892C291.3 287.567 291.87 287.394 292.454 287.394C292.841 287.394 293.225 287.471 293.583 287.619C293.941 287.768 294.266 287.985 294.54 288.259C294.814 288.533 295.032 288.858 295.18 289.217C295.328 289.575 295.404 289.958 295.404 290.346Z" fill="#571823"/>
<path d="M308.81 290.346C308.81 290.929 308.637 291.5 308.312 291.985C307.988 292.47 307.527 292.848 306.988 293.071C306.449 293.294 305.856 293.352 305.284 293.238C304.711 293.124 304.186 292.843 303.773 292.431C303.361 292.018 303.08 291.492 302.966 290.92C302.853 290.348 302.911 289.755 303.134 289.215C303.358 288.676 303.736 288.216 304.221 287.892C304.706 287.567 305.277 287.394 305.86 287.394C306.248 287.394 306.631 287.471 306.989 287.619C307.347 287.768 307.673 287.985 307.947 288.259C308.221 288.533 308.438 288.858 308.586 289.217C308.734 289.575 308.81 289.958 308.81 290.346Z" fill="#571823"/>
<path d="M322.223 290.346C322.223 290.929 322.05 291.5 321.726 291.985C321.401 292.47 320.94 292.848 320.401 293.071C319.862 293.294 319.269 293.352 318.697 293.238C318.125 293.124 317.599 292.843 317.186 292.431C316.774 292.018 316.493 291.492 316.379 290.92C316.266 290.348 316.324 289.755 316.547 289.215C316.771 288.676 317.149 288.216 317.634 287.892C318.119 287.567 318.69 287.394 319.273 287.394C319.661 287.394 320.044 287.471 320.402 287.619C320.76 287.768 321.086 287.985 321.36 288.259C321.634 288.533 321.851 288.858 321.999 289.217C322.147 289.575 322.224 289.958 322.223 290.346Z" fill="#571823"/>
<path d="M302.11 300.109C302.11 300.692 301.937 301.263 301.613 301.749C301.289 302.234 300.828 302.613 300.288 302.836C299.749 303.06 299.156 303.118 298.583 303.005C298.01 302.891 297.484 302.61 297.071 302.197C296.659 301.784 296.377 301.259 296.263 300.686C296.149 300.113 296.208 299.52 296.431 298.981C296.654 298.441 297.033 297.98 297.518 297.656C298.004 297.331 298.574 297.158 299.158 297.158C299.941 297.158 300.691 297.469 301.245 298.022C301.798 298.576 302.109 299.326 302.11 300.109Z" fill="#571823"/>
<path d="M315.519 300.109C315.519 300.692 315.347 301.263 315.022 301.749C314.698 302.234 314.237 302.613 313.698 302.836C313.159 303.06 312.565 303.118 311.993 303.005C311.42 302.891 310.894 302.61 310.481 302.197C310.068 301.784 309.787 301.259 309.673 300.686C309.559 300.113 309.617 299.52 309.841 298.981C310.064 298.441 310.442 297.98 310.928 297.656C311.413 297.331 311.984 297.158 312.568 297.158C313.35 297.158 314.101 297.469 314.654 298.022C315.208 298.576 315.519 299.326 315.519 300.109Z" fill="#571823"/>
<path d="M154.063 255.21V273.991C154.063 276.138 153.641 278.265 152.819 280.249C151.998 282.234 150.793 284.037 149.275 285.555C147.756 287.074 145.954 288.279 143.97 289.101C141.985 289.923 139.859 290.346 137.711 290.346H104.505C103.174 290.346 101.855 290.608 100.625 291.117C99.3945 291.627 98.2766 292.374 97.335 293.315C96.3933 294.257 95.6463 295.375 95.1367 296.605C94.6271 297.835 94.3647 299.154 94.3647 300.485V300.485C94.3647 303.175 95.4331 305.754 97.3349 307.656C99.2366 309.558 101.816 310.626 104.505 310.626H193.673C194.99 310.626 196.294 310.885 197.511 311.389C198.727 311.893 199.832 312.631 200.764 313.562C201.695 314.493 202.433 315.599 202.937 316.815C203.441 318.032 203.7 319.336 203.7 320.653V320.653C203.7 321.969 203.441 323.273 202.937 324.49C202.433 325.707 201.695 326.812 200.764 327.743C199.833 328.674 198.727 329.413 197.511 329.917C196.294 330.421 194.99 330.68 193.673 330.68H137.567C132.827 330.681 128.28 332.564 124.928 335.916C121.575 339.268 119.691 343.814 119.69 348.555V348.555C119.69 353.296 121.573 357.844 124.926 361.197C128.279 364.549 132.826 366.433 137.567 366.434H314.013C318.794 366.433 323.379 364.534 326.76 361.153C330.141 357.772 332.04 353.187 332.04 348.406V320.861" stroke="white" stroke-width="3" stroke-miterlimit="10"/>
<path opacity="0.5" d="M244.408 279.865C244.428 291.855 249.103 303.369 257.446 311.98L267.129 304.439C263.795 301.274 261.14 297.463 259.326 293.239C257.512 289.016 256.576 284.467 256.576 279.869C256.576 275.272 257.512 270.723 259.326 266.499C261.14 262.275 263.795 258.465 267.129 255.3L257.448 247.759C249.105 256.367 244.43 267.878 244.408 279.865Z" fill="white"/>
<path opacity="0.5" d="M217.575 279.865C217.607 297.818 224.251 315.129 236.237 328.494L245.865 320.997C235.5 309.808 229.742 295.117 229.742 279.865C229.742 264.612 235.5 249.922 245.865 238.732L236.237 231.236C224.25 244.601 217.607 261.913 217.575 279.865Z" fill="white"/>
<path d="M380.763 390.29L300.821 390.281C299.783 390.281 298.756 390.077 297.797 389.68C296.839 389.282 295.968 388.7 295.234 387.967C294.501 387.233 293.919 386.362 293.522 385.403C293.125 384.445 292.921 383.417 292.921 382.38V357.36C292.921 356.323 293.125 355.296 293.522 354.337C293.919 353.379 294.502 352.508 295.235 351.774C295.969 351.041 296.84 350.459 297.799 350.062C298.757 349.665 299.785 349.461 300.822 349.462V333.916L315.569 349.463L380.763 349.471C381.801 349.471 382.828 349.675 383.787 350.073C384.745 350.47 385.616 351.052 386.35 351.785C387.083 352.519 387.665 353.39 388.062 354.349C388.459 355.307 388.663 356.335 388.662 357.372V382.392C388.662 384.486 387.83 386.495 386.348 387.977C384.867 389.458 382.858 390.29 380.763 390.29Z" fill="#3E599E"/>
<path d="M375.691 369.7C376.118 366.218 373.641 363.048 370.159 362.621C366.677 362.194 363.507 364.671 363.08 368.153C362.653 371.635 365.13 374.804 368.612 375.232C372.094 375.659 375.264 373.182 375.691 369.7Z" fill="#24335C"/>
<path d="M345.282 373.533C347.763 371.052 347.763 367.03 345.282 364.549C342.802 362.069 338.78 362.069 336.299 364.549C333.818 367.03 333.818 371.052 336.299 373.533C338.78 376.014 342.802 376.014 345.282 373.533Z" fill="#24335C"/>
<path d="M316.69 373.647C319.17 371.167 319.17 367.145 316.69 364.664C314.209 362.183 310.187 362.183 307.706 364.664C305.225 367.145 305.225 371.167 307.706 373.647C310.187 376.128 314.209 376.128 316.69 373.647Z" fill="#24335C"/>
</svg>
