<svg width="322" height="85" viewBox="0 0 322 85" fill="none" xmlns="http://www.w3.org/2000/svg">
<path d="M305.293 48.2532C305.263 48.2714 305.201 48.2774 305.195 48.3016C304.778 50.2704 303.513 51.5607 301.726 52.336C299.048 53.4931 296.291 53.5658 293.534 52.6026C292.613 52.2815 291.815 51.7545 291.182 51.0094C290.537 50.2583 290.187 49.386 290.236 48.3925C290.286 47.393 290.851 46.6964 291.741 46.4965C292.226 46.3874 292.68 46.4783 293.092 46.7327C293.835 47.187 293.976 48.126 293.387 48.7681C293.196 48.974 292.963 49.1437 292.748 49.3314C292.159 49.8403 292.109 50.3673 292.601 50.967C292.846 51.2699 293.159 51.5001 293.509 51.6758C295.462 52.6329 297.476 52.7843 299.503 51.9726C301.093 51.3426 301.947 50.1371 301.984 48.4167C302.008 47.3748 301.578 46.5389 300.792 45.8725C300.147 45.3273 299.404 44.9457 298.631 44.6246C297.611 44.2067 296.58 43.8129 295.56 43.401C294.596 43.0072 293.651 42.565 292.816 41.9411C290.967 40.566 290.279 38.7305 290.691 36.5013C290.943 35.1383 291.778 34.1328 292.92 33.3634C293.97 32.6547 295.155 32.2791 296.402 32.1034C297.961 31.8854 299.503 31.9338 301.019 32.3942C301.91 32.6668 302.733 33.0666 303.427 33.6845C304.342 34.4962 304.864 35.4897 304.79 36.7254C304.735 37.7492 304.163 38.4337 303.279 38.6094C302.88 38.6881 302.506 38.6336 302.143 38.47C301.284 38.0763 301.044 37.0465 301.664 36.3438C301.861 36.1197 302.119 35.944 302.346 35.738C302.856 35.2777 302.905 34.787 302.487 34.2479C302.217 33.9026 301.861 33.6724 301.474 33.4725C300.755 33.109 299.988 32.9031 299.19 32.8122C298.017 32.685 296.856 32.7698 295.745 33.1817C294.228 33.739 293.442 34.8839 293.448 36.4831C293.448 37.2282 293.712 37.8582 294.228 38.3974C294.701 38.888 295.278 39.2333 295.88 39.5362C297.12 40.1601 298.447 40.5902 299.73 41.1112C300.522 41.4323 301.308 41.7775 302.057 42.2016C302.714 42.5772 303.328 43.0133 303.85 43.5585C304.52 44.2672 305.005 45.0729 305.164 46.0421C305.177 46.1209 305.177 46.1996 305.287 46.2057C305.293 46.8781 305.293 47.5687 305.293 48.2532Z" fill="black"/>
<path d="M219.675 47.6828C219.933 47.0094 220.153 46.4163 220.379 45.8232C222.025 41.3997 223.67 36.9762 225.322 32.5589C225.561 31.9164 225.448 31.9844 226.151 31.9782C227.785 31.9782 229.418 31.9782 231.051 31.9782C231.239 31.9782 231.434 31.9782 231.61 32.0215C231.786 32.0647 231.893 32.2068 231.867 32.3983C231.849 32.5528 231.748 32.6763 231.591 32.6949C231.365 32.7258 231.133 32.7196 230.9 32.7258C230.09 32.7443 229.763 33.0594 229.757 33.8625C229.751 39.6637 229.751 45.471 229.757 51.2722C229.757 52.0444 230.084 52.3534 230.862 52.3719C231.07 52.3781 231.283 52.3657 231.491 52.3842C231.723 52.409 231.88 52.5449 231.867 52.792C231.855 53.0082 231.698 53.1132 231.484 53.1318C231.359 53.1441 231.233 53.138 231.107 53.138C228.846 53.138 226.585 53.138 224.324 53.138C224.179 53.138 224.028 53.1441 223.884 53.1256C223.67 53.0947 223.551 52.9526 223.557 52.7426C223.564 52.551 223.695 52.4337 223.865 52.4028C224.091 52.3719 224.324 52.3781 224.556 52.3719C225.341 52.3534 225.662 52.0506 225.668 51.2784C225.674 49.3446 225.668 47.4109 225.668 45.4772C225.668 42.104 225.668 38.7246 225.668 35.3514C225.668 35.1537 225.668 34.956 225.668 34.6718C225.398 34.8819 225.379 35.1166 225.303 35.3143C223.174 41.0723 221.045 46.8302 218.915 52.5943C218.834 52.8167 218.84 53.1503 218.582 53.2183C218.268 53.2986 217.917 53.2677 217.584 53.2368C217.358 53.2183 217.358 52.965 217.295 52.7982C216.654 51.1672 216.013 49.5362 215.379 47.9052C213.733 43.6794 212.081 39.4598 210.429 35.234C210.367 35.0734 210.36 34.8695 210.172 34.7583C210.015 34.8325 210.084 34.9684 210.084 35.0734C210.078 40.4421 210.078 45.817 210.078 51.1857C210.078 51.2907 210.071 51.3896 210.084 51.4946C210.134 52.0074 210.442 52.3225 210.97 52.3657C211.24 52.3904 211.516 52.3595 211.786 52.3842C212.019 52.4028 212.182 52.5449 212.169 52.792C212.163 53.0082 212.006 53.1132 211.792 53.1318C211.667 53.1441 211.541 53.138 211.416 53.138C210.203 53.138 208.985 53.138 207.772 53.138C207.226 53.138 207.037 53.0453 207.025 52.7796C207.012 52.4954 207.232 52.3842 207.798 52.3781C207.923 52.3781 208.049 52.3842 208.174 52.3781C208.746 52.341 209.06 52.0444 209.104 51.4946C209.117 51.334 209.11 51.1672 209.11 51.0004C209.11 45.3845 209.11 39.7625 209.11 34.1467C209.11 34.1282 209.11 34.1035 209.11 34.0849C209.11 32.9914 208.865 32.7505 207.747 32.7381C207.703 32.7381 207.666 32.7381 207.622 32.7381C207.201 32.7257 207.019 32.6084 207.025 32.3551C207.037 32.1141 207.22 31.9967 207.647 31.9967C209.424 31.9906 211.208 32.0091 212.986 31.9844C213.356 31.9782 213.488 32.1327 213.608 32.4354C214.475 34.6842 215.354 36.933 216.233 39.1756C217.257 41.8075 218.281 44.4393 219.311 47.065C219.405 47.2441 219.449 47.448 219.675 47.6828Z" fill="black"/>
<path d="M277.592 48.3689C277.437 48.706 277.319 48.9574 277.194 49.2148C275.733 52.2062 273.022 53.4505 269.819 53.2483C269.073 53.1992 268.339 53.0705 267.643 52.7885C265.964 52.1081 265.038 50.8392 264.708 49.1106C264.596 48.5283 264.565 47.9337 264.565 47.3452C264.565 42.9562 264.565 38.5673 264.565 34.1783C264.565 33.9944 264.571 33.8105 264.559 33.6266C264.521 33.1239 264.21 32.7929 263.701 32.7439C263.477 32.7194 263.247 32.7439 263.017 32.7316C262.668 32.7132 262.463 32.5661 262.5 32.3393C262.544 32.0635 262.749 31.9899 262.998 31.9899C263.352 31.9899 263.701 31.9899 264.055 31.9899C265.404 31.9899 266.748 31.9899 268.097 31.9899C268.601 31.9899 268.607 31.996 268.607 32.4926C268.607 35.3123 268.607 38.1259 268.607 40.9456C268.607 43.2505 268.607 45.5614 268.607 47.8662C268.607 48.5221 268.65 49.1719 268.824 49.8094C269.204 51.1825 270.099 51.8997 271.573 51.9365C273.364 51.9855 274.788 51.2622 275.832 49.8339C276.616 48.7673 277.02 47.5536 277.256 46.2786C277.424 45.3714 277.505 44.458 277.505 43.5386C277.499 40.3326 277.505 37.1267 277.505 33.9208C277.505 33.0075 277.219 32.7378 276.268 32.7316C276.1 32.7316 275.932 32.7378 275.77 32.7132C275.565 32.6765 275.428 32.5416 275.447 32.3271C275.459 32.1493 275.59 32.0328 275.77 32.0022C275.895 31.9838 276.019 31.9838 276.143 31.9838C277.741 31.9838 279.333 31.9838 280.931 31.9838C281.535 31.9838 281.547 31.8796 281.547 32.5723C281.547 36.0663 281.547 39.5542 281.547 43.0482C281.547 45.684 281.547 48.3137 281.547 50.9496C281.547 51.1518 281.541 51.3603 281.578 51.5564C281.653 51.9549 281.914 52.1817 282.349 52.2307C282.617 52.2613 282.89 52.2368 283.158 52.2613C283.375 52.2797 283.58 52.3533 283.587 52.6107C283.593 52.905 283.375 52.9785 283.127 52.9785C282.007 52.9847 280.888 52.9785 279.769 52.9785C279.209 52.9785 278.649 52.9663 278.09 52.9847C277.791 52.9908 277.692 52.8866 277.698 52.5985C277.71 51.4154 277.704 50.2324 277.698 49.0432C277.698 48.847 277.754 48.6447 277.592 48.3689Z" fill="black"/>
<path d="M121.325 48.4129C121.132 48.5845 121.101 48.7684 121.033 48.9338C119.601 52.1146 116.844 53.4568 113.52 53.2485C112.985 53.2178 112.449 53.132 111.927 52.9849C109.985 52.4395 108.839 51.1647 108.416 49.2403C108.273 48.5968 108.254 47.9471 108.254 47.2914C108.254 42.9216 108.254 38.5518 108.254 34.1821C108.254 34.0166 108.26 33.8573 108.254 33.6918C108.223 33.0912 107.893 32.7664 107.277 32.7296C107.071 32.7173 106.86 32.7296 106.654 32.7235C106.405 32.7112 106.181 32.6254 106.194 32.3435C106.206 32.0616 106.43 31.988 106.679 31.988C106.742 31.988 106.804 31.988 106.866 31.988C108.503 31.988 110.146 31.988 111.783 31.988C112.288 31.988 112.294 31.9941 112.294 32.4844C112.294 35.3649 112.294 38.2393 112.294 41.1198C112.294 43.3629 112.294 45.6121 112.294 47.8552C112.294 48.4681 112.344 49.0809 112.493 49.6754C112.873 51.1831 113.806 51.9308 115.387 51.9308C117.124 51.9369 118.512 51.2199 119.527 49.8286C120.323 48.7439 120.728 47.5059 120.964 46.2127C121.126 45.3302 121.201 44.4354 121.201 43.5345C121.201 40.3292 121.201 37.1239 121.201 33.9186C121.201 33.0054 120.908 32.7357 119.962 32.7235C119.794 32.7235 119.626 32.7296 119.464 32.7051C119.265 32.6683 119.122 32.5457 119.134 32.3251C119.147 32.1412 119.271 32.0248 119.452 32.0003C119.614 31.9758 119.782 31.9819 119.95 31.9819C121.487 31.9819 123.018 31.9758 124.556 31.9819C125.29 31.9819 125.228 31.89 125.228 32.6254C125.228 36.7684 125.228 40.9114 125.228 45.0605C125.228 46.9972 125.228 48.94 125.228 50.8766C125.228 51.0421 125.222 51.2015 125.234 51.3669C125.284 51.894 125.564 52.1821 126.099 52.2311C126.348 52.2556 126.597 52.2311 126.846 52.2495C127.095 52.2679 127.307 52.3659 127.282 52.654C127.257 52.9052 127.052 52.9727 126.828 52.9727C126.062 52.9727 125.29 52.9727 124.525 52.9727C123.672 52.9727 122.825 52.9727 121.973 52.9727C121.388 52.9727 121.388 52.9665 121.381 52.4149C121.381 51.2934 121.381 50.1718 121.381 49.0442C121.394 48.8603 121.437 48.6519 121.325 48.4129Z" fill="black"/>
<path d="M99.6833 42.4859C99.6833 44.2883 99.4254 45.9148 98.7929 47.4745C97.1411 51.5711 93.5304 53.5071 89.324 53.2461C87.1994 53.1126 85.2958 52.4147 83.6992 50.9824C82.5877 49.981 81.7772 48.7733 81.2675 47.3896C80.1131 44.2398 80.0578 41.0536 81.2122 37.8977C82.5325 34.2867 85.6458 32.114 89.5389 31.9866C90.9636 31.938 92.3575 32.0958 93.6962 32.6056C96.5393 33.6919 98.2464 35.7979 99.1306 38.6139C99.5421 39.9126 99.7017 41.2539 99.6833 42.4859ZM95.4647 43.0624C95.4708 41.3085 95.4033 40.0158 95.2129 38.7292C95.0164 37.4001 94.6664 36.1256 93.9971 34.9421C92.3391 32.0048 87.795 32.0108 86.137 34.8814C85.6949 35.6461 85.351 36.4412 85.1668 37.2969C84.4115 40.823 84.4176 44.3612 85.1729 47.8872C85.3817 48.8583 85.7747 49.7686 86.3274 50.6122C87.9976 53.1551 92.0873 53.149 93.7453 50.6243C94.255 49.8536 94.605 49.0221 94.8445 48.1361C95.348 46.3154 95.4524 44.4643 95.4647 43.0624Z" fill="black"/>
<path d="M193.745 49.7843C193.481 49.9236 193.45 50.0931 193.376 50.2323C192.461 51.9212 191.018 52.8716 189.121 53.1682C187.911 53.3558 186.714 53.2832 185.535 52.9442C182.507 52.0604 181.046 48.834 182.391 46.007C182.851 45.0385 183.619 44.3605 184.564 43.8702C185.799 43.2346 187.131 42.944 188.494 42.7745C190.042 42.5869 191.595 42.5808 193.149 42.4719C193.683 42.4355 193.683 42.4355 193.683 41.9271C193.683 40.2563 193.683 38.5795 193.683 36.9088C193.683 36.4003 193.616 35.9039 193.487 35.4136C193.161 34.1787 192.381 33.3434 191.141 32.9983C189.342 32.4959 187.579 32.6351 185.891 33.4644C185.485 33.6642 185.123 33.9245 184.816 34.2574C184.607 34.4814 184.442 34.7356 184.349 35.0323C184.184 35.571 184.263 35.8495 184.718 36.1945C184.927 36.358 185.16 36.4851 185.363 36.6546C186.093 37.2781 185.964 38.3192 185.105 38.7611C184.141 39.2575 182.999 38.8398 182.636 37.8229C182.323 36.9451 182.452 36.0674 182.827 35.232C183.244 34.2937 183.963 33.6158 184.841 33.1012C185.878 32.4898 187.021 32.1751 188.212 32.06C190.06 31.8845 191.89 31.9753 193.683 32.4898C194.218 32.6412 194.727 32.847 195.206 33.1133C196.772 33.9911 197.607 35.3107 197.699 37.0844C197.712 37.3265 197.705 37.5686 197.705 37.8108C197.705 42.0663 197.705 46.3158 197.705 50.5713C197.705 50.8134 197.699 51.0556 197.73 51.2977C197.804 51.9333 198.227 52.2118 198.854 52.0544C199.075 51.9999 199.271 51.8909 199.443 51.7456C199.566 51.6427 199.695 51.5398 199.83 51.449C199.953 51.3643 200.094 51.334 200.223 51.4551C200.346 51.564 200.358 51.7033 200.315 51.8425C200.272 52.0059 200.162 52.127 200.051 52.242C199.836 52.4599 199.578 52.6294 199.296 52.7505C198.197 53.2469 197.054 53.374 195.888 53.0895C194.549 52.7626 193.843 51.9151 193.732 50.5652C193.732 50.3352 193.745 50.0931 193.745 49.7843ZM191.626 43.3012C191.626 43.2951 191.626 43.2951 191.626 43.3012C191.055 43.3314 190.484 43.3496 189.913 43.4101C188.384 43.5615 187.082 44.1365 186.364 45.547C185.565 47.1148 185.578 48.7432 186.308 50.3292C186.806 51.4127 187.721 51.9575 188.937 52.012C190.257 52.0665 191.319 51.5519 192.16 50.5713C192.836 49.7843 193.21 48.8521 193.45 47.8654C193.8 46.4187 193.683 44.9416 193.702 43.4767C193.702 43.2709 193.61 43.1922 193.401 43.2104C192.811 43.2346 192.216 43.2649 191.626 43.3012Z" fill="black"/>
<path d="M243.88 31.9823C245.254 31.9823 246.622 31.9698 247.996 31.9885C249.465 32.0071 250.884 32.2619 252.245 32.8335C257.153 34.8776 256.557 40.8982 253.404 43.079C251.998 44.0545 250.434 44.5205 248.75 44.682C247.591 44.7939 246.432 44.7504 245.273 44.7628C244.767 44.769 244.76 44.769 244.76 45.2847C244.76 47.3351 244.754 49.3792 244.76 51.4296C244.76 52.2062 245.077 52.5045 245.875 52.5293C246.236 52.5355 246.59 52.5293 246.951 52.5355C247.097 52.5355 247.249 52.5479 247.388 52.5852C247.572 52.6349 247.673 52.7716 247.648 52.958C247.629 53.1196 247.515 53.219 247.357 53.2438C247.211 53.2687 247.065 53.2687 246.913 53.2687C244.362 53.2687 241.81 53.2687 239.258 53.2687C239.112 53.2687 238.96 53.2749 238.815 53.25C238.631 53.219 238.517 53.1009 238.517 52.9021C238.517 52.7343 238.612 52.6349 238.764 52.579C238.992 52.4982 239.226 52.5355 239.454 52.5293C240.347 52.5107 240.645 52.2311 240.645 51.3736C240.651 45.5395 240.651 39.7053 240.645 33.8711C240.645 33.0572 240.322 32.7527 239.498 32.7279C239.264 32.7216 239.03 32.7341 238.808 32.6968C238.637 32.6657 238.504 32.5415 238.517 32.3426C238.523 32.15 238.637 32.032 238.821 32.0009C238.986 31.9761 239.156 31.9823 239.327 31.9823C240.841 31.9823 242.361 31.9823 243.88 31.9823ZM244.754 38.5683C244.754 40.221 244.754 41.8737 244.754 43.5264C244.754 44.0048 244.767 44.0048 245.242 44.011C245.748 44.0172 246.255 44.0234 246.761 44.011C248.788 43.9613 250.193 43.0169 250.953 41.1778C251.555 39.7177 251.599 38.2017 251.39 36.6608C251.314 36.083 251.143 35.53 250.877 35.0081C250.288 33.84 249.345 33.1193 248.047 32.8397C247.357 32.6906 246.66 32.7279 245.97 32.7279C245.058 32.7279 244.76 33.0261 244.76 33.9208C244.748 35.4679 244.754 37.0212 244.754 38.5683Z" fill="black"/>
<path d="M144.85 42.6367C144.85 45.4721 144.85 48.3075 144.85 51.149C144.85 51.2921 144.844 51.4413 144.85 51.5843C144.876 52.1439 145.175 52.4548 145.749 52.5108C146.042 52.5356 146.341 52.517 146.634 52.5481C146.838 52.5667 147.004 52.6973 146.991 52.9149C146.978 53.1264 146.825 53.2445 146.602 53.2569C146.475 53.2631 146.347 53.2694 146.22 53.2694C143.907 53.2694 141.595 53.2694 139.282 53.2694C139.174 53.2694 139.072 53.2694 138.963 53.2631C138.721 53.2507 138.537 53.145 138.537 52.8963C138.537 52.6476 138.74 52.5481 138.97 52.5294C139.225 52.5108 139.479 52.5294 139.734 52.5108C140.346 52.461 140.645 52.1564 140.671 51.5532C140.677 51.4475 140.671 51.348 140.671 51.2423C140.671 45.5094 140.671 39.7702 140.671 34.0373C140.671 33.913 140.677 33.7886 140.671 33.6642C140.645 33.1357 140.371 32.7937 139.823 32.7502C138.849 32.6694 137.868 32.7005 136.944 33.086C135.816 33.5585 135.217 34.4477 134.937 35.5731C134.809 36.0768 134.765 36.5929 134.771 37.1152C134.771 37.2582 134.778 37.4074 134.765 37.5504C134.746 37.7867 134.612 37.936 134.357 37.9422C134.109 37.9484 133.962 37.8116 133.937 37.5691C133.924 37.4261 133.93 37.2769 133.93 37.1338C133.93 35.6415 133.93 34.1492 133.93 32.6632C133.93 31.9294 133.886 31.9854 134.612 31.9854C139.409 31.9854 144.207 31.9854 149.004 31.9854C149.705 31.9854 150.406 31.9978 151.107 31.9792C151.438 31.9667 151.552 32.0724 151.552 32.3958C151.54 34.0497 151.546 35.7099 151.546 37.3639C151.546 37.4261 151.546 37.4883 151.54 37.5504C151.521 37.7929 151.393 37.936 151.138 37.9422C150.884 37.9484 150.743 37.8116 150.718 37.5691C150.699 37.4074 150.705 37.2395 150.705 37.0717C150.705 36.6799 150.686 36.2882 150.622 35.8965C150.31 33.9503 149.081 32.8435 147.061 32.7315C146.679 32.7129 146.296 32.7129 145.914 32.7253C145.156 32.7564 144.844 33.0673 144.844 33.8135C144.85 36.7608 144.85 39.7018 144.85 42.6367Z" fill="black"/>
<path d="M162.404 42.5448C162.41 44.3181 162.545 46.0732 163.092 47.7801C163.344 48.5703 163.688 49.3182 164.191 49.9877C165.143 51.2663 166.426 51.966 168.041 52.0504C170.719 52.1892 172.77 51.1759 174.071 48.8236C174.157 48.6668 174.249 48.5039 174.403 48.3953C174.563 48.2747 174.741 48.2506 174.919 48.3592C175.078 48.4617 175.085 48.6185 175.035 48.7874C174.931 49.1372 174.753 49.4569 174.544 49.7524C173.009 51.8996 170.94 53.0878 168.244 53.1542C167.01 53.1843 165.794 53.0637 164.609 52.6958C161.864 51.8393 160.052 50.0178 159.039 47.4062C158.284 45.458 158.093 43.4254 158.247 41.3626C158.351 39.9332 158.64 38.5399 159.242 37.225C160.55 34.3601 162.816 32.7014 165.941 32.1586C167.63 31.8691 169.325 31.9173 170.983 32.3817C172.1 32.6954 173.113 33.2141 173.912 34.0585C174.888 35.0899 175.318 36.3082 175.097 37.7136C174.888 39.0465 173.697 39.7884 172.444 39.3903C171.861 39.2034 171.443 38.8475 171.302 38.2443C171.161 37.6291 171.4 37.1406 171.879 36.7546C172.119 36.5616 172.37 36.3927 172.598 36.1936C173.07 35.7775 173.156 35.3613 172.911 34.7823C172.69 34.2575 172.284 33.8956 171.805 33.6061C170.682 32.9306 169.435 32.7557 168.146 32.816C166.316 32.9065 164.916 33.7388 163.952 35.2648C163.141 36.5555 162.791 37.9971 162.582 39.4808C162.453 40.4941 162.416 41.5194 162.404 42.5448Z" fill="black"/>
<path d="M42.6107 15.6795C42.6612 15.7802 42.7707 15.7844 42.8549 15.8305C43.3517 16.1282 43.579 16.6482 43.4359 17.1933C43.3095 17.6881 42.838 18.0613 42.2865 18.0781C41.7097 18.0949 41.1371 18.1158 40.5645 18.1662C35.7523 18.5939 31.4327 20.2796 27.6477 23.261C23.8544 26.2508 21.1599 30.029 19.6147 34.6039C18.6885 37.3463 18.2801 40.1684 18.377 43.0576C18.7054 52.7651 24.5491 60.4933 32.1989 64.1457C34.9608 65.4665 37.8742 66.2255 40.935 66.4352C45.7514 66.7623 50.3111 65.8439 54.5002 63.4538C61.1859 59.6421 65.3119 53.9434 66.6633 46.3745C68.2 37.7614 64.8866 29.0645 58.0872 23.542C57.7294 23.2526 57.3547 22.9759 56.9926 22.6949C56.6979 22.4643 56.4621 22.1917 56.4242 21.8017C56.3737 21.2944 56.5589 20.896 56.9926 20.6276C57.4094 20.3676 57.923 20.3928 58.3356 20.7031C59.3292 21.4537 60.3018 22.2337 61.2028 23.1017C64.3056 26.0873 66.5749 29.6013 67.9811 33.6646C69.0421 36.7341 69.5052 39.8958 69.3999 43.1414C69.2484 47.8673 67.9559 52.2619 65.4298 56.2623C61.4427 62.5732 55.7716 66.582 48.4712 68.2677C45.7051 68.905 42.897 69.0518 40.0635 68.7667C35.2176 68.2803 30.8138 66.6323 26.9068 63.7473C21.5051 59.7637 18.0528 54.4885 16.5834 47.947C16.0193 45.4352 15.8298 42.894 16.0361 40.3277C16.4866 34.7339 18.4696 29.7439 22.0524 25.4038C25.3616 21.395 29.5171 18.5939 34.4682 16.9753C36.287 16.3798 38.1521 15.9982 40.0593 15.8095L40.4535 15.6795C41.1566 15.6753 41.9076 15.6795 42.6107 15.6795Z" fill="black"/>
<path d="M21.0506 42.259C21.0506 33.1467 27.0525 25.0505 35.8776 22.2601C37.7696 21.6604 39.7081 21.3356 41.6932 21.2606C41.8202 21.2564 41.9472 21.2523 42.0742 21.2606C42.6921 21.2939 43.1704 21.752 43.2085 22.3434C43.2508 22.9723 42.8445 23.4929 42.2181 23.597C42.0107 23.6303 41.7948 23.6303 41.5874 23.6428C34.6543 23.9427 28.4493 27.9325 25.3891 34.0587C24.3352 36.1744 23.7087 38.4067 23.5267 40.7597C23.205 44.862 24.0939 48.6893 26.3414 52.1627C29.2577 56.6647 33.3803 59.5467 38.7261 60.5671C44.4106 61.6499 49.6167 60.4463 54.1795 56.9146C58.0566 53.9119 60.3803 49.9721 61.1676 45.1702C61.3242 44.2081 61.3919 43.2419 61.4004 42.2715C61.4046 41.5469 61.9591 41.0388 62.6786 41.0763C63.3093 41.1096 63.7876 41.601 63.8088 42.259C63.8299 42.8962 63.7834 43.5376 63.7241 44.1706C63.4786 46.7944 62.8014 49.3099 61.5655 51.6504C58.3487 57.7392 53.3287 61.5624 46.4846 62.9243C37.4648 64.7151 28.2334 60.4546 23.7553 52.5458C22.185 49.7763 21.2919 46.811 21.0887 43.6417C21.076 43.421 21.0506 43.2003 21.0464 42.9754C21.0464 42.7296 21.0506 42.4923 21.0506 42.259Z" fill="black"/>
<path d="M27.1562 42.1833C27.2404 37.7996 28.873 34.0037 32.1423 30.951C34.5365 28.7171 37.3851 27.3987 40.6418 26.9662C41.172 26.8948 41.7021 26.8318 42.2323 26.8318C42.9939 26.8318 43.524 27.4364 43.4399 28.1797C43.3768 28.7549 42.9013 29.1874 42.2575 29.221C41.7105 29.2504 41.1635 29.2882 40.625 29.3806C36.4594 30.107 33.3163 32.3073 31.2124 35.9604C30.0637 37.9549 29.5462 40.1342 29.5588 42.4311C29.5841 47.705 32.9628 52.5632 37.8942 54.4654C39.2827 54.9986 40.7133 55.2884 42.1944 55.3598C42.8971 55.3933 43.3852 55.809 43.4399 56.4263C43.5114 57.1905 42.9644 57.7742 42.165 57.7532C41.395 57.7322 40.625 57.6482 39.8676 57.5054C36.6908 56.9008 33.939 55.4815 31.6711 53.1805C28.6878 50.1614 27.2067 46.5041 27.1562 42.1833Z" fill="black"/>
<path d="M32.7617 42.3005C32.8038 37.3296 36.4874 33.1268 41.3625 32.4868C41.6698 32.4484 41.9729 32.3972 42.2844 32.41C42.9201 32.4313 43.4127 32.9049 43.4464 33.5279C43.4843 34.1892 43.0633 34.7269 42.4107 34.8079C41.7835 34.8847 41.1604 34.9402 40.55 35.1237C37.3378 36.0794 35.1487 39.0492 35.1655 42.4413C35.1655 42.5693 35.174 42.6973 35.1697 42.8253C35.1487 43.5208 34.6351 44.0541 33.9741 44.0669C33.3174 44.0755 32.787 43.5464 32.7617 42.8509C32.7533 42.6717 32.7575 42.4882 32.7617 42.3005Z" fill="black"/>
</svg>
