<svg width="418" height="259" viewBox="0 0 418 259" fill="none" xmlns="http://www.w3.org/2000/svg">
<g clip-path="url(#clip0)">
<path d="M209.224 0C209.358 0.268278 209.649 0.279456 209.873 0.402417C211.193 1.19607 211.797 2.58217 211.417 4.03535C211.081 5.35438 209.828 6.34924 208.362 6.39396C206.83 6.43867 205.308 6.49456 203.786 6.6287C190.998 7.76888 179.519 12.2625 169.46 20.2103C159.379 28.1804 152.219 38.252 148.113 50.4474C145.651 57.758 144.566 65.281 144.823 72.9828C145.696 98.8604 161.226 119.462 181.555 129.198C188.895 132.719 196.637 134.743 204.771 135.301C217.57 136.173 229.688 133.725 240.82 127.354C258.587 117.193 269.552 102.002 273.143 81.8248C277.227 58.8646 268.422 35.681 250.353 20.9592C249.402 20.1879 248.406 19.4501 247.444 18.7012C246.66 18.0864 246.034 17.3598 245.933 16.3202C245.799 14.9677 246.291 13.9057 247.444 13.1903C248.551 12.4973 249.916 12.5644 251.013 13.3915C253.653 15.3924 256.238 17.4716 258.632 19.7855C266.878 27.7444 272.908 37.1118 276.645 47.9435C279.465 56.126 280.696 64.5544 280.416 73.2063C280.013 85.8042 276.578 97.519 269.865 108.183C259.27 125.006 244.199 135.693 224.798 140.186C217.447 141.885 209.985 142.277 202.455 141.517C189.577 140.22 177.874 135.827 167.491 128.136C153.136 117.517 143.962 103.455 140.057 86.0166C138.558 79.3208 138.054 72.5468 138.603 65.7057C139.8 50.794 145.069 37.4918 154.591 25.9224C163.385 15.236 174.428 7.76888 187.585 3.45408C192.419 1.86677 197.375 0.849547 202.444 0.346526C202.847 0.312991 203.35 0.480665 203.63 0.0111782C205.498 0 207.355 0 209.224 0Z" fill="#3E3D3D"/>
<path d="M418 210.062C417.944 210.096 417.832 210.107 417.821 210.152C417.06 213.785 414.755 216.166 411.499 217.596C406.621 219.731 401.598 219.866 396.574 218.088C394.896 217.496 393.441 216.523 392.289 215.148C391.114 213.762 390.476 212.153 390.566 210.319C390.655 208.475 391.685 207.189 393.307 206.82C394.191 206.619 395.019 206.787 395.769 207.256C397.122 208.095 397.38 209.827 396.306 211.012C395.959 211.392 395.534 211.705 395.142 212.052C394.068 212.991 393.978 213.963 394.873 215.07C395.321 215.629 395.892 216.054 396.529 216.378C400.087 218.144 403.757 218.424 407.449 216.926C410.347 215.763 411.902 213.539 411.969 210.364C412.014 208.441 411.231 206.899 409.799 205.669C408.624 204.663 407.27 203.959 405.861 203.366C404.003 202.595 402.124 201.868 400.266 201.108C398.51 200.382 396.787 199.566 395.265 198.414C391.897 195.877 390.644 192.49 391.394 188.376C391.853 185.861 393.374 184.006 395.455 182.586C397.368 181.278 399.528 180.585 401.799 180.261C404.641 179.858 407.449 179.948 410.213 180.797C411.835 181.3 413.334 182.038 414.599 183.178C416.266 184.676 417.217 186.51 417.083 188.79C416.982 190.679 415.941 191.942 414.33 192.266C413.603 192.412 412.92 192.311 412.26 192.009C410.694 191.283 410.258 189.382 411.388 188.086C411.746 187.672 412.216 187.348 412.63 186.968C413.558 186.118 413.648 185.213 412.887 184.218C412.395 183.581 411.746 183.156 411.041 182.787C409.732 182.116 408.333 181.736 406.879 181.569C404.742 181.334 402.627 181.49 400.602 182.251C397.838 183.279 396.406 185.392 396.417 188.343C396.417 189.718 396.899 190.88 397.838 191.875C398.7 192.781 399.752 193.418 400.848 193.977C403.108 195.128 405.525 195.922 407.863 196.883C409.307 197.475 410.739 198.113 412.104 198.895C413.301 199.588 414.42 200.393 415.371 201.399C416.59 202.707 417.474 204.194 417.765 205.982C417.787 206.127 417.787 206.273 417.989 206.284C418 207.525 418 208.799 418 210.062Z" fill="#3E3D3D"/>
<path d="M62.8793 259C62.8905 258.776 62.8905 258.564 62.9129 258.34C62.9688 257.625 62.98 257.603 63.7744 257.67C64.5799 257.737 65.1617 257.413 65.4974 256.697C65.833 255.993 66.0904 255.255 66.3925 254.529C66.5827 254.081 66.3253 253.724 66.1799 253.355C65.1841 250.873 64.166 248.392 63.159 245.91C63.0136 245.541 62.8681 245.161 62.7227 244.77C62.9129 244.725 63.0136 244.692 63.1254 244.681C64.345 244.625 64.345 244.625 64.7813 245.776C65.4862 247.62 66.1799 249.465 66.8959 251.298C66.9966 251.566 67.0302 251.868 67.2875 252.058C67.6456 251.823 67.6679 251.421 67.791 251.086C68.4735 249.275 69.1448 247.464 69.8161 245.642C70.1853 244.636 70.1965 244.636 71.2259 244.658C71.3713 244.658 71.5168 244.681 71.6622 244.703C71.7741 245.094 71.5391 245.374 71.4273 245.664C70.0958 249.018 68.7532 252.371 67.4218 255.725C66.9519 256.91 66.4932 258.094 65.3184 258.788C65.3072 258.799 65.3519 258.91 65.3631 258.966C64.524 259 63.6961 259 62.8793 259Z" fill="#3E3D3D"/>
<path d="M386.449 259C386.807 258.609 386.471 258.073 386.796 257.637C386.807 257.637 386.885 257.569 386.941 257.581C388.183 257.86 388.832 257.603 389.458 256.172C390.264 254.317 390.275 254.317 389.503 252.416C388.608 250.214 387.713 248.012 386.818 245.799C386.684 245.463 386.449 245.15 386.516 244.726C386.695 244.714 386.885 244.681 387.064 244.681C388.049 244.659 388.049 244.67 388.407 245.598C389.112 247.442 389.794 249.286 390.51 251.12C390.644 251.455 390.655 251.857 391.092 252.114C391.64 250.639 392.177 249.186 392.725 247.733C392.983 247.039 393.24 246.335 393.497 245.642C393.889 244.58 393.71 244.692 394.918 244.681C395.064 244.681 395.209 244.726 395.355 244.737C395.399 245.162 395.175 245.475 395.041 245.81C393.866 248.783 392.669 251.746 391.495 254.719C390.879 256.284 390.365 257.916 388.899 258.978C388.093 259 387.265 259 386.449 259Z" fill="#3E3D3D"/>
<path d="M152.923 70.8814C152.923 46.4234 168.788 24.6929 192.116 17.2035C197.118 15.5938 202.242 14.7219 207.489 14.5207C207.825 14.5095 208.161 14.4984 208.496 14.5207C210.13 14.6101 211.394 15.8398 211.495 17.4271C211.607 19.115 210.533 20.5123 208.877 20.7917C208.328 20.8811 207.758 20.8811 207.21 20.9147C188.883 21.7195 172.481 32.4283 164.391 48.8715C161.606 54.55 159.95 60.5416 159.469 66.8573C158.618 77.8678 160.968 88.1407 166.909 97.4633C174.618 109.547 185.515 117.282 199.646 120.021C214.672 122.927 228.434 119.697 240.495 110.218C250.744 102.158 256.886 91.5836 258.967 78.695C259.381 76.1129 259.56 73.5195 259.583 70.915C259.594 68.97 261.059 67.6062 262.961 67.7068C264.629 67.7962 265.893 69.1153 265.949 70.8814C266.005 72.5917 265.882 74.3132 265.725 76.0123C265.076 83.0546 263.286 89.8062 260.019 96.0884C251.516 112.431 238.246 122.693 220.155 126.348C196.312 131.155 171.91 119.719 160.073 98.4917C155.922 91.0582 153.561 83.0993 153.024 74.5926C152.99 74.0002 152.923 73.4077 152.912 72.8041C152.912 72.1446 152.923 71.5074 152.923 70.8814Z" fill="#3E3D3D"/>
<path d="M168.196 70.6357C168.42 58.9657 172.761 48.8605 181.454 40.7339C187.82 34.7871 195.395 31.2771 204.055 30.1258C205.464 29.9357 206.874 29.7681 208.284 29.7681C210.309 29.7681 211.719 31.3777 211.495 33.3563C211.327 34.8877 210.063 36.0391 208.351 36.1285C206.897 36.2067 205.442 36.3073 204.01 36.5533C192.933 38.4871 184.576 44.3445 178.981 54.0696C175.927 59.3792 174.551 65.1808 174.584 71.2953C174.652 85.3351 183.636 98.2684 196.749 103.332C200.441 104.752 204.245 105.523 208.183 105.713C210.052 105.803 211.35 106.909 211.495 108.552C211.685 110.587 210.231 112.141 208.105 112.085C206.057 112.029 204.01 111.805 201.996 111.425C193.549 109.815 186.232 106.037 180.201 99.9116C172.268 91.8744 168.33 82.1382 168.196 70.6357Z" fill="#3E3D3D"/>
<path d="M259.415 208.978C259.874 207.759 260.266 206.686 260.668 205.613C263.6 197.609 266.531 189.606 269.474 181.613C269.899 180.451 269.697 180.574 270.951 180.563C273.86 180.563 276.769 180.563 279.678 180.563C280.013 180.563 280.36 180.562 280.673 180.641C280.987 180.719 281.177 180.976 281.132 181.323C281.098 181.602 280.919 181.826 280.64 181.859C280.237 181.915 279.823 181.904 279.409 181.915C277.966 181.949 277.384 182.519 277.373 183.972C277.362 194.468 277.362 204.976 277.373 215.472C277.373 216.869 277.954 217.428 279.342 217.462C279.711 217.473 280.091 217.451 280.461 217.484C280.875 217.529 281.154 217.775 281.132 218.222C281.11 218.613 280.83 218.803 280.45 218.837C280.226 218.859 280.002 218.848 279.778 218.848C275.75 218.848 271.723 218.848 267.695 218.848C267.437 218.848 267.169 218.859 266.912 218.826C266.531 218.77 266.319 218.513 266.33 218.132C266.341 217.786 266.576 217.574 266.878 217.518C267.281 217.462 267.695 217.473 268.109 217.462C269.507 217.428 270.078 216.881 270.089 215.483C270.1 211.984 270.089 208.486 270.089 204.987C270.089 198.884 270.089 192.769 270.089 186.666C270.089 186.308 270.089 185.95 270.089 185.436C269.608 185.816 269.574 186.241 269.44 186.599C265.647 197.017 261.854 207.435 258.061 217.864C257.916 218.267 257.927 218.87 257.468 218.993C256.909 219.139 256.283 219.083 255.69 219.027C255.287 218.993 255.287 218.535 255.175 218.233C254.034 215.282 252.892 212.331 251.762 209.38C248.831 201.734 245.888 194.099 242.946 186.453C242.834 186.163 242.823 185.794 242.487 185.593C242.207 185.727 242.331 185.973 242.331 186.163C242.319 195.877 242.319 205.602 242.319 215.316C242.319 215.506 242.308 215.684 242.331 215.874C242.42 216.802 242.968 217.372 243.908 217.451C244.389 217.495 244.881 217.439 245.363 217.484C245.777 217.518 246.067 217.775 246.045 218.222C246.034 218.613 245.754 218.803 245.374 218.837C245.15 218.859 244.926 218.848 244.702 218.848C242.543 218.848 240.373 218.848 238.213 218.848C237.24 218.848 236.904 218.68 236.882 218.2C236.859 217.685 237.251 217.484 238.258 217.473C238.482 217.473 238.705 217.484 238.929 217.473C239.947 217.406 240.507 216.869 240.585 215.874C240.608 215.584 240.596 215.282 240.596 214.98C240.596 204.819 240.596 194.647 240.596 184.486C240.596 184.453 240.596 184.408 240.596 184.374C240.596 182.396 240.16 181.96 238.168 181.937C238.09 181.937 238.023 181.937 237.945 181.937C237.195 181.915 236.871 181.703 236.882 181.244C236.904 180.808 237.229 180.596 237.989 180.596C241.156 180.585 244.333 180.618 247.5 180.574C248.16 180.562 248.395 180.842 248.607 181.39C250.151 185.459 251.718 189.527 253.284 193.585C255.108 198.347 256.931 203.109 258.766 207.86C258.934 208.184 259.012 208.553 259.415 208.978Z" fill="#3E3D3D"/>
<path d="M365.571 210.43C365.291 211.045 365.078 211.503 364.855 211.973C362.225 217.428 357.347 219.697 351.585 219.328C350.243 219.239 348.922 219.004 347.669 218.49C344.648 217.249 342.981 214.935 342.388 211.783C342.187 210.721 342.131 209.637 342.131 208.563C342.131 200.56 342.131 192.556 342.131 184.553C342.131 184.217 342.142 183.882 342.12 183.546C342.053 182.63 341.493 182.026 340.576 181.937C340.173 181.892 339.759 181.937 339.345 181.914C338.719 181.881 338.349 181.613 338.417 181.199C338.495 180.696 338.864 180.562 339.312 180.562C339.949 180.562 340.576 180.562 341.214 180.562C343.641 180.562 346.058 180.562 348.486 180.562C349.392 180.562 349.404 180.573 349.404 181.478C349.404 186.62 349.404 191.751 349.404 196.893C349.404 201.096 349.404 205.311 349.404 209.514C349.404 210.71 349.482 211.895 349.795 213.057C350.478 215.561 352.089 216.869 354.74 216.936C357.963 217.025 360.525 215.706 362.404 213.102C363.814 211.157 364.541 208.943 364.967 206.618C365.269 204.964 365.414 203.298 365.414 201.622C365.403 195.775 365.414 189.929 365.414 184.083C365.414 182.417 364.899 181.926 363.188 181.914C362.886 181.914 362.583 181.926 362.293 181.881C361.923 181.814 361.677 181.568 361.711 181.177C361.733 180.853 361.968 180.64 362.293 180.584C362.516 180.551 362.74 180.551 362.964 180.551C365.839 180.551 368.703 180.551 371.579 180.551C372.664 180.551 372.687 180.361 372.687 181.624C372.687 187.995 372.687 194.356 372.687 200.727C372.687 205.534 372.687 210.33 372.687 215.136C372.687 215.505 372.675 215.885 372.742 216.243C372.877 216.969 373.347 217.383 374.13 217.473C374.611 217.528 375.103 217.484 375.584 217.528C375.976 217.562 376.345 217.696 376.356 218.166C376.368 218.702 375.976 218.836 375.528 218.836C373.514 218.847 371.501 218.836 369.487 218.836C368.48 218.836 367.473 218.814 366.466 218.847C365.929 218.859 365.75 218.669 365.761 218.143C365.783 215.986 365.772 213.828 365.761 211.66C365.761 211.302 365.862 210.933 365.571 210.43Z" fill="#3E3D3D"/>
<path d="M76.4842 210.509C76.1373 210.822 76.0814 211.157 75.9583 211.459C73.385 217.26 68.4285 219.709 62.4539 219.328C61.4917 219.273 60.5295 219.116 59.5896 218.848C56.0988 217.853 54.0402 215.528 53.2793 212.018C53.022 210.844 52.9884 209.659 52.9884 208.463C52.9884 200.493 52.9884 192.523 52.9884 184.553C52.9884 184.251 52.9996 183.96 52.9884 183.659C52.9325 182.563 52.3395 181.971 51.2319 181.904C50.8626 181.881 50.4822 181.904 50.113 181.892C49.6655 181.87 49.2627 181.714 49.2851 181.199C49.3074 180.685 49.7102 180.551 50.1578 180.551C50.2697 180.551 50.3815 180.551 50.4934 180.551C53.436 180.551 56.3897 180.551 59.3323 180.551C60.2386 180.551 60.2497 180.562 60.2497 181.457C60.2497 186.71 60.2497 191.953 60.2497 197.207C60.2497 201.298 60.2497 205.4 60.2497 209.492C60.2497 210.609 60.3393 211.727 60.6078 212.812C61.2903 215.561 62.9685 216.925 65.8104 216.925C68.932 216.936 71.427 215.628 73.2507 213.091C74.6828 211.112 75.4101 208.854 75.8352 206.496C76.1261 204.886 76.2604 203.254 76.2604 201.611C76.2604 195.765 76.2604 189.918 76.2604 184.072C76.2604 182.407 75.7346 181.915 74.0339 181.892C73.7318 181.892 73.4297 181.904 73.1388 181.859C72.7808 181.792 72.5235 181.568 72.5458 181.166C72.5682 180.831 72.792 180.618 73.1165 180.573C73.4074 180.529 73.7094 180.54 74.0115 180.54C76.7751 180.54 79.5274 180.529 82.291 180.54C83.6112 180.54 83.4993 180.372 83.4993 181.714C83.4993 189.27 83.4993 196.827 83.4993 204.394C83.4993 207.927 83.4993 211.47 83.4993 215.002C83.4993 215.304 83.4881 215.595 83.5105 215.897C83.6 216.858 84.1035 217.383 85.0657 217.473C85.5132 217.518 85.9608 217.473 86.4083 217.506C86.8559 217.54 87.2363 217.719 87.1915 218.244C87.1468 218.702 86.7775 218.825 86.3748 218.825C84.9986 218.825 83.6112 218.825 82.235 218.825C80.7022 218.825 79.1806 218.825 77.6478 218.825C76.5961 218.825 76.5961 218.814 76.5849 217.808C76.5849 215.763 76.5849 213.717 76.5849 211.66C76.6072 211.325 76.6856 210.945 76.4842 210.509Z" fill="#3E3D3D"/>
<path d="M35.4227 199.51C35.4227 202.83 34.9528 205.826 33.8004 208.699C30.7907 216.244 24.2119 219.81 16.5478 219.329C12.6766 219.083 9.20818 217.798 6.29919 215.16C4.27408 213.315 2.79721 211.091 1.86857 208.542C-0.234859 202.741 -0.335555 196.872 1.76787 191.059C4.17339 184.408 9.84592 180.406 16.9394 180.172C19.5351 180.082 22.0749 180.373 24.514 181.312C29.6942 183.313 32.8046 187.192 34.4157 192.378C35.1654 194.77 35.4563 197.241 35.4227 199.51ZM27.7362 200.572C27.7474 197.341 27.6243 194.96 27.2775 192.591C26.9195 190.143 26.2817 187.795 25.0622 185.615C22.0413 180.205 13.7619 180.216 10.741 185.504C9.93543 186.912 9.30888 188.376 8.97322 189.953C7.59705 196.447 7.60824 202.964 8.98441 209.459C9.36482 211.247 10.0809 212.924 11.0878 214.478C14.1311 219.161 21.5826 219.15 24.6035 214.5C25.5321 213.08 26.1699 211.549 26.6062 209.917C27.5237 206.564 27.7139 203.154 27.7362 200.572Z" fill="#3E3D3D"/>
<path d="M212.647 212.934C212.166 213.191 212.11 213.504 211.976 213.761C210.309 216.88 207.68 218.635 204.222 219.183C202.018 219.529 199.837 219.395 197.688 218.769C192.173 217.137 189.51 211.179 191.96 205.959C192.799 204.17 194.198 202.919 195.921 202.013C198.17 200.839 200.597 200.303 203.081 199.99C205.901 199.643 208.731 199.632 211.562 199.431C212.535 199.364 212.535 199.364 212.535 198.425C212.535 195.34 212.535 192.243 212.535 189.158C212.535 188.219 212.412 187.303 212.177 186.397C211.584 184.117 210.164 182.574 207.903 181.937C204.625 181.009 201.414 181.266 198.337 182.798C197.599 183.167 196.939 183.647 196.379 184.262C195.999 184.676 195.697 185.145 195.529 185.693C195.227 186.688 195.372 187.202 196.2 187.839C196.581 188.141 197.006 188.376 197.375 188.689C198.707 189.84 198.472 191.763 196.905 192.579C195.149 193.495 193.068 192.724 192.407 190.846C191.837 189.225 192.072 187.604 192.754 186.062C193.515 184.329 194.824 183.077 196.424 182.127C198.315 180.998 200.396 180.417 202.567 180.204C205.934 179.88 209.268 180.048 212.535 180.998C213.509 181.277 214.438 181.658 215.31 182.149C218.163 183.77 219.685 186.207 219.853 189.482C219.875 189.929 219.864 190.377 219.864 190.824C219.864 198.682 219.864 206.529 219.864 214.387C219.864 214.835 219.853 215.282 219.909 215.729C220.043 216.902 220.815 217.417 221.956 217.126C222.359 217.025 222.717 216.824 223.03 216.556C223.254 216.366 223.489 216.176 223.735 216.008C223.959 215.852 224.216 215.796 224.451 216.019C224.675 216.221 224.697 216.478 224.619 216.735C224.541 217.037 224.339 217.26 224.138 217.473C223.746 217.875 223.276 218.188 222.762 218.412C220.759 219.328 218.678 219.563 216.552 219.038C214.113 218.434 212.826 216.869 212.625 214.376C212.625 213.951 212.647 213.504 212.647 212.934ZM208.787 200.962C208.787 200.951 208.787 200.951 208.787 200.962C207.747 201.018 206.706 201.052 205.666 201.164C202.88 201.443 200.508 202.505 199.199 205.109C197.744 208.005 197.767 211.012 199.098 213.94C200.004 215.941 201.672 216.947 203.887 217.048C206.292 217.148 208.228 216.198 209.761 214.387C210.991 212.934 211.674 211.213 212.11 209.391C212.748 206.719 212.535 203.992 212.569 201.286C212.569 200.906 212.401 200.761 212.021 200.795C210.947 200.839 209.861 200.895 208.787 200.962Z" fill="#3E3D3D"/>
<path d="M303.699 180.54C306.127 180.54 308.543 180.517 310.971 180.551C313.567 180.584 316.073 181.043 318.479 182.071C327.15 185.749 326.098 196.58 320.526 200.504C318.042 202.259 315.279 203.097 312.303 203.388C310.255 203.589 308.208 203.511 306.16 203.533C305.265 203.544 305.254 203.544 305.254 204.472C305.254 208.161 305.243 211.839 305.254 215.527C305.254 216.925 305.813 217.461 307.223 217.506C307.861 217.517 308.487 217.506 309.125 217.517C309.383 217.517 309.651 217.539 309.897 217.607C310.222 217.696 310.401 217.942 310.356 218.277C310.322 218.568 310.121 218.747 309.841 218.791C309.584 218.836 309.327 218.836 309.058 218.836C304.549 218.836 300.04 218.836 295.531 218.836C295.274 218.836 295.005 218.847 294.748 218.803C294.424 218.747 294.222 218.534 294.222 218.177C294.222 217.875 294.39 217.696 294.659 217.595C295.061 217.45 295.475 217.517 295.878 217.506C297.456 217.472 297.982 216.969 297.982 215.427C297.993 204.93 297.993 194.434 297.982 183.938C297.982 182.473 297.411 181.926 295.956 181.881C295.542 181.87 295.128 181.892 294.737 181.825C294.435 181.769 294.2 181.546 294.222 181.188C294.233 180.841 294.435 180.629 294.759 180.573C295.05 180.528 295.352 180.54 295.654 180.54C298.328 180.54 301.014 180.54 303.699 180.54ZM305.243 192.388C305.243 195.362 305.243 198.335 305.243 201.309C305.243 202.169 305.265 202.169 306.104 202.181C306.999 202.192 307.894 202.203 308.79 202.181C312.37 202.091 314.854 200.392 316.196 197.083C317.259 194.456 317.338 191.729 316.968 188.957C316.834 187.917 316.532 186.922 316.062 185.983C315.022 183.882 313.354 182.585 311.061 182.082C309.841 181.814 308.611 181.881 307.391 181.881C305.78 181.881 305.254 182.417 305.254 184.027C305.232 186.811 305.243 189.605 305.243 192.388Z" fill="#3E3D3D"/>
<path d="M118.788 199.733C118.788 204.83 118.788 209.927 118.788 215.036C118.788 215.293 118.777 215.561 118.788 215.818C118.832 216.824 119.358 217.383 120.365 217.484C120.88 217.528 121.406 217.495 121.92 217.551C122.278 217.584 122.569 217.819 122.547 218.21C122.525 218.59 122.256 218.803 121.865 218.825C121.641 218.836 121.417 218.847 121.193 218.847C117.132 218.847 113.07 218.847 109.009 218.847C108.819 218.847 108.64 218.847 108.45 218.836C108.024 218.814 107.7 218.624 107.7 218.177C107.7 217.73 108.058 217.551 108.461 217.517C108.908 217.484 109.356 217.517 109.803 217.484C110.877 217.394 111.403 216.846 111.448 215.762C111.459 215.572 111.448 215.393 111.448 215.203C111.448 204.897 111.448 194.579 111.448 184.273C111.448 184.049 111.459 183.826 111.448 183.602C111.403 182.652 110.922 182.037 109.96 181.959C108.248 181.814 106.525 181.87 104.903 182.563C102.922 183.412 101.871 185.011 101.378 187.034C101.155 187.939 101.076 188.867 101.088 189.806C101.088 190.063 101.099 190.332 101.076 190.589C101.043 191.014 100.808 191.282 100.36 191.293C99.924 191.304 99.6667 191.058 99.6219 190.622C99.5995 190.365 99.6107 190.097 99.6107 189.84C99.6107 187.157 99.6107 184.474 99.6107 181.803C99.6107 180.484 99.5324 180.584 100.808 180.584C109.233 180.584 117.658 180.584 126.083 180.584C127.313 180.584 128.544 180.607 129.775 180.573C130.357 180.551 130.558 180.741 130.558 181.322C130.536 184.295 130.547 187.28 130.547 190.253C130.547 190.365 130.547 190.477 130.536 190.589C130.502 191.025 130.278 191.282 129.831 191.293C129.383 191.304 129.137 191.058 129.092 190.622C129.059 190.332 129.07 190.03 129.07 189.728C129.07 189.024 129.036 188.32 128.924 187.615C128.376 184.117 126.217 182.127 122.67 181.926C121.999 181.892 121.327 181.892 120.656 181.914C119.325 181.97 118.777 182.529 118.777 183.871C118.788 189.169 118.788 194.456 118.788 199.733Z" fill="#3E3D3D"/>
<path d="M151.592 199.621C151.603 202.908 151.849 206.161 152.845 209.324C153.304 210.788 153.93 212.174 154.848 213.415C156.582 215.785 158.92 217.082 161.863 217.238C166.741 217.495 170.478 215.617 172.85 211.258C173.007 210.967 173.174 210.665 173.454 210.464C173.745 210.241 174.069 210.196 174.394 210.397C174.685 210.587 174.696 210.878 174.606 211.191C174.416 211.839 174.092 212.432 173.711 212.979C170.914 216.959 167.144 219.161 162.232 219.284C159.983 219.34 157.768 219.116 155.609 218.434C150.607 216.847 147.307 213.471 145.461 208.631C144.084 205.02 143.738 201.253 144.017 197.43C144.208 194.781 144.733 192.199 145.83 189.762C148.213 184.452 152.342 181.378 158.036 180.372C161.113 179.836 164.201 179.925 167.222 180.786C169.258 181.367 171.105 182.329 172.559 183.894C174.338 185.805 175.121 188.063 174.718 190.668C174.338 193.138 172.167 194.513 169.885 193.775C168.822 193.429 168.061 192.769 167.804 191.651C167.547 190.511 167.983 189.606 168.856 188.89C169.292 188.532 169.751 188.219 170.165 187.851C171.026 187.079 171.183 186.308 170.735 185.235C170.333 184.262 169.594 183.592 168.721 183.055C166.674 181.803 164.403 181.479 162.053 181.591C158.719 181.758 156.168 183.301 154.411 186.129C152.935 188.521 152.297 191.193 151.916 193.943C151.681 195.821 151.614 197.721 151.592 199.621Z" fill="#3E3D3D"/>
<path d="M183.11 70.5683C183.222 57.5456 193.012 46.5351 205.968 44.8583C206.785 44.7577 207.59 44.6236 208.418 44.6571C210.108 44.713 211.417 45.9538 211.506 47.5858C211.607 49.3184 210.488 50.7269 208.754 50.9393C207.087 51.1405 205.431 51.2858 203.809 51.7665C195.272 54.2704 189.454 62.0504 189.499 70.9371C189.499 71.2725 189.521 71.6078 189.51 71.9432C189.454 73.7652 188.089 75.1625 186.332 75.1961C184.587 75.2184 183.177 73.8323 183.11 72.0103C183.088 71.5408 183.099 71.0601 183.11 70.5683Z" fill="#3E3D3D"/>
<path d="M348.162 252.841C345.309 254.708 342.624 254.618 340.845 252.64C339.234 250.851 339.178 247.9 340.722 246.056C341.695 244.893 342.971 244.368 344.459 244.323C345.891 244.278 347.133 244.804 348.14 245.855C348.442 245.407 348.33 245.027 348.33 244.67C348.341 242.959 348.363 241.249 348.33 239.528C348.319 238.723 348.509 238.779 349.203 238.779C349.583 238.779 349.728 238.958 349.717 239.326C349.695 239.695 349.717 240.075 349.717 240.444C349.717 244.692 349.717 248.929 349.717 253.176C349.717 254.037 349.628 254.093 348.867 254.071C348.475 254.059 348.341 253.903 348.352 253.534C348.341 253.322 348.363 253.098 348.162 252.841ZM344.626 252.986C346.763 252.986 348.386 251.365 348.375 249.264C348.363 247.162 346.719 245.564 344.582 245.586C342.557 245.609 341.08 247.14 341.057 249.253C341.046 251.41 342.557 252.986 344.626 252.986Z" fill="#3E3D3D"/>
<path d="M245.9 252.897C245.721 253.043 245.754 253.233 245.732 253.412C245.653 254.071 245.586 254.105 244.904 254.082C244.523 254.06 244.356 253.926 244.378 253.546C244.389 253.434 244.378 253.322 244.378 253.21C244.378 248.672 244.378 244.145 244.378 239.606C244.378 238.813 244.412 238.824 245.06 238.779C245.62 238.746 245.754 238.969 245.743 239.495C245.721 241.283 245.732 243.06 245.732 244.849C245.732 245.106 245.698 245.374 245.821 245.62C246.146 245.799 246.291 245.497 246.47 245.363C248.339 244.011 250.711 243.977 252.501 245.296C254.179 246.526 254.873 248.795 254.201 250.896C253.228 253.937 249.491 255.222 246.806 253.467C246.515 253.266 246.302 252.897 245.9 252.897ZM249.446 252.987C251.527 252.976 253.015 251.399 252.982 249.231C252.948 247.096 251.494 245.587 249.457 245.576C247.309 245.564 245.698 247.152 245.698 249.276C245.687 251.399 247.298 252.998 249.446 252.987Z" fill="#3E3D3D"/>
<path d="M120.142 245.933C120.142 244.636 120.142 243.53 120.142 242.423C120.142 241.451 120.164 240.489 120.13 239.517C120.119 239.025 120.197 238.745 120.79 238.768C121.283 238.79 121.518 238.891 121.518 239.461C121.495 244.078 121.507 248.694 121.507 253.311C121.507 254.082 121.484 254.082 120.298 254.004C119.962 253.702 120.321 253.199 119.907 252.808C118.508 254.06 116.852 254.541 114.984 254.037C113.865 253.736 112.947 253.121 112.287 252.16C110.922 250.181 111.18 247.33 112.869 245.687C114.782 243.854 117.456 243.888 120.142 245.933ZM120.175 249.253C120.164 247.14 118.53 245.564 116.382 245.587C114.346 245.609 112.903 247.129 112.891 249.264C112.88 251.444 114.368 252.998 116.461 252.987C118.598 252.976 120.186 251.377 120.175 249.253Z" fill="#3E3D3D"/>
<path d="M138.726 252.573C137.282 253.903 135.817 254.462 134.082 254.16C132.863 253.948 131.833 253.4 131.05 252.428C129.506 250.505 129.663 247.509 131.375 245.777C133.266 243.854 136.018 243.865 138.535 245.799C138.849 245.642 138.714 245.341 138.714 245.106C138.726 243.25 138.714 241.384 138.726 239.528C138.726 238.868 139.195 238.589 139.822 238.824C140.102 238.924 140.079 239.148 140.079 239.371C140.079 240.344 140.079 241.305 140.079 242.278C140.079 245.922 140.079 249.566 140.079 253.21C140.079 254.037 139.867 254.205 139.106 254.082C138.826 254.037 138.726 253.903 138.726 253.646C138.726 253.378 138.726 253.109 138.726 252.573ZM135.033 245.575C132.941 245.564 131.464 247.118 131.475 249.309C131.487 251.444 132.93 252.964 134.966 252.987C137.114 253.009 138.737 251.433 138.748 249.309C138.759 247.174 137.182 245.587 135.033 245.575Z" fill="#3E3D3D"/>
<path d="M91.4431 245.63C91.8235 245.586 91.9577 245.34 92.1591 245.183C93.1773 244.434 94.2849 244.166 95.538 244.412C96.8583 244.669 97.6414 245.463 97.9547 246.737C98.0218 247.028 98.0778 247.33 98.0778 247.62C98.1002 249.554 98.089 251.488 98.1114 253.433C98.1225 253.902 97.9659 254.093 97.4736 254.081C96.9813 254.07 96.7128 253.992 96.724 253.411C96.7576 252.069 96.7352 250.728 96.7352 249.386C96.7352 248.828 96.7464 248.269 96.6569 247.721C96.5226 246.849 96.2429 246.044 95.2695 245.731C94.2737 245.418 93.3451 245.541 92.5395 246.212C92.0137 246.648 91.6668 247.218 91.499 247.889C91.3647 248.47 91.3424 249.062 91.3424 249.666C91.3536 250.974 91.3312 252.27 91.3536 253.578C91.3647 254.093 91.0403 254.07 90.6934 254.07C90.3466 254.07 89.9886 254.104 89.9998 253.589C89.9998 253.444 89.9998 253.288 89.9998 253.142C89.9998 248.637 89.9998 244.133 89.9998 239.628C89.9998 239.147 89.9774 238.745 90.6711 238.767C91.1969 238.778 91.3871 238.912 91.3759 239.471C91.3424 241.148 91.3647 242.825 91.3647 244.501C91.3424 244.87 91.2752 245.239 91.4431 245.63Z" fill="#3E3D3D"/>
<path d="M148.135 249.733C147.061 249.733 145.976 249.744 144.902 249.722C144.364 249.711 144.275 249.945 144.387 250.415C144.969 252.718 147.766 253.746 149.757 252.371C150.003 252.203 150.238 252.013 150.429 251.79C150.764 251.399 150.988 251.645 151.268 251.846C151.626 252.103 151.771 252.304 151.391 252.718C149.869 254.372 147.005 254.719 145.025 253.467C143.089 252.237 142.295 249.61 143.178 247.341C144.04 245.139 146.267 243.932 148.583 244.423C151.111 244.949 152.118 247.117 152.129 249.185C152.129 249.666 151.861 249.722 151.48 249.722C150.373 249.722 149.254 249.733 148.135 249.733ZM144.387 248.436C146.501 248.436 148.527 248.436 150.563 248.436C150.541 246.704 149.556 245.675 147.9 245.586C146.043 245.474 144.566 246.648 144.387 248.436Z" fill="#3E3D3D"/>
<path d="M282.038 251.533C283.381 252.293 283.045 252.439 282.183 253.154C280.617 254.462 278.189 254.596 276.421 253.545C274.687 252.506 273.792 250.359 274.206 248.224C274.609 246.168 276.13 244.692 278.178 244.379C281.087 243.932 283.582 246.235 283.403 249.174C283.369 249.733 283.067 249.733 282.664 249.733C280.651 249.733 278.648 249.733 276.634 249.733C275.504 249.733 275.403 249.912 275.862 250.941C276.791 253.02 279.386 253.657 281.221 252.26C281.523 252.036 281.781 251.768 282.038 251.533ZM275.717 248.414C277.775 248.414 279.823 248.414 281.87 248.414C281.993 246.782 280.628 245.486 278.804 245.575C277.093 245.653 275.75 246.861 275.717 248.414Z" fill="#3E3D3D"/>
<path d="M50.1131 249.734C49.0726 249.734 48.0321 249.723 46.9915 249.734C46.186 249.745 46.0965 249.89 46.3538 250.661C47.0699 252.83 49.7551 253.691 51.6683 252.361C51.8249 252.26 51.9592 252.137 52.1047 252.014C52.6976 251.5 52.8431 251.511 53.3466 252.003C53.5368 252.193 53.6039 252.349 53.4137 252.562C53.3578 252.618 53.313 252.674 53.2571 252.729C51.7354 254.395 48.8712 254.719 46.8909 253.456C44.9217 252.193 44.1497 249.499 45.1119 247.23C46.0293 245.05 48.267 243.91 50.583 244.446C52.7088 244.938 54.1633 246.995 53.9955 249.197C53.9619 249.678 53.727 249.723 53.3466 249.723C52.2725 249.723 51.1984 249.734 50.1131 249.734ZM52.4515 248.493C52.3956 246.738 51.5005 245.743 49.9229 245.587C48.2558 245.43 46.5888 246.492 46.2755 247.9C46.1972 248.236 46.2084 248.493 46.6559 248.493C48.5915 248.493 50.5159 248.493 52.4515 248.493Z" fill="#3E3D3D"/>
<path d="M28.3071 249.733C27.2665 249.733 26.226 249.722 25.1855 249.745C24.4918 249.756 24.4247 249.879 24.6149 250.549C25.2303 252.74 27.9155 253.713 29.8623 252.439C30.0748 252.293 30.321 252.148 30.4664 251.947C30.8468 251.41 31.1601 251.611 31.5517 251.936C31.9209 252.237 31.865 252.45 31.5629 252.74C30.0972 254.171 28.3406 254.574 26.4162 254.026C24.5254 253.489 23.4177 252.126 23.0933 250.214C22.5898 247.319 24.3464 244.804 27.1099 244.39C29.6832 244.01 32.3573 245.709 32.3013 249.208C32.2902 249.689 32.0552 249.745 31.6636 249.745C30.5448 249.722 29.4259 249.733 28.3071 249.733ZM30.7573 248.426C30.6566 246.726 29.8175 245.776 28.3071 245.597C26.6512 245.407 24.9841 246.402 24.6037 247.822C24.4583 248.358 24.5254 248.481 25.1072 248.493C25.9575 248.515 26.819 248.515 27.6693 248.493C28.6875 248.47 29.728 248.582 30.7573 248.426Z" fill="#3E3D3D"/>
<path d="M261.989 249.733C260.87 249.733 259.751 249.733 258.643 249.733C258.129 249.733 258.028 249.945 258.151 250.437C258.71 252.65 261.351 253.712 263.342 252.505C263.6 252.349 263.823 252.159 264.047 251.957C264.506 251.566 265.099 251.656 265.367 252.159C265.513 252.427 265.3 252.572 265.144 252.717C263.689 254.159 261.933 254.562 260.008 254.014C258.162 253.489 257.054 252.181 256.696 250.314C256.115 247.33 257.927 244.714 260.791 244.356C263.465 244.032 265.927 245.865 265.882 249.185C265.871 249.666 265.625 249.733 265.244 249.733C264.148 249.722 263.074 249.733 261.989 249.733ZM264.26 248.459C264.327 246.748 263.298 245.653 261.575 245.586C259.706 245.508 258.229 246.737 258.151 248.459C260.187 248.459 262.223 248.459 264.26 248.459Z" fill="#3E3D3D"/>
<path d="M197.364 249.734C196.357 249.734 195.35 249.723 194.355 249.734C193.426 249.745 193.325 249.901 193.672 250.784C194.455 252.852 196.995 253.657 198.864 252.428C199.076 252.282 199.266 252.104 199.468 251.936C199.915 251.545 200.352 251.612 200.71 252.104C200.81 252.238 200.833 252.372 200.732 252.506C200.665 252.595 200.587 252.674 200.508 252.752C198.975 254.406 196.111 254.73 194.142 253.456C192.184 252.193 191.423 249.488 192.385 247.219C193.303 245.05 195.552 243.91 197.868 244.458C200.195 245.016 201.291 247.04 201.269 249.22C201.258 249.611 201.079 249.734 200.721 249.723C199.602 249.723 198.483 249.734 197.364 249.734ZM193.583 248.504C195.641 248.493 197.689 248.526 199.759 248.482C199.546 246.436 198.416 245.475 196.536 245.587C194.869 245.687 193.583 246.928 193.583 248.504Z" fill="#3E3D3D"/>
<path d="M168.733 249.733C167.692 249.733 166.64 249.722 165.6 249.733C164.794 249.744 164.705 249.89 164.973 250.672C165.689 252.807 168.308 253.679 170.221 252.416C170.467 252.248 170.713 252.069 170.892 251.835C171.183 251.466 171.418 251.566 171.72 251.812C172.246 252.248 172.268 252.293 171.843 252.751C170.299 254.417 167.424 254.719 165.466 253.433C163.508 252.148 162.769 249.431 163.754 247.173C164.694 245.005 166.965 243.898 169.281 244.468C171.351 244.983 172.761 247.006 172.615 249.186C172.582 249.655 172.369 249.733 171.977 249.722C170.892 249.722 169.807 249.733 168.733 249.733ZM171.071 248.492C170.982 246.749 170.131 245.776 168.621 245.597C166.965 245.396 165.298 246.391 164.906 247.811C164.761 248.347 164.828 248.47 165.387 248.492C165.947 248.515 166.506 248.492 167.066 248.492C168.408 248.492 169.74 248.492 171.071 248.492Z" fill="#3E3D3D"/>
<path d="M317.909 253.97C316.7 254.105 316.7 254.105 316.421 252.942C316.13 252.819 316.04 253.076 315.883 253.222C314.731 254.295 313.366 254.44 311.923 254.06C310.781 253.758 310.021 252.853 309.92 251.78C309.797 250.55 310.222 249.589 311.319 248.963C311.967 248.583 312.684 248.37 313.433 248.292C314.138 248.225 314.843 248.18 315.548 248.147C316.443 248.102 316.566 247.945 316.32 247.073C316.062 246.168 315.436 245.721 314.541 245.609C313.635 245.497 312.762 245.643 311.945 246.067C311.039 246.537 311.039 246.537 310.423 245.71C311.744 244.245 314.899 243.832 316.476 244.95C317.327 245.553 317.73 246.414 317.763 247.431C317.797 248.359 317.774 249.287 317.786 250.226C317.786 251.444 317.741 252.663 317.909 253.97ZM315.022 249.387C314.194 249.432 313.153 249.488 312.214 250.013C311.677 250.304 311.374 250.729 311.386 251.355C311.397 252.025 311.744 252.461 312.326 252.752C314.015 253.568 316.029 252.54 316.365 250.706C316.588 249.477 316.499 249.365 315.022 249.387Z" fill="#3E3D3D"/>
<path d="M375.663 252.55C374.88 253.568 374.052 254.082 373 254.205C372.362 254.283 371.725 254.249 371.121 254.048C370.013 253.679 369.263 252.975 369.129 251.745C369.006 250.516 369.431 249.555 370.528 248.94C371.188 248.571 371.893 248.347 372.642 248.28C373.313 248.213 373.974 248.168 374.645 248.146C375.652 248.101 375.786 247.9 375.462 246.928C375.182 246.078 374.533 245.698 373.705 245.598C372.676 245.486 371.714 245.698 370.818 246.246C370.371 246.525 369.767 246.257 369.655 245.765C369.599 245.53 369.767 245.441 369.912 245.318C371.143 244.267 374.041 243.977 375.439 244.782C376.558 245.43 376.961 246.469 376.994 247.688C377.017 248.873 376.994 250.069 377.006 251.254C377.006 251.891 377.05 252.517 377.028 253.154C377.017 253.489 377.386 254.015 376.636 254.059C375.92 254.104 375.842 254.048 375.741 253.299C375.73 253.165 375.719 253.02 375.663 252.55ZM372.732 252.986C374.533 253.02 375.741 251.734 375.652 249.935C375.629 249.577 375.54 249.387 375.148 249.387C374.141 249.376 373.134 249.42 372.161 249.7C371.02 250.035 370.472 250.728 370.606 251.567C370.74 252.394 371.512 252.93 372.62 252.986C372.653 252.986 372.687 252.986 372.732 252.986Z" fill="#3E3D3D"/>
<path d="M235.685 249.331C235.662 252.204 233.525 254.272 230.605 254.239C227.763 254.205 225.671 252.115 225.671 249.287C225.671 246.425 227.819 244.301 230.706 244.323C233.604 244.335 235.696 246.447 235.685 249.331ZM230.627 252.987C232.72 253.009 234.241 251.444 234.241 249.275C234.241 247.152 232.764 245.598 230.739 245.575C228.636 245.553 227.148 247.084 227.148 249.287C227.137 251.433 228.591 252.964 230.627 252.987Z" fill="#3E3D3D"/>
<path d="M330.685 249.286C330.685 252.148 328.549 254.261 325.64 254.25C322.787 254.238 320.683 252.17 320.661 249.342C320.638 246.458 322.742 244.334 325.64 244.323C328.537 244.312 330.685 246.414 330.685 249.286ZM325.718 252.986C327.799 252.964 329.253 251.377 329.209 249.186C329.164 247.051 327.687 245.564 325.628 245.586C323.536 245.598 322.104 247.163 322.149 249.387C322.194 251.544 323.648 253.009 325.718 252.986Z" fill="#3E3D3D"/>
<path d="M359.585 245.664C359.999 245.564 360.145 245.273 360.391 245.105C361.577 244.278 362.864 244.111 364.217 244.558C365.001 244.815 365.549 245.351 365.873 246.111C366.108 246.67 366.22 247.252 366.231 247.855C366.254 249.677 366.254 251.499 366.243 253.333C366.243 254.048 366.175 254.059 365.471 254.082C364.945 254.104 364.844 253.858 364.855 253.411C364.866 251.991 364.866 250.583 364.855 249.163C364.855 248.682 364.833 248.191 364.766 247.721C364.643 246.838 364.352 246.044 363.39 245.731C362.349 245.407 361.398 245.553 360.57 246.29C360.055 246.749 359.709 247.319 359.608 248.012C359.529 248.526 359.496 249.051 359.485 249.566C359.474 250.829 359.462 252.103 359.485 253.366C359.496 253.892 359.328 254.104 358.78 254.082C358.332 254.059 358.053 253.981 358.097 253.467C358.12 253.243 358.097 253.02 358.097 252.796C358.075 250.337 358.064 247.878 358.041 245.418C358.041 245.117 357.896 244.737 358.444 244.681C359.115 244.614 359.295 244.703 359.451 245.307C359.507 245.418 359.541 245.519 359.585 245.664Z" fill="#3E3D3D"/>
<path d="M160.935 245.989C160.689 246.167 160.498 246.29 160.331 246.436C159.973 246.726 159.715 246.693 159.413 246.313C158.697 245.407 157.343 245.43 156.549 245.843C156.079 246.089 155.799 246.469 155.81 246.995C155.81 247.531 156.09 247.9 156.582 248.112C157.231 248.403 157.925 248.537 158.619 248.705C159.122 248.828 159.637 248.951 160.084 249.23C161.651 250.214 161.74 252.349 160.275 253.467C158.764 254.618 155.911 254.439 154.58 253.087C154.367 252.863 153.852 252.662 154.278 252.204C154.736 251.712 155.128 251.667 155.542 252.081C156.459 252.997 157.533 253.176 158.731 252.785C159.346 252.584 159.771 252.215 159.805 251.522C159.838 250.896 159.581 250.56 158.775 250.259C158.294 250.08 157.78 249.968 157.276 249.834C156.739 249.7 156.18 249.588 155.687 249.32C154.233 248.548 153.897 246.659 154.971 245.418C156.426 243.753 159.659 244.01 160.935 245.989Z" fill="#3E3D3D"/>
<path d="M203.417 252.427C203.663 252.081 204.032 251.913 204.379 251.712C204.726 251.835 204.871 252.159 205.129 252.371C206.113 253.143 207.187 253.176 208.284 252.718C208.799 252.506 209.101 252.081 209.112 251.5C209.123 250.896 208.765 250.527 208.228 250.348C207.702 250.169 207.165 250.024 206.628 249.879C206.091 249.745 205.532 249.633 205.039 249.376C203.428 248.548 203.148 246.492 204.458 245.262C205.677 244.122 208.262 244.032 209.548 245.094C210.354 245.765 210.354 245.977 209.503 246.525C209.414 246.581 209.302 246.626 209.19 246.693C208.866 246.637 208.765 246.313 208.552 246.134C207.814 245.53 206.639 245.419 205.822 245.888C205.364 246.156 205.106 246.525 205.129 247.073C205.151 247.565 205.386 247.9 205.834 248.124C206.483 248.437 207.176 248.571 207.859 248.727C208.407 248.861 208.944 248.984 209.425 249.297C210.891 250.259 211.036 252.26 209.694 253.4C208.015 254.831 204.245 254.406 203.417 252.427Z" fill="#3E3D3D"/>
<path d="M294.301 253.97C293.238 254.305 292.488 253.992 291.873 253.042C291.213 252.025 290.396 251.097 289.601 250.068C289.154 250.348 288.953 250.75 288.695 251.086C288.192 251.734 287.644 252.36 287.252 253.075C286.726 254.014 285.988 254.227 285.014 254.003C284.947 253.657 285.238 253.478 285.406 253.254C286.29 252.103 287.185 250.963 288.069 249.811C288.751 248.917 288.695 249.129 288.091 248.336C287.341 247.363 286.569 246.402 285.82 245.429C285.663 245.228 285.462 245.061 285.439 244.781C285.786 244.625 286.133 244.736 286.458 244.692C286.927 244.625 287.218 244.837 287.487 245.206C287.957 245.877 288.449 246.525 288.953 247.173C289.176 247.464 289.333 247.81 289.736 247.989C290.418 247.307 290.955 246.491 291.448 245.675C291.996 244.781 292.656 244.446 293.752 244.815C292.958 245.877 292.175 246.905 291.414 247.945C290.441 249.275 290.452 248.828 291.459 250.147C292.275 251.209 293.126 252.248 293.943 253.31C294.088 253.511 294.345 253.668 294.301 253.97Z" fill="#3E3D3D"/>
<path d="M87.8406 245.956C87.6281 246.146 87.4491 246.28 87.2924 246.425C86.9903 246.705 86.7442 246.705 86.4533 246.392C85.9722 245.889 85.368 245.631 84.6631 245.587C82.7835 245.453 81.3178 246.593 81.0045 248.448C80.8815 249.186 80.9038 249.935 81.1276 250.65C81.8549 252.908 84.5065 253.758 86.3414 252.249C86.8225 251.858 87.0687 251.97 87.4602 252.26C87.8295 252.54 87.8183 252.752 87.4938 253.043C86.1848 254.183 84.6631 254.462 83.0073 254.082C81.0045 253.613 79.6507 251.981 79.4717 249.846C79.2703 247.487 80.3221 245.564 82.2576 244.737C84.2156 243.899 86.3526 244.335 87.8406 245.956Z" fill="#3E3D3D"/>
<path d="M34.0464 244.837C34.2366 244.669 34.4268 244.692 34.6058 244.692C35.5568 244.669 35.5568 244.669 35.8925 245.53C36.6197 247.442 37.347 249.353 38.0854 251.265C38.2197 251.6 38.2644 251.991 38.5777 252.271C38.8574 252.058 38.9022 251.723 39.0141 251.432C39.7413 249.554 40.4462 247.676 41.1622 245.798C41.5986 244.647 41.5986 244.647 42.93 244.748C43.0867 244.927 42.9636 245.094 42.8964 245.251C41.8 247.934 40.6923 250.616 39.607 253.31C39.4057 253.802 39.1931 254.093 38.5777 254.093C37.94 254.104 37.6714 253.858 37.4477 253.299C36.4072 250.672 35.3219 248.056 34.2478 245.441C34.1695 245.24 34.1135 245.027 34.0464 244.837Z" fill="#3E3D3D"/>
<path d="M181.353 244.781C181.588 244.647 181.868 244.726 182.114 244.692C182.651 244.614 182.897 244.86 183.088 245.363C183.848 247.419 184.643 249.465 185.426 251.522C185.527 251.801 185.583 252.092 185.829 252.316C186.176 251.935 186.254 251.444 186.433 250.997C187.104 249.264 187.764 247.52 188.424 245.787C188.861 244.647 188.861 244.647 190.215 244.781C190.326 245.094 190.114 245.34 190.002 245.597C188.95 248.18 187.887 250.762 186.858 253.355C186.657 253.869 186.399 254.115 185.806 254.104C185.236 254.093 184.956 253.925 184.732 253.377C183.658 250.684 182.55 248.001 181.454 245.307C181.398 245.139 181.297 244.971 181.353 244.781Z" fill="#3E3D3D"/>
<path d="M223.858 252.763C224.048 253.947 224.026 254.003 222.963 254.171C222.818 254.193 222.672 254.216 222.516 254.227C220.837 254.327 219.897 253.511 219.853 251.824C219.808 250.259 219.841 248.705 219.841 247.14C219.841 245.91 220.009 245.866 218.678 245.888C218.566 245.888 218.454 245.877 218.342 245.888C217.816 245.91 217.883 245.53 217.872 245.195C217.85 244.826 218.006 244.636 218.387 244.669C218.42 244.669 218.465 244.669 218.499 244.669C219.841 244.591 219.841 244.591 219.841 243.283C219.841 243.06 219.864 242.836 219.841 242.613C219.785 242.11 219.942 241.864 220.513 241.875C221.016 241.886 221.274 242.009 221.229 242.568C221.195 243.049 221.24 243.529 221.218 244.021C221.195 244.491 221.352 244.703 221.855 244.681C222.37 244.647 222.896 244.692 223.422 244.669C223.914 244.658 223.936 244.96 223.936 245.329C223.936 245.687 223.836 245.899 223.433 245.888C222.874 245.877 222.314 245.899 221.755 245.888C221.385 245.888 221.218 246.044 221.218 246.424C221.229 248.213 221.195 249.99 221.251 251.779C221.274 252.651 221.777 253.02 222.661 252.964C223.075 252.953 223.467 252.841 223.858 252.763Z" fill="#3E3D3D"/>
<path d="M301.103 252.751C301.372 253.925 301.327 253.992 300.264 254.182C299.75 254.271 299.224 254.271 298.72 254.137C297.736 253.869 297.187 253.153 297.165 251.969C297.131 250.404 297.154 248.85 297.154 247.285C297.154 247.028 297.143 246.759 297.154 246.502C297.176 246.078 296.975 245.899 296.561 245.91C296.304 245.921 296.035 245.899 295.778 245.91C295.274 245.943 295.129 245.709 295.151 245.239C295.162 244.881 295.263 244.714 295.655 244.669C296.147 244.613 296.807 244.971 297.087 244.423C297.288 244.032 297.143 243.473 297.154 242.992C297.154 242.847 297.165 242.691 297.154 242.545C297.109 242.076 297.288 241.875 297.78 241.886C298.262 241.886 298.575 241.975 298.519 242.556C298.474 243.037 298.541 243.529 298.508 244.01C298.463 244.568 298.72 244.725 299.235 244.691C299.716 244.658 300.197 244.703 300.689 244.68C301.159 244.658 301.226 244.915 301.238 245.306C301.249 245.731 301.092 245.921 300.656 245.91C300.175 245.899 299.682 245.932 299.201 245.899C298.653 245.865 298.496 246.1 298.508 246.625C298.53 248.224 298.496 249.822 298.53 251.421C298.552 252.706 299.134 253.165 300.387 252.941C300.611 252.885 300.846 252.818 301.103 252.751Z" fill="#3E3D3D"/>
<path d="M58.415 245.653C58.7507 245.608 58.8626 245.295 59.0863 245.116C59.7464 244.569 60.4961 244.311 61.3464 244.323C62.1855 244.334 62.331 244.557 62.1184 245.34C62.0177 245.698 61.8163 245.753 61.4695 245.776C59.3213 245.888 58.3591 246.927 58.3479 249.107C58.3367 250.515 58.3591 251.924 58.3367 253.343C58.3255 254.07 58.2696 254.081 57.5759 254.092C57.1731 254.092 56.9493 253.992 56.9605 253.545C56.9829 252.952 56.9717 252.36 56.9605 251.767C56.9382 249.688 56.9158 247.609 56.9046 245.53C56.9046 245.206 56.7144 244.759 57.3409 244.703C57.9675 244.658 58.0906 244.725 58.236 245.418C58.2472 245.485 58.292 245.552 58.3255 245.608C58.3479 245.619 58.3815 245.63 58.415 245.653Z" fill="#3E3D3D"/>
<path d="M303.408 244.793C304.516 244.625 304.516 244.625 304.796 245.765C305.12 245.698 305.221 245.374 305.433 245.184C306.105 244.58 306.899 244.301 307.783 244.323C308.119 244.334 308.589 244.211 308.611 244.793C308.645 245.486 308.432 245.776 307.761 245.743C305.937 245.631 304.729 247.285 304.751 248.783C304.773 250.303 304.74 251.835 304.762 253.355C304.773 253.88 304.617 254.07 304.069 254.07C303.52 254.07 303.375 253.88 303.375 253.355C303.375 250.561 303.352 247.777 303.33 244.983C303.341 244.938 303.386 244.86 303.408 244.793Z" fill="#3E3D3D"/>
<path d="M177.012 245.664C177.37 245.597 177.493 245.295 177.717 245.105C178.377 244.557 179.138 244.3 179.977 244.323C180.313 244.334 180.772 244.222 180.805 244.803C180.839 245.452 180.593 245.787 179.955 245.742C178.176 245.631 176.923 247.251 176.956 248.783C176.99 250.303 176.968 251.823 176.956 253.343C176.945 254.048 176.878 254.07 176.184 254.07C175.759 254.07 175.558 253.936 175.591 253.5C175.603 253.355 175.591 253.198 175.591 253.053C175.569 250.527 175.547 248.012 175.524 245.485C175.513 244.736 175.826 244.502 176.531 244.692C177.057 244.837 176.665 245.373 177.012 245.664Z" fill="#3E3D3D"/>
<path d="M381.996 245.944C382.331 245.586 382.522 245.363 382.734 245.173C383.439 244.547 384.267 244.278 385.196 244.334C385.509 244.357 385.901 244.301 385.901 244.826C385.889 245.463 385.677 245.732 385.129 245.765C383.07 245.877 382.041 246.95 382.018 249.029C382.007 250.482 381.996 251.924 382.029 253.378C382.041 253.892 381.917 254.115 381.347 254.104C380.821 254.093 380.642 253.937 380.642 253.4C380.653 250.728 380.631 248.057 380.608 245.385C380.608 244.96 380.642 244.681 381.179 244.703C381.638 244.726 382.018 244.726 381.94 245.34C381.929 245.463 381.962 245.609 381.996 245.944Z" fill="#3E3D3D"/>
<path d="M108.326 246.503C108.326 248.772 108.338 251.03 108.326 253.299C108.326 254.06 108.226 254.115 107.498 254.082C107.129 254.06 106.95 253.925 106.973 253.557C106.984 253.445 106.973 253.333 106.973 253.221C106.973 248.694 106.973 244.167 106.973 239.628C106.973 239.148 106.939 238.745 107.644 238.779C108.17 238.801 108.36 238.946 108.349 239.483C108.315 241.819 108.326 244.156 108.326 246.503Z" fill="#3E3D3D"/>
<path d="M333.639 244.781C334.725 244.647 334.725 244.647 335.027 245.776C335.34 245.686 335.441 245.373 335.665 245.183C336.336 244.591 337.13 244.3 338.014 244.334C338.35 244.345 338.808 244.233 338.831 244.825C338.853 245.53 338.652 245.742 337.969 245.764C336.146 245.843 335.016 246.961 334.982 248.805C334.949 250.292 334.982 251.778 334.971 253.265C334.96 254.036 334.803 254.159 334.053 254.081C333.718 254.048 333.606 253.88 333.617 253.578C333.617 253.321 333.617 253.053 333.617 252.796C333.595 250.348 333.584 247.888 333.561 245.44C333.561 245.206 333.516 244.982 333.639 244.781Z" fill="#3E3D3D"/>
<path d="M354.595 249.465C354.595 250.762 354.573 252.069 354.606 253.366C354.617 253.903 354.427 254.07 353.901 254.081C353.342 254.093 353.208 253.869 353.219 253.355C353.241 250.672 353.23 248.001 353.219 245.318C353.219 244.837 353.376 244.658 353.857 244.669C354.338 244.669 354.617 244.748 354.606 245.329C354.573 246.715 354.595 248.09 354.595 249.465Z" fill="#3E3D3D"/>
<path d="M101.77 253.902C101.77 252.516 101.77 251.063 101.77 249.621C101.77 248.168 101.793 246.715 101.759 245.261C101.748 244.714 102.039 244.68 102.453 244.68C102.889 244.68 103.146 244.758 103.135 245.284C103.113 248 103.124 250.716 103.135 253.433C103.135 253.913 102.967 254.115 102.486 254.07C102.274 254.047 102.039 254.115 101.77 253.902Z" fill="#3E3D3D"/>
<path d="M103.392 241.003C103.359 241.54 102.866 241.965 102.329 241.898C101.826 241.842 101.434 241.395 101.468 240.914C101.501 240.388 102.016 239.952 102.542 240.02C103.034 240.064 103.426 240.511 103.392 241.003Z" fill="#3E3D3D"/>
<path d="M353.89 240.008C354.416 239.997 354.886 240.489 354.863 241.003C354.841 241.484 354.393 241.908 353.901 241.908C353.42 241.908 352.962 241.495 352.928 241.025C352.894 240.511 353.364 240.019 353.89 240.008Z" fill="#3E3D3D"/>
</g>
<defs>
<clipPath id="clip0">
<rect width="418" height="259" fill="white"/>
</clipPath>
</defs>
</svg>
