<svg width="4733" height="707" viewBox="0 0 4733 707" fill="none" xmlns="http://www.w3.org/2000/svg">
<path d="M352.519 1C353.188 2.33489 354.635 2.39051 355.749 3.00233C362.319 6.95138 365.326 13.8483 363.433 21.079C361.762 27.6422 355.526 32.5924 348.232 32.8149C340.604 33.0374 333.032 33.3155 325.459 33.9829C261.818 39.6562 204.691 62.0156 154.635 101.562C104.468 141.219 68.8334 191.333 48.399 252.015C36.1496 288.391 30.7487 325.823 32.0293 364.146C36.3723 492.907 113.655 595.415 214.824 643.861C251.35 661.381 289.88 671.448 330.359 674.229C394.056 678.568 454.357 666.387 509.758 634.683C598.177 584.124 652.742 508.536 670.615 408.141C690.938 293.897 647.119 178.54 557.197 105.288C552.464 101.45 547.508 97.7795 542.72 94.0529C538.822 90.9938 535.704 87.3785 535.203 82.2058C534.535 75.4757 536.985 70.1918 542.72 66.6321C548.232 63.1836 555.025 63.5173 560.482 67.6332C573.622 77.5893 586.484 87.9347 598.399 99.4481C639.435 139.05 669.446 185.66 688.043 239.556C702.074 280.27 708.199 322.208 706.807 365.258C704.802 427.942 687.709 486.232 654.301 539.294C601.573 623.003 526.573 676.176 430.025 698.536C393.444 706.99 356.306 708.937 318.833 705.154C254.747 698.702 196.506 676.844 144.836 638.577C73.399 585.737 27.742 515.767 8.30994 428.999C0.848908 395.682 -1.65666 361.976 1.07163 327.937C7.02931 253.739 33.2542 187.551 80.6373 129.984C124.401 76.8106 179.357 39.6562 244.836 18.1867C268.889 10.2886 293.555 5.22715 318.778 2.72423C320.782 2.55737 323.288 3.39168 324.68 1.05562C333.978 1 343.221 1 352.519 1Z" fill="#FFC704"/>
<path d="M4733 269.2C4732.5 269.5 4731.5 269.6 4731.4 270C4724.6 302.5 4704 323.8 4674.9 336.6C4631.3 355.7 4586.4 356.9 4541.5 341C4526.5 335.7 4513.5 327 4503.2 314.7C4492.7 302.3 4487 287.9 4487.8 271.5C4488.6 255 4497.8 243.5 4512.3 240.2C4520.2 238.4 4527.6 239.9 4534.3 244.1C4546.4 251.6 4548.7 267.1 4539.1 277.7C4536 281.1 4532.2 283.9 4528.7 287C4519.1 295.4 4518.3 304.1 4526.3 314C4530.3 319 4535.4 322.8 4541.1 325.7C4572.9 341.5 4605.7 344 4638.7 330.6C4664.6 320.2 4678.5 300.3 4679.1 271.9C4679.5 254.7 4672.5 240.9 4659.7 229.9C4649.2 220.9 4637.1 214.6 4624.5 209.3C4607.9 202.4 4591.1 195.9 4574.5 189.1C4558.8 182.6 4543.4 175.3 4529.8 165C4499.7 142.3 4488.5 112 4495.2 75.1996C4499.3 52.6996 4512.9 36.0996 4531.5 23.3996C4548.6 11.6996 4567.9 5.4996 4588.2 2.5996C4613.6 -1.0004 4638.7 -0.200353 4663.4 7.39965C4677.9 11.8996 4691.3 18.4996 4702.6 28.6996C4717.5 42.0996 4726 58.4996 4724.8 78.8996C4723.9 95.7996 4714.6 107.1 4700.2 110C4693.7 111.3 4687.6 110.4 4681.7 107.7C4667.7 101.2 4663.8 84.1996 4673.9 72.5996C4677.1 68.8996 4681.3 65.9996 4685 62.5996C4693.3 54.9996 4694.1 46.8996 4687.3 37.9996C4682.9 32.2996 4677.1 28.4996 4670.8 25.1996C4659.1 19.1996 4646.6 15.7997 4633.6 14.2997C4614.5 12.1997 4595.6 13.5996 4577.5 20.3996C4552.8 29.5996 4540 48.4996 4540.1 74.8996C4540.1 87.1996 4544.4 97.5996 4552.8 106.5C4560.5 114.6 4569.9 120.3 4579.7 125.3C4599.9 135.6 4621.5 142.7 4642.4 151.3C4655.3 156.6 4668.1 162.3 4680.3 169.3C4691 175.5 4701 182.7 4709.5 191.7C4720.4 203.4 4728.3 216.7 4730.9 232.7C4731.1 234 4731.1 235.3 4732.9 235.4C4733 246.5 4733 257.9 4733 269.2Z" fill="white"/>
<path d="M1559 706.999C1559.1 704.999 1559.1 703.099 1559.3 701.099C1559.8 694.699 1559.9 694.499 1567 695.099C1574.2 695.699 1579.4 692.799 1582.4 686.399C1585.4 680.099 1587.7 673.499 1590.4 666.999C1592.1 662.999 1589.8 659.799 1588.5 656.499C1579.6 634.299 1570.5 612.099 1561.5 589.899C1560.2 586.599 1558.9 583.199 1557.6 579.699C1559.3 579.299 1560.2 578.999 1561.2 578.899C1572.1 578.399 1572.1 578.399 1576 588.699C1582.3 605.199 1588.5 621.699 1594.9 638.099C1595.8 640.499 1596.1 643.199 1598.4 644.899C1601.6 642.799 1601.8 639.199 1602.9 636.199C1609 619.999 1615 603.799 1621 587.499C1624.3 578.499 1624.4 578.499 1633.6 578.699C1634.9 578.699 1636.2 578.899 1637.5 579.099C1638.5 582.599 1636.4 585.099 1635.4 587.699C1623.5 617.699 1611.5 647.699 1599.6 677.699C1595.4 688.299 1591.3 698.899 1580.8 705.099C1580.7 705.199 1581.1 706.199 1581.2 706.699C1573.7 706.999 1566.3 706.999 1559 706.999Z" fill="white"/>
<path d="M4451 706.999C4454.2 703.499 4451.2 698.699 4454.1 694.799C4454.2 694.799 4454.9 694.199 4455.4 694.299C4466.5 696.799 4472.3 694.499 4477.9 681.699C4485.1 665.099 4485.2 665.099 4478.3 648.099C4470.3 628.399 4462.3 608.699 4454.3 588.899C4453.1 585.899 4451 583.099 4451.6 579.299C4453.2 579.199 4454.9 578.899 4456.5 578.899C4465.3 578.699 4465.3 578.799 4468.5 587.099C4474.8 603.599 4480.9 620.099 4487.3 636.499C4488.5 639.499 4488.6 643.099 4492.5 645.399C4497.4 632.199 4502.2 619.199 4507.1 606.199C4509.4 599.999 4511.7 593.699 4514 587.499C4517.5 577.999 4515.9 578.999 4526.7 578.899C4528 578.899 4529.3 579.299 4530.6 579.399C4531 583.199 4529 585.999 4527.8 588.999C4517.3 615.599 4506.6 642.099 4496.1 668.699C4490.6 682.699 4486 697.299 4472.9 706.799C4465.7 706.999 4458.3 706.999 4451 706.999Z" fill="white"/>
<path d="M72.0557 353.548C72.0557 231.831 150.925 123.687 266.893 86.4153C291.756 78.4047 317.23 74.0656 343.316 73.0642C344.984 73.0086 346.653 72.953 348.322 73.0642C356.442 73.5093 362.727 79.6285 363.228 87.5279C363.784 95.928 358.444 102.882 350.213 104.272C347.487 104.717 344.651 104.717 341.925 104.884C250.819 108.89 169.28 162.183 129.066 244.014C115.217 272.273 106.985 302.091 104.594 333.522C100.366 388.317 112.047 439.44 141.581 485.835C179.903 545.971 234.078 584.466 304.326 598.095C379.024 612.559 447.437 596.482 507.396 549.308C558.344 509.2 588.879 456.574 599.225 392.433C601.283 379.583 602.173 366.677 602.284 353.715C602.339 344.036 609.626 337.249 619.081 337.749C627.369 338.194 633.654 344.759 633.932 353.548C634.21 362.06 633.598 370.626 632.819 379.082C629.593 414.129 620.694 447.729 604.453 478.993C562.182 560.323 496.216 611.391 406.278 629.582C287.751 653.503 166.443 596.593 107.597 490.953C86.9619 453.959 75.226 414.351 72.5562 372.017C72.3893 369.069 72.0556 366.12 72 363.116C72 359.834 72.0557 356.663 72.0557 353.548Z" fill="#FFC704"/>
<path d="M148 352.549C149.116 294.424 170.76 244.093 214.104 203.617C245.845 173.998 283.611 156.516 326.787 150.782C333.816 149.835 340.845 149 347.874 149C357.971 149 364.999 157.017 363.884 166.872C363.047 174.499 356.743 180.234 348.208 180.679C340.956 181.069 333.705 181.57 326.564 182.795C271.338 192.427 229.668 221.601 201.776 270.038C186.547 296.484 179.685 325.379 179.853 355.834C180.187 425.762 224.982 490.178 290.36 515.399C308.769 522.47 327.736 526.311 347.372 527.258C356.688 527.703 363.158 533.215 363.884 541.399C364.832 551.532 357.58 559.271 346.981 558.993C336.773 558.714 326.564 557.601 316.523 555.708C274.406 547.691 237.924 528.872 207.856 498.362C168.305 458.332 148.669 409.839 148 352.549Z" fill="#FFC704"/>
<path d="M3315.6 259.5C3319.7 248.6 3323.2 239 3326.8 229.4C3353 157.8 3379.2 86.1997 3405.5 14.6997C3409.3 4.29971 3407.5 5.3998 3418.7 5.2998C3444.7 5.2998 3470.7 5.2998 3496.7 5.2998C3499.7 5.2998 3502.8 5.29976 3505.6 5.99976C3508.4 6.69976 3510.1 8.99973 3509.7 12.0997C3509.4 14.5997 3507.8 16.5998 3505.3 16.8998C3501.7 17.3998 3498 17.2998 3494.3 17.3998C3481.4 17.6998 3476.2 22.7998 3476.1 35.7998C3476 129.7 3476 223.7 3476.1 317.6C3476.1 330.1 3481.3 335.1 3493.7 335.4C3497 335.5 3500.4 335.3 3503.7 335.6C3507.4 336 3509.9 338.2 3509.7 342.2C3509.5 345.7 3507 347.4 3503.6 347.7C3501.6 347.9 3499.6 347.8 3497.6 347.8C3461.6 347.8 3425.6 347.8 3389.6 347.8C3387.3 347.8 3384.9 347.9 3382.6 347.6C3379.2 347.1 3377.3 344.8 3377.4 341.4C3377.5 338.3 3379.6 336.4 3382.3 335.9C3385.9 335.4 3389.6 335.5 3393.3 335.4C3405.8 335.1 3410.9 330.2 3411 317.7C3411.1 286.4 3411 255.1 3411 223.8C3411 169.2 3411 114.5 3411 59.8998C3411 56.6998 3411 53.4998 3411 48.8998C3406.7 52.2998 3406.4 56.0998 3405.2 59.2998C3371.3 152.5 3337.4 245.7 3303.5 339C3302.2 342.6 3302.3 348 3298.2 349.1C3293.2 350.4 3287.6 349.9 3282.3 349.4C3278.7 349.1 3278.7 345 3277.7 342.3C3267.5 315.9 3257.3 289.5 3247.2 263.1C3221 194.7 3194.7 126.4 3168.4 57.9998C3167.4 55.3998 3167.3 52.0998 3164.3 50.2998C3161.8 51.4998 3162.9 53.6998 3162.9 55.3998C3162.8 142.3 3162.8 229.3 3162.8 316.2C3162.8 317.9 3162.7 319.5 3162.9 321.2C3163.7 329.5 3168.6 334.6 3177 335.3C3181.3 335.7 3185.7 335.2 3190 335.6C3193.7 335.9 3196.3 338.2 3196.1 342.2C3196 345.7 3193.5 347.4 3190.1 347.7C3188.1 347.9 3186.1 347.8 3184.1 347.8C3164.8 347.8 3145.4 347.8 3126.1 347.8C3117.4 347.8 3114.4 346.3 3114.2 342C3114 337.4 3117.5 335.6 3126.5 335.5C3128.5 335.5 3130.5 335.6 3132.5 335.5C3141.6 334.9 3146.6 330.1 3147.3 321.2C3147.5 318.6 3147.4 315.9 3147.4 313.2C3147.4 222.3 3147.4 131.3 3147.4 40.3998C3147.4 40.0998 3147.4 39.6998 3147.4 39.3998C3147.4 21.6998 3143.5 17.7997 3125.7 17.5997C3125 17.5997 3124.4 17.5997 3123.7 17.5997C3117 17.3997 3114.1 15.4998 3114.2 11.3998C3114.4 7.49978 3117.3 5.59973 3124.1 5.59973C3152.4 5.49973 3180.8 5.79978 3209.1 5.39978C3215 5.29978 3217.1 7.79971 3219 12.6997C3232.8 49.0997 3246.8 85.4998 3260.8 121.8C3277.1 164.4 3293.4 207 3309.8 249.5C3311.3 252.4 3312 255.7 3315.6 259.5Z" fill="white"/>
<path d="M4264.4 272.499C4261.9 277.999 4260 282.099 4258 286.299C4234.5 335.099 4190.9 355.399 4139.4 352.099C4127.4 351.299 4115.6 349.199 4104.4 344.599C4077.4 333.499 4062.5 312.799 4057.2 284.599C4055.4 275.099 4054.9 265.399 4054.9 255.799C4054.9 184.199 4054.9 112.599 4054.9 40.9994C4054.9 37.9994 4055 34.9994 4054.8 31.9994C4054.2 23.7994 4049.2 18.3994 4041 17.5994C4037.4 17.1994 4033.7 17.5994 4030 17.3994C4024.4 17.0994 4021.1 14.6994 4021.7 10.9994C4022.4 6.49938 4025.7 5.29943 4029.7 5.29943C4035.4 5.29943 4041 5.29943 4046.7 5.29943C4068.4 5.29943 4090 5.29943 4111.7 5.29943C4119.8 5.29943 4119.9 5.39938 4119.9 13.4994C4119.9 59.4994 4119.9 105.399 4119.9 151.399C4119.9 188.999 4119.9 226.699 4119.9 264.299C4119.9 274.999 4120.6 285.599 4123.4 295.999C4129.5 318.399 4143.9 330.099 4167.6 330.699C4196.4 331.499 4219.3 319.699 4236.1 296.399C4248.7 278.999 4255.2 259.199 4259 238.399C4261.7 223.599 4263 208.699 4263 193.699C4262.9 141.399 4263 89.0994 4263 36.7994C4263 21.8994 4258.4 17.4994 4243.1 17.3994C4240.4 17.3994 4237.7 17.4994 4235.1 17.0994C4231.8 16.4994 4229.6 14.2994 4229.9 10.7994C4230.1 7.89943 4232.2 5.99938 4235.1 5.49938C4237.1 5.19938 4239.1 5.19933 4241.1 5.19933C4266.8 5.19933 4292.4 5.19933 4318.1 5.19933C4327.8 5.19933 4328 3.49943 4328 14.7994C4328 71.7994 4328 128.699 4328 185.699C4328 228.699 4328 271.599 4328 314.599C4328 317.899 4327.9 321.299 4328.5 324.499C4329.7 330.999 4333.9 334.699 4340.9 335.499C4345.2 335.999 4349.6 335.599 4353.9 335.999C4357.4 336.299 4360.7 337.499 4360.8 341.699C4360.9 346.499 4357.4 347.699 4353.4 347.699C4335.4 347.799 4317.4 347.699 4299.4 347.699C4290.4 347.699 4281.4 347.499 4272.4 347.799C4267.6 347.899 4266 346.199 4266.1 341.499C4266.3 322.199 4266.2 302.899 4266.1 283.499C4266.1 280.299 4267 276.999 4264.4 272.499Z" fill="white"/>
<path d="M1680.6 273.199C1677.5 275.999 1677 278.999 1675.9 281.699C1652.9 333.599 1608.6 355.499 1555.2 352.099C1546.6 351.599 1538 350.199 1529.6 347.799C1498.4 338.899 1480 318.099 1473.2 286.699C1470.9 276.199 1470.6 265.599 1470.6 254.899C1470.6 183.599 1470.6 112.299 1470.6 40.9991C1470.6 38.2991 1470.7 35.6991 1470.6 32.9991C1470.1 23.1991 1464.8 17.8991 1454.9 17.2991C1451.6 17.0991 1448.2 17.299 1444.9 17.199C1440.9 16.999 1437.3 15.5991 1437.5 10.9991C1437.7 6.39909 1441.3 5.19904 1445.3 5.19904C1446.3 5.19904 1447.3 5.19904 1448.3 5.19904C1474.6 5.19904 1501 5.19904 1527.3 5.19904C1535.4 5.19904 1535.5 5.29914 1535.5 13.2991C1535.5 60.2991 1535.5 107.199 1535.5 154.199C1535.5 190.799 1535.5 227.499 1535.5 264.099C1535.5 274.099 1536.3 284.099 1538.7 293.799C1544.8 318.399 1559.8 330.599 1585.2 330.599C1613.1 330.699 1635.4 318.999 1651.7 296.299C1664.5 278.599 1671 258.399 1674.8 237.299C1677.4 222.899 1678.6 208.299 1678.6 193.599C1678.6 141.299 1678.6 88.999 1678.6 36.699C1678.6 21.799 1673.9 17.399 1658.7 17.199C1656 17.199 1653.3 17.2991 1650.7 16.8991C1647.5 16.2991 1645.2 14.299 1645.4 10.699C1645.6 7.69904 1647.6 5.79911 1650.5 5.39911C1653.1 4.99911 1655.8 5.09906 1658.5 5.09906C1683.2 5.09906 1707.8 4.99906 1732.5 5.09906C1744.3 5.09906 1743.3 3.59906 1743.3 15.5991C1743.3 83.1991 1743.3 150.799 1743.3 218.499C1743.3 250.099 1743.3 281.799 1743.3 313.399C1743.3 316.099 1743.2 318.699 1743.4 321.399C1744.2 329.999 1748.7 334.699 1757.3 335.499C1761.3 335.899 1765.3 335.499 1769.3 335.799C1773.3 336.099 1776.7 337.699 1776.3 342.399C1775.9 346.499 1772.6 347.599 1769 347.599C1756.7 347.599 1744.3 347.599 1732 347.599C1718.3 347.599 1704.7 347.599 1691 347.599C1681.6 347.599 1681.6 347.499 1681.5 338.499C1681.5 320.199 1681.5 301.899 1681.5 283.499C1681.7 280.499 1682.4 277.099 1680.6 273.199Z" fill="white"/>
<path d="M1313.6 174.8C1313.6 204.5 1309.4 231.3 1299.1 257C1272.2 324.5 1213.4 356.4 1144.9 352.1C1110.3 349.9 1079.3 338.4 1053.3 314.8C1035.2 298.3 1022 278.4 1013.7 255.6C994.9 203.7 994 151.2 1012.8 99.1995C1034.3 39.6995 1085 3.8996 1148.4 1.7996C1171.6 0.999605 1194.3 3.59956 1216.1 11.9996C1262.4 29.8996 1290.2 64.5996 1304.6 111C1311.3 132.4 1313.9 154.5 1313.6 174.8ZM1244.9 184.3C1245 155.4 1243.9 134.1 1240.8 112.9C1237.6 90.9996 1231.9 69.9996 1221 50.4996C1194 2.09956 1120 2.19956 1093 49.4996C1085.8 62.0996 1080.2 75.1996 1077.2 89.2996C1064.9 147.4 1065 205.7 1077.3 263.8C1080.7 279.8 1087.1 294.799 1096.1 308.699C1123.3 350.599 1189.9 350.5 1216.9 308.9C1225.2 296.2 1230.9 282.5 1234.8 267.9C1243 237.9 1244.7 207.4 1244.9 184.3Z" fill="white"/>
<path d="M2897.6 294.9C2893.3 297.2 2892.8 300 2891.6 302.3C2876.7 330.2 2853.2 345.9 2822.3 350.8C2802.6 353.9 2783.1 352.7 2763.9 347.1C2714.6 332.5 2690.8 279.2 2712.7 232.5C2720.2 216.5 2732.7 205.3 2748.1 197.2C2768.2 186.7 2789.9 181.9 2812.1 179.1C2837.3 176 2862.6 175.9 2887.9 174.1C2896.6 173.5 2896.6 173.5 2896.6 165.1C2896.6 137.5 2896.6 109.8 2896.6 82.1999C2896.6 73.7999 2895.5 65.6 2893.4 57.5C2888.1 37.1 2875.4 23.2999 2855.2 17.6C2825.9 9.29995 2797.2 11.6 2769.7 25.3C2763.1 28.6 2757.2 32.9 2752.2 38.4C2748.8 42.1 2746.1 46.2999 2744.6 51.1999C2741.9 60.0999 2743.2 64.7 2750.6 70.4C2754 73.1 2757.8 75.2 2761.1 78C2773 88.3 2770.9 105.5 2756.9 112.8C2741.2 121 2722.6 114.1 2716.7 97.3C2711.6 82.8 2713.7 68.3 2719.8 54.5C2726.6 39 2738.3 27.8 2752.6 19.3C2769.5 9.20002 2788.1 3.99995 2807.5 2.09995C2837.6 -0.80005 2867.4 0.699925 2896.6 9.19993C2905.3 11.6999 2913.6 15.1 2921.4 19.5C2946.9 34 2960.5 55.8 2962 85.1C2962.2 89.1 2962.1 93.1 2962.1 97.1C2962.1 167.4 2962.1 237.6 2962.1 307.9C2962.1 311.9 2962 315.9 2962.5 319.9C2963.7 330.4 2970.6 335 2980.8 332.4C2984.4 331.5 2987.6 329.7 2990.4 327.3C2992.4 325.6 2994.5 323.9 2996.7 322.4C2998.7 321 3001 320.5 3003.1 322.5C3005.1 324.3 3005.3 326.6 3004.6 328.9C3003.9 331.6 3002.1 333.6 3000.3 335.5C2996.8 339.1 2992.6 341.9 2988 343.9C2970.1 352.1 2951.5 354.2 2932.5 349.5C2910.7 344.1 2899.2 330.1 2897.4 307.8C2897.4 304 2897.6 300 2897.6 294.9ZM2863.1 187.8C2863.1 187.7 2863.1 187.7 2863.1 187.8C2853.8 188.3 2844.5 188.6 2835.2 189.6C2810.3 192.1 2789.1 201.6 2777.4 224.9C2764.4 250.8 2764.6 277.7 2776.5 303.9C2784.6 321.8 2799.5 330.8 2819.3 331.7C2840.8 332.6 2858.1 324.1 2871.8 307.9C2882.8 294.9 2888.9 279.5 2892.8 263.2C2898.5 239.3 2896.6 214.9 2896.9 190.7C2896.9 187.3 2895.4 186 2892 186.3C2882.4 186.7 2872.7 187.2 2863.1 187.8Z" fill="white"/>
<path d="M3711.4 5.0995C3733.1 5.0995 3754.7 4.89948 3776.4 5.19948C3799.6 5.49948 3822 9.59957 3843.5 18.7996C3921 51.6996 3911.6 148.599 3861.8 183.699C3839.6 199.399 3814.9 206.9 3788.3 209.5C3770 211.3 3751.7 210.6 3733.4 210.8C3725.4 210.9 3725.3 210.899 3725.3 219.199C3725.3 252.199 3725.2 285.099 3725.3 318.099C3725.3 330.599 3730.3 335.4 3742.9 335.8C3748.6 335.9 3754.2 335.8 3759.9 335.9C3762.2 335.9 3764.6 336.099 3766.8 336.699C3769.7 337.499 3771.3 339.699 3770.9 342.699C3770.6 345.299 3768.8 346.9 3766.3 347.3C3764 347.7 3761.7 347.699 3759.3 347.699C3719 347.699 3678.7 347.699 3638.4 347.699C3636.1 347.699 3633.7 347.8 3631.4 347.4C3628.5 346.9 3626.7 345 3626.7 341.8C3626.7 339.1 3628.2 337.499 3630.6 336.599C3634.2 335.299 3637.9 335.9 3641.5 335.8C3655.6 335.5 3660.3 330.999 3660.3 317.199C3660.4 223.299 3660.4 129.4 3660.3 35.4995C3660.3 22.3995 3655.2 17.4995 3642.2 17.0995C3638.5 16.9995 3634.8 17.1995 3631.3 16.5995C3628.6 16.0995 3626.5 14.0995 3626.7 10.8995C3626.8 7.79955 3628.6 5.89955 3631.5 5.39955C3634.1 4.99955 3636.8 5.0995 3639.5 5.0995C3663.4 5.0995 3687.4 5.0995 3711.4 5.0995ZM3725.2 111.1C3725.2 137.7 3725.2 164.3 3725.2 190.9C3725.2 198.6 3725.4 198.599 3732.9 198.699C3740.9 198.799 3748.9 198.899 3756.9 198.699C3788.9 197.899 3811.1 182.7 3823.1 153.1C3832.6 129.6 3833.3 105.2 3830 80.3996C3828.8 71.0995 3826.1 62.1996 3821.9 53.7996C3812.6 34.9996 3797.7 23.3995 3777.2 18.8995C3766.3 16.4995 3755.3 17.0995 3744.4 17.0995C3730 17.0995 3725.3 21.8996 3725.3 36.2996C3725.1 61.1996 3725.2 86.1995 3725.2 111.1Z" fill="white"/>
<path d="M2058.7 176.799C2058.7 222.399 2058.7 267.999 2058.7 313.699C2058.7 315.999 2058.6 318.399 2058.7 320.699C2059.1 329.699 2063.8 334.699 2072.8 335.599C2077.4 335.999 2082.1 335.699 2086.7 336.199C2089.9 336.499 2092.5 338.599 2092.3 342.099C2092.1 345.499 2089.7 347.399 2086.2 347.599C2084.2 347.699 2082.2 347.799 2080.2 347.799C2043.9 347.799 2007.6 347.799 1971.3 347.799C1969.6 347.799 1968 347.799 1966.3 347.699C1962.5 347.499 1959.6 345.799 1959.6 341.799C1959.6 337.799 1962.8 336.199 1966.4 335.899C1970.4 335.599 1974.4 335.899 1978.4 335.599C1988 334.799 1992.7 329.899 1993.1 320.199C1993.2 318.499 1993.1 316.899 1993.1 315.199C1993.1 222.999 1993.1 130.699 1993.1 38.4993C1993.1 36.4993 1993.2 34.4993 1993.1 32.4993C1992.7 23.9993 1988.4 18.4994 1979.8 17.7994C1964.5 16.4994 1949.1 16.9993 1934.6 23.1993C1916.9 30.7993 1907.5 45.0993 1903.1 63.1993C1901.1 71.2993 1900.4 79.5993 1900.5 87.9993C1900.5 90.2993 1900.6 92.6993 1900.4 94.9993C1900.1 98.7993 1898 101.199 1894 101.299C1890.1 101.399 1887.8 99.1994 1887.4 95.2994C1887.2 92.9994 1887.3 90.5994 1887.3 88.2994C1887.3 64.2994 1887.3 40.2994 1887.3 16.3994C1887.3 4.59935 1886.6 5.49933 1898 5.49933C1973.3 5.49933 2048.6 5.49933 2123.9 5.49933C2134.9 5.49933 2145.9 5.69935 2156.9 5.39935C2162.1 5.19935 2163.9 6.8993 2163.9 12.0993C2163.7 38.6993 2163.8 65.3993 2163.8 91.9993C2163.8 92.9993 2163.8 93.9993 2163.7 94.9993C2163.4 98.8993 2161.4 101.199 2157.4 101.299C2153.4 101.399 2151.2 99.1994 2150.8 95.2994C2150.5 92.6994 2150.6 89.9994 2150.6 87.2994C2150.6 80.9994 2150.3 74.6994 2149.3 68.3994C2144.4 37.0994 2125.1 19.2993 2093.4 17.4993C2087.4 17.1993 2081.4 17.1994 2075.4 17.3994C2063.5 17.8994 2058.6 22.8994 2058.6 34.8994C2058.7 82.2994 2058.7 129.599 2058.7 176.799Z" fill="white"/>
<path d="M2351.9 175.8C2352 205.2 2354.2 234.3 2363.1 262.6C2367.2 275.7 2372.8 288.1 2381 299.2C2396.5 320.4 2417.4 332 2443.7 333.4C2487.3 335.7 2520.7 318.9 2541.9 279.9C2543.3 277.3 2544.8 274.6 2547.3 272.8C2549.9 270.8 2552.8 270.4 2555.7 272.2C2558.3 273.9 2558.4 276.5 2557.6 279.3C2555.9 285.1 2553 290.4 2549.6 295.3C2524.6 330.9 2490.9 350.6 2447 351.7C2426.9 352.2 2407.1 350.2 2387.8 344.1C2343.1 329.9 2313.6 299.7 2297.1 256.4C2284.8 224.1 2281.7 190.4 2284.2 156.2C2285.9 132.5 2290.6 109.4 2300.4 87.5997C2321.7 40.0997 2358.6 12.5997 2409.5 3.59968C2437 -1.20032 2464.6 -0.400242 2491.6 7.29976C2509.8 12.4998 2526.3 21.0997 2539.3 35.0997C2555.2 52.1997 2562.2 72.3997 2558.6 95.6997C2555.2 117.8 2535.8 130.1 2515.4 123.5C2505.9 120.4 2499.1 114.5 2496.8 104.5C2494.5 94.2997 2498.4 86.1998 2506.2 79.7998C2510.1 76.5998 2514.2 73.7997 2517.9 70.4997C2525.6 63.5997 2527 56.6997 2523 47.0997C2519.4 38.3997 2512.8 32.3997 2505 27.5997C2486.7 16.3997 2466.4 13.4997 2445.4 14.4997C2415.6 15.9997 2392.8 29.7997 2377.1 55.0997C2363.9 76.4997 2358.2 100.4 2354.8 125C2352.7 141.8 2352.1 158.8 2351.9 175.8Z" fill="white"/>
<path d="M222.065 351.969C222.624 287.164 271.546 232.371 336.292 224.027C340.374 223.527 344.4 222.859 348.537 223.026C356.98 223.304 363.521 229.479 363.969 237.6C364.472 246.223 358.881 253.232 350.214 254.288C341.883 255.29 333.609 256.013 325.501 258.405C282.841 270.865 253.767 309.581 253.99 353.805C253.99 355.474 254.102 357.142 254.046 358.811C253.767 367.878 246.945 374.832 238.167 374.999C229.445 375.11 222.4 368.212 222.065 359.145C221.953 356.809 222.009 354.417 222.065 351.969Z" fill="#FFC704"/>
<path d="M4108.8 651.899C4083.3 668.599 4059.3 667.799 4043.4 650.099C4029 634.099 4028.5 607.699 4042.3 591.199C4051 580.799 4062.4 576.099 4075.7 575.699C4088.5 575.299 4099.6 579.999 4108.6 589.399C4111.3 585.399 4110.3 581.999 4110.3 578.799C4110.4 563.499 4110.6 548.199 4110.3 532.799C4110.2 525.599 4111.9 526.099 4118.1 526.099C4121.5 526.099 4122.8 527.699 4122.7 530.999C4122.5 534.299 4122.7 537.699 4122.7 540.999C4122.7 578.999 4122.7 616.899 4122.7 654.899C4122.7 662.599 4121.9 663.099 4115.1 662.899C4111.6 662.799 4110.4 661.399 4110.5 658.099C4110.4 656.199 4110.6 654.199 4108.8 651.899ZM4077.2 653.199C4096.3 653.199 4110.8 638.699 4110.7 619.899C4110.6 601.099 4095.9 586.799 4076.8 586.999C4058.7 587.199 4045.5 600.899 4045.3 619.799C4045.2 639.099 4058.7 653.199 4077.2 653.199Z" fill="white"/>
<path d="M3194.8 652.399C3193.2 653.699 3193.5 655.399 3193.3 656.999C3192.6 662.899 3192 663.199 3185.9 662.999C3182.5 662.799 3181 661.599 3181.2 658.199C3181.3 657.199 3181.2 656.199 3181.2 655.199C3181.2 614.599 3181.2 574.099 3181.2 533.499C3181.2 526.399 3181.5 526.5 3187.3 526.1C3192.3 525.8 3193.5 527.799 3193.4 532.499C3193.2 548.499 3193.3 564.399 3193.3 580.399C3193.3 582.699 3193 585.099 3194.1 587.299C3197 588.899 3198.3 586.199 3199.9 584.999C3216.6 572.899 3237.8 572.599 3253.8 584.399C3268.8 595.399 3275 615.699 3269 634.499C3260.3 661.699 3226.9 673.199 3202.9 657.499C3200.3 655.699 3198.4 652.399 3194.8 652.399ZM3226.5 653.199C3245.1 653.099 3258.4 639 3258.1 619.6C3257.8 600.5 3244.8 586.999 3226.6 586.899C3207.4 586.799 3193 600.999 3193 619.999C3192.9 638.999 3207.3 653.299 3226.5 653.199Z" fill="white"/>
<path d="M2070.8 590.1C2070.8 578.5 2070.8 568.599 2070.8 558.699C2070.8 549.999 2071 541.399 2070.7 532.699C2070.6 528.299 2071.3 525.799 2076.6 525.999C2081 526.199 2083.1 527.099 2083.1 532.199C2082.9 573.499 2083 614.8 2083 656.1C2083 663 2082.8 662.999 2072.2 662.299C2069.2 659.599 2072.4 655.1 2068.7 651.6C2056.2 662.8 2041.4 667.1 2024.7 662.6C2014.7 659.9 2006.5 654.399 2000.6 645.799C1988.4 628.099 1990.7 602.599 2005.8 587.899C2022.9 571.499 2046.8 571.8 2070.8 590.1ZM2071.1 619.799C2071 600.899 2056.4 586.799 2037.2 586.999C2019 587.199 2006.1 600.799 2006 619.899C2005.9 639.399 2019.2 653.299 2037.9 653.199C2057 653.099 2071.2 638.799 2071.1 619.799Z" fill="white"/>
<path d="M2236.9 649.5C2224 661.4 2210.9 666.4 2195.4 663.7C2184.5 661.8 2175.3 656.9 2168.3 648.2C2154.5 631 2155.9 604.2 2171.2 588.7C2188.1 571.5 2212.7 571.599 2235.2 588.899C2238 587.499 2236.8 584.8 2236.8 582.7C2236.9 566.1 2236.8 549.4 2236.9 532.8C2236.9 526.9 2241.1 524.4 2246.7 526.5C2249.2 527.4 2249 529.399 2249 531.399C2249 540.099 2249 548.699 2249 557.399C2249 589.999 2249 622.6 2249 655.2C2249 662.6 2247.1 664.1 2240.3 663C2237.8 662.6 2236.9 661.4 2236.9 659.1C2236.9 656.7 2236.9 654.3 2236.9 649.5ZM2203.9 586.899C2185.2 586.799 2172 600.7 2172.1 620.3C2172.2 639.4 2185.1 653 2203.3 653.2C2222.5 653.4 2237 639.3 2237.1 620.3C2237.2 601.2 2223.1 586.999 2203.9 586.899Z" fill="white"/>
<path d="M1814.3 587.4C1817.7 587 1818.9 584.8 1820.7 583.4C1829.8 576.7 1839.7 574.3 1850.9 576.5C1862.7 578.8 1869.7 585.9 1872.5 597.3C1873.1 599.9 1873.6 602.6 1873.6 605.2C1873.8 622.5 1873.7 639.8 1873.9 657.2C1874 661.4 1872.6 663.1 1868.2 663C1863.8 662.9 1861.4 662.2 1861.5 657C1861.8 645 1861.6 633 1861.6 621C1861.6 616 1861.7 611 1860.9 606.1C1859.7 598.3 1857.2 591.1 1848.5 588.3C1839.6 585.5 1831.3 586.6 1824.1 592.6C1819.4 596.5 1816.3 601.6 1814.8 607.6C1813.6 612.8 1813.4 618.1 1813.4 623.5C1813.5 635.2 1813.3 646.8 1813.5 658.5C1813.6 663.1 1810.7 662.9 1807.6 662.9C1804.5 662.9 1801.3 663.2 1801.4 658.6C1801.4 657.3 1801.4 655.9 1801.4 654.6C1801.4 614.3 1801.4 574 1801.4 533.7C1801.4 529.4 1801.2 525.8 1807.4 526C1812.1 526.1 1813.8 527.3 1813.7 532.3C1813.4 547.3 1813.6 562.3 1813.6 577.3C1813.4 580.6 1812.8 583.9 1814.3 587.4Z" fill="white"/>
<path d="M2321 624.1C2311.4 624.1 2301.7 624.2 2292.1 624C2287.3 623.9 2286.5 626 2287.5 630.2C2292.7 650.8 2317.7 660 2335.5 647.7C2337.7 646.2 2339.8 644.5 2341.5 642.5C2344.5 639 2346.5 641.2 2349 643C2352.2 645.3 2353.5 647.1 2350.1 650.8C2336.5 665.6 2310.9 668.7 2293.2 657.5C2275.9 646.5 2268.8 623 2276.7 602.7C2284.4 583 2304.3 572.2 2325 576.6C2347.6 581.3 2356.6 600.7 2356.7 619.2C2356.7 623.5 2354.3 624 2350.9 624C2341 624 2331 624.1 2321 624.1ZM2287.5 612.5C2306.4 612.5 2324.5 612.5 2342.7 612.5C2342.5 597 2333.7 587.8 2318.9 587C2302.3 586 2289.1 596.5 2287.5 612.5Z" fill="white"/>
<path d="M3517.8 640.2C3529.8 647 3526.8 648.3 3519.1 654.7C3505.1 666.4 3483.4 667.6 3467.6 658.2C3452.1 648.9 3444.1 629.7 3447.8 610.6C3451.4 592.2 3465 579 3483.3 576.2C3509.3 572.2 3531.6 592.8 3530 619.1C3529.7 624.1 3527 624.1 3523.4 624.1C3505.4 624.1 3487.5 624.1 3469.5 624.1C3459.4 624.1 3458.5 625.7 3462.6 634.9C3470.9 653.5 3494.1 659.2 3510.5 646.7C3513.2 644.7 3515.5 642.3 3517.8 640.2ZM3461.3 612.3C3479.7 612.3 3498 612.3 3516.3 612.3C3517.4 597.7 3505.2 586.1 3488.9 586.9C3473.6 587.6 3461.6 598.4 3461.3 612.3Z" fill="white"/>
<path d="M1444.9 624.1C1435.6 624.1 1426.3 624 1417 624.1C1409.8 624.2 1409 625.499 1411.3 632.399C1417.7 651.799 1441.7 659.5 1458.8 647.6C1460.2 646.7 1461.4 645.599 1462.7 644.499C1468 639.899 1469.3 639.999 1473.8 644.399C1475.5 646.099 1476.1 647.499 1474.4 649.399C1473.9 649.899 1473.5 650.399 1473 650.899C1459.4 665.799 1433.8 668.699 1416.1 657.399C1398.5 646.099 1391.6 621.999 1400.2 601.699C1408.4 582.199 1428.4 572 1449.1 576.8C1468.1 581.2 1481.1 599.6 1479.6 619.3C1479.3 623.6 1477.2 623.999 1473.8 623.999C1464.2 623.999 1454.6 624.1 1444.9 624.1ZM1465.8 612.999C1465.3 597.299 1457.3 588.399 1443.2 586.999C1428.3 585.599 1413.4 595.099 1410.6 607.699C1409.9 610.699 1410 612.999 1414 612.999C1431.3 612.999 1448.5 612.999 1465.8 612.999Z" fill="white"/>
<path d="M1250 624.1C1240.7 624.1 1231.4 624 1222.1 624.2C1215.9 624.3 1215.3 625.4 1217 631.4C1222.5 651 1246.5 659.7 1263.9 648.3C1265.8 647 1268 645.7 1269.3 643.9C1272.7 639.1 1275.5 640.9 1279 643.8C1282.3 646.5 1281.8 648.4 1279.1 651C1266 663.8 1250.3 667.4 1233.1 662.5C1216.2 657.7 1206.3 645.5 1203.4 628.4C1198.9 602.5 1214.6 580 1239.3 576.3C1262.3 572.9 1286.2 588.1 1285.7 619.4C1285.6 623.7 1283.5 624.2 1280 624.2C1270 624 1260 624.1 1250 624.1ZM1271.9 612.4C1271 597.2 1263.5 588.7 1250 587.1C1235.2 585.4 1220.3 594.3 1216.9 607C1215.6 611.8 1216.2 612.9 1221.4 613C1229 613.2 1236.7 613.2 1244.3 613C1253.4 612.8 1262.7 613.8 1271.9 612.4Z" fill="white"/>
<path d="M3338.6 624.099C3328.6 624.099 3318.6 624.099 3308.7 624.099C3304.1 624.099 3303.2 625.999 3304.3 630.399C3309.3 650.199 3332.9 659.699 3350.7 648.899C3353 647.499 3355 645.799 3357 643.999C3361.1 640.499 3366.4 641.299 3368.8 645.799C3370.1 648.199 3368.2 649.499 3366.8 650.799C3353.8 663.699 3338.1 667.299 3320.9 662.399C3304.4 657.699 3294.5 645.999 3291.3 629.299C3286.1 602.599 3302.3 579.199 3327.9 575.999C3351.8 573.099 3373.8 589.499 3373.4 619.199C3373.3 623.499 3371.1 624.099 3367.7 624.099C3357.9 623.999 3348.3 624.099 3338.6 624.099ZM3358.9 612.699C3359.5 597.399 3350.3 587.599 3334.9 586.999C3318.2 586.299 3305 597.299 3304.3 612.699C3322.5 612.699 3340.7 612.699 3358.9 612.699Z" fill="white"/>
<path d="M2761 624.1C2752 624.1 2743 624 2734.1 624.1C2725.8 624.2 2724.9 625.6 2728 633.5C2735 652 2757.7 659.2 2774.4 648.2C2776.3 646.9 2778 645.3 2779.8 643.8C2783.8 640.3 2787.7 640.9 2790.9 645.3C2791.8 646.5 2792 647.7 2791.1 648.9C2790.5 649.7 2789.8 650.4 2789.1 651.1C2775.4 665.9 2749.8 668.8 2732.2 657.4C2714.7 646.1 2707.9 621.9 2716.5 601.6C2724.7 582.2 2744.8 572 2765.5 576.9C2786.3 581.9 2796.1 600 2795.9 619.5C2795.8 623 2794.2 624.1 2791 624C2781 624 2771 624.1 2761 624.1ZM2727.2 613.1C2745.6 613 2763.9 613.3 2782.4 612.9C2780.5 594.6 2770.4 586 2753.6 587C2738.7 587.9 2727.2 599 2727.2 613.1Z" fill="white"/>
<path d="M2505.1 624.1C2495.8 624.1 2486.4 624 2477.1 624.1C2469.9 624.2 2469.1 625.5 2471.5 632.5C2477.9 651.6 2501.3 659.4 2518.4 648.1C2520.6 646.6 2522.8 645 2524.4 642.9C2527 639.6 2529.1 640.5 2531.8 642.7C2536.5 646.6 2536.7 647 2532.9 651.1C2519.1 666 2493.4 668.7 2475.9 657.2C2458.4 645.7 2451.8 621.4 2460.6 601.2C2469 581.8 2489.3 571.9 2510 577C2528.5 581.6 2541.1 599.7 2539.8 619.2C2539.5 623.4 2537.6 624.1 2534.1 624C2524.4 624 2514.7 624.1 2505.1 624.1ZM2526 613C2525.2 597.4 2517.6 588.7 2504.1 587.1C2489.3 585.3 2474.4 594.2 2470.9 606.9C2469.6 611.7 2470.2 612.8 2475.2 613C2480.2 613.2 2485.2 613 2490.2 613C2502.2 613 2514.1 613 2526 613Z" fill="white"/>
<path d="M3838.4 661.999C3827.6 663.199 3827.6 663.2 3825.1 652.8C3822.5 651.7 3821.7 654 3820.3 655.3C3810 664.9 3797.8 666.2 3784.9 662.8C3774.7 660.1 3767.9 651.999 3767 642.399C3765.9 631.399 3769.7 622.799 3779.5 617.199C3785.3 613.799 3791.7 611.899 3798.4 611.199C3804.7 610.599 3811 610.199 3817.3 609.899C3825.3 609.499 3826.4 608.1 3824.2 600.3C3821.9 592.2 3816.3 588.199 3808.3 587.199C3800.2 586.199 3792.4 587.5 3785.1 591.3C3777 595.5 3777 595.5 3771.5 588.1C3783.3 575 3811.5 571.3 3825.6 581.3C3833.2 586.7 3836.8 594.399 3837.1 603.499C3837.4 611.799 3837.2 620.099 3837.3 628.499C3837.3 639.399 3836.9 650.299 3838.4 661.999ZM3812.6 620.999C3805.2 621.399 3795.9 621.9 3787.5 626.6C3782.7 629.2 3780 633 3780.1 638.6C3780.2 644.6 3783.3 648.5 3788.5 651.1C3803.6 658.4 3821.6 649.2 3824.6 632.8C3826.6 621.8 3825.8 620.799 3812.6 620.999Z" fill="white"/>
<path d="M4354.6 649.3C4347.6 658.4 4340.2 663 4330.8 664.1C4325.1 664.8 4319.4 664.5 4314 662.7C4304.1 659.4 4297.4 653.1 4296.2 642.1C4295.1 631.1 4298.9 622.5 4308.7 617C4314.6 613.7 4320.9 611.7 4327.6 611.1C4333.6 610.5 4339.5 610.1 4345.5 609.9C4354.5 609.5 4355.7 607.7 4352.8 599C4350.3 591.4 4344.5 588 4337.1 587.1C4327.9 586.1 4319.3 588 4311.3 592.9C4307.3 595.4 4301.9 593 4300.9 588.6C4300.4 586.5 4301.9 585.7 4303.2 584.6C4314.2 575.2 4340.1 572.6 4352.6 579.8C4362.6 585.6 4366.2 594.9 4366.5 605.8C4366.7 616.4 4366.5 627.1 4366.6 637.7C4366.6 643.4 4367 649 4366.8 654.7C4366.7 657.7 4370 662.4 4363.3 662.8C4356.9 663.2 4356.2 662.7 4355.3 656C4355.2 654.8 4355.1 653.5 4354.6 649.3ZM4328.4 653.2C4344.5 653.5 4355.3 642 4354.5 625.9C4354.3 622.7 4353.5 621 4350 621C4341 620.9 4332 621.3 4323.3 623.8C4313.1 626.8 4308.2 633 4309.4 640.5C4310.6 647.9 4317.5 652.7 4327.4 653.2C4327.7 653.2 4328 653.2 4328.4 653.2Z" fill="white"/>
<path d="M3103.5 620.5C3103.3 646.2 3084.2 664.7 3058.1 664.4C3032.7 664.1 3014 645.4 3014 620.1C3014 594.5 3033.2 575.5 3059 575.7C3084.9 575.8 3103.6 594.7 3103.5 620.5ZM3058.3 653.2C3077 653.4 3090.6 639.4 3090.6 620C3090.6 601 3077.4 587.1 3059.3 586.9C3040.5 586.7 3027.2 600.4 3027.2 620.1C3027.1 639.3 3040.1 653 3058.3 653.2Z" fill="white"/>
<path d="M3952.6 620.1C3952.6 645.7 3933.5 664.6 3907.5 664.5C3882 664.4 3863.2 645.9 3863 620.6C3862.8 594.8 3881.6 575.8 3907.5 575.7C3933.4 575.6 3952.6 594.4 3952.6 620.1ZM3908.2 653.2C3926.8 653 3939.8 638.8 3939.4 619.2C3939 600.1 3925.8 586.8 3907.4 587C3888.7 587.1 3875.9 601.1 3876.3 621C3876.7 640.3 3889.7 653.4 3908.2 653.2Z" fill="white"/>
<path d="M4210.9 587.7C4214.6 586.8 4215.9 584.2 4218.1 582.7C4228.7 575.3 4240.2 573.8 4252.3 577.8C4259.3 580.1 4264.2 584.9 4267.1 591.7C4269.2 596.7 4270.2 601.9 4270.3 607.3C4270.5 623.6 4270.5 639.9 4270.4 656.3C4270.4 662.7 4269.8 662.8 4263.5 663C4258.8 663.2 4257.9 661 4258 657C4258.1 644.3 4258.1 631.7 4258 619C4258 614.7 4257.8 610.3 4257.2 606.1C4256.1 598.2 4253.5 591.1 4244.9 588.3C4235.6 585.4 4227.1 586.7 4219.7 593.3C4215.1 597.4 4212 602.5 4211.1 608.7C4210.4 613.3 4210.1 618 4210 622.6C4209.9 633.9 4209.8 645.3 4210 656.6C4210.1 661.3 4208.6 663.2 4203.7 663C4199.7 662.8 4197.2 662.1 4197.6 657.5C4197.8 655.5 4197.6 653.5 4197.6 651.5C4197.4 629.5 4197.3 607.5 4197.1 585.5C4197.1 582.8 4195.8 579.4 4200.7 578.9C4206.7 578.3 4208.3 579.1 4209.7 584.5C4210.2 585.5 4210.5 586.4 4210.9 587.7Z" fill="white"/>
<path d="M2435.4 590.6C2433.2 592.2 2431.5 593.3 2430 594.6C2426.8 597.2 2424.5 596.9 2421.8 593.5C2415.4 585.4 2403.3 585.6 2396.2 589.3C2392 591.5 2389.5 594.9 2389.6 599.6C2389.6 604.4 2392.1 607.7 2396.5 609.6C2402.3 612.2 2408.5 613.4 2414.7 614.9C2419.2 616 2423.8 617.1 2427.8 619.6C2441.8 628.4 2442.6 647.5 2429.5 657.5C2416 667.8 2390.5 666.2 2378.6 654.1C2376.7 652.1 2372.1 650.3 2375.9 646.2C2380 641.8 2383.5 641.4 2387.2 645.1C2395.4 653.3 2405 654.9 2415.7 651.4C2421.2 649.6 2425 646.3 2425.3 640.1C2425.6 634.5 2423.3 631.5 2416.1 628.8C2411.8 627.2 2407.2 626.2 2402.7 625C2397.9 623.8 2392.9 622.8 2388.5 620.4C2375.5 613.5 2372.5 596.6 2382.1 585.5C2395.1 570.6 2424 572.9 2435.4 590.6Z" fill="white"/>
<path d="M2815.1 648.2C2817.3 645.1 2820.6 643.6 2823.7 641.8C2826.8 642.9 2828.1 645.8 2830.4 647.7C2839.2 654.6 2848.8 654.9 2858.6 650.8C2863.2 648.9 2865.9 645.1 2866 639.9C2866.1 634.5 2862.9 631.2 2858.1 629.6C2853.4 628 2848.6 626.7 2843.8 625.4C2839 624.2 2834 623.2 2829.6 620.9C2815.2 613.5 2812.7 595.1 2824.4 584.1C2835.3 573.9 2858.4 573.1 2869.9 582.6C2877.1 588.6 2877.1 590.5 2869.5 595.4C2868.7 595.9 2867.7 596.3 2866.7 596.9C2863.8 596.4 2862.9 593.5 2861 591.9C2854.4 586.5 2843.9 585.5 2836.6 589.7C2832.5 592.1 2830.2 595.4 2830.4 600.3C2830.6 604.7 2832.7 607.7 2836.7 609.7C2842.5 612.5 2848.7 613.7 2854.8 615.1C2859.7 616.3 2864.5 617.4 2868.8 620.2C2881.9 628.8 2883.2 646.7 2871.2 656.9C2856.2 669.7 2822.5 665.9 2815.1 648.2Z" fill="white"/>
<path d="M3627.4 662C3617.9 665 3611.2 662.2 3605.7 653.7C3599.8 644.6 3592.5 636.3 3585.4 627.1C3581.4 629.6 3579.6 633.2 3577.3 636.2C3572.8 642 3567.9 647.6 3564.4 654C3559.7 662.4 3553.1 664.3 3544.4 662.3C3543.8 659.2 3546.4 657.6 3547.9 655.6C3555.8 645.3 3563.8 635.1 3571.7 624.8C3577.8 616.8 3577.3 618.7 3571.9 611.6C3565.2 602.9 3558.3 594.3 3551.6 585.6C3550.2 583.8 3548.4 582.3 3548.2 579.8C3551.3 578.4 3554.4 579.4 3557.3 579C3561.5 578.4 3564.1 580.3 3566.5 583.6C3570.7 589.6 3575.1 595.4 3579.6 601.2C3581.6 603.8 3583 606.9 3586.6 608.5C3592.7 602.4 3597.5 595.1 3601.9 587.8C3606.8 579.8 3612.7 576.8 3622.5 580.1C3615.4 589.6 3608.4 598.8 3601.6 608.1C3592.9 620 3593 616 3602 627.8C3609.3 637.3 3616.9 646.6 3624.2 656.1C3625.5 657.9 3627.8 659.3 3627.4 662Z" fill="white"/>
<path d="M1782.1 590.3C1780.2 592 1778.6 593.2 1777.2 594.5C1774.5 597 1772.3 597 1769.7 594.2C1765.4 589.7 1760 587.4 1753.7 587C1736.9 585.8 1723.8 596 1721 612.6C1719.9 619.2 1720.1 625.9 1722.1 632.3C1728.6 652.5 1752.3 660.1 1768.7 646.6C1773 643.1 1775.2 644.1 1778.7 646.7C1782 649.2 1781.9 651.1 1779 653.7C1767.3 663.9 1753.7 666.4 1738.9 663C1721 658.8 1708.9 644.2 1707.3 625.1C1705.5 604 1714.9 586.8 1732.2 579.4C1749.7 571.9 1768.8 575.8 1782.1 590.3Z" fill="white"/>
<path d="M1301.3 580.299C1303 578.799 1304.7 578.999 1306.3 578.999C1314.8 578.799 1314.8 578.799 1317.8 586.499C1324.3 603.599 1330.8 620.699 1337.4 637.799C1338.6 640.799 1339 644.299 1341.8 646.799C1344.3 644.899 1344.7 641.899 1345.7 639.299C1352.2 622.499 1358.5 605.699 1364.9 588.899C1368.8 578.599 1368.8 578.599 1380.7 579.499C1382.1 581.099 1381 582.599 1380.4 583.999C1370.6 607.999 1360.7 631.999 1351 656.099C1349.2 660.499 1347.3 663.099 1341.8 663.099C1336.1 663.199 1333.7 660.999 1331.7 655.999C1322.4 632.499 1312.7 609.099 1303.1 585.699C1302.4 583.899 1301.9 581.999 1301.3 580.299Z" fill="white"/>
<path d="M2617.9 579.8C2620 578.6 2622.5 579.3 2624.7 579C2629.5 578.3 2631.7 580.5 2633.4 585C2640.2 603.4 2647.3 621.7 2654.3 640.1C2655.2 642.6 2655.7 645.2 2657.9 647.2C2661 643.8 2661.7 639.4 2663.3 635.4C2669.3 619.9 2675.2 604.3 2681.1 588.8C2685 578.6 2685 578.6 2697.1 579.8C2698.1 582.6 2696.2 584.8 2695.2 587.1C2685.8 610.2 2676.3 633.3 2667.1 656.5C2665.3 661.1 2663 663.3 2657.7 663.2C2652.6 663.1 2650.1 661.6 2648.1 656.7C2638.5 632.6 2628.6 608.6 2618.8 584.5C2618.3 583 2617.4 581.5 2617.9 579.8Z" fill="white"/>
<path d="M2997.8 651.2C2999.5 661.8 2999.3 662.3 2989.8 663.8C2988.5 664 2987.2 664.2 2985.8 664.3C2970.8 665.2 2962.4 657.9 2962 642.8C2961.6 628.8 2961.9 614.9 2961.9 600.9C2961.9 589.9 2963.4 589.5 2951.5 589.7C2950.5 589.7 2949.5 589.6 2948.5 589.7C2943.8 589.9 2944.4 586.5 2944.3 583.5C2944.1 580.2 2945.5 578.5 2948.9 578.8C2949.2 578.8 2949.6 578.8 2949.9 578.8C2961.9 578.1 2961.9 578.1 2961.9 566.4C2961.9 564.4 2962.1 562.4 2961.9 560.4C2961.4 555.9 2962.8 553.7 2967.9 553.8C2972.4 553.9 2974.7 555 2974.3 560C2974 564.3 2974.4 568.6 2974.2 573C2974 577.2 2975.4 579.1 2979.9 578.9C2984.5 578.6 2989.2 579 2993.9 578.8C2998.3 578.7 2998.5 581.4 2998.5 584.7C2998.5 587.9 2997.6 589.8 2994 589.7C2989 589.6 2984 589.8 2979 589.7C2975.7 589.7 2974.2 591.1 2974.2 594.5C2974.3 610.5 2974 626.4 2974.5 642.4C2974.7 650.2 2979.2 653.5 2987.1 653C2990.8 652.9 2994.3 651.9 2997.8 651.2Z" fill="white"/>
<path d="M3688.2 651.1C3690.6 661.6 3690.2 662.199 3680.7 663.899C3676.1 664.699 3671.4 664.7 3666.9 663.5C3658.1 661.1 3653.2 654.7 3653 644.1C3652.7 630.1 3652.9 616.199 3652.9 602.199C3652.9 599.899 3652.8 597.499 3652.9 595.199C3653.1 591.399 3651.3 589.799 3647.6 589.899C3645.3 589.999 3642.9 589.799 3640.6 589.899C3636.1 590.199 3634.8 588.099 3635 583.899C3635.1 580.699 3636 579.2 3639.5 578.8C3643.9 578.3 3649.8 581.5 3652.3 576.6C3654.1 573.1 3652.8 568.1 3652.9 563.8C3652.9 562.5 3653 561.1 3652.9 559.8C3652.5 555.6 3654.1 553.799 3658.5 553.899C3662.8 553.899 3665.6 554.699 3665.1 559.899C3664.7 564.199 3665.3 568.599 3665 572.899C3664.6 577.899 3666.9 579.3 3671.5 579C3675.8 578.7 3680.1 579.099 3684.5 578.899C3688.7 578.699 3689.3 581 3689.4 584.5C3689.5 588.3 3688.1 589.999 3684.2 589.899C3679.9 589.799 3675.5 590.1 3671.2 589.8C3666.3 589.5 3664.9 591.6 3665 596.3C3665.2 610.6 3664.9 624.899 3665.2 639.199C3665.4 650.699 3670.6 654.8 3681.8 652.8C3683.8 652.3 3685.9 651.7 3688.2 651.1Z" fill="white"/>
<path d="M1519.1 587.6C1522.1 587.2 1523.1 584.4 1525.1 582.8C1531 577.9 1537.7 575.599 1545.3 575.699C1552.8 575.799 1554.1 577.8 1552.2 584.8C1551.3 588 1549.5 588.499 1546.4 588.699C1527.2 589.699 1518.6 598.999 1518.5 618.499C1518.4 631.099 1518.6 643.699 1518.4 656.399C1518.3 662.899 1517.8 663 1511.6 663.1C1508 663.1 1506 662.199 1506.1 658.199C1506.3 652.899 1506.2 647.6 1506.1 642.3C1505.9 623.7 1505.7 605.099 1505.6 586.499C1505.6 583.599 1503.9 579.6 1509.5 579.1C1515.1 578.7 1516.2 579.299 1517.5 585.499C1517.6 586.099 1518 586.699 1518.3 587.199C1518.5 587.299 1518.8 587.4 1519.1 587.6Z" fill="white"/>
<path d="M3708.8 579.9C3718.7 578.4 3718.7 578.4 3721.2 588.6C3724.1 588 3725 585.1 3726.9 583.4C3732.9 578 3740 575.5 3747.9 575.7C3750.9 575.8 3755.1 574.7 3755.3 579.9C3755.6 586.1 3753.7 588.7 3747.7 588.4C3731.4 587.4 3720.6 602.2 3720.8 615.6C3721 629.2 3720.7 642.9 3720.9 656.5C3721 661.2 3719.6 662.9 3714.7 662.9C3709.8 662.9 3708.5 661.2 3708.5 656.5C3708.5 631.5 3708.3 606.6 3708.1 581.6C3708.2 581.2 3708.6 580.5 3708.8 579.9Z" fill="white"/>
<path d="M2579.1 587.699C2582.3 587.099 2583.4 584.399 2585.4 582.699C2591.3 577.799 2598.1 575.499 2605.6 575.699C2608.6 575.799 2612.7 574.799 2613 579.999C2613.3 585.799 2611.1 588.799 2605.4 588.399C2589.5 587.399 2578.3 601.899 2578.6 615.599C2578.9 629.199 2578.7 642.799 2578.6 656.399C2578.5 662.699 2577.9 662.899 2571.7 662.899C2567.9 662.899 2566.1 661.699 2566.4 657.799C2566.5 656.499 2566.4 655.099 2566.4 653.799C2566.2 631.199 2566 608.699 2565.8 586.099C2565.7 579.399 2568.5 577.299 2574.8 578.999C2579.5 580.299 2576 585.099 2579.1 587.699Z" fill="white"/>
<path d="M4411.2 590.2C4414.2 587 4415.9 585 4417.8 583.3C4424.1 577.7 4431.5 575.3 4439.8 575.8C4442.6 576 4446.1 575.5 4446.1 580.2C4446 585.9 4444.1 588.3 4439.2 588.6C4420.8 589.6 4411.6 599.2 4411.4 617.8C4411.3 630.8 4411.2 643.7 4411.5 656.7C4411.6 661.3 4410.5 663.3 4405.4 663.2C4400.7 663.1 4399.1 661.7 4399.1 656.9C4399.2 633 4399 609.1 4398.8 585.2C4398.8 581.4 4399.1 578.9 4403.9 579.1C4408 579.3 4411.4 579.3 4410.7 584.8C4410.6 585.9 4410.9 587.2 4411.2 590.2Z" fill="white"/>
<path d="M1965.2 595.199C1965.2 615.499 1965.3 635.699 1965.2 655.999C1965.2 662.799 1964.3 663.299 1957.8 662.999C1954.5 662.799 1952.9 661.599 1953.1 658.299C1953.2 657.299 1953.1 656.299 1953.1 655.299C1953.1 614.799 1953.1 574.299 1953.1 533.699C1953.1 529.399 1952.8 525.8 1959.1 526.1C1963.8 526.3 1965.5 527.599 1965.4 532.399C1965.1 553.299 1965.2 574.199 1965.2 595.199Z" fill="white"/>
<path d="M3979 579.8C3988.7 578.6 3988.7 578.6 3991.4 588.7C3994.2 587.9 3995.1 585.1 3997.1 583.4C4003.1 578.1 4010.2 575.5 4018.1 575.8C4021.1 575.9 4025.2 574.9 4025.4 580.2C4025.6 586.5 4023.8 588.4 4017.7 588.6C4001.4 589.3 3991.3 599.3 3991 615.8C3990.7 629.1 3991 642.4 3990.9 655.7C3990.8 662.6 3989.4 663.7 3982.7 663C3979.7 662.7 3978.7 661.2 3978.8 658.5C3978.8 656.2 3978.8 653.8 3978.8 651.5C3978.6 629.6 3978.5 607.6 3978.3 585.7C3978.3 583.6 3977.9 581.6 3979 579.8Z" fill="white"/>
<path d="M4166.3 621.699C4166.3 633.299 4166.1 644.999 4166.4 656.599C4166.5 661.399 4164.8 662.899 4160.1 662.999C4155.1 663.099 4153.9 661.099 4154 656.499C4154.2 632.499 4154.1 608.599 4154 584.599C4154 580.299 4155.4 578.699 4159.7 578.799C4164 578.799 4166.5 579.499 4166.4 584.699C4166.1 597.099 4166.3 609.399 4166.3 621.699Z" fill="white"/>
<path d="M1906.6 661.399C1906.6 648.999 1906.6 636 1906.6 623.1C1906.6 610.1 1906.8 597.1 1906.5 584.1C1906.4 579.2 1909 578.899 1912.7 578.899C1916.6 578.899 1918.9 579.6 1918.8 584.3C1918.6 608.6 1918.7 632.899 1918.8 657.199C1918.8 661.499 1917.3 663.299 1913 662.899C1911.1 662.699 1909 663.299 1906.6 661.399Z" fill="white"/>
<path d="M1921.1 546C1920.8 550.8 1916.4 554.6 1911.6 554C1907.1 553.5 1903.6 549.5 1903.9 545.2C1904.2 540.5 1908.8 536.6 1913.5 537.2C1917.9 537.6 1921.4 541.6 1921.1 546Z" fill="white"/>
<path d="M4160 537.099C4164.7 536.999 4168.9 541.399 4168.7 545.999C4168.5 550.299 4164.5 554.099 4160.1 554.099C4155.8 554.099 4151.7 550.399 4151.4 546.199C4151.1 541.599 4155.3 537.199 4160 537.099Z" fill="white"/>
</svg>
