<svg height="512pt" viewBox="-50 0 512 512.00017" width="512pt" xmlns="http://www.w3.org/2000/svg"><path d="m105.984375 136c5.519531 0 10-4.480469 10-10 0-5.613281-4.589844-10-10-10-5.519531 0-10 4.480469-10 10 0 5.476562 4.4375 10 10 10zm0 0"/><path d="m125.984375 246c-5.523437 0-10 4.476562-10 10s4.476563 10 10 10h160c5.523437 0 10-4.476562 10-10s-4.476563-10-10-10c0-35.199219-22.636719-64.796875-53.703125-75.582031 2.359375-4.28125 3.703125-9.195313 3.703125-14.417969 0-16.542969-13.457031-30-30-30s-30 13.457031-30 30c0 5.238281 1.351563 10.164062 3.722656 14.457031-31.242187 10.894531-53.722656 40.636719-53.722656 75.542969zm70-90c0-5.515625 4.484375-10 10-10 5.511719 0 10 4.484375 10 10s-4.488281 10-10 10c-5.515625 0-10-4.484375-10-10zm10 30c33.097656 0 60 26.78125 60 60h-120c0-33.082031 26.914063-60 60-60zm0 0"/><path d="m7.363281 214.910156 10.113281 16.402344-5.921874 18.40625c-7.082032 22.019531 1.855468 45.609375 21.714843 57.363281l16.382813 9.71875 3.222656 18.941407c2.789062 16.363281 13.347656 29.757812 27.738281 36.386718l-44.808593 74.730469c-4.335938 7.238281 1.722656 16.300781 10.082031 15.027344l55.394531-8.433594 20.386719 52.1875c3.027343 7.75 13.65625 8.625 17.910156 1.472656l62.796875-105.582031 3.480469-1.53125h.304687l3.390625 1.488281 62.21875 105.589844c4.21875 7.160156 14.890625 6.339844 17.929688-1.4375l20.390625-52.1875 55.390625 8.433594c8.332031 1.269531 14.402343-7.738281 10.109375-14.984375l-44.292969-74.742188c14.457031-6.625 25.042969-20.03125 27.828125-36.414062l3.234375-18.929688 16.363281-9.710937c19.878906-11.777344 28.8125-35.367188 21.734375-57.363281l-5.925781-18.433594 10.121094-16.4375c12.078125-19.640625 9.046875-44.640625-7.363282-60.785156l-13.695312-13.523438 1.367188-19.210938c1.667968-23.109374-12.667969-43.921874-34.875-50.617187l-18.0625-5.429687-7.585938-17.492188c-7.808594-18-25.523438-29.632812-45.132812-29.632812-6.785157 0-10 1.097656-28.007813 4.359374-9.746094-6.449218-21.160156-22.539062-45.28125-22.539062-22.308594 0-34.179687 13.890625-45.367187 22.644531-18.101563-3.28125-20.914063-4.476562-27.976563-4.476562-19.570313 0-37.273437 11.628906-45.105469 29.636719l-7.570312 17.488281-18.089844 5.433593c-22.191406 6.714844-36.523438 27.523438-34.855469 50.589844l1.367188 19.261719-13.679688 13.457031c-16.429687 16.175782-19.464843 41.203125-7.375 60.875zm125.488281 264.390625-15.855468-40.578125c-1.699219-4.359375-6.199219-6.953125-10.820313-6.25l-42.289062 6.441406 37.304687-62.210937 16.480469.839844 11.40625 14.992187c9.226563 12.191406 23.878906 19.464844 39.195313 19.464844 1.597656 0 3.175781-.085938 4.746093-.234375zm172.339844-46.824219c-4.625-.703124-9.121094 1.890626-10.820312 6.246094l-15.8125 40.476563-39.746094-67.453125c1.625.164062 3.265625.257812 4.921875.257812 15.269531 0 29.910156-7.253906 39.1875-19.417968l11.425781-15.0625 16.390625-.820313 36.878907 62.234375zm-276.425781-264.1875 14.601563-14.359374c.035156-.035157.070312-.070313.101562-.105469 3.523438-3.566407 5.339844-8.453125 4.988281-13.402344l-1.460937-20.53125c-.988282-13.6875 7.523437-26.03125 20.683594-30.011719l19.300781-5.796875c4.820312-1.410156 8.753906-4.882812 10.832031-9.597656l8.101562-18.714844c4.648438-10.691406 15.152344-17.597656 26.761719-17.597656 6.171875 0 21.917969 4.121094 27.511719 4.636719.316406.03125.640625.046875.953125.042968 6.738281-.023437 10.152344-2.929687 15.816406-7.757812 11.183594-9.546875 18.082031-15.09375 29.058594-15.09375 15.328125 0 21.964844 10.710938 33.945313 19.089844 3.875 3.101562 8.847656 4.214844 12.082031 3.632812 20.238281-3.617187 22.589843-4.542968 27.261719-4.542968 11.636718 0 22.148437 6.90625 26.785156 17.589843l8.125 18.742188c2.054687 4.621093 5.976562 8.101562 10.789062 9.566406l19.3125 5.808594c13.175782 3.96875 21.683594 16.316406 20.691406 30.035156l-1.453124 20.46875c-.382813 5.019531 1.449218 9.929687 5.035156 13.46875l14.660156 14.46875c9.738281 9.582031 11.53125 24.414063 4.371094 36.058594l-10.820313 17.570312c-2.628906 4.300781-3.242187 9.515625-1.699219 14.273438l6.316407 19.632812c4.199219 13.054688-1.101563 27.046875-12.898438 34.039063l-17.53125 10.402344c-4.359375 2.601562-7.328125 6.957031-8.132812 11.882812l-3.449219 20.195312c-2.109375 12.417969-11.753906 21.941407-24.074219 23.875-.371093.03125-.742187.089844-1.113281.164063-.699219.085937-1.410156.152344-2.183594.191406l-19.96875.996094c-5.070312.238281-9.75 2.699219-12.859375 6.773437l-12.207031 16.09375c-5.5 7.214844-14.199219 11.523438-23.265625 11.523438-4.289063 0-8.425781-.925781-12.292969-2.757812-.089844-.042969-.175781-.082032-.265625-.121094-18.898437-8-19.332031-9.121094-22.921875-9.121094h-4.5c-3.625 0-4.539062 1.339844-22.929687 9.152344-3.875 1.71875-7.429688 2.847656-12.550781 2.847656-9.089844 0-17.777344-4.3125-23.261719-11.554688l-12.191407-16.023437c-3.097656-4.101563-7.828124-6.578125-12.886718-6.789063-28.191406-1.476562-17.480469-.789062-23.128906-1.34375-12.375-1.875-22.085938-11.433593-24.214844-23.90625l-3.429688-20.148437c-.808594-4.898437-3.722656-9.21875-8-11.855469-.046875-.03125-.09375-.058594-.144531-.089844l-17.550781-10.414062c-11.78125-6.972656-17.074219-20.964844-12.875-34.03125l6.289062-19.539062c1.574219-4.769532.964844-9.992188-1.703125-14.394532l-10.785156-17.488281c-7.171875-11.671875-5.375-26.535156 4.375-36.132813zm0 0"/><path d="m205.984375 346c77.195313 0 140-62.804688 140-140s-62.804687-140-140-140c-27.679687 0-54.425781 8.074219-77.335937 23.351562-4.597657 3.0625-5.839844 9.269532-2.773438 13.867188 3.0625 4.59375 9.269531 5.835938 13.867188 2.769531 19.613281-13.074219 42.523437-19.988281 66.242187-19.988281 66.167969 0 120 53.832031 120 120s-53.832031 120-120 120-120-53.832031-120-120c0-16.835938 3.867187-33.394531 7.699219-42.339844 2.175781-5.078125-.175782-10.957031-5.25-13.132812-5.074219-2.175782-10.957032.179687-13.132813 5.253906-5.660156 13.207031-9.316406 32.921875-9.316406 50.21875 0 77.195312 62.800781 140 140 140zm0 0"/></svg>